<svg xmlns="http://www.w3.org/2000/svg" xmlns:xlink="http://www.w3.org/1999/xlink" viewBox="0 0 190 140"><defs><style>.a,.b{fill:none;}.b{clip-rule:evenodd;}.c{fill:#f0f2df;}.d{fill:#ffc298;}.e{fill:#f2a572;}.f{fill:#cc814f;}.g{fill:#252733;}.h{fill:#fff;}.i{clip-path:url(#a);}.j{isolation:isolate;}.k{clip-path:url(#b);}.l{clip-path:url(#c);}.m{clip-path:url(#d);}.n{fill:#f8941c;}.o{clip-path:url(#e);}.p{clip-path:url(#f);}.q{fill:#00953f;}</style><clipPath id="a"><rect class="a" x="90.87" y="43.13" width="11.24" height="17.42" transform="translate(44.52 148.27) rotate(-89.92)"/></clipPath><clipPath id="b"><rect class="a" x="90.93" y="42.52" width="11.62" height="18.37" transform="translate(44.91 148.37) rotate(-89.92)"/></clipPath><clipPath id="c"><path class="b" d="M103.65,54.73a.59.59,0,0,1,0-.08,2.34,2.34,0,0,0-3.77-.77c-.92.88-1.81,1.77-2.71,2.65l-.65.64-.07.06-.07-.08c-.21-.2-.4-.41-.62-.6a2.35,2.35,0,0,0-3.66.82l0,.09s0,0-.06-.05c-.94-.94-1.89-1.87-2.82-2.83a4.71,4.71,0,0,1-1.32-2.78,4.81,4.81,0,0,1,1-3.7A4.76,4.76,0,0,1,92,46.28a4.86,4.86,0,0,1,4.09,1.21c.13.11.25.24.37.36l.08.07a4.93,4.93,0,0,1,4.75-1.59,4.74,4.74,0,0,1,3.14,2.12,4.89,4.89,0,0,1-.74,6.28"/></clipPath><clipPath id="d"><rect class="a" x="90.78" y="43.09" width="11.34" height="17.51" transform="translate(44.48 148.23) rotate(-89.92)"/></clipPath><clipPath id="e"><path class="b" d="M96.42,61.88l-.08-.07L93.54,59a.93.93,0,0,1-.15-1.14,1,1,0,0,1,1.42-.24l.22.21,1.29,1.3.07.09.1-.09,3.33-3.26,1-.94a.94.94,0,0,1,1.54.29.92.92,0,0,1-.23,1.05l-1.88,1.84-3.28,3.22c-.18.18-.34.36-.51.55"/></clipPath><clipPath id="f"><rect class="a" x="48.65" y="36.28" width="95.71" height="53.81" transform="translate(33.2 159.61) rotate(-89.92)"/></clipPath></defs><rect class="c" width="190" height="140" rx="12.58"/><path class="d" d="M116.89,56l-11.17,6.13a3.63,3.63,0,0,1-3.5-6.36,4.1,4.1,0,0,1,.48-.21L114.62,51A2.72,2.72,0,0,1,116.89,56Z"/><path class="d" d="M116.3,66.44l-10.68,3a3.58,3.58,0,0,1-1.93-6.9,5.12,5.12,0,0,1,.54-.1l11-1.31a2.72,2.72,0,0,1,1,5.32Z"/><path class="d" d="M115.12,74.15l-7-1.16,2.57-.46-4.28,2.29a2.73,2.73,0,0,1-3.05-4.49l3.7-3.1a2.57,2.57,0,0,1,2.44-.5h.11l6.75,2.14a2.71,2.71,0,0,1-1.26,5.26Z"/><path class="d" d="M114.9,81.94l-10.79,1.54a3.2,3.2,0,1,1-.9-6.34h.28l10.9-.56a2.71,2.71,0,0,1,.51,5.36Z"/><path class="e" d="M79.7,59.49s-7,6.08-9.09,10.38-4.19,33-4.19,33l15.74,9.28a36.27,36.27,0,0,1,4.19-8.23c2.63-3.67,10.47-6.2,12.42-10.71s-2.45-27.66-2.36-28.34S79.7,59.49,79.7,59.49Z"/><path class="f" d="M79.59,64.87s-5.3,6.5-5,10.88a22,22,0,0,0,1.94,7.52l5.23-10Z"/><path class="f" d="M85.58,85.29s-.35,9-3.74,12.37c-2.85,3,2.74,11.15.23,14.49l.1,0A36.2,36.2,0,0,1,86.36,104c2.63-3.68,10.47-6.21,12.43-10.72.65-1.53.58-5.22.19-9.44l-6.28.56Z"/><path class="g" d="M114.52,28.35V88.66c0,2.92-2,5.28-4.35,5.28H84c-2.4,0-4.34-2.36-4.34-5.28V28.35c0-2.92,1.94-5.29,4.34-5.29h26.15C112.57,23.06,114.52,25.43,114.52,28.35Z"/><rect class="h" x="81.41" y="31.54" width="31.29" height="55.74" rx="0.91"/><g class="i"><g class="j"><g class="k"><g class="l"><g class="m"><rect class="n" x="90.15" y="42.42" width="12.68" height="18.86" transform="translate(44.52 148.27) rotate(-89.92)"/></g></g></g></g></g><g class="o"><g class="p"><rect class="q" x="93.49" y="52.98" width="8.67" height="10.57" transform="translate(39.44 156.01) rotate(-89.92)"/></g></g><path class="e" d="M98.58,72.21,96.05,73l-2.54.7c-1.7.46-3.42.9-5.15,1.3h0l2-.82a17.53,17.53,0,0,0-3.76,7.44,86.62,86.62,0,0,0-1.92,9.83A7.41,7.41,0,0,1,70,89.14a8.11,8.11,0,0,1,.58-1.93,99.89,99.89,0,0,1,5.32-10.47A33.88,33.88,0,0,1,79.8,71.5a23.08,23.08,0,0,1,5.29-4.36l.89-.53a2.2,2.2,0,0,1,1.09-.29h0c1.65-.09,3.31-.22,5-.37l2.5-.21L97,65.45h.14a3.49,3.49,0,0,1,1.44,6.81Z"/><rect class="a" x="44.38" y="29.43" width="89.38" height="89.38"/><polyline class="e" points="66.42 102.87 53.15 140.09 79.49 140.09 82.17 112.18"/></svg>