<svg xmlns="http://www.w3.org/2000/svg" xmlns:xlink="http://www.w3.org/1999/xlink" viewBox="0 0 190 140"><defs><style>.a{fill:#f0f2df;}.b,.f,.g{fill:none;}.c{clip-path:url(#a);}.d{fill:#d6d9bf;}.e{fill:#e5e8ce;}.f{stroke:#d6d9bf;}.f,.g,.k{stroke-miterlimit:10;}.f,.g{stroke-width:2px;}.g{stroke:#fff;stroke-linecap:round;}.h{clip-path:url(#b);}.i{fill:#f2a572;}.j{fill:#39b3da;}.k{fill:#fff;stroke:#39b3da;}.l{fill:#cf804b;}.m{fill:#2b99ce;}</style><clipPath id="a"><rect class="a" width="190" height="140" rx="12.58"/></clipPath><clipPath id="b"><rect class="b" width="190" height="140" rx="12.58"/></clipPath></defs><rect class="a" width="190" height="140" rx="12.58"/><g class="c"><rect class="a" width="190" height="140" rx="12.58"/></g><rect class="d" x="108.39" y="41.99" width="59.85" height="49.38" rx="11.03"/><path class="e" d="M108.39,55.32V49.57A7.58,7.58,0,0,1,116,42h44.68a7.58,7.58,0,0,1,7.58,7.58v5.75"/><path class="f" d="M122.45,48.86a6.5,6.5,0,1,1,6.5-6.5"/><circle class="d" cx="122.22" cy="48.96" r="2.35"/><path class="f" d="M151,48.86a6.5,6.5,0,1,1,6.5-6.5"/><circle class="d" cx="150.79" cy="48.96" r="2.35"/><polyline class="g" points="118.75 65.18 120.78 67.22 125.91 62.09"/><polyline class="g" points="135.13 65.18 137.16 67.22 142.29 62.09"/><polyline class="g" points="151.51 65.18 153.54 67.22 158.67 62.09"/><polyline class="g" points="118.75 78.41 120.78 80.44 125.91 75.32"/><circle class="e" cx="138.62" cy="77.37" r="4.85"/><circle class="e" cx="154.31" cy="77.37" r="4.85"/><g class="h"><path class="i" d="M65.79,52c1.94,3,2.74,2.7,1.94,3a3.61,3.61,0,0,0-1.61,4.37c.93,2-3.76,2-4,1.86s4.61-5.46-.06-9.6c0,0-6.35,7.27-8.15,10.24-1.08,1.79-2.91,3.38-3.77,5.29-1.22,2.71-1.71,3.64-2.43,5.18-3.83,8.23-17.54,33.21-19,49.13L28.41,123a25.31,25.31,0,0,0,8.4,22.94l42.47-3.19s-18.74-11.88-24.1-13.87c-3.47-1.28-1.82-1.46.24-24.61,2.09-23.41,1.08-22.91,1.08-22.91s6-3.88,9-3.22,7.18,1.4,9.13-1.48-.2-4.06-.62-4.44,5.54-1.52,1.8-5.54c0,0,4.76-2.26,1.29-5.47s-3.16-2.14-2.52-2.9"/><rect class="j" x="62.4" y="36.09" width="6.64" height="31.74" rx="3.32" transform="translate(10.98 -11.47) rotate(10.88)"/><rect class="k" x="66.28" y="24.83" width="1.77" height="39.2" rx="0.88" transform="translate(124.75 100.74) rotate(-169.12)"/><path class="l" d="M68.5,63.14c2.31,2.63,7.26,3.49,7.26,3.49"/><path class="l" d="M73.84,72.37a10.78,10.78,0,0,1-6.71-1.51"/><path class="l" d="M62.08,61.19S58,64.07,58.76,68.35s2,4.55-3.06,14.46l2.15-2.24,7.6-2.48.9.25a11.51,11.51,0,0,0,6.4,0l.35-.11s-7.38-1.7-6.61-4.45L67.25,71S65,68.79,66,67s-1.84-1.84-1.84-1.84S61.07,65.42,62.08,61.19Z"/><path class="m" d="M62.39,51.93s2.86.87,1.86,4.51-2.17,4.75-2.17,4.75Z"/><path class="i" d="M54.54,61.1,62,51.61s4.18,1.83.38,8.89-6.91,4.66-6.91,4.66Z"/><path class="i" d="M67.25,70.66a4.09,4.09,0,0,1-3.71-3.22c-.71-2.24,1.64-6,3.92-5.08S67.25,70.66,67.25,70.66Z"/><rect class="i" x="67.99" y="56.66" width="5.9" height="10.57" rx="2.95" transform="translate(-9.47 110.97) rotate(-72.5)"/><rect class="i" x="68.6" y="50.85" width="5.9" height="10.57" rx="2.95" transform="translate(-3.5 107.49) rotate(-72.5)"/><path class="l" d="M74.91,59.77a10.77,10.77,0,0,1-6.71-1.51"/><path class="l" d="M73,65.54A10.78,10.78,0,0,1,66.59,63"/><path class="l" d="M74.91,59.77a10.77,10.77,0,0,1-6.71-1.51"/></g></svg>