<svg xmlns="http://www.w3.org/2000/svg" xmlns:xlink="http://www.w3.org/1999/xlink" viewBox="0 0 190 140"><defs><style>.cls-1,.cls-13,.cls-27,.cls-35,.cls-36{fill:none;}.cls-2{isolation:isolate;}.cls-3{fill:#f0f2df;}.cls-4{clip-path:url(#clip-path);}.cls-5{clip-path:url(#clip-path-2);}.cls-6{fill:#cf804b;}.cls-7{fill:#e5e8ce;}.cls-8{clip-path:url(#clip-path-3);}.cls-9{fill:#fff;}.cls-10{fill:#fca197;}.cls-11{fill:#d68c81;}.cls-12,.cls-25{fill:#ba6759;}.cls-13{stroke:#fff;}.cls-13,.cls-27,.cls-35,.cls-36,.cls-39,.cls-41{stroke-miterlimit:10;}.cls-13,.cls-35,.cls-36{stroke-width:0.24px;}.cls-14{fill:#70703a;}.cls-15{fill:#f5f5f6;}.cls-16{fill:#db806e;}.cls-17,.cls-32{fill:#332938;}.cls-18{opacity:0.3;}.cls-18,.cls-25,.cls-32{mix-blend-mode:multiply;}.cls-19{fill:#592938;opacity:0.59;}.cls-20{fill:#fbd5a2;}.cls-21{fill:#fbd6a2;}.cls-22{fill:#92924c;}.cls-23{fill:#cccc3e;}.cls-24{fill:#ce325b;}.cls-25{opacity:0.2;}.cls-26{fill:#5ec5b9;}.cls-27{stroke:#2d6e68;stroke-linecap:round;stroke-width:1.19px;}.cls-27,.cls-28{opacity:0.5;}.cls-29,.cls-39{fill:#ccc;}.cls-30{fill:#caccac;}.cls-31,.cls-41{fill:#b3b3b3;}.cls-32{opacity:0.4;}.cls-33{fill:#f2f2f2;}.cls-34{fill:#605a63;}.cls-35{stroke:#ba6759;}.cls-36{stroke:#666;}.cls-37{fill:#515327;}.cls-38{fill:#999;}.cls-39{stroke:#f2f2f2;stroke-width:0.91px;}.cls-40{fill:#e6e6e6;}.cls-41{stroke:#e6e6e6;stroke-width:0.6px;}.cls-42{fill:#e44450;}</style><clipPath id="clip-path"><rect class="cls-1" width="190" height="140" rx="0.34"/></clipPath><clipPath id="clip-path-2"><rect class="cls-1" width="190" height="140" rx="19.73"/></clipPath><clipPath id="clip-path-3"><rect class="cls-1" x="31.75" y="26.37" width="130.34" height="114.13"/></clipPath></defs><g class="cls-2"><g id="Layer_2" data-name="Layer 2"><g id="Layer_1-2" data-name="Layer 1"><rect class="cls-3" width="190" height="140"/><g class="cls-4"><g class="cls-5"><path class="cls-6" d="M159.64,281.2a2.62,2.62,0,0,1,2.48,3.12l-1.41,7.2s-.18.73,1,4.18,1.73,4.55-3,4.55h-21a2.63,2.63,0,0,1-.37-5.23l.33,0c11.08-1.46,10.36-3.09,10.36-3.09l.84-8.61a2.63,2.63,0,0,1,2.71-2.37Z"/><rect class="cls-3" width="190" height="140"/></g><rect class="cls-7" x="98.07" y="22.29" width="54.4" height="120.89"/><g class="cls-8"><path class="cls-9" d="M98.61,94.79a2.39,2.39,0,1,1-2.39-2.6A2.5,2.5,0,0,1,98.61,94.79Z"/><path class="cls-10" d="M91.69,108.54a2.43,2.43,0,0,1,1.41.66c.22.18.32.64.47.89.26.53.11.83-.37,1,.26.32,0,.83-.6.81-1.07,0-11-.5-13.06-2-1.58-1.19,5-2.85,5-2.85S88.75,108.7,91.69,108.54Z"/><path class="cls-11" d="M89.38,110.88a15.38,15.38,0,0,1,1.92,0,13.63,13.63,0,0,1,1.9.21,15.24,15.24,0,0,1-1.91,0A13.61,13.61,0,0,1,89.38,110.88Z"/><path class="cls-12" d="M89.42,110a18.23,18.23,0,0,0,4.1.25,4.7,4.7,0,0,1-2.07.22A7,7,0,0,1,89.42,110Z"/><path class="cls-12" d="M88.92,109a26.39,26.39,0,0,0,4.26.09,5.74,5.74,0,0,1-2.14.28A8.42,8.42,0,0,1,88.92,109Z"/><path class="cls-13" d="M88.92,109a11,11,0,0,0,4.33.26"/><path class="cls-10" d="M92.5,109.17a14.69,14.69,0,0,1-2.21.18,7.08,7.08,0,0,1-4.18-1.92,1.72,1.72,0,0,1-.09-2.25,11.81,11.81,0,0,0,.84-1.3s.21-1.17-.3-1.39a9.75,9.75,0,0,1-1.14,1.64A12.49,12.49,0,0,1,82.91,106a3.85,3.85,0,0,1-1.79.25h0L64.6,99.88a55.1,55.1,0,0,1-3.24,6.77c3.58.63,14.35,3.15,18.17,3.58h0l1.46.16v0a19.89,19.89,0,0,0,2.16,0,25.49,25.49,0,0,0,5.45.43c2.47-.2,4.82-.19,4.82-.19S93.32,109,92.5,109.17Z"/><path class="cls-11" d="M89.42,109.87a20.33,20.33,0,0,0,4.33.26,5.05,5.05,0,0,1-2.19.22A8.2,8.2,0,0,1,89.42,109.87Z"/><polygon class="cls-14" points="69.03 140.84 67.5 121.42 63.4 121.42 51.75 138.68 51.6 140.84 69.03 140.84"/><rect class="cls-15" x="162.9" y="63" width="13.56" height="6.36"/><rect class="cls-15" x="162.9" y="78.57" width="13.56" height="6.36"/><rect class="cls-15" x="171.78" y="55.63" width="4.35" height="6.36"/><rect class="cls-15" x="162.9" y="47.43" width="13.56" height="6.36"/><path class="cls-16" d="M112.41,97.32a17.6,17.6,0,0,1-2.34-.59,8.74,8.74,0,0,0-4.34-1c-2.28.11-2.11,8-2.23,8s4.81,1.87,8.94-.69S112.41,97.32,112.41,97.32Z"/><polyline class="cls-10" points="67.82 81.58 68.16 104.68 63.92 103.38 61.82 95.47"/><ellipse class="cls-17" cx="48.44" cy="74.38" rx="7.75" ry="12.31"/><path class="cls-10" d="M48.48,71.26s-1.83,3.42-5.39,3.42,1,8.26,1,8.26l5.63,3.63s11.17-3.16,11.23-3.82-.6-8.15-.6-8.15-3.94.35-3.94-2.26S48.48,71.26,48.48,71.26Z"/><circle class="cls-17" cx="54.5" cy="54.86" r="10.45"/><rect class="cls-10" x="48.44" y="62" width="7.93" height="11.43"/><g class="cls-18"><path class="cls-17" d="M50.91,66.88a5.45,5.45,0,0,0,5.46,5.46v-7H50.91Z"/></g><path class="cls-10" d="M55.9,47.83a7.63,7.63,0,0,0-7.59,7.66l0,6.85c0,4.21,6.64,7.59,9.37,7.59,1.25,0,5.87-2.67,5.87-8.09l0-6.43A7.62,7.62,0,0,0,55.9,47.83Z"/><path class="cls-19" d="M59.91,62a.39.39,0,0,0-.39.39.42.42,0,0,1-.4.44h-.44a.39.39,0,0,0-.4.39.4.4,0,0,0,.4.39h.44a1.21,1.21,0,0,0,1.19-1.22A.39.39,0,0,0,59.91,62Z"/><rect class="cls-17" x="47.92" y="53.16" width="1.76" height="7.54"/><path class="cls-10" d="M47.2,57.57H47a1.2,1.2,0,0,0-1.2,1.22v2.76a1.54,1.54,0,0,0,1.54,1.54h1.14l0-4.3A1.22,1.22,0,0,0,47.2,57.57Z"/><path class="cls-17" d="M61.7,58.81c-.3,0-.55.33-.55.75s.25.75.55.75.55-.34.55-.75S62,58.81,61.7,58.81Z"/><path class="cls-17" d="M56.05,58.85c-.29,0-.52.32-.52.71s.23.71.52.71.51-.32.51-.71S56.33,58.85,56.05,58.85Z"/><path class="cls-17" d="M57.12,46.18c-6.2-6-12.39,7.49-8.28,9C48.84,55.2,63.32,52.15,57.12,46.18Z"/><path class="cls-17" d="M58,47.08s2.24,6.37,5.82,7.59C66.35,55.53,59.61,44,58,47.08Z"/><path class="cls-20" d="M47.09,62.11a1.39,1.39,0,1,0,1.39,1.39A1.39,1.39,0,0,0,47.09,62.11Z"/><path class="cls-9" d="M47,64.5a.59.59,0,0,0,0,1.18.59.59,0,0,0,0-1.18Z"/><path class="cls-21" d="M42.94,74.68s-.69,8.95,12.1,8.15c2.37-.15,6.26-2.08,7.14-8A7,7,0,0,1,67.32,81a124.09,124.09,0,0,1-.09,13.79l.11,4.81L66.05,110.2l-27-.65.17-19.67-3.32-7.16V78S37.74,75.17,42.94,74.68Z"/><path class="cls-21" d="M68.16,80.41s.33,5.86.33,14.73L62.3,99.83l-1-6.18Z"/><polygon class="cls-16" points="66.05 110.2 67.33 121.42 63.4 121.42 63.68 110.2 66.05 110.2"/><path class="cls-21" d="M61.72,140.84l4.91-62.25S65.32,75,62.21,74.84c0,0-5.22,14.67-22.78,26.82l-2.14,39.18Z"/><path class="cls-22" d="M62.09,140.84,65.72,105A17.76,17.76,0,0,0,68,101c2-4.48.29-5.28-.27-8.45a29.71,29.71,0,0,1-.38-3.72l.86-8.45s-2.92-5.85-6-5.58l-2.51-.32s-2.51,9.62-6.8,15.07a71.15,71.15,0,0,1-13.47,12.07l-2.14,39.18Z"/><path class="cls-23" d="M68.21,100.56a34.53,34.53,0,0,0-3.73,5.07c-1.57,2.68-2.81,8.82-3.05,11.38s-.52,5.53-.52,5.53l3.4.61s2.41-4.8,2.32-5.36,0-8.53,0-8.53,0-4.31.1-4.72S67,101.86,68.21,100.56Z"/><path class="cls-17" d="M60.21,57.33c-.13,0-.26-.14-.32-.26a.44.44,0,0,1,.14-.64,6.62,6.62,0,0,1,3.8-.3.34.34,0,0,1,.22.42.33.33,0,0,1-.41.23,5.18,5.18,0,0,0-3.27.51A.42.42,0,0,1,60.21,57.33Z"/><path class="cls-17" d="M57.92,57.33a3,3,0,0,1-.46-.19,5.56,5.56,0,0,0-4.34-.38.33.33,0,0,1-.44-.17.33.33,0,0,1,.17-.44c2.32-1,5.19.17,5.3.24.29.12.25.49.17.66A.44.44,0,0,1,57.92,57.33Z"/><path class="cls-24" d="M57.69,64.86a3.1,3.1,0,0,0,2.8.5h0a.48.48,0,0,1,.55.2c.06.18-.11.41-.4.47a3.7,3.7,0,0,1-3.32-.59h0c-.25-.16-.33-.44-.21-.58A.45.45,0,0,1,57.69,64.86Z"/><path class="cls-25" d="M41.11,86.8s3.2,11,1.27,13.19-3,1.67-3,1.67l1.68-15.09"/><path class="cls-17" d="M49.68,57.45s-.09-2.18,1.23-2.79-.2-1.24-.27-1.27a14.87,14.87,0,0,0-1.38.86Z"/><path class="cls-26" d="M91.14,122.37a1.75,1.75,0,0,0,.62-1.32v-2a1.94,1.94,0,0,0-2.12-1.78H64.58A1.93,1.93,0,0,0,62.47,119v4.24c0,1,.94.84,2.11.84H90.85a1,1,0,0,0,1-.89A.91.91,0,0,0,91.14,122.37Z"/><path class="cls-27" d="M66.32,120.83H88.25s2.17.06,2.17-1.08S88,118.66,88,118.66l-21.63-.13c-1.17,0-2.85.18-2.85,2.19S65,122.84,65,122.84H89.75"/><path class="cls-9" d="M63.22,115.42a1.72,1.72,0,0,1-.59-1.32v-2a2,2,0,0,1,2.05-1.88H89.74a2.08,2.08,0,0,1,2.19,1.88v4.24c0,1-1,.92-2.19.92H63.64l-.16,0a1,1,0,0,1-1-.92A1,1,0,0,1,63.22,115.42Z"/><g class="cls-28"><path class="cls-29" d="M89.36,116.4H64.64a.42.42,0,0,1,0-.84H89.33c.15,0,1.11-.19,1.11-1.75,0-1.28-.73-1.82-2.43-1.82l-21.63.12a3.49,3.49,0,0,0-2,.43.28.28,0,0,0-.1.22.34.34,0,0,0,.12.26,2.81,2.81,0,0,0,1.62.37h22a.41.41,0,0,1,.42.41.42.42,0,0,1-.42.42h-22a3.46,3.46,0,0,1-2.23-.6,1.14,1.14,0,0,1-.37-.86,1.16,1.16,0,0,1,.35-.83,4.17,4.17,0,0,1,2.55-.65L88,111.15c2.16,0,3.26.89,3.26,2.66,0,1.94-1.24,2.54-1.89,2.59Z"/></g><path class="cls-21" d="M43.09,74.68S32.53,75.72,31,85.79L29.91,96.51,40,98.92l1.76-9.44Z"/><path class="cls-10" d="M69.7,123.85a17.48,17.48,0,0,1-2.68-.34,8.61,8.61,0,0,1-4.49-3.36,2.09,2.09,0,0,1,.47-2.7,13.06,13.06,0,0,0,1.33-1.34s.56-1.34,0-1.72a12.16,12.16,0,0,1-1.77,1.66,15.64,15.64,0,0,1-3.48,1.6,4.54,4.54,0,0,1-2.2-.16h0l-17.77-10.1L40,98.92,29.91,96.51l-.82,11.38a6.52,6.52,0,0,0,4.43,6.73c4.11,1.67,16,5.7,20.47,7.18h0l1.69.57,0-.07a22.25,22.25,0,0,0,2.58.51,30.23,30.23,0,0,0,6.38,1.91,22.67,22.67,0,0,0,5.61,0S70.72,123.85,69.7,123.85Z"/><path class="cls-23" d="M61.27,76.92l.56-2.13-2.13-.27h0s-2.51,9.62-6.8,15.07C49.55,93.49,45.69,95,40,98.92l-.49,4.9c.18-.13,2.42-1.25,2.6-1.38A62.94,62.94,0,0,0,54.55,91l.06-.07c3.39-4.31,5.68-10.85,6.66-14"/><path class="cls-23" d="M66.63,77.88l.87,13.3.71-10.76s-.52-1-.71-1.25S66.63,77.88,66.63,77.88Z"/><polygon class="cls-23" points="62.13 140.84 59.12 140.84 60.91 123.79 63.74 124.57 62.13 140.84"/><path class="cls-9" d="M53.09,83.32c-3.56,0-6.27-.93-8.09-2.77a8.26,8.26,0,0,1-2.33-5.84l.83,0A7.85,7.85,0,0,0,45.6,80c1.81,1.82,4.64,2.65,8.42,2.49a15.63,15.63,0,0,0,3.1-.58l-.34,1a10.34,10.34,0,0,1-2.7.46h0Z"/><polygon class="cls-9" points="39.93 99.35 29.88 96.94 29.95 96.09 40.05 98.51 39.93 99.35"/><polygon class="cls-9" points="40.27 97.3 30.07 94.9 30.16 94.06 40.43 96.47 40.27 97.3"/><path class="cls-16" d="M115.41,85.28l6.38,16-16.41-3.51-2.68,4.85,20,7.12a4.13,4.13,0,0,0,5.65-2.55c.08-.29.16-.61.23-.94.95-4.74-1.87-22.45-1.87-22.45Z"/><path class="cls-30" d="M120.45,90.4l-3.69,1.73s-4.39-11.77-4-15.09c.23-2,.59-4,5.27-6.13C119.43,75.05,120.3,91,120.45,90.4Z"/><polygon class="cls-30" points="116.39 75.42 117.77 91.79 120.13 90.4 116.39 75.42"/><polygon class="cls-31" points="159.07 131.87 161.02 143.03 124.85 143.18 125.69 134.07 159.07 131.87"/><polygon class="cls-16" points="117.64 68.19 118.38 70.67 121.46 78.67 127.5 81.78 133.07 70.93 131.71 69.2 129.81 61.23 117.64 68.19"/><path class="cls-32" d="M117.78,68.65l.6,2s6.17,1.44,8.64-3.78a10.7,10.7,0,0,0-2.31-1.1Z"/><path class="cls-9" d="M117.54,45.53c-1.44-.1-4,2-4.15,3.5L113,52.71a6.13,6.13,0,0,0,5.51,6.67l.75-10.52C119.42,46.93,119.39,45.66,117.54,45.53Z"/><path class="cls-16" d="M130.13,51.33l0,3.46h-.38l.07,10.64a14.23,14.23,0,0,1-10.58,3.76c-3.12-.3-5.5-4.48-5.51-7.61l-.06-10.2s1.37-6.53,8.14-6.55C126.29,44.82,130.11,46.71,130.13,51.33Z"/><path class="cls-9" d="M127.94,46.27a2.62,2.62,0,0,0-2.61,2.63l0,4.79a6,6,0,0,0,6,5.94L133,51.87C133,50,129.79,46.26,127.94,46.27Z"/><path class="cls-16" d="M130.37,54.26a1.79,1.79,0,0,0-1.78,1.79l0,5.19h1.78a1.59,1.59,0,0,0,1.74-1.57l0-3.64A1.76,1.76,0,0,0,130.37,54.26Z"/><path class="cls-16" d="M115.36,63.72a2.1,2.1,0,0,0,2.11,2.1h.76a2.1,2.1,0,0,0,2.1-2.12V61.93l-5,0Z"/><path class="cls-9" d="M116.35,64.46s1.36,2.09,3.09,0a15.37,15.37,0,0,1-1.73.21A7.86,7.86,0,0,1,116.35,64.46Z"/><path class="cls-12" d="M117.82,64.07a2.35,2.35,0,0,0,2.51-2.13l-5,0A2.35,2.35,0,0,0,117.82,64.07Z"/><path class="cls-17" d="M120.93,55.55c-.52,0-.94.3-.94.67s.43.67,1,.67.94-.3.94-.67S121.45,55.55,120.93,55.55Z"/><path class="cls-17" d="M114.92,55.57a.73.73,0,0,0-.76.68.72.72,0,0,0,.76.67.68.68,0,1,0,0-1.35Z"/><path class="cls-9" d="M123,53.13a27.58,27.58,0,0,0-4.52-.09v1.33l4-.17c1.16-.06,1.45.34,1.45.34S123.93,53.39,123,53.13Z"/><polygon class="cls-33" points="118.08 53.04 118.49 54.33 118.39 53.03 118.08 53.04"/><path class="cls-9" d="M113.69,53.12V54.4c1.17.05,2.47.06,2.47.06V53.12Z"/><polygon class="cls-33" points="116.17 54.42 116.57 53.12 116.32 53.12 116.17 54.42"/><polygon class="cls-9" points="117.61 61.95 121.39 62.33 121.39 61.63 117.61 60.69 117.61 61.95"/><polygon class="cls-9" points="114.45 62.35 117.06 61.95 117.06 60.7 114.44 61.66 114.45 62.35"/><path class="cls-32" d="M117.79,59.75h-.92a.31.31,0,0,1-.3-.33.3.3,0,0,0-.3-.29.29.29,0,0,0-.29.29.89.89,0,0,0,.89.91h.92a.29.29,0,0,0,.3-.3A.3.3,0,0,0,117.79,59.75Z"/><path class="cls-30" d="M131.6,68.73s16.3-2.1,20.48,20.69,7.78,42.08,7.78,42.08-19.64,5.64-34.87,2.37c.19-.93,2.7-20.79.07-29.68s-9.35-16.1-9.59-30.75c0,0,.36-1.12,3-2.8,0,0,3.51,6.81,5.6,7.77C124,78.41,128.16,76.4,131.6,68.73Z"/><path class="cls-30" d="M147,82.49s3.51,29.38-5.08,37.12-16.25,5.28-16.25,5.28c0-.47,13.88-15.75,13.88-16.12S147,82.49,147,82.49Z"/><path class="cls-16" d="M145,93.28l-2.15,18.16a11.2,11.2,0,0,1-3.34,5.49C136.8,119.44,117,129.7,117,129.7l-3.19-4.09L134,110.26l.15-17.56Z"/><path class="cls-30" d="M137.31,74.32s-3.85-.31-4,10.45l-.11,7.86,13,.71S147,84.81,147,82C147,78.13,146.2,71.08,137.31,74.32Z"/><polygon class="cls-34" points="129.6 55.04 125.07 55.06 124.49 54.36 130.54 54.34 129.6 55.04"/><path class="cls-34" d="M120.59,53.55h2.86a1.81,1.81,0,0,1,1.81,1.79v1.74a1.79,1.79,0,0,1-1.79,1.81h-1.42a3.24,3.24,0,0,1-3.25-3.23v-.3A1.81,1.81,0,0,1,120.59,53.55Zm-1.27,2.11a2.72,2.72,0,0,0,2.73,2.7h1.42a1.27,1.27,0,0,0,1.27-1.27V55.33a1.27,1.27,0,0,0-1.28-1.26h-2.86a1.28,1.28,0,0,0-1.27,1.28Z"/><path class="cls-34" d="M119.31,54.75l-.35.51c-.41-.66-.81-.59-1.14,0l-.36-.5A1.06,1.06,0,0,1,119.31,54.75Z"/><path class="cls-34" d="M114.6,53.58h1.78a1.6,1.6,0,0,1,1.6,1.59v.91a2.86,2.86,0,0,1-2.83,2.85h-.54a1.6,1.6,0,0,1-1.6-1.59V55.18A1.6,1.6,0,0,1,114.6,53.58Zm-1,3.75a1.06,1.06,0,0,0,1.07,1.06h.54a2.32,2.32,0,0,0,2.3-2.32v-.91a1.06,1.06,0,0,0-1.07-1.06H114.6a1.07,1.07,0,0,0-1.06,1.07Z"/><line class="cls-35" x1="115.58" y1="52.07" x2="121.61" y2="52.05"/><line class="cls-35" x1="115.58" y1="51.4" x2="121.61" y2="51.38"/><polygon class="cls-31" points="153.79 121.97 156.81 132.27 154.51 133.26 153.79 121.97"/><path class="cls-36" d="M137.31,74.32s-3.85-.31-4,10.45l-.11,7.86"/><path class="cls-16" d="M114.27,125.58a8.11,8.11,0,0,0-3.62,0,25.1,25.1,0,0,0-4.14,1.28,15.35,15.35,0,0,1-3.61.53s-.45,1.3,1.58,1.15a9.21,9.21,0,0,1,2.63,0l1.45.34s-.39.91-3,1.21a15.25,15.25,0,0,1-5.79-.84s-.79,1.22,1.09,1.82c0,0,2.7,4,7.06,3.57,4.68-.44,5.27-1.57,9.14-5C117.86,128.92,114.27,125.58,114.27,125.58Z"/><path class="cls-35" d="M100.83,131.08a38.92,38.92,0,0,0,4.29.66c.62,0,3-.33,3-.33"/><path class="cls-35" d="M102.25,132.62a9.68,9.68,0,0,0,6.37,0"/><polygon class="cls-37" points="63.77 124.57 62.13 140.84 63.81 140.84 64.27 124.67 63.77 124.57"/><ellipse class="cls-38" cx="97.54" cy="102.78" rx="14.98" ry="8.09"/><ellipse class="cls-39" cx="97.2" cy="100.58" rx="16.15" ry="9.46"/><ellipse class="cls-33" cx="97.2" cy="100.58" rx="14.65" ry="8.28"/><path class="cls-40" d="M97.2,94.65c7,0,12.79,3.09,13.28,7a4.89,4.89,0,0,0,0-.54c0-4.15-6-7.52-13.31-7.52S83.89,97,83.89,101.11a4.9,4.9,0,0,0,0,.54C84.41,97.74,90.17,94.65,97.2,94.65Z"/><path class="cls-29" d="M94.5,106.35h2.69a3.24,3.24,0,0,0,2.52-2.95c0-1.75-1.73-3.17-3.86-3.17S92,101.65,92,103.4A3.24,3.24,0,0,0,94.5,106.35Z"/><path class="cls-41" d="M99.32,102c0,1-1.56,1.73-3.47,1.73s-3.47-.78-3.47-1.73,1.55-1.74,3.47-1.74S99.32,101,99.32,102Z"/><path class="cls-29" d="M95.85,101c1.43,0,2.6.47,2.76,1.08a.79.79,0,0,0,0-.13c0-.67-1.25-1.21-2.79-1.21s-2.79.54-2.79,1.21a.79.79,0,0,0,0,.13C93.24,101.49,94.41,101,95.85,101Z"/><path class="cls-33" d="M97,106.15a3.16,3.16,0,0,0,2-2.61l-.33.15C98.67,105,97,106.15,97,106.15Z"/><path class="cls-40" d="M105,101.86s0,.09,0,.09l-.25.43-7.49-4.64.13-.22,7.57,4.26A.32.32,0,0,1,105,101.86Z"/><ellipse class="cls-40" cx="97.3" cy="97.68" rx="1.2" ry="1.98" transform="matrix(0.51, -0.86, 0.86, 0.51, -36.3, 131.75)"/><path class="cls-29" d="M97.83,96.68c.94.56,1.43,1.47,1.1,2s-1.38.58-2.32,0-1.43-1.47-1.1-2S96.88,96.12,97.83,96.68Z"/><path class="cls-40" d="M96,96.68a2.48,2.48,0,0,1,1.65.33c1,.63,1.08,1.28,1.08,1.28A2.22,2.22,0,0,0,96,96.68Z"/><path class="cls-29" d="M105,101.91a.27.27,0,0,1,0,.13l-.19.32s0,0-.06,0a.08.08,0,0,1-.07,0l-7.4-4.58.13-.23,7.55,4.26A.14.14,0,0,1,105,101.91Z"/><polygon class="cls-40" points="99 98.6 104.96 102.04 104.91 102.13 98.98 98.64 99 98.6"/><path class="cls-10" d="M85.74,107.48a4.69,4.69,0,0,0-.07-.92,1.82,1.82,0,0,1,.35-1.38,11.81,11.81,0,0,0,.84-1.3s.21-1.17-.3-1.39a9.75,9.75,0,0,1-1.14,1.64,25.87,25.87,0,0,1-3.37,2.22c.73.55,2.67,2.18,3.68,2.18A7.34,7.34,0,0,0,85.74,107.48Z"/><path class="cls-11" d="M85.73,107.53a1.37,1.37,0,0,1-.06.87,1.17,1.17,0,0,1-.24.38.87.87,0,0,1-.36.25A5.61,5.61,0,0,0,85.73,107.53Z"/><path class="cls-31" d="M90.76,101h0Z"/><path class="cls-29" d="M87.74,90.43l.48,7.36.17,2.44a3.59,3.59,0,0,0,2.16.8H91a3.59,3.59,0,0,0,2.18-.81l.16-2.41.48-7.38Z"/><polygon class="cls-40" points="88.43 91.13 88.06 90.89 88.71 99.96 88.9 100.12 88.43 91.13"/><path class="cls-31" d="M93.8,90.42c0-.59-1.36-1.07-3-1.07s-3,.48-3,1.07,1.36,1.07,3,1.07a7.73,7.73,0,0,0,1.6-.16l.33-.09C93.36,91.05,93.8,90.75,93.8,90.42Z"/><path class="cls-38" d="M92.37,89.71v1.62l.33-.09,0-1.42Z"/></g></g><path class="cls-42" d="M88.91,15.67,75.74,38.43a2.53,2.53,0,0,0,2.16,3.78h26.34a2.49,2.49,0,0,0,2.17-3.78L93.23,15.67A2.47,2.47,0,0,0,88.91,15.67Z"/><polygon class="cls-9" points="93.44 22.29 92.08 32.35 90.13 32.35 88.71 22.29 93.44 22.29"/><circle class="cls-9" cx="91.07" cy="36.61" r="1.69"/></g></g></g></svg>