<svg xmlns="http://www.w3.org/2000/svg" viewBox="0 0 190 140"><defs><style>.a{fill:#f0f2df;}.b,.f{fill:#e44450;}.c{fill:#fff;}.d{fill:#39b3da;}.e{fill:#2b99ce;}.f{stroke:#e44450;stroke-miterlimit:10;stroke-width:8px;}.g{fill:none;}</style></defs><rect class="a" width="190" height="140" rx="19.73"/><path class="b" d="M110.32,33.44A22.32,22.32,0,0,0,90.07,68.07L86.33,79.22,99.41,76a21.69,21.69,0,0,0,9.22,2,22.3,22.3,0,0,0,1.69-44.54Z"/><circle class="c" cx="108.51" cy="55.8" r="16.82"/><path class="d" d="M97.11,89.87c-.19.44-.44.87-.62,1.31-.5,1.12-.94.93-2.31.93C88,92.18,72.32,76.54,72.51,70.44c.06-1.31-.19-1.75.93-2.31.62-.31,1.25-.56,1.87-.87.81-.43-3.8-22.36-4.67-22.3-6.1.19-12.46,4.86-12.46,17.2,0,16.94,23.73,44.28,44.29,44.28,11.64,0,16.44-5.67,17.12-11.4C119.78,93.86,97.61,88.88,97.11,89.87Z"/><path class="e" d="M119.35,94.92c.12,0,.18.06.31.12a14,14,0,0,0-.13-3.61c-.06-.5-.74-1-1.24-1.12-6-1.43-12-2.81-18.07-4.11a1.85,1.85,0,0,0-1.43.68c-.56.94-1.12,1.93-1.62,3C104.52,91.49,111.93,93.17,119.35,94.92Z"/><path class="e" d="M75.37,67.32,77.8,66a1.69,1.69,0,0,0,.69-1.44c-1.31-6-2.68-12-4.11-18.06-.13-.5-.63-1.18-1.12-1.24a11.42,11.42,0,0,0-2.93-.19Q72.94,56.11,75.37,67.32Z"/><line class="f" x1="99.79" y1="55.8" x2="117.23" y2="55.8"/><line class="f" x1="108.51" y1="64.52" x2="108.51" y2="47.08"/><rect class="g" x="54.94" y="29.64" width="79.72" height="79.72"/></svg>