<svg xmlns="http://www.w3.org/2000/svg" xmlns:xlink="http://www.w3.org/1999/xlink" viewBox="0 0 190 140"><defs><style>.cls-1{fill:none;}.cls-2{isolation:isolate;}.cls-3{clip-path:url(#clip-path);}.cls-4{fill:#f0f2df;}.cls-5{fill:#e5e8ce;}.cls-6{fill:#d6d9bf;}.cls-7{fill:#ecf8fa;}.cls-8{fill:#c78976;}.cls-9{fill:#cf804b;}.cls-10{fill:#ffe981;}.cls-11{fill:#f9b35c;}.cls-12{fill:#263138;}.cls-13{fill:#0c1c26;}.cls-14{fill:#fff1ad;}.cls-15{fill:#252733;}.cls-16,.cls-17{fill:#332938;}.cls-16{opacity:0.4;mix-blend-mode:multiply;}.cls-18{fill:#da806e;}.cls-19{fill:#fff;}.cls-20{fill:#e44450;}</style><clipPath id="clip-path" transform="translate(2.8 18.43)"><rect class="cls-1" width="190" height="140"/></clipPath></defs><g class="cls-2"><g id="Layer_2" data-name="Layer 2"><g id="Layer_1-2" data-name="Layer 1"><g class="cls-3"><rect class="cls-4" y="18.43" width="190" height="140"/><rect class="cls-5" x="80.44" y="52.88" width="140.65" height="105.64"/><rect class="cls-1" x="61.86" y="8.71" width="165.51" height="148.04"/><polygon class="cls-6" points="251.46 60.4 54.55 60.4 85.18 0 219.08 0 251.46 60.4"/><rect class="cls-7" x="136.36" y="74.91" width="41.62" height="94.8" rx="2.28"/><path class="cls-8" d="M94.57,103.12v0Z" transform="translate(2.8 18.43)"/><path class="cls-8" d="M94.57,103.2v0Z" transform="translate(2.8 18.43)"/><path class="cls-8" d="M94.55,103Z" transform="translate(2.8 18.43)"/><path class="cls-8" d="M94.56,103h0Z" transform="translate(2.8 18.43)"/><path class="cls-9" d="M116.53,139.23l.56,2.81a3,3,0,0,1-.28,1.15c-.33.95-.48,1.25.83,1.25h9.63s-.7-1.05-3.78-1.45-2.87-.85-2.87-.85l-.3-3Z" transform="translate(2.8 18.43)"/><path class="cls-10" d="M111.8,77.21s3.5-.21,4.92,4.23l4.91,20.26-2.74.89-1-1.59Z" transform="translate(2.8 18.43)"/><path class="cls-11" d="M118.22,101.54s1-5.13-1.94-17.76c-.85-3.72-1.21-.22-1.21-.22l-.73,7.8Z" transform="translate(2.8 18.43)"/><polygon class="cls-12" points="120.4 122.36 124.61 159.49 118.65 159.7 111.31 124.28 120.4 122.36"/><path class="cls-13" d="M108.51,108.46s4-6,4,1.88-.94,9.64-.94,9.64-3-.54-3-1.2a22.27,22.27,0,0,0-1.3-3.59Z" transform="translate(2.8 18.43)"/><polygon class="cls-12" points="104.55 124.83 114.24 124.26 114.24 139.9 111.59 159.7 106.9 159.7 104.55 124.83"/><polygon class="cls-13" points="120.93 127.72 121.26 129.75 105.19 131.69 104.72 127.85 120.93 127.72"/><path class="cls-10" d="M104.39,76.93s2.06,2.69,5.78.25c0,0,4.75-.4,5.45,2.51s3.55,30.83,3.55,30.83l-18.86.77V78.64S100.45,77.78,104.39,76.93Z" transform="translate(2.8 18.43)"/><path class="cls-11" d="M99.75,97s5.07,4.88,11.39,3.81l-6-5Z" transform="translate(2.8 18.43)"/><path class="cls-11" d="M103,81.62l1,.59s-1.07,10.41-2.09,12.08-2.18.38-2.08-.93S103,81.62,103,81.62Z" transform="translate(2.8 18.43)"/><path class="cls-10" d="M102,77.66s-3,.11-3.68,5.85-1.36,10-1.36,10-.83,2.36,1.36,3,12.84,4.2,12.84,4.2l.88-2.67-10.66-4.76,2.34-9.85S105,78.36,102,77.66Z" transform="translate(2.8 18.43)"/><polygon class="cls-14" points="114.86 116.69 104.14 111.92 104.25 111.69 114.97 116.47 114.86 116.69"/><polygon class="cls-14" points="113.3 119.01 112.69 118.8 113.67 116.06 114.28 116.28 113.3 119.01"/><path class="cls-14" d="M100.31,110.15v1.14l18.86-.77s-.07-.42-.2-1.14Z" transform="translate(2.8 18.43)"/><polygon class="cls-13" points="107.28 129.55 106.96 123.46 108.73 129.49 107.6 130.14 107.28 129.55"/><path class="cls-14" d="M104.39,76.93a3.9,3.9,0,0,0,3,1.34c1.91-.1,2.35-.61,2.77-1.09l.7-.05a2.13,2.13,0,0,1-1.81,1.62c-1.63.36-3,.39-3.92-.27a11,11,0,0,1-1.51-1.38Z" transform="translate(2.8 18.43)"/><path class="cls-14" d="M110.12,86a59,59,0,0,0-1.47-7.14l.82-.23A60.38,60.38,0,0,1,111,85.9Z" transform="translate(2.8 18.43)"/><path class="cls-9" d="M118.89,102.59s0,1.35.53,1.88a10.91,10.91,0,0,1,1.15,1.36s.2,1,.52.21a2.36,2.36,0,0,0-.24-1c-.21-.3.87.3,1.06,1.5a3.15,3.15,0,0,1,0,1.63s.48.36.65-.67a2.41,2.41,0,0,0,1-2.25,3.52,3.52,0,0,0-1.11-2.28c-.32-.28-1.14-.71-1.28-1.1Z" transform="translate(2.8 18.43)"/><path class="cls-9" d="M115.28,99.34s2.16,1,2.45,1.11a.49.49,0,0,1-.62.35,5.54,5.54,0,0,1-1-.37Z" transform="translate(2.8 18.43)"/><path class="cls-9" d="M112.13,98.28s2,.62,2.89,1a1.75,1.75,0,0,1,1.17,1.18c.08.18.32.16.43.4.35.87-1.4,2.46-1.82,2.43a1.5,1.5,0,0,1-.61-.16,4.41,4.41,0,0,1-1.7-1.62,1.63,1.63,0,0,0-1.25-.65Z" transform="translate(2.8 18.43)"/><path class="cls-15" d="M105.29,66.4c-2,.15-2.47,2.2-2.36,3.18.07.54.58,1.65,1.51,1.59A2,2,0,0,0,106,68.91C105.87,67.73,106.22,66.34,105.29,66.4Z" transform="translate(2.8 18.43)"/><path class="cls-9" d="M104.46,77.14a3.67,3.67,0,0,0,3.09,1.28,3.1,3.1,0,0,0,2.6-1.18l-.3-4.09-5.46.39Z" transform="translate(2.8 18.43)"/><path class="cls-16" d="M109,76.82l1.14-.09-.18-2.47-3.64.26A2.51,2.51,0,0,0,109,76.82Z" transform="translate(2.8 18.43)"/><path class="cls-9" d="M109.93,66.2a3.55,3.55,0,0,0-2.58-.84h-.16a3.53,3.53,0,0,0-3.29,3.76l.11,1.51h.16l.3,4.05a6.81,6.81,0,0,0,4.76,1,2.67,2.67,0,0,0,2.23-2.82l-.31-4.23a3.61,3.61,0,0,0-.42-1.42A3.83,3.83,0,0,0,109.93,66.2Z" transform="translate(2.8 18.43)"/><path class="cls-17" d="M110.22,72.24a.14.14,0,0,0-.12.13.12.12,0,0,1-.11.15l-.4,0a.12.12,0,0,0-.11.13.12.12,0,0,0,.13.12l.39,0a.38.38,0,0,0,.35-.41A.12.12,0,0,0,110.22,72.24Z" transform="translate(2.8 18.43)"/><path class="cls-17" d="M108.25,70.83a.44.44,0,0,0,.06.87.44.44,0,0,0-.06-.87Z" transform="translate(2.8 18.43)"/><path class="cls-17" d="M110.78,70.65c-.18,0-.3.22-.29.46s.18.42.35.41.31-.22.29-.46S111,70.64,110.78,70.65Z" transform="translate(2.8 18.43)"/><path class="cls-18" d="M108.66,74.44a.5.5,0,0,0,.54.47l1.15-.09a.5.5,0,0,0,.47-.53l-.07-.94-2.16.15Z" transform="translate(2.8 18.43)"/><path class="cls-19" d="M109.83,74.56c.58,0,.91-.33.87-.91l-2.11.15C108.63,74.38,109.24,74.6,109.83,74.56Z" transform="translate(2.8 18.43)"/><path class="cls-15" d="M107.35,65.26h-.17a3.72,3.72,0,0,0-2.36,1.09,3.59,3.59,0,0,0-1,2.2,4,4,0,0,0,0,.6l.11,1.56.17,0,.06.81,1.23-.09,0-.38a1.8,1.8,0,0,1,.83-1.67.84.84,0,0,0,.42-.87h0a1,1,0,0,1,.52-1,1.07,1.07,0,0,1,.44-.13l3.3-.24a3.42,3.42,0,0,0-.83-1A3.67,3.67,0,0,0,107.35,65.26Z" transform="translate(2.8 18.43)"/><path class="cls-9" d="M103.89,70.3a.77.77,0,0,0-.72.83l.11,1.58a.78.78,0,0,0,.84.71l.78,0L104.73,71A.78.78,0,0,0,103.89,70.3Z" transform="translate(2.8 18.43)"/><path class="cls-17" d="M107.2,70a.57.57,0,0,0-.35.61s.12-.17.63-.19l1.76-.06,0-.56A13.23,13.23,0,0,0,107.2,70Z" transform="translate(2.8 18.43)"/><polygon class="cls-17" points="112.04 88.75 112.17 88.19 112.04 88.2 112.04 88.75"/><path class="cls-17" d="M110.18,69.73l0,.56s.55,0,1-.1l0-.53C110.75,69.68,110.18,69.73,110.18,69.73Z" transform="translate(2.8 18.43)"/><polygon class="cls-17" points="112.81 88.18 113.02 88.71 112.92 88.17 112.81 88.18"/><path class="cls-17" d="M108.12,73.79l0,.23,1.69-.35,0-.6-1.42.39A.32.32,0,0,0,108.12,73.79Z" transform="translate(2.8 18.43)"/><path class="cls-17" d="M110.92,73.23l-.86-.17,0,.59,1.09.1,0-.23A.32.32,0,0,0,110.92,73.23Z" transform="translate(2.8 18.43)"/><path class="cls-15" d="M106.81,67.33a2.11,2.11,0,0,1,1.33.42c.52.45,2.63,1.67,3.91,1.37a2.85,2.85,0,0,0-1-3.71c-2.2-1.51-5.4-1.73-6.21,1C104,67.59,106.81,67.33,106.81,67.33Z" transform="translate(2.8 18.43)"/></g><path class="cls-20" d="M38.28,68.9,24.12,93.39a2.73,2.73,0,0,0,2.32,4.07H54.78a2.68,2.68,0,0,0,2.32-4.07L42.93,68.9A2.67,2.67,0,0,0,38.28,68.9Z" transform="translate(2.8 18.43)"/><polygon class="cls-19" points="45.95 94.46 44.5 105.28 42.39 105.28 40.87 94.46 45.95 94.46"/><circle class="cls-19" cx="43.41" cy="109.86" r="1.82"/></g></g></g></svg>