<svg xmlns="http://www.w3.org/2000/svg" viewBox="0 0 190 140"><defs><style>.cls-1{fill:#f0f2df;}.cls-2{fill:#d6d9bf;}.cls-3{fill:#e44450;}.cls-4{fill:#fff;}.cls-5{fill:#ecc6c3;}.cls-6,.cls-7{fill:none;}.cls-6{stroke:#fff;stroke-miterlimit:10;stroke-width:4px;}.cls-8{fill:#3f3f3f;}</style></defs><g id="Layer_2" data-name="Layer 2"><g id="Layer_1-2" data-name="Layer 1"><rect class="cls-1" width="190" height="140"/><path class="cls-2" d="M106.41,120.16H47.66a8.85,8.85,0,0,1-8.82-8.81V37.18H97.59v74.17a8.85,8.85,0,0,0,8.82,8.81Z"/><circle class="cls-3" cx="58.82" cy="75.07" r="7.34"/><circle class="cls-4" cx="56.91" cy="72.79" r="1.17"/><circle class="cls-4" cx="55.66" cy="77.64" r="1.17"/><polygon class="cls-3" points="59.99 66.55 59.55 69.19 59.48 70 58.16 70 58.01 69.19 57.57 66.55 57.42 65.38 60.22 65.38 59.99 66.55"/><ellipse class="cls-3" cx="58.82" cy="65.45" rx="1.98" ry="0.73"/><polygon class="cls-3" points="57.57 83.81 58.01 81.17 58.16 80.36 59.48 80.36 59.55 81.17 59.99 83.81 60.22 84.98 57.42 84.98 57.57 83.81"/><ellipse class="cls-3" cx="58.82" cy="84.91" rx="1.98" ry="0.73"/><polygon class="cls-3" points="67.41 76.39 64.77 75.95 64.03 75.88 64.03 74.48 64.77 74.41 67.41 73.97 68.59 73.75 68.59 76.61 67.41 76.39"/><ellipse class="cls-3" cx="68.51" cy="75.22" rx="0.73" ry="1.98"/><polygon class="cls-3" points="50.15 73.97 52.8 74.41 53.6 74.48 53.6 75.88 52.8 75.95 50.15 76.39 48.98 76.61 48.98 73.75 50.15 73.97"/><ellipse class="cls-3" cx="49.13" cy="75.22" rx="0.73" ry="1.98"/><polygon class="cls-3" points="65.72 69.93 63.59 71.47 62.93 71.98 61.98 71.03 62.49 70.37 64.03 68.24 64.77 67.21 66.75 69.19 65.72 69.93"/><ellipse class="cls-3" cx="65.64" cy="68.31" rx="0.73" ry="1.98" transform="translate(-29.08 66.42) rotate(-45)"/><polygon class="cls-3" points="51.84 80.43 53.97 78.89 54.63 78.37 55.59 79.33 55.07 79.99 53.53 82.12 52.8 83.15 50.89 81.17 51.84 80.43"/><ellipse class="cls-3" cx="51.93" cy="82.05" rx="0.73" ry="1.98" transform="translate(-42.81 60.75) rotate(-45)"/><polygon class="cls-3" points="64.03 82.12 62.49 79.99 61.98 79.33 62.93 78.37 63.59 78.89 65.72 80.43 66.75 81.17 64.77 83.15 64.03 82.12"/><ellipse class="cls-3" cx="65.65" cy="82.04" rx="1.98" ry="0.73" transform="translate(-38.78 70.45) rotate(-45)"/><polygon class="cls-3" points="53.53 68.24 55.07 70.37 55.59 71.03 54.63 71.98 53.97 71.47 51.84 69.93 50.89 69.19 52.8 67.21 53.53 68.24"/><ellipse class="cls-3" cx="51.91" cy="68.33" rx="1.98" ry="0.73" transform="translate(-33.11 56.72) rotate(-45)"/><circle class="cls-5" cx="61.68" cy="75.22" r="2.42"/><rect class="cls-4" x="48.39" y="47.46" width="38.19" height="11.75"/><line class="cls-6" x1="74.09" y1="67.29" x2="86.58" y2="67.29"/><line class="cls-6" x1="74.09" y1="75.36" x2="86.58" y2="75.36"/><line class="cls-6" x1="74.09" y1="83.44" x2="86.58" y2="83.44"/><line class="cls-6" x1="48.39" y1="90.79" x2="86.58" y2="90.79"/><line class="cls-6" x1="48.39" y1="98.13" x2="86.58" y2="98.13"/><line class="cls-6" x1="48.39" y1="105.47" x2="60.88" y2="105.47"/><rect class="cls-7" x="28.56" y="26.16" width="94" height="94"/><path class="cls-8" d="M164.29,85.94a.65.65,0,0,0,.65-.66V81.16a.65.65,0,0,0-.65-.65h-11V72.46a3.44,3.44,0,0,0,1.26-2.92,3.51,3.51,0,0,0-3.52-3.2h-6.07a3.53,3.53,0,0,0-3.53,3.2,3.46,3.46,0,0,0,1.26,2.92v8.05H132.25V72.46A3.45,3.45,0,0,0,130,66.34h-6.07a3.53,3.53,0,0,0-3.53,3.2,3.46,3.46,0,0,0,1.27,2.92v8.05H111.23V72.46a3.44,3.44,0,0,0,1.26-2.92,3.53,3.53,0,0,0-3.53-3.2h-6.1a3.51,3.51,0,0,0-3.52,3.2,3.43,3.43,0,0,0,1.26,2.92v8.05h-11a.65.65,0,0,0-.66.65v4.12a.65.65,0,0,0,.66.66h1.72v28.94H89.56a.65.65,0,0,0-.66.65v4.12a.65.65,0,0,0,.66.66h74.73a.65.65,0,0,0,.65-.66v-4.12a.65.65,0,0,0-.65-.65h-1.72V85.94Zm-21.6-16.32a2.2,2.2,0,0,1,2.22-2H151a2.21,2.21,0,0,1,2.22,2h0a2.17,2.17,0,0,1-1,2,.65.65,0,0,0-.29.55v8.38h-8V72.78h2.32a.65.65,0,1,0,0-1.3h-2.76A2.27,2.27,0,0,1,142.69,69.62Zm-21,0a2.19,2.19,0,0,1,2.22-2H130a2.21,2.21,0,0,1,2.22,2h0a2.15,2.15,0,0,1-1,2,.65.65,0,0,0-.29.55V77h-8V72.78h2.31a.65.65,0,0,0,0-1.3H122.5A2.11,2.11,0,0,1,121.68,69.62Zm-21,0a2.2,2.2,0,0,1,2.22-2h6.07a2.21,2.21,0,0,1,2.22,2h0a2.17,2.17,0,0,1-1,2,.65.65,0,0,0-.29.55v8.38h-8V72.78h2.31a.65.65,0,0,0,0-1.3h-2.76A2.22,2.22,0,0,1,100.64,69.62ZM90.21,81.82h73.41v2.81H90.21Zm5.64,33.06V85.94h4.75V108a5.31,5.31,0,0,0,10.61,0V85.94h10.42V108a5.31,5.31,0,0,0,10.62,0V85.94h10.41V108a5.31,5.31,0,0,0,10.62,0V85.94H158v28.94Zm6.06-19.09V85.94h8v9.85Zm42-8V85.94h8v1.87ZM92.6,85.94h1.93v28.94H92.6Zm71,33.06H90.21v-2.81h73.41V119Zm-2.38-4.12h-1.94V85.94h1.95v28.94Z"/><rect class="cls-3" x="101.91" y="97.79" width="7.98" height="14.13" rx="3.99"/><rect class="cls-3" x="101.91" y="95.79" width="7.98" height="7.68"/><rect class="cls-3" x="122.82" y="97.52" width="8.24" height="14.4" rx="3.99"/><rect class="cls-3" x="122.82" y="85.94" width="8.24" height="17.37"/><rect class="cls-3" x="122.79" y="76.85" width="8.24" height="3.66"/><rect class="cls-3" x="143.72" y="97.52" width="8.62" height="14.4" rx="3.99"/><rect class="cls-3" x="143.72" y="87.81" width="8.62" height="15.5"/></g></g></svg>