<svg xmlns="http://www.w3.org/2000/svg" xmlns:xlink="http://www.w3.org/1999/xlink" viewBox="0 0 190 140"><defs><style>.a{fill:none;}.b{fill:#f0f2df;}.c{clip-path:url(#a);}.d{fill:#252733;}.e{fill:#f2a572;}.f{fill:#cf804b;}.g{fill:#332938;}.h{fill:#f9d4a1;}.i,.o{fill:#fff;}.j{fill:#ce624f;opacity:0.3;}.k{fill:#3bb0d9;}.l{fill:#2b99ce;}.m{fill:#39b3da;}.n{fill:#ffe981;}.o{opacity:0.4;isolation:isolate;}.p{fill:#e5e8ce;}.q{clip-path:url(#b);}.r{fill:#d6d9bf;}.s{fill:#f9faf0;}</style><clipPath id="a"><rect class="a" width="190" height="140" rx="12.58"/></clipPath><clipPath id="b"><rect class="a" x="97.44" y="31.8" width="76.18" height="69.21" rx="7.23"/></clipPath></defs><rect class="b" width="190" height="140" rx="12.58"/><g class="c"><path class="d" d="M52.13,91.55h0c-4.29-3.49-6.75-7.91-6.94-15.07V71h7Z"/><path class="e" d="M52.16,96.92a9.62,9.62,0,0,1-7.11,5.24c-2.12,4.7.25,12.79.25,12.79l8.7,5.63s23.4-8.67,23.49-9.7-8-8.76-8-8.76-5.18.52-5.17-3.51S52.16,96.92,52.16,96.92Z"/><circle class="d" cx="61.48" cy="71.6" r="16.14"/><rect class="e" x="52.1" y="82.64" width="12.25" height="17.66"/><path class="f" d="M55.91,90.16a8.45,8.45,0,0,0,8.44,8.45V87.8H55.92Z"/><path class="e" d="M63.65,60.75A11.76,11.76,0,0,0,51.93,72.57l0,10.58c0,6.5,10.25,11.73,14.47,11.73,1.92,0,9.07-4.1,9.08-12.48l0-9.92A11.76,11.76,0,0,0,63.65,60.75Z"/><path class="f" d="M69.83,82.7a.6.6,0,0,0-.6.6.65.65,0,0,1-.62.68h-.69a.61.61,0,0,0,0,1.21h.69a1.86,1.86,0,0,0,1.83-1.88A.61.61,0,0,0,69.83,82.7Z"/><path class="d" d="M51.92,80.61h0A2.11,2.11,0,0,0,54,78.5V69H51.56Z"/><path class="e" d="M50.21,75.78h-.39A1.87,1.87,0,0,0,48,77.66v4.28a2.36,2.36,0,0,0,2.38,2.36h1.76l0-6.65A1.88,1.88,0,0,0,50.21,75.78Z"/><path class="g" d="M72.6,77.72c-.47,0-.85.51-.85,1.15S72.13,80,72.6,80s.84-.52.84-1.16S73.06,77.72,72.6,77.72Z"/><path class="g" d="M63.87,77.78c-.44,0-.8.48-.8,1.09s.35,1.09.79,1.09.8-.49.8-1.09S64.3,77.78,63.87,77.78Z"/><path class="d" d="M65.54,58.21C56,49,46.4,69.75,52.73,72.12,52.73,72.12,75.11,67.43,65.54,58.21Z"/><path class="d" d="M66.9,59.59s3.45,9.85,9,11.74C79.78,72.66,69.38,54.83,66.9,59.59Z"/><path class="h" d="M50.31,83.07a1.23,1.23,0,0,0-1.23,1.23,1.24,1.24,0,0,0,1.23,1.24,1.24,1.24,0,0,0,0-2.47Z"/><path class="d" d="M70.29,75.43c-.19,0-.39-.22-.49-.4A.7.7,0,0,1,70,74a10.38,10.38,0,0,1,5.86-.44.5.5,0,0,1,.35.64.52.52,0,0,1-.64.35c-2.26-.67-5,.77-5,.78A.59.59,0,0,1,70.29,75.43Z"/><path class="d" d="M66.76,75.42a5.22,5.22,0,0,1-.71-.28s-3.58-2-6.7-.6a.51.51,0,0,1-.68-.27.53.53,0,0,1,.27-.68c3.58-1.55,8,.28,8.18.38.45.19.39.77.26,1A.68.68,0,0,1,66.76,75.42Z"/><path class="d" d="M54,75.6s-.14-3.37,1.89-4.31-.29-1.91-.41-2a21.54,21.54,0,0,0-2.13,1.32Z"/><circle class="d" cx="43.63" cy="68.37" r="8.77"/><path class="i" d="M68.32,89.38c-1.77,0-3.47-1-3.47-2.38l6.81-.06C71.66,88.31,69.69,89.38,68.32,89.38Z"/><path class="j" d="M73,82.07c.91,0,1.64.26,1.64.58s-.73.58-1.64.58-1.64-.26-1.64-.58S72.06,82.07,73,82.07Z"/><path class="j" d="M63.07,82.06c.9,0,1.64.26,1.64.58s-.74.58-1.64.58-1.65-.26-1.65-.58S62.16,82.06,63.07,82.06Z"/><path class="k" d="M44.76,102.39s2.55,8,14.4,7.72a12,12,0,0,0,5.45-1.41,9.56,9.56,0,0,0,4.93-6.48s3.25.2,4.61,1.34L76,139.79l-39.22,0,4.29-36.28Z"/><path class="k" d="M69.57,102.22c.34.06,8.5,0,9.85,7.67L77.91,139.8H74.8L71.49,106Z"/><path class="k" d="M44.58,102.58s-8.61.64-10.68,7.24c-.94,3-3.86,29.93-3.86,29.93h8.23Z"/><path class="l" d="M49.64,128.39s1,4.45,9.67,11.27h9.51L56.45,128.4Z"/><path class="m" d="M67.4,139.86c4.81,2.36,9,2.41,12.56,1,.18-.07-1.17-31.68-1.17-31.68l-7.12-.6a3.72,3.72,0,0,0-4,4.11l1.86,17L49,121.33l-3,4.86"/><polyline class="l" points="54.19 139.88 43.71 139.77 56.16 129.46 64.62 125.89"/><path class="m" d="M33.83,110.21l7.12-.58a3.71,3.71,0,0,1,4,4.1l-1.87,17,20.57-8.3,1.11,3s-10.51,11.11-19.56,15.54c-4.81,2.36-11.87,2.79-15.38,1.37C29.64,142.21,33.83,110.21,33.83,110.21Z"/><path class="f" d="M68.24,117.11s4.72-2,5.31-2.31a1.06,1.06,0,0,1-.33,1.5,12.27,12.27,0,0,1-2.1,1.16Z"/><path class="f" d="M62,120.62s3.91-2.35,5.67-3.25a3.84,3.84,0,0,1,3.59-.15c.4.14.72-.29,1.26-.1,1.92.69,2,5.78,1.31,6.42a3,3,0,0,1-1.12.75,9.65,9.65,0,0,1-5.07.37,3.4,3.4,0,0,0-2.82,1Z"/><polygon class="l" points="42.35 112.88 41.66 131.68 44.5 130.05 42.35 112.88"/><path class="f" d="M44.16,125.92s4.67-1.89,6.86.4l-6.42,3.73Z"/><path class="i" d="M63.09,81.11l-11.36-5.4a.28.28,0,0,0-.38.19l0,0a.32.32,0,0,0,.18.37L62.43,83a1,1,0,0,0,1.32-.52,1,1,0,0,0-.52-1.31h0Z"/><path class="i" d="M60.49,88.77l-8.57-4.42a.33.33,0,0,0-.43.18.34.34,0,0,0,.1.38l7.84,5.56A1,1,0,1,0,60.83,89a1.24,1.24,0,0,0-.23-.17Z"/><path class="n" d="M75.51,81.14l-13.57-.28L57.42,91.39,64,95l6.22,2a9.43,9.43,0,0,0,5.69-9.74h0Z"/><polygon class="o" points="75.53 86.42 65.96 84.42 75.04 88.48 75.53 86.42"/><polygon class="o" points="73.71 93.98 65.19 88.26 71.75 95.18 73.71 93.98"/></g><rect class="p" x="97.44" y="31.8" width="76.18" height="69.21" rx="7.23"/><g class="q"><circle class="r" cx="129.86" cy="38.95" r="12.24"/><circle class="r" cx="135.13" cy="63.36" r="18.56"/><circle class="r" cx="158.8" cy="47.16" r="26.72"/><circle class="r" cx="152.15" cy="56.16" r="26.72"/><circle class="r" cx="158.6" cy="69.62" r="18.56"/><path class="r" d="M176,40.84a26.73,26.73,0,1,1-26.09-11.07A26.6,26.6,0,0,1,176,40.84"/><circle class="r" cx="147.85" cy="23.3" r="17.61"/></g><rect class="s" x="134.37" y="22.17" width="5.22" height="87.39"/><rect class="s" x="134.37" y="22.17" width="5.22" height="87.39" transform="translate(71.11 202.85) rotate(-90)"/></svg>