<svg xmlns="http://www.w3.org/2000/svg" xmlns:xlink="http://www.w3.org/1999/xlink" viewBox="0 0 190 140"><defs><style>.cls-1,.cls-5,.cls-6{fill:none;}.cls-2{fill:#f0f2df;}.cls-3{fill:#d6d9bf;}.cls-4{fill:#e5e8ce;}.cls-5{stroke:#d6d9bf;}.cls-5,.cls-6{stroke-miterlimit:10;stroke-width:2px;}.cls-6{stroke:#fff;stroke-linecap:round;}.cls-7{clip-path:url(#clip-path);}.cls-8{fill:#39b3da;}.cls-9{clip-path:url(#clip-path-2);}.cls-10{fill:#2b99ce;}.cls-11{fill:#71a0f3;}.cls-12{fill:#fff;}.cls-13{fill:#e2a777;}.cls-14{fill:#ffc598;}</style><clipPath id="clip-path" transform="translate(6.63 0)"><rect class="cls-1" width="190" height="140"/></clipPath><clipPath id="clip-path-2" transform="translate(6.63 0)"><path id="SVGID" class="cls-1" d="M83,25.24,76.5,39.56A50.34,50.34,0,0,1,67.65,53l-3.32,3.61-.06.09a87.41,87.41,0,0,0-14.1,34.77l-.67,2.26a4.27,4.27,0,0,0,2.34,5.11h0a4.27,4.27,0,0,0,5.4-1.67l1.45-2.38A87.48,87.48,0,0,0,74.37,60.13h0a67.7,67.7,0,0,1,5.7-23.79L84.65,26a.93.93,0,0,0-.48-1.23h0A.94.94,0,0,0,83,25.24Z"/></clipPath></defs><title>Asset 2</title><g id="Layer_2" data-name="Layer 2"><g id="Layer_1-2" data-name="Layer 1"><rect class="cls-2" x="6.63" width="190" height="140"/><rect class="cls-3" x="117.46" y="49.77" width="59.85" height="49.38" rx="11.03"/><path class="cls-4" d="M110.83,63.11V57.36a7.58,7.58,0,0,1,7.58-7.59h44.68a7.58,7.58,0,0,1,7.58,7.59v5.75" transform="translate(6.63 0)"/><path class="cls-5" d="M124.89,56.64a6.5,6.5,0,0,1-6.5-6.59,6.59,6.59,0,0,1,6.41-6.41,6.5,6.5,0,0,1,6.59,6.5" transform="translate(6.63 0)"/><circle class="cls-3" cx="131.29" cy="56.74" r="2.35"/><path class="cls-5" d="M153.46,56.64a6.5,6.5,0,0,1-6.5-6.59,6.6,6.6,0,0,1,6.41-6.41,6.5,6.5,0,0,1,6.6,6.5" transform="translate(6.63 0)"/><circle class="cls-3" cx="159.87" cy="56.74" r="2.35"/><polyline class="cls-6" points="127.82 72.97 129.85 75 134.98 69.87"/><polyline class="cls-6" points="144.2 72.97 146.23 75 151.36 69.87"/><polyline class="cls-6" points="160.58 72.97 162.62 75 167.74 69.87"/><polyline class="cls-6" points="127.82 86.2 129.85 88.23 134.98 83.1"/><circle class="cls-4" cx="147.69" cy="85.16" r="4.85"/><circle class="cls-4" cx="163.38" cy="85.16" r="4.85"/><g class="cls-7"><path class="cls-8" d="M83,25.24,76.5,39.56A50.34,50.34,0,0,1,67.65,53l-3.32,3.61-.06.09a87.41,87.41,0,0,0-14.1,34.77l-.67,2.26a4.27,4.27,0,0,0,2.34,5.11h0a4.27,4.27,0,0,0,5.4-1.67l1.45-2.38A87.48,87.48,0,0,0,74.37,60.13h0a67.7,67.7,0,0,1,5.7-23.79L84.65,26a.93.93,0,0,0-.48-1.23h0A.94.94,0,0,0,83,25.24Z" transform="translate(6.63 0)"/><g class="cls-9"><path class="cls-10" d="M58.94,54.38h0a7.39,7.39,0,0,1,7.39,7.39v48.85a0,0,0,0,1,0,0H51.55a0,0,0,0,1,0,0V61.77A7.39,7.39,0,0,1,58.94,54.38Z" transform="translate(45.76 -16.94) rotate(24.28)"/><rect class="cls-10" x="78.97" y="21.84" width="10.11" height="10.53" transform="translate(25.21 -32.15) rotate(24.28)"/><ellipse class="cls-11" cx="55.35" cy="71.73" rx="10.99" ry="2.13" transform="translate(-26.16 92.7) rotate(-65.72)"/><ellipse class="cls-11" cx="69.4" cy="78.07" rx="10.99" ry="2.13" transform="translate(-23.67 109.23) rotate(-65.72)"/></g><rect class="cls-12" x="57.49" y="61.98" width="9.56" height="26.65" rx="4.78" transform="translate(43.1 -18.94) rotate(24.28)"/><path class="cls-13" d="M57.88,74.62,50.6,71.34,39.5,72.67a.9.9,0,0,0-.78.73c-.17,1-.08,2.87,2.61,4.16L30.78,79.62a.89.89,0,0,0-.65,1.23,5,5,0,0,0,2.53,2.62l-6,1.67a.89.89,0,0,0-.53,1.33c.94,1.52,3.35,4,8.46,2l8.83,1Z" transform="translate(6.63 0)"/><path class="cls-14" d="M72.65,79.38l-8.19,25.7-31.9,18L2.31,156.3l-8.94-29.14s21.91-13,24.07-17.43,9.38-17.47,19.29-22.2S58.23,69,64,70.36s4.21,6.74.89,8.75S52.68,87.61,51.21,89.9s-1.61,6.49-1.61,6.49l3.4-.76L56.19,95a7.29,7.29,0,0,0,4.74-3.35l5.5-9,4-9.08.87.8A4.83,4.83,0,0,1,72.65,79.38Z" transform="translate(6.63 0)"/><path class="cls-14" d="M59.88,63.76l-4.71-4.51a.46.46,0,0,0-.74.13c-.76,1.57-2.36,6.21,2.25,10.8Z" transform="translate(6.63 0)"/><path class="cls-12" d="M60.77,79l-2.48-3.41a1.17,1.17,0,0,1,.33-1.67l2.48-1.53a3.12,3.12,0,0,1,3.19-.12l.12.07A3.14,3.14,0,0,1,66,74.6h0a3.13,3.13,0,0,1-1.27,3l-2.34,1.67A1.15,1.15,0,0,1,60.77,79Z" transform="translate(6.63 0)"/></g></g></g></svg>