<?xml version="1.0" encoding="UTF-8"?>
<svg width="190px" height="140px" viewBox="0 0 190 140" version="1.1" xmlns="http://www.w3.org/2000/svg" xmlns:xlink="http://www.w3.org/1999/xlink">
    <!-- Generator: Sketch 64 (93537) - https://sketch.com -->
    <title>Group 54</title>
    <desc>Created with Sketch.</desc>
    <defs>
        <path d="M34.4059162,0.933089005 L27.980733,15.1781152 C25.7793194,20.0604188 22.8079581,24.5577487 19.1830366,28.4980105 L19.1830366,28.4980105 L15.875445,32.093089 L15.8187435,32.1746597 C8.69722513,42.5550262 3.91240838,54.3549215 1.79256545,66.7636126 L1.79256545,66.7636126 L1.12308901,69.0107853 C0.517277487,71.0480628 1.51104712,73.2196335 3.44984293,74.0950262 L3.44984293,74.0950262 C5.40256545,74.9753927 7.70743455,74.2631414 8.82256545,72.4337696 L8.82256545,72.4337696 L10.2689529,70.0642408 C17.9246597,59.8698953 23.2496335,48.1197382 25.8658639,35.6414136 L25.8658639,35.6414136 C26.304555,27.4734031 28.2274346,19.4536126 31.5390052,11.9739791 L31.5390052,11.9739791 L36.0930366,1.68811518 C36.3009424,1.21858639 36.0860733,0.66947644 35.614555,0.465549738 L35.614555,0.465549738 C35.4951832,0.41382199 35.3708377,0.38895288 35.2484817,0.38895288 L35.2484817,0.38895288 C34.8963351,0.38895288 34.5601047,0.591884817 34.4059162,0.933089005 L34.4059162,0.933089005 Z" id="path-1"></path>
        <path d="M34.4059162,0.933089005 L27.980733,15.1781152 C25.7793194,20.0604188 22.8079581,24.5577487 19.1830366,28.4980105 L19.1830366,28.4980105 L15.875445,32.093089 L15.8187435,32.1746597 C8.69722513,42.5550262 3.91240838,54.3549215 1.79256545,66.7636126 L1.79256545,66.7636126 L1.12308901,69.0107853 C0.517277487,71.0480628 1.51104712,73.2196335 3.44984293,74.0950262 L3.44984293,74.0950262 C5.40256545,74.9753927 7.70743455,74.2631414 8.82256545,72.4337696 L8.82256545,72.4337696 L10.2689529,70.0642408 C17.9246597,59.8698953 23.2496335,48.1197382 25.8658639,35.6414136 L25.8658639,35.6414136 C26.304555,27.4734031 28.2274346,19.4536126 31.5390052,11.9739791 L31.5390052,11.9739791 L36.0930366,1.68811518 C36.3009424,1.21858639 36.0860733,0.66947644 35.614555,0.465549738 L35.614555,0.465549738 C35.4951832,0.41382199 35.3708377,0.38895288 35.2484817,0.38895288 L35.2484817,0.38895288 C34.8963351,0.38895288 34.5601047,0.591884817 34.4059162,0.933089005 L34.4059162,0.933089005 Z" id="path-3"></path>
        <path d="M34.4059162,0.933089005 L27.980733,15.1781152 C25.7793194,20.0604188 22.8079581,24.5577487 19.1830366,28.4980105 L19.1830366,28.4980105 L15.875445,32.093089 L15.8187435,32.1746597 C8.69722513,42.5550262 3.91240838,54.3549215 1.79256545,66.7636126 L1.79256545,66.7636126 L1.12308901,69.0107853 C0.517277487,71.0480628 1.51104712,73.2196335 3.44984293,74.0950262 L3.44984293,74.0950262 C5.40256545,74.9753927 7.70743455,74.2631414 8.82256545,72.4337696 L8.82256545,72.4337696 L10.2689529,70.0642408 C17.9246597,59.8698953 23.2496335,48.1197382 25.8658639,35.6414136 L25.8658639,35.6414136 C26.304555,27.4734031 28.2274346,19.4536126 31.5390052,11.9739791 L31.5390052,11.9739791 L36.0930366,1.68811518 C36.3009424,1.21858639 36.0860733,0.66947644 35.614555,0.465549738 L35.614555,0.465549738 C35.4951832,0.41382199 35.3708377,0.38895288 35.2484817,0.38895288 L35.2484817,0.38895288 C34.8963351,0.38895288 34.5601047,0.591884817 34.4059162,0.933089005" id="path-5"></path>
        <path d="M34.4059162,0.933089005 L27.980733,15.1781152 C25.7793194,20.0604188 22.8079581,24.5577487 19.1830366,28.4980105 L19.1830366,28.4980105 L15.875445,32.093089 L15.8187435,32.1746597 C8.69722513,42.5550262 3.91240838,54.3549215 1.79256545,66.7636126 L1.79256545,66.7636126 L1.12308901,69.0107853 C0.517277487,71.0480628 1.51104712,73.2196335 3.44984293,74.0950262 L3.44984293,74.0950262 C5.40256545,74.9753927 7.70743455,74.2631414 8.82256545,72.4337696 L8.82256545,72.4337696 L10.2689529,70.0642408 C17.9246597,59.8698953 23.2496335,48.1197382 25.8658639,35.6414136 L25.8658639,35.6414136 C26.304555,27.4734031 28.2274346,19.4536126 31.5390052,11.9739791 L31.5390052,11.9739791 L36.0930366,1.68811518 C36.3009424,1.21858639 36.0860733,0.66947644 35.614555,0.465549738 L35.614555,0.465549738 C35.4951832,0.41382199 35.3708377,0.38895288 35.2484817,0.38895288 L35.2484817,0.38895288 C34.8963351,0.38895288 34.5601047,0.591884817 34.4059162,0.933089005" id="path-7"></path>
        <polygon id="path-9" points="0.628691099 0.954637671 73.1307309 0.954637671 73.1307309 70.3268586 0.628691099 70.3268586"></polygon>
    </defs>
    <g id="Version-2.0-Final" stroke="none" stroke-width="1" fill="none" fill-rule="evenodd">
        <g id="Group-54" transform="translate(-0.500000, 0.369110)">
            <polygon id="Fill-1" fill="#F0F2DF" points="0.628691099 139.267016 189.633927 139.267016 189.633927 0 0.628691099 0"></polygon>
            <g id="Group-26" transform="translate(110.418848, 43.076283)">
                <path d="M49.0131361,55.5560995 L11.4339215,55.5560995 C5.37182723,55.5560995 0.456696335,50.6419634 0.456696335,44.5798691 L0.456696335,17.4108639 C0.456696335,11.3497644 5.37182723,6.43463351 11.4339215,6.43463351 L49.0131361,6.43463351 C55.0762251,6.43463351 59.9903613,11.3497644 59.9903613,17.4108639 L59.9903613,44.5798691 C59.9903613,50.6419634 55.0762251,55.5560995 49.0131361,55.5560995" id="Fill-2" fill="#D6D9BF"></path>
                <path d="M0.457193717,19.7037958 L0.457193717,13.9779319 C0.457193717,9.8128534 3.83541361,6.43463351 8.00049215,6.43463351 L52.4465654,6.43463351 C56.6126387,6.43463351 59.9908586,9.8128534 59.9908586,13.9779319 L59.9908586,19.7037958" id="Fill-4" fill="#E5E8CE"></path>
                <path d="M14.4450733,13.2718482 C10.8430314,13.2718482 7.92837173,10.3263508 7.97910471,6.71237173 C8.0268534,3.27844503 10.9186335,0.386664921 14.353555,0.337921466 C17.967534,0.288183246 20.9120366,3.20284293 20.9120366,6.80488482" id="Stroke-6" stroke="#D6D9BF" stroke-width="1.9895288"></path>
                <path d="M16.5560628,13.3699319 C16.5560628,14.6631257 15.5075812,15.7106126 14.2153822,15.7106126 C12.9231832,15.7106126 11.8747016,14.6631257 11.8747016,13.3699319 C11.8747016,12.0767382 12.9231832,11.0282565 14.2153822,11.0282565 C15.5075812,11.0282565 16.5560628,12.0767382 16.5560628,13.3699319" id="Fill-8" fill="#D6D9BF"></path>
                <path d="M42.8716597,13.2718482 C39.2696178,13.2718482 36.3549581,10.3263508 36.4046963,6.71237173 C36.4534398,3.27844503 39.3452199,0.386664921 42.7791466,0.337921466 C46.3931257,0.288183246 49.338623,3.20284293 49.338623,6.80488482" id="Stroke-10" stroke="#D6D9BF" stroke-width="1.9895288"></path>
                <path d="M44.9825497,13.3699319 C44.9825497,14.6631257 43.9340681,15.7106126 42.6408743,15.7106126 C41.3486754,15.7106126 40.3001937,14.6631257 40.3001937,13.3699319 C40.3001937,12.0767382 41.3486754,11.0282565 42.6408743,11.0282565 C43.9340681,11.0282565 44.9825497,12.0767382 44.9825497,13.3699319" id="Fill-12" fill="#D6D9BF"></path>
                <polyline id="Stroke-14" stroke="#FFFFFF" stroke-width="1.9895288" stroke-linecap="round" points="10.7652408 29.5115759 12.7846126 31.5319424 17.8837749 26.4317853"></polyline>
                <polyline id="Stroke-16" stroke="#FFFFFF" stroke-width="1.9895288" stroke-linecap="round" points="27.0602775 29.5115759 29.080644 31.5319424 34.1798063 26.4317853"></polyline>
                <polyline id="Stroke-18" stroke="#FFFFFF" stroke-width="1.9895288" stroke-linecap="round" points="43.3564084 29.5115759 45.3757801 31.5319424 50.4759372 26.4317853"></polyline>
                <polyline id="Stroke-20" stroke="#FFFFFF" stroke-width="1.9895288" stroke-linecap="round" points="10.7652408 42.669822 12.7846126 44.6891937 17.8837749 39.5900314"></polyline>
                <path d="M35.3526335,41.6342723 C35.3526335,44.2982513 33.1939948,46.4568901 30.5300157,46.4568901 C27.8680262,46.4568901 25.7093874,44.2982513 25.7093874,41.6342723 C25.7093874,38.971288 27.8680262,36.8126492 30.5300157,36.8126492 C33.1939948,36.8126492 35.3526335,38.971288 35.3526335,41.6342723" id="Fill-22" fill="#E5E8CE"></path>
                <path d="M50.9618796,41.6342723 C50.9618796,44.2982513 48.8022461,46.4568901 46.1392618,46.4568901 C43.4762775,46.4568901 41.3176387,44.2982513 41.3176387,41.6342723 C41.3176387,38.971288 43.4762775,36.8126492 46.1392618,36.8126492 C48.8022461,36.8126492 50.9618796,38.971288 50.9618796,41.6342723" id="Fill-24" fill="#E5E8CE"></path>
            </g>
            <path d="M83.1488743,25.1092461 L76.7236911,39.3542723 C74.5222775,44.2365759 71.551911,48.732911 67.9259948,52.6731728 L64.6184031,56.2682513 L64.5617016,56.349822 C57.441178,66.7301885 52.6563613,78.5300838 50.5355236,90.9387749 L49.8670419,93.1869424 C49.2612304,95.2232251 50.255,97.3957906 52.192801,98.2701885 C54.1465183,99.1515497 56.4503927,98.4392984 57.5665183,96.6099267 L59.011911,94.2394031 C66.6686126,84.0460524 71.9925916,72.2958953 74.608822,59.8175707 C75.0475131,51.6495602 76.9703927,43.6287749 80.2819634,36.1501361 L84.8359948,25.8642723 C85.0439005,25.3937487 84.8290314,24.8446387 84.3585079,24.640712 C83.8949476,24.4407644 83.3567801,24.6486702 83.1488743,25.1092461" id="Fill-27" fill="#39B3DA"></path>
            <g id="Group-41" transform="translate(48.743455, 24.175759)">
                <g id="Group-31">
                    <mask id="mask-2" fill="white">
                        <use xlink:href="#path-1"></use>
                    </mask>
                    <g id="Clip-30"></g>
                    <path d="M5.71760733,86.4171728 L-7.6848534,80.3719895 L12.2949895,36.0731414 C13.9642042,32.371623 18.3172932,30.7242932 22.0188115,32.3935079 C25.7193351,34.0627225 27.3666649,38.4158115 25.6974503,42.1173298 L5.71760733,86.4171728 Z" id="Fill-29" fill="#2B99CE" mask="url(#mask-2)"></path>
                </g>
                <g id="Group-34">
                    <mask id="mask-4" fill="white">
                        <use xlink:href="#path-3"></use>
                    </mask>
                    <g id="Clip-33"></g>
                    <polygon id="Fill-32" fill="#2B99CE" mask="url(#mask-4)" points="37.9026126 9.62991623 28.7308848 5.49368586 33.0372199 -4.05406283 42.2089476 0.0821675393"></polygon>
                </g>
                <g id="Group-37">
                    <mask id="mask-6" fill="white">
                        <use xlink:href="#path-5"></use>
                    </mask>
                    <g id="Clip-36"></g>
                    <path d="M8.88254974,48.0545812 C6.40160733,53.556623 3.52275916,57.6262042 2.4543822,57.1447382 C1.38501047,56.6612827 2.52998429,51.8108115 5.0109267,46.3087696 C7.49385864,40.8067277 10.371712,36.7381414 11.440089,37.2196073 C12.5094607,37.7020681 11.3644869,42.553534 8.88254974,48.0545812" id="Fill-35" fill="#71A0F3" mask="url(#mask-6)"></path>
                </g>
                <g id="Group-40">
                    <mask id="mask-8" fill="white">
                        <use xlink:href="#path-7"></use>
                    </mask>
                    <g id="Clip-39"></g>
                    <path d="M22.8529215,54.3554188 C20.3709843,59.8574607 17.4931309,63.9270419 16.4237592,63.4445812 C15.3553822,62.9621204 16.500356,58.1116492 18.9812984,52.6096073 C21.4632356,47.1075654 24.341089,43.0379843 25.4104607,43.520445 C26.4798325,44.0029058 25.3338639,48.8543717 22.8529215,54.3554188" id="Fill-38" fill="#71A0F3" mask="url(#mask-8)"></path>
                </g>
            </g>
            <g id="Group-53" transform="translate(0.000000, 57.997749)">
                <path d="M57.1257382,29.0035497 L57.1257382,29.0035497 C54.7323351,27.9232356 53.6659476,25.1080524 54.7462618,22.7136545 L61.737466,7.21423037 C62.8167853,4.81983246 65.6329634,3.75443979 68.0263665,4.83375916 C70.4197696,5.9140733 71.4861571,8.72925654 70.4068377,11.1226597 L63.4146387,26.6230785 C62.3353194,29.0174764 59.5191414,30.0828691 57.1257382,29.0035497" id="Fill-42" fill="#FFFFFF"></path>
                <path d="M58.2030681,16.2337592 L50.9631728,12.9689424 L39.921288,14.2959581 C39.5353194,14.342712 39.2169948,14.630199 39.1513403,15.0121885 C38.9802408,15.9930262 39.0707644,17.8741257 41.7456859,19.1573717 L31.2519162,21.2045969 C30.6948482,21.3130262 30.3765236,21.9069005 30.6003455,22.4301466 C30.9554764,23.2597801 31.6816545,24.3908272 33.1200838,25.0404084 L27.1554764,26.6976859 C26.5844817,26.8568482 26.3158953,27.5183665 26.6302408,28.0207225 C27.571288,29.5297801 29.9646911,31.9589948 35.0429634,30.0371099 L43.830712,31.0308796 L58.2030681,16.2337592 Z" id="Fill-44" fill="#E2A777"></path>
                <g id="Group-48" transform="translate(0.000000, 10.942408)">
                    <mask id="mask-10" fill="white">
                        <use xlink:href="#path-9"></use>
                    </mask>
                    <g id="Clip-47"></g>
                    <path d="M72.903,10.0291152 L64.7558796,35.5875969 L33.0169267,53.4814188 L2.92928272,86.5444031 L-5.96888482,57.5539843 C-5.96888482,57.5539843 15.8303822,44.6220471 17.9750942,40.2162356 C20.120801,35.8084346 27.3099634,22.8347173 37.1650942,18.1304764 C47.0192304,13.4262356 58.5565079,-0.321408377 64.2555131,1.05037173 C69.9535236,2.4231466 68.4394921,7.75508377 65.1418482,9.75356545 C61.8442042,11.7510524 53.0315864,18.2070733 51.568288,20.4880681 C50.103,22.7680681 49.9716911,26.9480681 49.9716911,26.9480681 L53.3509058,26.1930419 L56.5271885,25.5235654 C58.4908534,25.1097435 60.1978691,23.9050838 61.2433665,22.194089 L66.7125812,13.2441937 L70.711534,4.21571204 L71.5749895,5.01152356 C72.9547277,6.28382723 73.4720052,8.2405288 72.903,10.0291152" id="Fill-46" fill="#FFC598" mask="url(#mask-10)"></path>
                </g>
                <path d="M60.1916021,5.42544503 L55.5142199,0.940052356 C55.2864188,0.721204188 54.9094031,0.78486911 54.7731204,1.06937173 C54.0200838,2.6291623 52.4205026,7.25183246 57.0093508,11.8197906 L60.1916021,5.42544503 Z" id="Fill-49" fill="#FFC598"></path>
                <path d="M61.0765445,20.5732199 L58.6174869,17.178089 C58.2235602,16.6339529 58.3737696,15.8689791 58.9457592,15.5158377 L61.4107853,13.9898691 C62.3687435,13.3721204 63.5883246,13.3293455 64.5870681,13.8784555 L64.6984817,13.9391361 C65.5519895,14.4096597 66.1349215,15.2522251 66.2731937,16.2161518 C66.4363351,17.3591361 65.9508901,18.4981414 65.013822,19.1725916 L62.6870681,20.8368325 C62.1697906,21.2058901 61.4505759,21.0895026 61.0765445,20.5732199" id="Fill-51" fill="#FFFFFF"></path>
            </g>
        </g>
    </g>
</svg>