<svg xmlns="http://www.w3.org/2000/svg" xmlns:xlink="http://www.w3.org/1999/xlink" viewBox="0 0 190 140"><defs><style>.a{fill:none;}.b{fill:#f0f2df;}.c{fill:#d6d9bf;stroke:#f0f2df;}.c,.e{stroke-miterlimit:10;stroke-width:2px;}.d{clip-path:url(#a);}.e,.x{fill:#e5e8ce;}.e{stroke:#f9faf0;}.f{fill:#39b3da;}.g{fill:#58595b;}.h{fill:#333;opacity:0.5;}.i{fill:#252733;}.j{fill:#f2a572;}.k{fill:#cf804b;}.l,.p{opacity:0.3;}.m{fill:#332938;}.n{fill:#f9d4a1;}.o,.w{fill:#fff;}.p{fill:#ce624f;}.q{fill:#2b99ce;}.r{fill:#263138;}.s{fill:#231f20;}.t{fill:#404041;}.u{fill:#bde5ec;}.v{fill:#ffe981;}.w{opacity:0.4;isolation:isolate;}</style><clipPath id="a"><rect class="a" width="190" height="140" rx="12.58"/></clipPath></defs><rect class="b" width="190" height="140" rx="12.58"/><polygon class="c" points="113.7 139.16 108.28 139.16 108.28 128.7 116.61 128.7 113.7 139.16"/><g class="d"><rect class="c" x="110.06" y="67.76" width="103.36" height="46.43" rx="4.99"/><polygon class="e" points="210.45 139.16 216.59 139.16 216.59 127.31 207.16 127.31 210.45 139.16"/><path class="c" d="M214.07,84.67h0a8.38,8.38,0,0,0-8.38,8.38v20.83H117.78V93.05a8.38,8.38,0,0,0-8.38-8.38h0a6.55,6.55,0,0,0-6.55,6.55v33.33a6.55,6.55,0,0,0,6.55,6.55H214.07a6.55,6.55,0,0,0,6.55-6.55V91.22A6.55,6.55,0,0,0,214.07,84.67Z"/><rect class="c" x="118.3" y="101.16" width="87.2" height="12.91"/><line class="c" x1="161.5" y1="68.23" x2="161.5" y2="101.69"/></g><path class="f" d="M43.34,87.27l3.81,4.55,13.2,1.44v3.11L46.52,96.3a3.13,3.13,0,0,1-2.67-1.19c-1-1.08-3-3-3.81-5.21-1.75-4.81-2.59-2-2.21-2.08S43.34,87.27,43.34,87.27Z"/><path class="g" d="M45.31,86.91l2.23-6L50.92,80l-3.5,8.59s-1.14,1.05-1.34.8A18.74,18.74,0,0,1,45.31,86.91Z"/><rect class="h" x="22.73" y="125.2" width="3.35" height="12.22"/><rect class="h" x="54.55" y="125.2" width="3.35" height="12.22"/><path class="i" d="M28.09,75.7h0a7.6,7.6,0,0,1-2.88-6.24V67.18h2.88Z"/><path class="j" d="M28.1,77.92a4,4,0,0,1-2.94,2.17c-.88,2,.11,5.3.11,5.3l3.6,2.32s9.68-3.59,9.72-4-3.3-3.62-3.3-3.62-2.14.21-2.14-1.45S28.1,77.92,28.1,77.92Z"/><circle class="i" cx="31.95" cy="67.44" r="6.68"/><rect class="j" x="28.07" y="72.01" width="5.07" height="7.31"/><path class="k" d="M29.65,75.12a3.5,3.5,0,0,0,3.5,3.5V74.14h-3.5Z"/><path class="j" d="M32.84,62.94A4.88,4.88,0,0,0,28,67.84l0,4.38c0,2.69,4.24,4.85,6,4.85.8,0,3.75-1.7,3.75-5.17l0-4.11A4.87,4.87,0,0,0,32.84,62.94Z"/><g class="l"><path class="m" d="M35.41,72a.25.25,0,0,0-.25.25.27.27,0,0,1-.25.28h-.29a.25.25,0,0,0,0,.5h.29a.77.77,0,0,0,.75-.78A.25.25,0,0,0,35.41,72Z"/></g><path class="i" d="M28,71.17h0a.87.87,0,0,0,.88-.88V66.35h-1Z"/><path class="j" d="M27.29,69.17h-.16a.78.78,0,0,0-.78.78v1.77a1,1,0,0,0,1,1h.72V69.94A.78.78,0,0,0,27.29,69.17Z"/><path class="m" d="M36.55,70c-.19,0-.35.22-.35.48s.16.48.35.48.35-.21.35-.48S36.75,70,36.55,70Z"/><path class="m" d="M32.94,70c-.18,0-.33.2-.33.45s.15.46.33.46.33-.21.33-.46S33.12,70,32.94,70Z"/><path class="i" d="M33.63,61.89c-4-3.81-7.92,4.79-5.3,5.77C28.33,67.66,37.59,65.71,33.63,61.89Z"/><path class="i" d="M34.19,62.46s1.43,4.08,3.72,4.86C39.52,67.87,35.21,60.49,34.19,62.46Z"/><path class="n" d="M27.33,72.19a.51.51,0,1,0,.51.51A.51.51,0,0,0,27.33,72.19Z"/><path class="m" d="M35.6,69c-.08,0-.17-.09-.21-.17a.3.3,0,0,1,.09-.41,4.37,4.37,0,0,1,2.43-.19.22.22,0,0,1,.15.27.23.23,0,0,1-.27.15,3.3,3.3,0,0,0-2.08.32Z"/><path class="m" d="M34.14,69a1.57,1.57,0,0,1-.3-.12,3.49,3.49,0,0,0-2.77-.24.22.22,0,0,1-.28-.11.22.22,0,0,1,.11-.29,4.85,4.85,0,0,1,3.39.16c.18.07.15.31.1.42A.28.28,0,0,1,34.14,69Z"/><path class="i" d="M28.87,69.09s-.06-1.39.78-1.78-.12-.79-.17-.81a10.26,10.26,0,0,0-.88.55Z"/><circle class="i" cx="24.56" cy="66.11" r="3.63"/><path class="o" d="M34.79,74.8c-.74,0-1.44-.42-1.44-1l2.82,0C36.17,74.35,35.35,74.8,34.79,74.8Z"/><path class="p" d="M36.71,71.77c.37,0,.68.1.68.24s-.31.24-.68.24S36,72.14,36,72,36.33,71.77,36.71,71.77Z"/><path class="p" d="M32.61,71.77c.38,0,.68.1.68.24s-.3.24-.68.24-.68-.11-.68-.24S32.23,71.77,32.61,71.77Z"/><path class="f" d="M35.29,80.07c-.09.08,3.94,3.55-.27,4.41s-8.81-4.74-8.81-4.74-6,1.42-4.44,6.14l3.5-.49L32,95.6s7.52-.81,7.56-.93S42,91.12,42,91.12a8.4,8.4,0,0,0-1-3C40.16,86.41,38.28,82.32,35.29,80.07Z"/><path class="f" d="M35.29,80.07s.9-.66,2.1.49,7.27,8.12,7.27,8.12a51.1,51.1,0,0,1-1.84,4.95c-.06-.37-4.57-10.39-4.57-10.39Z"/><path class="f" d="M43.67,95.6s3.87,2.5,5.32,2.62l7.24-1.81s2.55-1.09,5.58,5.2a6.57,6.57,0,0,1,5.69,6.9l4.84,7.13s-3.15,7-5.45,13.56l-9,.72s-.85-11.61,1.13-19.11l-8.71.24S37,107.21,36.9,106.16s-4.35-8.66-3.63-8.91,7.94-3.59,8.74-3.61S43.67,95.6,43.67,95.6Z"/><path class="j" d="M72.34,115.64s1.29,2.72,2.18,3c1.82.51,5.92-2.48,7.38-1.76,0,0,.72.37-3.63,3.39A48.37,48.37,0,0,1,72.34,124s-1,.88-1.57-2.44l-.49-1.34Z"/><path class="j" d="M66.41,129.23v4a13.36,13.36,0,0,0,5,2.42c3,.72,3.15,1.33,3,1.75s-14,0-14,0a3.79,3.79,0,0,1,.43-3.08c1-1.7.62-4.4.67-4.71S66.41,129.23,66.41,129.23Z"/><path class="q" d="M26.08,84.48s7.19,7,7.79,8,8.17-3.1,8.77-2.14S36,97.5,34.78,97.82s-5.48-4.76-5.48-4.76Z"/><path class="q" d="M38.91,84.23a32.11,32.11,0,0,1,3,1.85c1.12.83.73,3.61.7,4.26l1.07-2.67s-5.52-6-7.33-6.63A9.67,9.67,0,0,0,38.91,84.23Z"/><path class="q" d="M49,98.22h0L43.62,100,35,99.25a13.13,13.13,0,0,1,1.53-2.16c.34-.16,1.55.08,5.46.49S49,98.22,49,98.22Z"/><path class="q" d="M61.81,101.61H57.9a36.61,36.61,0,0,1-3.35,6.86,11.33,11.33,0,0,1-3.22,3.31s2.94,1.68,4.9-.9,1.55-5.64,2.28-6.85A4.39,4.39,0,0,1,61.81,101.61Z"/><path class="r" d="M22.05,87.19S17,85.85,18.19,93.61s4.58,31.62,4.58,31.62H57.68l.62-3.76L59,110.81l-8.69.24S46.55,99.3,41.48,99.3l-10.85-.1Z"/><path class="f" d="M23.82,80.77s-5.61,2.58.43,10l5.28,7.7s3.39,3.27,7.86,0,7.06-5.2,7.06-5.2l-1.81-2.92s-9.82,5-9.76,4.8-5.4-9.29-5.4-9.29S26.11,80.62,23.82,80.77Z"/><path class="s" d="M46,86.74l2-5.34,3.1-1.16-3.5,8.58s-1.14,1.05-1.34.81A15.92,15.92,0,0,1,46,86.74Z"/><path class="j" d="M42.64,90.34l1.07-2.67A2.62,2.62,0,0,1,45,86.76c.8-.23,1.53-.92,2-1s.61.12.24.65c0,0,.81-.73,1.46-1.25s1,.28.24,1.12-.57.52-.57.52a1.66,1.66,0,0,1-.28,1.58.88.88,0,0,1,0,1.09,1.2,1.2,0,0,1,0,1.29,7.55,7.55,0,0,1-3.77,2.54Z"/><polygon class="t" points="47.53 80.9 48.03 81.4 51.14 80.24 50.63 79.74 47.53 80.9"/><polygon class="u" points="42.64 90.34 41.34 91 42.97 94.36 44.45 93.26 42.64 90.34"/><polygon class="q" points="72.34 115.64 71.39 114.24 67.07 123.05 66.89 129.19 72.34 115.64"/><polygon class="q" points="67.5 108.51 66.89 129.19 68.41 125.42 67.5 108.51"/><polygon class="q" points="67.02 124.79 57.74 126 57.9 129.92 66.89 129.19 67.02 124.79"/><polygon class="u" points="60.35 93.26 58.52 93.03 58.52 96.37 60.35 96.37 60.35 93.26"/><path class="j" d="M60.35,93.26s1.56.46,1.74,1.69.73,1.09,0,2.58-1.37,1.49-1.45,1-.29-2.15-.29-2.15Z"/><path class="j" d="M60.35,93.26s1.56.46,1.74,1.69.73,1.09,0,2.58-1.37,1.49-1.45,1-.29-2.15-.29-2.15Z"/><path class="o" d="M33.14,71.94l-4.41-2.43a.11.11,0,0,0-.16.06v0a.12.12,0,0,0,.07.15l4.2,2.93a.4.4,0,0,0,.54-.17A.41.41,0,0,0,33.2,72h0Z"/><path class="o" d="M31.92,74.94,28.6,73a.13.13,0,0,0-.18.06.14.14,0,0,0,0,.15l3,2.41a.4.4,0,0,0,.57,0,.41.41,0,0,0,0-.56L32,75Z"/><path class="v" d="M38.11,72.25l-5.43-.44-2.05,4.1,2.54,1.6,2.43,1a3.75,3.75,0,0,0,2.51-3.75h0Z"/><polygon class="w" points="37.99 74.36 34.21 73.33 37.74 75.17 37.99 74.36"/><polygon class="w" points="37.08 77.34 33.81 74.85 36.26 77.77 37.08 77.34"/><rect class="x" x="152.07" y="0.14" width="2.41" height="36.79"/><polygon class="x" points="164.5 39.76 141.16 39.76 152.21 33.16 154.02 33.16 164.5 39.76"/></svg>