<?xml version="1.0" encoding="utf-8"?>
<!-- Generator: Adobe Illustrator 24.1.0, SVG Export Plug-In . SVG Version: 6.00 Build 0)  -->
<svg version="1.1" id="Layer_1" xmlns="http://www.w3.org/2000/svg" xmlns:xlink="http://www.w3.org/1999/xlink" x="0px" y="0px"
	 viewBox="0 0 190 140" style="enable-background:new 0 0 190 140;" xml:space="preserve">
<style type="text/css">
	.st0{clip-path:url(#SVGID_2_);}
	.st1{fill:#F0F2DF;}
	.st2{fill:#7CD0DE;}
	.st3{clip-path:url(#SVGID_4_);}
	.st4{fill:#252733;}
	.st5{fill:#89DDEC;}
	.st6{fill:#F2A572;}
	.st7{fill:#CF804B;}
	.st8{fill:#332938;}
	.st9{fill:#F9D4A1;}
	.st10{fill:#FFFFFF;}
	.st11{opacity:0.3;fill:#CE624F;enable-background:new    ;}
	.st12{fill:#3BB0D9;}
	.st13{fill:#2B99CE;}
	.st14{fill:#39B3DA;}
	.st15{fill:#238E09;}
</style>
<g id="Layer_2_1_">
	<g id="Layer_1-2">
		<g>
			<defs>
				<path id="SVGID_1_" d="M1.8,0h186.5c1,0,1.8,0.8,1.8,1.8v136.5c0,1-0.8,1.8-1.8,1.8H1.8c-1,0-1.8-0.8-1.8-1.8V1.8
					C0,0.8,0.8,0,1.8,0z"/>
			</defs>
			<clipPath id="SVGID_2_">
				<use xlink:href="#SVGID_1_"  style="overflow:visible;"/>
			</clipPath>
			<g class="st0">
				<rect class="st1" width="190" height="140"/>
				<path class="st2" d="M135,73.1c1.1-1.1,2.1-2.3,2.7-3.7v-0.1l0.6-1.6l0,0c0.3-1.1,0.5-2.3,0.5-3.5v-2.5
					c2.6-4.5,2.8-10.5-1.1-16.4c-0.6-0.9-1.4-1.7-2.4-2.3c-7.8-5-15.9-2.8-20.2,2.5c-2.6-2-6.5-2.4-10.3,0.3
					c-0.1,0.1-0.3,0.2-0.4,0.4c-4.6,6.4-0.2,13.3,5.9,13.3c0.5,0,1,0,1.4-0.1c0.3,6.1,2.4,9.9,6.1,13v4.9c-1.2,2.4-3.6,4.1-6.3,4.6
					c-0.1,0.1-0.1,0.3-0.2,0.4l-0.1-0.2l-0.9,0.3c-2,0.3-7.3,1.6-8.8,6.4c-0.8,2.7-3.4,26.7-3.4,26.7l0,0c-0.2,1.4-0.2,2.2-0.2,2.2
					c3.1,1.3,9.4,0.9,13.7-1.2c0.6-0.3,1.3-0.6,1.9-1l6.1,0.1l1.4,6l10.3-6.1l0.1,0.1c4.3,2.1,8.1,2.2,11.2,0.9
					c0.1,0-0.4-13.5-0.8-21.8l0.3-5.8c-1.2-6.7-8.1-6.8-8.7-6.8l-0.1-0.1c0,0-4.6,0.5-4.6-3.1v-3.6c0.6,0.2,1.2,0.3,1.9,0.3
					c1.1-0.2,2.2-0.7,3.1-1.4"/>
				<g>
					<defs>
						<rect id="SVGID_3_" x="32.6" y="24.1" width="183.1" height="130.4"/>
					</defs>
					<clipPath id="SVGID_4_">
						<use xlink:href="#SVGID_3_"  style="overflow:visible;"/>
					</clipPath>
					<g class="st3">
						<path class="st5" d="M103,85.9c-1.7-13.6-7.5-16.8-9.9-17.5c-1.9-0.8-4-1.4-6-1.9l0,0c-0.7-0.2-1.4-0.3-2.2-0.5
							c0,0-0.1,0.1-0.2,0.2l0.2-10.5l0,0v-0.4l0.8,0.1c1.3,0.1,2.4-0.9,2.5-2.2c0,0,0,0,0,0l0.3-4.8c0-0.6-0.1-1.2-0.5-1.7
							c0.6-0.9,1.1-1.9,1.2-3c0.3-2.6-0.7-7.8-5.2-9.3c-0.1-0.2-0.3-0.3-0.4-0.5C81,25.7,71.4,26.4,64.8,31
							c-3.8,2.4-5.1,7.3-3.1,11.2c0.9,0.2,1.7,0.2,2.6,0L64,46.8l0,0v0.5l-0.5,6.2l0,0l-0.3,4c0,1.5,0.5,2.9,1.4,4
							c0.9,0.8,1.9,1.3,3.1,1.6l-0.2,2.3l0,0l-0.1,1.4h-0.1h-0.1l-2-0.1c0,0,0,0,0,0.1c-0.8,0-1.8,0.1-2.8,0.2l0,0
							c-2.3,0-4.5,0.6-6.4,1.7c-1.3,0.6-2.5,1.5-3.5,2.6c-2.3,2.4-3.9,5.3-4.9,8.5L33,141.1l8.2,2.7l2-3.1
							c-1.6,15.3-2.8,27.1-2.8,27.1l0,0l2.5,0.1l-0.4,2.3l18,2.2c0.5,19.6,2.8,24.1,2.8,24.1s9-1.7,9.1-3.7s3.9-10.9,3.9-10.9
							l-1.5-7.8l16,1.9l0.8-6.2l5.5,0.2v-41.9c0.6-0.5,1-0.9,1.3-1.1c2-0.7,3.7-1.2,4.7-1.5c6.6-2.1,4.1-9.2,4.1-9.2
							S105.2,103.3,103,85.9z"/>
						<path class="st2" d="M42.5,104c-1.3-1.2-2.3-2.6-3-4.1v-0.1l-0.7-1.7l0,0c-0.4-1.2-0.6-2.5-0.6-3.8v-2.8
							c-4.3-7.6-1.6-17.3,6.1-21.6c6.7-3.8,15.2-2.2,20,3.7c3.8-2.9,9.2-2.2,12.1,1.6c2.9,3.8,2.2,9.2-1.6,12.1
							c-1.5,1.2-3.3,1.8-5.2,1.8c-0.5,0-1.1,0-1.6-0.1c-0.3,6.7-2.7,10.9-6.8,14.3v5.4c1.4,2.7,4,4.5,6.9,5c0.1,0.2,0.1,0.3,0.2,0.5
							l0.1-0.2l1,0.3c2.2,0.3,8,1.8,9.7,7c0.9,2.9,3.8,29.5,3.8,29.5l0,0c0.2,1.5,0.3,2.5,0.2,2.5c-3.4,1.4-10.4,1-15.1-1.3
							c-0.7-0.3-1.4-0.7-2.1-1.1l-6.8,0.1l-0.1-0.1H46.3l-0.1,0.1c-4.7,2.3-8.9,2.4-12.4,1c-0.1,0,0.5-14.8,0.9-24l-0.3-6.4
							c1.3-7.4,9-7.5,9.7-7.5l0.1-0.1c0,0,5.1,0.5,5.1-3.5v-4c-0.7,0.2-1.3,0.3-2,0.3c-1.3-0.2-2.5-0.7-3.5-1.5"/>
						<path class="st5" d="M112.5,132.7c1.7-13.9,7.6-17.1,10.1-17.9c2-0.8,4.1-1.5,6.1-2l0,0l2.3-0.5l0.2,0.3l-0.2-10.7l0,0v-0.4
							l-0.8,0.1c-1.3,0.1-2.4-0.9-2.5-2.2l-0.4-4.9c0-0.6,0.1-1.2,0.5-1.7c-0.7-0.9-1.1-2-1.3-3.1c-0.3-2.7,0.7-8,5.3-9.4
							c0.1-0.2,0.3-0.3,0.5-0.5c2.5-8.3,12.2-7.6,19-2.9c3.8,2.4,5.2,7.4,3.1,11.5c-0.9,0.2-1.8,0.2-2.6,0l0.3,4.6l0,0v0.5l0.5,6.3
							l0,0l0.3,4c0.1,1.5-0.5,3-1.5,4.1c-0.9,0.8-2,1.3-3.1,1.6l0.2,2.3l0,0l0.1,1.4l0.1-0.1h0.1l2-0.2v0.1c0.8,0,1.8,0,2.9,0.2l0,0
							c2.3,0,4.5,0.6,6.5,1.7c1.4,0.6,2.6,1.5,3.5,2.7c2.3,2.5,4,5.4,4.9,8.7l15,62.6l-8.4,2.7l-2-3.2c1.6,15.6,2.9,27.6,2.9,27.6
							l0,0l-2.5,0.1l0.4,2.4l-18.4,2.2c-0.5,20-2.8,24.6-2.8,24.6s-9.2-1.7-9.2-3.7s-4-11.1-4-11.1l1.5-8l-16.2,2l-0.8-6.3l-5.6,0.2
							v-42.7c-0.6-0.5-1.1-0.9-1.3-1.2l-4.8-1.6c-6.7-2.1-4.2-9.4-4.2-9.4S110.3,150.4,112.5,132.7z"/>
					</g>
				</g>
				<path class="st4" d="M92.6,94L92.6,94c-4.2-3.4-6.6-7.8-6.8-14.8v-5.4h6.8L92.6,94z"/>
				<path class="st6" d="M92.7,99.3c-1.4,2.7-4,4.7-7,5.2c-2.1,4.6,0.2,12.6,0.2,12.6l8.6,5.5c0,0,23-8.5,23.1-9.6s-7.8-8.6-7.8-8.6
					s-5.1,0.5-5.1-3.5S92.7,99.3,92.7,99.3z"/>
				<circle class="st4" cx="101.8" cy="74.4" r="15.9"/>
				<rect x="92.6" y="85.2" class="st6" width="12.1" height="17.4"/>
				<path class="st7" d="M96.3,92.6c0,4.6,3.7,8.3,8.3,8.3V90.3h-8.3L96.3,92.6z"/>
				<path class="st6" d="M104,63.7c-6.4,0-11.6,5.2-11.6,11.6c0,0,0,0,0,0v10.4c0,6.4,10.1,11.6,14.2,11.6c1.9,0,8.9-4,8.9-12.3
					v-9.8C115.6,68.8,110.4,63.7,104,63.7z"/>
				<path class="st7" d="M110.1,85.3c-0.3,0-0.6,0.3-0.6,0.6c0,0,0,0,0,0c0,0.4-0.3,0.7-0.6,0.7c0,0,0,0,0,0h-0.7
					c-0.3,0-0.6,0.3-0.6,0.6c0,0.3,0.2,0.6,0.6,0.6c0,0,0,0,0,0h0.7c1,0,1.8-0.9,1.8-1.9C110.6,85.6,110.4,85.3,110.1,85.3
					C110.1,85.3,110.1,85.3,110.1,85.3z"/>
				<path class="st4" d="M92.4,83.2L92.4,83.2c1.1,0,2.1-0.9,2.1-2.1l0,0v-9.4h-2.4L92.4,83.2z"/>
				<path class="st6" d="M90.7,78.5h-0.4c-1,0-1.8,0.8-1.8,1.8v4.2c0,1.3,1.1,2.3,2.3,2.3h1.7v-6.5C92.6,79.3,91.7,78.5,90.7,78.5z"
					/>
				<path class="st8" d="M112.8,80.4c-0.5,0-0.8,0.5-0.8,1.1s0.4,1.1,0.8,1.1s0.8-0.5,0.8-1.1S113.2,80.4,112.8,80.4z"/>
				<path class="st8" d="M104.2,80.4c-0.4,0-0.8,0.5-0.8,1.1s0.3,1.1,0.8,1.1s0.8-0.5,0.8-1.1S104.6,80.4,104.2,80.4z"/>
				<path class="st4" d="M105.8,61.2C96.4,52.1,87,72.5,93.2,74.9C93.2,74.9,115.2,70.2,105.8,61.2z"/>
				<path class="st4" d="M107.2,62.5c0,0,3.4,9.7,8.8,11.6C119.8,75.4,109.6,57.8,107.2,62.5z"/>
				<path class="st9" d="M90.8,85.7c-0.7,0-1.2,0.5-1.3,1.2c0,0.7,0.5,1.2,1.2,1.3c0.7,0,1.2-0.5,1.3-1.2c0,0,0,0,0,0
					C92,86.2,91.5,85.7,90.8,85.7z"/>
				<path class="st4" d="M110.5,78.1c-0.2,0-0.4-0.2-0.5-0.4c-0.2-0.3-0.1-0.8,0.2-1c0,0,0,0,0,0c1.8-0.7,3.8-0.8,5.8-0.4
					c0.3,0.1,0.4,0.4,0.3,0.6c-0.1,0.3-0.4,0.4-0.6,0.3c0,0,0,0,0,0c-2.2-0.7-4.9,0.8-5,0.8C110.7,78.1,110.6,78.1,110.5,78.1z"/>
				<path class="st4" d="M107,78.1c-0.2-0.1-0.5-0.2-0.7-0.3c0,0-3.5-1.9-6.6-0.6c-0.2,0.1-0.6,0-0.7-0.2c-0.1-0.2,0-0.6,0.2-0.7
					c0,0,0.1,0,0.1,0c3.5-1.5,7.9,0.3,8.1,0.4c0.4,0.2,0.4,0.8,0.2,1C107.5,77.9,107.3,78.1,107,78.1z"/>
				<path class="st4" d="M94.5,78.3c0,0-0.1-3.3,1.9-4.2s-0.3-1.9-0.4-1.9c-0.7,0.4-1.4,0.8-2.1,1.3L94.5,78.3z"/>
				<circle class="st4" cx="84.2" cy="71.2" r="8.6"/>
				<path class="st10" d="M108.6,91.9c-1.7,0-3.4-1-3.4-2.3l6.7-0.1C111.8,90.8,109.9,91.9,108.6,91.9z"/>
				<path class="st11" d="M113.1,84.7c0.9,0,1.6,0.2,1.6,0.6s-0.7,0.6-1.6,0.6s-1.6-0.3-1.6-0.6S112.2,84.7,113.1,84.7z"/>
				<path class="st11" d="M103.4,84.7c0.9,0,1.6,0.2,1.6,0.6s-0.7,0.6-1.6,0.6s-1.6-0.3-1.6-0.6S102.5,84.7,103.4,84.7z"/>
				<path class="st12" d="M85.4,104.7c0,0,2.5,7.9,14.2,7.6c1.9,0,3.7-0.5,5.4-1.4c2.5-1.3,4.3-3.6,4.8-6.4c0,0,3.2,0.2,4.5,1.3
					l1.8,35.7H77.5l4.2-35.7L85.4,104.7z"/>
				<path class="st12" d="M109.8,104.5c0.3,0,8.4-0.1,9.7,7.5l-1.5,29.4h-3.1l-3.3-33.3L109.8,104.5z"/>
				<path class="st12" d="M85.2,104.9c0,0-8.5,0.6-10.5,7.1c-0.9,2.9-3.8,29.5-3.8,29.5H79L85.2,104.9z"/>
				<path class="st13" d="M90.2,130.3c0,0,1,4.4,9.5,11.1h9.4l-12.2-11.1L90.2,130.3z"/>
				<path class="st14" d="M107.7,141.6c4.7,2.3,8.9,2.4,12.4,1c0.2-0.1-1.2-31.2-1.2-31.2l-7-0.6c-2-0.2-3.8,1.3-3.9,3.3
					c0,0.2,0,0.4,0,0.7l1.8,16.7l-20.2-8.2l-3,4.8"/>
				<polyline class="st13" points="94.6,141.6 84.3,141.5 96.6,131.3 107.1,128.9 				"/>
				<path class="st14" d="M74.6,112.4l7-0.6c2-0.2,3.8,1.3,3.9,3.3c0,0.2,0,0.4,0,0.7l-1.8,16.8l20.3-8.2l3,4.8
					c0,0-12.2,9.1-21.1,13.4c-4.7,2.3-11.7,2.7-15.1,1.3C70.5,143.9,74.6,112.4,74.6,112.4z"/>
				<path class="st7" d="M108.5,119.2c0,0,4.6-2,5.2-2.3c0.3,0.4,0.2,1.1-0.2,1.4c0,0-0.1,0.1-0.1,0.1c-0.7,0.4-1.3,0.8-2.1,1.1
					L108.5,119.2z"/>
				<path class="st7" d="M102.3,122.6c0,0,3.8-2.3,5.6-3.2c1.1-0.6,2.4-0.7,3.5-0.2c0.4,0.1,0.7-0.3,1.2-0.1
					c1.9,0.7,1.9,5.7,1.3,6.3c-0.3,0.3-0.7,0.6-1.1,0.7c-1.6,0.6-3.3,0.7-5,0.4c-1-0.1-2.1,0.3-2.8,1L102.3,122.6z"/>
				<polygon class="st13" points="83,115 82.3,133.5 85.1,131.9 				"/>
				<path class="st7" d="M84.8,127.8c0,0,4.6-1.9,6.8,0.4l-6.3,3.7L84.8,127.8z"/>
			</g>
		</g>
		<path class="st15" d="M164.6,45.1c1.3,0,14.8-5.9,14.8-26c0-0.1-0.1-0.2-0.2-0.3c-4.5-2.9-9.5-4.9-14.7-6
			c-5.2,1.1-10.2,3.1-14.7,6c-0.1,0.1-0.2,0.2-0.2,0.3C149.9,39.2,163.3,45.1,164.6,45.1z M157.1,28.7l1.5-1.5
			c0.1-0.1,0.4-0.1,0.5,0c0,0,0,0,0,0l3.9,3.9l7-7c0.1-0.1,0.4-0.1,0.5,0c0,0,0,0,0,0l0,0l1.5,1.5c0.1,0.1,0.1,0.4,0,0.5
			c0,0,0,0,0,0l0,0l-8.8,8.8c-0.1,0.1-0.4,0.1-0.5,0l-5.7-5.7C157,29.1,157,28.9,157.1,28.7C157.1,28.8,157.1,28.8,157.1,28.7
			L157.1,28.7z"/>
	</g>
</g>
</svg>
