<?xml version="1.0" encoding="utf-8"?>
<!-- Generator: Adobe Illustrator 24.1.0, SVG Export Plug-In . SVG Version: 6.00 Build 0)  -->
<svg version="1.1" id="Layer_1" xmlns="http://www.w3.org/2000/svg" xmlns:xlink="http://www.w3.org/1999/xlink" x="0px" y="0px"
	 viewBox="0 0 190 140" style="enable-background:new 0 0 190 140;" xml:space="preserve">
<style type="text/css">
	.st0{fill:#F0F2DF;}
	.st1{clip-path:url(#SVGID_2_);}
	.st2{fill:#D6D9BF;stroke:#F0F2DF;stroke-width:2;stroke-miterlimit:10;}
	.st3{fill:none;stroke:#F0F2DF;stroke-width:2;stroke-miterlimit:10;}
	.st4{fill:#252733;}
	.st5{fill:#F2A572;}
	.st6{fill:#CF804B;}
	.st7{fill:#332938;}
	.st8{fill:#F9D4A1;}
	.st9{fill:#020202;}
	.st10{opacity:0.3;fill:#CE624F;enable-background:new    ;}
	.st11{fill:#3BB0D9;}
	.st12{fill:#2B99CE;}
	.st13{fill:#39B3DA;}
	.st14{fill:#FFFFFF;}
</style>
<g id="Layer_2_1_">
	<g id="Layer_1-2">
		<rect class="st0" width="190" height="140"/>
		<g>
			<defs>
				<rect id="SVGID_1_" width="190" height="140"/>
			</defs>
			<clipPath id="SVGID_2_">
				<use xlink:href="#SVGID_1_"  style="overflow:visible;"/>
			</clipPath>
			<g class="st1">
				<rect class="st0" width="190" height="140"/>
				<path class="st2" d="M116.8,77.3h81.3c2.8,0,5,2.2,5,5v31c0,2.8-2.2,5-5,5h-81.3c-2.8,0-5-2.2-5-5v-31
					C111.8,79.5,114.1,77.3,116.8,77.3z"/>
				<polygon class="st2" points="116.3,140.3 110.9,140.3 110.9,129.9 119.2,129.9 				"/>
				<path class="st2" d="M203.7,92.2L203.7,92.2c-4.1,0-7.4,3.3-7.4,7.4V118h-77.6V99.6c0-4.1-3.3-7.4-7.4-7.4l0,0l0,0
					c-3.2,0-5.8,2.6-5.8,5.8c0,0,0,0,0,0v29.4c0,3.2,2.6,5.8,5.8,5.8h92.4c3.2,0,5.8-2.6,5.8-5.8V98
					C209.5,94.8,206.9,92.2,203.7,92.2C203.7,92.2,203.7,92.2,203.7,92.2z"/>
				<rect x="119.1" y="106.8" class="st2" width="77" height="11.4"/>
				<line class="st3" x1="157.3" y1="77.7" x2="157.3" y2="107.2"/>
				<path class="st4" d="M48.8,92.1L48.8,92.1c-4.3-3.5-6.7-7.9-6.9-15.1v-5.5h7L48.8,92.1z"/>
				<path class="st5" d="M48.8,97.5c-1.4,2.8-4,4.7-7.1,5.2c-2.1,4.7,0.3,12.8,0.3,12.8l8.7,5.6c0,0,23.4-8.7,23.5-9.7s-8-8.8-8-8.8
					s-5.1,0.5-5.1-3.5S48.8,97.5,48.8,97.5z"/>
				<circle class="st4" cx="58.1" cy="72.2" r="16.1"/>
				<rect x="48.7" y="83.2" class="st5" width="12.2" height="17.7"/>
				<path class="st6" d="M52.5,90.7c0,4.7,3.8,8.5,8.4,8.5c0,0,0,0,0,0V88.4h-8.5V90.7z"/>
				<path class="st5" d="M60.3,61.3c-6.5,0-11.7,5.3-11.7,11.8v10.6c0,6.5,10.3,11.7,14.5,11.7c1.9,0,9.1-4.1,9.1-12.5V73
					C72.1,66.6,66.8,61.3,60.3,61.3z"/>
				<path class="st6" d="M66.5,83.3c-0.3,0-0.6,0.3-0.6,0.6c0,0.4-0.3,0.7-0.6,0.7h-0.7c-0.3,0-0.6,0.3-0.5,0.7
					c0,0.3,0.3,0.5,0.5,0.5h0.7c1,0,1.8-0.9,1.8-1.9c0,0,0,0,0,0C67.1,83.5,66.8,83.3,66.5,83.3C66.5,83.3,66.5,83.3,66.5,83.3z"/>
				<path class="st4" d="M48.5,81.2L48.5,81.2c1.2,0,2.1-0.9,2.1-2.1c0,0,0,0,0,0v-9.5h-2.5L48.5,81.2z"/>
				<path class="st5" d="M46.8,76.4h-0.4c-1,0-1.9,0.8-1.9,1.9l0,0v4.3c0,1.3,1.1,2.4,2.4,2.4c0,0,0,0,0,0h1.8v-6.7
					C48.8,77.2,47.9,76.4,46.8,76.4C46.9,76.4,46.9,76.4,46.8,76.4z"/>
				<path class="st7" d="M69.2,78.3c-0.5,0-0.8,0.5-0.8,1.2s0.4,1.2,0.8,1.2s0.8-0.5,0.8-1.2S69.7,78.3,69.2,78.3z"/>
				<path class="st7" d="M60.5,78.3c-0.4,0-0.8,0.5-0.8,1.1s0.3,1.1,0.8,1.1s0.8-0.5,0.8-1.1S60.9,78.3,60.5,78.3z"/>
				<path class="st4" d="M62.2,58.8C52.6,49.6,43,70.3,49.4,72.7C49.4,72.7,71.7,68,62.2,58.8z"/>
				<path class="st4" d="M63.5,60.2c0,0,3.5,9.8,9,11.7C76.4,73.2,66,55.4,63.5,60.2z"/>
				<path class="st8" d="M46.9,83.7c-0.7,0-1.2,0.6-1.2,1.2c0,0.7,0.6,1.2,1.2,1.2s1.2-0.6,1.2-1.2C48.2,84.2,47.6,83.7,46.9,83.7
					L46.9,83.7z"/>
				<path class="st4" d="M66.7,74.8c-0.2-0.1-0.3-0.3-0.3-0.6c-0.1-0.4,0.2-0.7,0.6-0.8c0,0,0,0,0.1,0c2,0.2,3.9,0.9,5.5,2.1
					c0.2,0.2,0.2,0.5,0,0.7c-0.2,0.2-0.5,0.2-0.7,0.1c0,0,0,0,0,0c-1.8-1.6-4.8-1.4-4.9-1.4C66.9,74.8,66.8,74.8,66.7,74.8z"/>
				<path class="st4" d="M63.6,74.7c-0.3,0-0.5,0-0.8,0c0,0-4-0.6-6.5,1.7c-0.2,0.2-0.5,0.2-0.7,0c-0.2-0.2-0.2-0.5,0-0.7
					c0,0,0,0,0,0c2.9-2.7,7.6-2.4,7.8-2.4c0.5,0,0.6,0.6,0.6,0.9C64,74.3,63.8,74.6,63.6,74.7z"/>
				<path class="st4" d="M50.7,76.2c0,0-0.1-3.4,1.9-4.3s-0.3-1.9-0.4-2c-0.7,0.4-1.5,0.9-2.1,1.4L50.7,76.2z"/>
				<circle class="st4" cx="40.2" cy="68.9" r="8.8"/>
				<path class="st9" d="M65,89.2c-1.8,0.1-3.5-0.2-3.5-0.6l6.8-0.2C68.3,88.7,66.3,89.1,65,89.2z"/>
				<path class="st10" d="M69.6,82.6c0.9,0,1.6,0.3,1.6,0.6s-0.7,0.6-1.6,0.6s-1.7-0.3-1.6-0.6S68.7,82.6,69.6,82.6z"/>
				<path class="st10" d="M59.7,82.6c0.9,0,1.6,0.3,1.6,0.6s-0.7,0.6-1.6,0.6S58,83.5,58,83.2S58.8,82.6,59.7,82.6z"/>
				<path class="st11" d="M41.4,103c0,0,2.5,8.1,14.4,7.7c1.9,0,3.8-0.5,5.5-1.4c2.5-1.3,4.3-3.7,4.9-6.5c0,0,3.3,0.2,4.6,1.3
					l1.9,36.2H33.4l4.3-36.3L41.4,103z"/>
				<path class="st11" d="M66.2,102.8c0.3,0,8.5,0,9.8,7.7l-1.5,29.9h-3.1l-3.3-33.8L66.2,102.8z"/>
				<path class="st11" d="M41.2,103.2c0,0-8.6,0.7-10.7,7.2c-0.9,3-3.9,29.9-3.9,29.9h8.2L41.2,103.2z"/>
				<path class="st12" d="M46.3,129c0,0,1,4.5,9.7,11.3h9.5L53.1,129H46.3z"/>
				<path class="st13" d="M64,140.4c4.8,2.4,9,2.4,12.6,1c0.2-0.1-1.2-31.7-1.2-31.7l-7.1-0.6c-2-0.2-3.8,1.3-4,3.4
					c0,0.2,0,0.5,0,0.7l1.9,17l-20.5-8.3l-3,4.8"/>
				<polyline class="st12" points="50.8,140.4 40.3,140.4 52.8,130 61.2,126.5 				"/>
				<path class="st13" d="M30.5,110.8l7.1-0.6c2-0.2,3.8,1.3,4,3.4c0,0.2,0,0.5,0,0.7l-1.9,17l20.5-8.3l1.1,3
					c0,0-10.5,11.1-19.6,15.5c-4.8,2.3-11.8,2.7-15.4,1.3C26.3,142.8,30.5,110.8,30.5,110.8z"/>
				<path class="st6" d="M66.2,121.6c0,0-0.1-6.7-0.2-7.5c0,0,1.6-0.7,2,0.6c0.3,1,0.4,2,0.4,3L66.2,121.6z"/>
				<path class="st6" d="M58.6,121.2c0,0,3.9-2.3,5.7-3.3c1.1-0.6,2.4-0.7,3.6-0.1c0.4,0.1,0.7-0.3,1.3-0.1c1.9,0.7,2,5.8,1.3,6.4
					c-0.3,0.3-0.7,0.6-1.1,0.8c-1.6,0.6-3.4,0.7-5.1,0.4c-1-0.1-2.1,0.3-2.8,1L58.6,121.2z"/>
				<polygon class="st12" points="39,113.5 38.3,132.3 41.1,130.6 				"/>
				<path class="st6" d="M40.8,126.5c0,0,4.7-1.9,6.9,0.4l-6.4,3.7L40.8,126.5z"/>
			</g>
		</g>
		<path class="st12" d="M104.6,12.5C90.6,11.4,78.3,22,77.3,36c-0.4,5.7,1.1,11.3,4.2,16l-4.3,12.8l15-3.7c3.3,1.5,6.9,2.3,10.5,2.3
			c14.1,0,25.5-11.4,25.5-25.5C128.3,24.6,118,13.5,104.6,12.5L104.6,12.5z"/>
		<circle class="st14" cx="102.6" cy="38" r="21.6"/>
		<path class="st12" d="M116.9,48.7c0-1.3-0.7-2.5-1.9-3.2l-0.5-0.3c1-0.1,1.8-0.9,1.8-1.9v-0.1c0-1-0.8-1.9-1.9-1.9
			c-0.3,0-0.6,0.1-0.8,0.2l-0.5,0.2l-1.6-1.3c-0.5-0.4-0.9-0.9-1.1-1.5l-0.4-0.9c-0.2-0.4-0.3-0.9-0.3-1.4v-0.4l2.3-0.6l-0.9-4.7
			c-0.2-1-0.9-1.8-1.9-2.1l-3.8-1.1v-1.3c0.7-0.7,1.1-1.7,1.1-2.7v-1.7c0.1-2.1-1.5-3.9-3.6-4c-2.1-0.1-3.9,1.5-4,3.6
			c0,0.1,0,0.3,0,0.4v1.6c0,1,0.4,2,1.1,2.7v1.3L96,29c-1,0.3-1.7,1.1-1.9,2.1l-0.9,4.7l2.3,0.6v0.4c0,0.5-0.1,0.9-0.3,1.4l-0.4,0.9
			c-0.2,0.6-0.6,1.1-1.1,1.5l-1.6,1.3l-0.5-0.2c-0.9-0.5-2.1-0.1-2.5,0.8c-0.1,0.3-0.2,0.5-0.2,0.8v0.1c0,1,0.8,1.8,1.8,1.9
			l-0.5,0.3c-1.8,1-2.4,3.3-1.3,5c0.2,0.3,0.3,0.5,0.6,0.7h-1.6v1.1h29.6v-1.1h-1.6C116.5,50.6,116.9,49.7,116.9,48.7z M106.6,47.6
			l-1.1-0.6l0.3-0.3v-0.8c0-0.3,0.3-0.6,0.6-0.6c0,0,0,0,0,0c0.5,0,0.9-0.2,1.2-0.5l1-1c0.1-0.1,0.3-0.2,0.4-0.2
			c0.3,0,0.6,0.3,0.6,0.6c0,0,0,0,0,0c0,0.2-0.1,0.3-0.2,0.4L106.6,47.6z M95.6,44.7c-0.2-0.3-0.2-0.7,0.1-0.9
			c0.1-0.1,0.2-0.1,0.3-0.1c0.2,0,0.3,0.1,0.4,0.2l1,1c0.3,0.3,0.8,0.5,1.2,0.5c0.3,0,0.6,0.3,0.6,0.6l0,0v0.7l0.9,0.9l-0.9,0.9
			L95.6,44.7z M100.9,46.7l-0.6-0.5v-0.2c0-0.9-0.8-1.7-1.7-1.7c-0.2,0-0.3-0.1-0.4-0.2l-1-1c-0.1-0.1-0.3-0.2-0.4-0.3
			c0.2-0.2,0.4-0.4,0.6-0.6c1.6,0.9,3.3,1.4,5.1,1.5c1.8-0.1,3.5-0.6,5.1-1.5c0.2,0.2,0.4,0.4,0.6,0.6c-0.2,0.1-0.3,0.2-0.4,0.3
			l-1,1c-0.1,0.1-0.3,0.2-0.4,0.2c-0.9,0-1.7,0.8-1.7,1.7v0.2l-0.2,0.2l-2.1-1.2L100.9,46.7z M98.7,37.1v-1.4l0.3-0.1
			c3.1-1.2,5.8-3.4,7.6-6.2l1.7,0.5l-0.5,1.3c-0.9,2.2-2.2,4.1-4,5.7c-1.4,1.2-3,2.2-4.7,2.8L98.4,40C98.6,39.1,98.8,38.1,98.7,37.1
			L98.7,37.1z M107.2,41.2c-2.8,1.8-6.3,1.8-9.1,0.1l1.4-0.5c2.7-1,5.1-2.7,6.9-5v1.4C106.4,38.5,106.7,39.9,107.2,41.2L107.2,41.2z
			 M109,38.6l0.4,0.9c0.3,0.8,0.8,1.5,1.5,2l2.2,1.7l1.1-0.6c0.1-0.1,0.2-0.1,0.3-0.1c0.4,0,0.8,0.3,0.8,0.8v0.1
			c0,0.4-0.3,0.8-0.8,0.8c0,0,0,0,0,0h-1.3l-4.1-2.3c-0.4-0.2-0.6-0.5-0.8-0.9c-0.5-1.2-0.8-2.5-0.8-3.9v-0.2l1.1-0.3v0.1
			C108.7,37.4,108.8,38,109,38.6z M110.7,35l-3.2,0.8v-1.6c0.5-0.8,1-1.7,1.3-2.6l0.5-1.3c0.3,0.2,0.5,0.6,0.6,1L110.7,35z
			 M104.2,28c-0.5,0.4-1,0.7-1.6,0.8c-0.6-0.1-1.2-0.4-1.6-0.8v-0.7c0.5,0.2,1.1,0.4,1.7,0.4c0.6,0,1.1-0.1,1.6-0.4L104.2,28z
			 M99.9,22.2c0.1-1.5,1.4-2.7,2.9-2.6c1.4,0.1,2.5,1.2,2.6,2.6v1.7c-0.1,1.5-1.4,2.7-2.9,2.6c-1.4-0.1-2.5-1.2-2.6-2.6V22.2z
			 M95.2,31.3c0.1-0.6,0.6-1.1,1.1-1.2l3.9-1.2c1.2,1.3,3.2,1.4,4.5,0.2c0.1-0.1,0.1-0.1,0.2-0.2l0.7,0.2c-1.7,2.5-4.1,4.4-6.8,5.5
			v-1.9h-1.1v3.1L94.5,35L95.2,31.3z M90,43.4L90,43.4c0-0.5,0.3-0.9,0.8-0.9c0,0,0,0,0,0c0.1,0,0.2,0,0.3,0.1l1.1,0.6l2.1-1.7
			c0.7-0.5,1.2-1.2,1.5-2l0.4-0.9c0.2-0.6,0.3-1.2,0.3-1.8v-0.1l1.1,0.3v0.2c0,1.3-0.3,2.6-0.7,3.9c-0.2,0.4-0.4,0.7-0.8,0.9
			L92,44.2h-1.2C90.3,44.2,90,43.8,90,43.4z M92,51.3c-1.4,0-2.6-1.2-2.6-2.6c0-0.9,0.5-1.8,1.3-2.2l3.7-2.1c0,0.4,0.2,0.8,0.5,1.1
			l4.9,4.9c0.4,0.4,0.8,0.7,1.2,1c-0.2,0-0.3,0-0.5,0L92,51.3z M104.8,51.3c-1.6,0-3.1-0.6-4.3-1.8l-0.4-0.4l2.6-2.6l3.4,2l1.7,1
			l0.6-0.9l-0.8-0.5l2.7-2.7c0.3-0.3,0.5-0.7,0.5-1.1l3.7,2.1c0.8,0.5,1.3,1.3,1.3,2.2c0,1.4-1.2,2.6-2.6,2.6L104.8,51.3z"/>
	</g>
</g>
</svg>
