<svg xmlns="http://www.w3.org/2000/svg" xmlns:xlink="http://www.w3.org/1999/xlink" viewBox="0 0 190 140"><defs><style>.cls-1,.cls-6,.cls-7{fill:none;}.cls-2{clip-path:url(#clip-path);}.cls-3{fill:#f0f2df;}.cls-4{fill:#ffc298;}.cls-5{fill:#e29f71;}.cls-6{stroke:#e1927a;stroke-miterlimit:10;stroke-width:2.5px;}.cls-6,.cls-7{stroke-linecap:round;}.cls-7{stroke:#c16b65;stroke-linejoin:round;stroke-width:2px;}.cls-8{fill:#e44450;}.cls-9{fill:#fff;}</style><clipPath id="clip-path"><rect class="cls-1" width="190" height="140"/></clipPath></defs><g id="Layer_2" data-name="Layer 2"><g id="Layer_1-2" data-name="Layer 1"><g class="cls-2"><rect class="cls-3" width="187.2" height="140"/><path class="cls-4" d="M119.7,68.47c7.6,0,23.38-11,23.38-11L156.2,86s-19.45,16.48-24.66,20.26-35.9,24.12-46.65,25.31c-5.32-16.08,6-52,6-52S103.86,68.47,119.7,68.47Z"/><path class="cls-5" d="M43,57.46s7.08,5.69,12.28,9.24,5.11,3,17.16,3.42A144.8,144.8,0,0,1,93.7,72.49s6.43,12,15.84,14.93c10.16,3.17,24,10.9,26.26,13.17,2.72,2.69-2.86,9.25-8.77,8.07,2.13,1.65-1.18,7.33-6.62,7.68,1,3.43-7.56,6.26-10.87,6.26-2.6,3.08-8.27,5-15.26,4.26-5.52-.58-25.4,1-37.46-13.12A322.78,322.78,0,0,0,29.2,86Z"/><path class="cls-4" d="M71.76,83.21q5.31-3.39,10.57-6.84l5.28-3.43,2.64-1.72.72-.46c.42-.27.86-.5,1.3-.73a16.56,16.56,0,0,1,2.8-1.13,13.89,13.89,0,0,1,3-.54h.6l.39,0,.79-.11,3.17-.45c2.11-.31,4.22-.59,6.32-.79,4.21-.37,8.42-.61,12.58.38a9.16,9.16,0,0,1-.67,18c-4.22.67-8.4.13-12.57-.56-2.08-.35-4.16-.79-6.24-1.25l-3.13-.68-.78-.17-.33-.17H98a.52.52,0,0,0-.1-.23.49.49,0,0,0-.19-.16h-.1l-.11.06-.17.09-.35.19L94.2,83.9l-5.52,3q-5.52,3-11,6.11a5.74,5.74,0,0,1-5.91-9.84Z"/><path class="cls-4" d="M67.06,105.85a43.05,43.05,0,0,0,.49,13.59,4.21,4.21,0,1,1-8.25,1.72,4.63,4.63,0,0,1-.07-.52v-.08a50.73,50.73,0,0,1,1.43-15.86,3.26,3.26,0,0,1,6.4,1.13Z"/><path class="cls-4" d="M74,105.18a100,100,0,0,0,1.11,17.12,4.53,4.53,0,1,1-8.95,1.44h0a3.29,3.29,0,0,1-.06-.77v-.07a107.43,107.43,0,0,1,2-18.33,3,3,0,0,1,5.85.59Z"/><path class="cls-4" d="M81.37,108A69.47,69.47,0,0,0,82,124.8a4.53,4.53,0,1,1-8.88,1.79,2.5,2.5,0,0,1-.05-.29,5,5,0,0,1-.06-.54v-.07A76.68,76.68,0,0,1,74.65,107a3.4,3.4,0,0,1,6.72,1Z"/><path class="cls-4" d="M86.89,114.54a55.76,55.76,0,0,0,1.66,11.63,4.35,4.35,0,0,1-8.42,2.19,3.64,3.64,0,0,1-.13-.72v-.09a63.79,63.79,0,0,1,.41-13.32,3.26,3.26,0,0,1,6.48.28Z"/><path class="cls-4" d="M96,80.55s1.31,6.54,12.16,10.26c11.7,4,18.81-1.19,21.18-4.89C133,80.2,125.68,71,125.68,71Z"/><path class="cls-6" d="M67.2,105.27a71.53,71.53,0,0,0-.87,9.91"/><path class="cls-6" d="M74,106.24a111.41,111.41,0,0,0-.57,14.38"/><path class="cls-6" d="M81.51,113a45,45,0,0,0-.87,9.19"/><path class="cls-7" d="M127,108.66c-5.81-1.14-12.09-3.78-18.64-7.28"/><path class="cls-7" d="M120.41,116.34a42,42,0,0,1-14.56-5.6"/><path class="cls-7" d="M108.71,122.6s-5.2-2.35-11.7-5.68"/><rect class="cls-1" x="28.2" y="7" width="128" height="128"/><path class="cls-8" d="M89.67,19.32l-17.35,30a3.34,3.34,0,0,0,2.85,5h34.7a3.28,3.28,0,0,0,2.85-5l-17.35-30A3.26,3.26,0,0,0,89.67,19.32Z"/><polygon class="cls-9" points="95.63 28.04 93.85 41.3 91.27 41.3 89.4 28.04 95.63 28.04"/><circle class="cls-9" cx="92.52" cy="46.9" r="2.22"/></g></g></g></svg>