<svg xmlns="http://www.w3.org/2000/svg" xmlns:xlink="http://www.w3.org/1999/xlink" viewBox="0 0 190 140"><defs><style>.cls-1,.cls-10,.cls-4,.cls-7{fill:none;}.cls-2{fill:#f0f2df;}.cls-3{clip-path:url(#clip-path);}.cls-4{stroke:#39b3da;stroke-width:2px;}.cls-10,.cls-4{stroke-linecap:round;}.cls-10,.cls-4,.cls-5,.cls-7{stroke-miterlimit:10;}.cls-5{fill:#f2a572;}.cls-10,.cls-5,.cls-7{stroke:#cf804b;}.cls-6{clip-path:url(#clip-path-2);}.cls-8{fill:#39b3da;}.cls-9{clip-path:url(#clip-path-3);}</style><clipPath id="clip-path"><rect class="cls-1" width="190" height="140"/></clipPath><clipPath id="clip-path-2"><path class="cls-1" d="M81.57,121.27l5.3-16.5A43.43,43.43,0,0,0,89,91.48L90,76.85a2.69,2.69,0,0,1,2.68-2.5h0A2.69,2.69,0,0,1,95.39,77V130.3a5,5,0,0,1-4.19,4.94l-4,.67Z"/></clipPath><clipPath id="clip-path-3"><path class="cls-1" d="M109.14,121.27l-5.31-16.5a43.42,43.42,0,0,1-2.08-13.29l-1-14.63A2.69,2.69,0,0,0,98,74.35h0A2.69,2.69,0,0,0,95.32,77V130.3a5,5,0,0,0,4.19,4.94l4,.67Z"/></clipPath></defs><title>Asset 1</title><g id="Layer_2" data-name="Layer 2"><g id="Layer_1-2" data-name="Layer 1"><rect class="cls-2" width="190" height="140"/><g class="cls-3"><line class="cls-4" x1="95.51" y1="53.29" x2="95.51" y2="66.94"/><line class="cls-4" x1="113.32" y1="60.93" x2="103.67" y2="70.58"/><path class="cls-5" d="M81.57,121.27l5.3-16.5A43.43,43.43,0,0,0,89,91.48L90,76.85a2.69,2.69,0,0,1,2.68-2.5h0A2.69,2.69,0,0,1,95.39,77v53.32a4.93,4.93,0,0,1-4.13,4.87l-4.08.68Z"/><g class="cls-6"><path class="cls-7" d="M76.33,125.17l6.33-14.12c1.53-4.3,5.76-8.64,5.76-13.15l1.16-14.63a2.88,2.88,0,0,1,3-2.5h0a2.84,2.84,0,0,1,3,2.69V141l-9.06,1.37Z"/><path class="cls-5" d="M87.83,107.29l1.45-17a2.87,2.87,0,0,1,3-2.5h0a2.85,2.85,0,0,1,3,2.7v39.77a5.14,5.14,0,0,1-4.38,5.09l-4.67.71"/></g><polygon class="cls-8" points="82.01 120.88 22.59 140.75 32.57 141.82 89.98 141.82 82.01 120.88"/><path class="cls-5" d="M109.14,121.27l-5.31-16.5a43.42,43.42,0,0,1-2.08-13.29l-1-14.63A2.69,2.69,0,0,0,98,74.35h0A2.69,2.69,0,0,0,95.32,77v53.32a4.92,4.92,0,0,0,4.13,4.87l4.08.68Z"/><g class="cls-9"><path class="cls-7" d="M114.38,125.17,108,111.05c-1.52-4.3-5.76-8.64-5.76-13.15l-1.16-14.63a2.86,2.86,0,0,0-3-2.5h0a2.84,2.84,0,0,0-3,2.69V141l9.06,1.37Z"/><path class="cls-10" d="M102.91,107.09l-1.48-16.83a2.87,2.87,0,0,0-3-2.5h0a2.85,2.85,0,0,0-3,2.7V148l9.06,1.37"/></g><polygon class="cls-8" points="108.8 120.96 166.59 140.03 158.13 141.82 100.72 141.82 108.8 120.96"/><line class="cls-4" x1="120.51" y1="78.93" x2="106.87" y2="78.93"/><line class="cls-4" x1="77.61" y1="60.93" x2="87.25" y2="70.58"/><line class="cls-4" x1="70.41" y1="78.93" x2="84.06" y2="78.93"/></g></g></g></svg>