<svg xmlns="http://www.w3.org/2000/svg" xmlns:xlink="http://www.w3.org/1999/xlink" viewBox="0 0 190 140"><defs><style>.cls-1{fill:none;}.cls-2{clip-path:url(#clip-path);}.cls-3{fill:#f0f2df;}.cls-4{fill:#d6d9bf;}.cls-5{clip-path:url(#clip-path-2);}.cls-6{fill:#252733;}.cls-7{fill:#e5e8ce;}.cls-23,.cls-8{isolation:isolate;}.cls-9{clip-path:url(#clip-path-3);}.cls-10{clip-path:url(#clip-path-6);}.cls-11{fill:#e44450;}.cls-12{clip-path:url(#clip-path-8);}.cls-13,.cls-23{fill:#fff;}.cls-14{fill:#f2a572;}.cls-15{fill:#cf804b;}.cls-16{fill:#332938;}.cls-17{fill:#f9d4a1;}.cls-18{fill:#ce624f;opacity:0.3;}.cls-19{fill:#3bb0d9;}.cls-20{fill:#2b99ce;}.cls-21{fill:#39b3da;}.cls-22{fill:#ffe981;}.cls-23{opacity:0.4;}</style><clipPath id="clip-path"><rect class="cls-1" width="190" height="140"/></clipPath><clipPath id="clip-path-2"><rect class="cls-1" x="13.07" y="24.07" width="202.65" height="130.42" transform="translate(228.78 178.56) rotate(-180)"/></clipPath><clipPath id="clip-path-3"><rect class="cls-1" x="136.54" y="45.78" width="32" height="33"/></clipPath><clipPath id="clip-path-6"><path class="cls-1" d="M168.54,62a16,16,0,1,1-16-16,16,16,0,0,1,16,16"/></clipPath><clipPath id="clip-path-8"><path class="cls-1" d="M159.68,66.92a1.59,1.59,0,0,1,0,2.26,1.61,1.61,0,0,1-2.26,0l-4.88-4.88-4.88,4.88a1.6,1.6,0,1,1-2.26-2.26L150.28,62l-4.88-4.88a1.6,1.6,0,1,1,2.26-2.26l4.88,4.88,4.87-4.88a1.6,1.6,0,1,1,2.27,2.26L154.8,62Z"/></clipPath></defs><title>Asset 3</title><g id="Layer_2" data-name="Layer 2"><g id="Layer_1-2" data-name="Layer 1"><g class="cls-2"><rect class="cls-3" width="190" height="140"/><path class="cls-4" d="M138.3,61A12.23,12.23,0,0,0,141,57.33l0,0,.62-1.58h0a11.88,11.88,0,0,0,.51-3.48V49.7c2.56-4.49,2.82-10.46-1.08-16.37a8.06,8.06,0,0,0-2.4-2.36c-7.82-5-15.87-2.8-20.2,2.53-2.62-2-6.52-2.44-10.3.33a1.8,1.8,0,0,0-.39.39c-4.61,6.38-.16,13.31,5.92,13.31a8.33,8.33,0,0,0,1.42-.13c.26,6.1,2.43,9.93,6.15,13v4.94A8.58,8.58,0,0,1,115,69.86c-.06.14-.11.29-.16.43-.06-.14-.09-.23-.09-.23l-.89.27c-2,.31-7.31,1.59-8.81,6.37-.84,2.67-3.44,26.71-3.44,26.71h0c-.16,1.39-.25,2.25-.22,2.26,3.12,1.27-5.89,26.26-1.59,24.16.62-.31,14.91,4.64,15.56,4.29l6,1,2.86-6.42,9.5.38,1-7.37c4.29,2.11,8.31-16,11.44-17.29.11,0-.43-13.45-.77-21.79l.29-5.84c-1.18-6.73-8.15-6.8-8.74-6.84l-.1-.09s-4.62.46-4.61-3.14V63.1a8.1,8.1,0,0,0,1.86.26,6.49,6.49,0,0,0,3.14-1.42"/><g class="cls-5"><path class="cls-6" d="M84.51,184.37l0,.16Z"/><path class="cls-6" d="M84.51,184.37a.41.41,0,0,1,0-.1S84.51,184.33,84.51,184.37Z"/><path class="cls-6" d="M84.53,184.53l0,.23C84.54,184.67,84.53,184.59,84.53,184.53Z"/><path class="cls-4" d="M100,82.88c-1.7-13.62-7.49-16.8-9.94-17.53a43.18,43.18,0,0,0-6-1.92H84c-.69-.17-1.43-.35-2.23-.52l-.22.26.22-10.54h0l0-.4.79.05a2.33,2.33,0,0,0,2.5-2.16l.35-4.81a2.35,2.35,0,0,0-.54-1.65,7,7,0,0,0,1.24-3c.3-2.64-.72-7.85-5.22-9.29-.15-.17-.29-.34-.45-.5C78,22.7,68.43,23.37,61.83,28a8.71,8.71,0,0,0-3.08,11.25,7.11,7.11,0,0,0,2.61,0L61,43.81h0l0,.47-.45,6.22h0l-.29,4a5.84,5.84,0,0,0,1.43,4,7.14,7.14,0,0,0,3.06,1.59l-.16,2.26h0l-.1,1.4-.08-.05h-.11l-2-.15a.35.35,0,0,0,0,.1,28.13,28.13,0,0,0-2.82.17v0a13,13,0,0,0-6.42,1.71,9.87,9.87,0,0,0-3.47,2.63,20.65,20.65,0,0,0-4.85,8.52L30,138.07l8.22,2.69,2-3.11c-1.61,15.3-2.8,27.15-2.8,27.15h0l2.48.11-.38,2.32,18,2.19c.48,19.61,2.75,24.1,2.75,24.1s9.05-1.66,9.09-3.66S73.28,179,73.28,179l-1.5-7.82,16,2,.76-6.19,5.49.23V125.2c.59-.49,1-.88,1.32-1.14,2-.67,3.67-1.2,4.69-1.52,6.59-2.08,4.11-9.24,4.11-9.24S102.19,100.3,100,82.88Z"/><path class="cls-7" d="M28.78,104a13.35,13.35,0,0,1-3-4.1l0-.06-.68-1.73h0a13.51,13.51,0,0,1-.56-3.83V91.47A15.88,15.88,0,0,1,50.64,73.59,8.63,8.63,0,1,1,55.9,89.07a8.12,8.12,0,0,1-1.57-.14c-.29,6.73-2.68,10.95-6.78,14.31v5.44a9.46,9.46,0,0,0,6.94,5c.07.15.12.32.18.48l.09-.25,1,.29c2.16.34,8.05,1.75,9.71,7,.92,2.94,3.8,29.47,3.8,29.47h0c.17,1.53.27,2.47.24,2.48-3.45,1.4-10.4,1-15.14-1.34-.68-.34-1.39-.71-2.1-1.09l-6.76.07-.09-.1H32.59l-.1.07c-4.74,2.32-8.92,2.37-12.37,1-.12,0,.48-14.83.86-24l-.33-6.45c1.31-7.42,9-7.49,9.65-7.54l.1-.1s5.1.51,5.09-3.46v-4a8.89,8.89,0,0,1-2.05.3A7.36,7.36,0,0,1,30,105"/><path class="cls-7" d="M119.26,132.68c1.73-13.88,7.63-17.11,10.12-17.87a45.15,45.15,0,0,1,6.15-2h.05l2.27-.53.23.26-.23-10.73h0l0-.41-.8.06a2.38,2.38,0,0,1-2.54-2.2l-.35-4.9a2.35,2.35,0,0,1,.54-1.69,7.05,7.05,0,0,1-1.26-3.08c-.31-2.69.73-8,5.32-9.45q.22-.27.45-.51c2.48-8.29,12.25-7.61,19-2.93a8.85,8.85,0,0,1,3.13,11.46,7.1,7.1,0,0,1-2.65,0l.34,4.64h0l0,.49.46,6.34h0l.3,4a5.9,5.9,0,0,1-1.46,4.08,7.24,7.24,0,0,1-3.12,1.62l.17,2.31h0l.1,1.42.08-.05h.11l2-.15a.75.75,0,0,1,0,.11c.8,0,1.79,0,2.87.17v0a13.31,13.31,0,0,1,6.55,1.74,10.1,10.1,0,0,1,3.52,2.68,21,21,0,0,1,5,8.67l15,62.61-8.37,2.74-2-3.16c1.63,15.58,2.85,27.65,2.85,27.65h0l-2.53.1.38,2.36-18.37,2.24c-.49,20-2.8,24.55-2.8,24.55s-9.22-1.7-9.26-3.73-4-11.08-4-11.08l1.52-8-16.25,2-.78-6.3-5.59.24V175.78c-.61-.5-1.07-.9-1.36-1.16l-4.77-1.55c-6.72-2.12-4.19-9.41-4.19-9.41S117,150.41,119.26,132.68Z"/><g class="cls-8"><g class="cls-9"><g class="cls-9"><g class="cls-8"><g class="cls-9"><g class="cls-10"><g class="cls-9"><rect class="cls-11" x="131.54" y="41.04" width="42" height="42"/></g></g><g class="cls-12"><g class="cls-9"><rect class="cls-13" x="139.93" y="49.43" width="25.22" height="25.22"/></g></g></g></g></g></g></g><path class="cls-6" d="M169.73,184c1.49,1.28,2.51,2.9,3.38,7.07s-3,6.95-3,6.95c-.53,3.17-2,2.05-2,2.05s.6-1.33,0-5-3.9-5.56-3.24-4.63a7.52,7.52,0,0,1,.73,3.11c-1,2.38-1.59-.63-1.59-.63a32.3,32.3,0,0,0-3.53-4.2c-1.75-1.66-1.61-5.81-1.61-5.81l6.9-2.27C166.25,181.82,168.75,183.17,169.73,184Z"/></g><path class="cls-6" d="M92.62,94h0c-4.23-3.44-6.64-7.79-6.83-14.84V73.72h6.84Z"/><path class="cls-14" d="M92.65,99.29a9.48,9.48,0,0,1-7,5.15c-2.08,4.63.25,12.6.25,12.6l8.57,5.54s23-8.54,23.13-9.55-7.85-8.62-7.85-8.62-5.1.51-5.09-3.46S92.65,99.29,92.65,99.29Z"/><circle class="cls-6" cx="101.82" cy="74.36" r="15.89"/><rect class="cls-14" x="92.59" y="85.22" width="12.06" height="17.39"/><path class="cls-15" d="M96.34,92.63a8.32,8.32,0,0,0,8.31,8.32V90.31H96.35Z"/><path class="cls-14" d="M104,63.67A11.59,11.59,0,0,0,92.42,75.31l0,10.42c0,6.4,10.09,11.55,14.24,11.55,1.9,0,8.93-4,8.94-12.29l0-9.77A11.61,11.61,0,0,0,104,63.67Z"/><path class="cls-15" d="M110.05,85.29a.59.59,0,0,0-.6.59.64.64,0,0,1-.61.67h-.68a.6.6,0,0,0-.59.6.58.58,0,0,0,.59.59h.68a1.84,1.84,0,0,0,1.8-1.86A.58.58,0,0,0,110.05,85.29Z"/><path class="cls-6" d="M92.41,83.23h0a2.08,2.08,0,0,0,2.08-2.08V71.77H92.05Z"/><path class="cls-14" d="M90.73,78.47h-.38a1.84,1.84,0,0,0-1.84,1.84v4.21a2.35,2.35,0,0,0,2.35,2.34h1.72V80.31A1.86,1.86,0,0,0,90.73,78.47Z"/><path class="cls-16" d="M112.77,80.38c-.46,0-.83.51-.83,1.14s.37,1.14.83,1.14.83-.51.83-1.14S113.23,80.38,112.77,80.38Z"/><path class="cls-16" d="M104.17,80.44c-.43,0-.78.48-.78,1.07s.35,1.08.78,1.08.78-.48.78-1.08S104.6,80.44,104.17,80.44Z"/><path class="cls-6" d="M105.82,61.18C96.41,52.1,87,72.54,93.21,74.87,93.21,74.87,115.24,70.25,105.82,61.18Z"/><path class="cls-6" d="M107.16,62.54s3.39,9.69,8.84,11.55C119.84,75.4,109.6,57.84,107.16,62.54Z"/><path class="cls-17" d="M90.83,85.65A1.22,1.22,0,1,0,92,86.87,1.21,1.21,0,0,0,90.83,85.65Z"/><path class="cls-6" d="M110.5,78.12c-.19,0-.39-.21-.49-.38a.7.7,0,0,1,.22-1,10.27,10.27,0,0,1,5.77-.44.52.52,0,0,1,.35.64.5.5,0,0,1-.63.34c-2.23-.66-4.94.76-5,.77A.46.46,0,0,1,110.5,78.12Z"/><path class="cls-6" d="M107,78.12a4.53,4.53,0,0,1-.69-.28s-3.53-1.92-6.6-.59a.51.51,0,1,1-.41-.93c3.52-1.53,7.88.28,8.06.37.44.19.38.76.25,1A.66.66,0,0,1,107,78.12Z"/><path class="cls-6" d="M94.5,78.29s-.14-3.31,1.86-4.24-.29-1.88-.41-1.92a20.75,20.75,0,0,0-2.09,1.3Z"/><circle class="cls-6" cx="84.25" cy="71.18" r="8.64"/><path class="cls-13" d="M108.56,91.87c-1.74,0-3.42-1-3.42-2.35l6.7-.06C111.84,90.8,109.91,91.87,108.56,91.87Z"/><path class="cls-18" d="M113.13,84.67c.89,0,1.61.25,1.61.57s-.72.57-1.61.57-1.62-.26-1.62-.58S112.24,84.66,113.13,84.67Z"/><path class="cls-18" d="M103.39,84.66c.89,0,1.61.25,1.61.57s-.72.57-1.62.57-1.61-.26-1.61-.57S102.49,84.66,103.39,84.66Z"/><path class="cls-19" d="M85.37,104.67s2.5,7.93,14.17,7.6a11.81,11.81,0,0,0,5.37-1.39,9.4,9.4,0,0,0,4.85-6.37s3.2.19,4.54,1.32l1.84,35.67-38.61,0,4.22-35.72Z"/><path class="cls-19" d="M109.79,104.51c.33,0,8.36-.05,9.7,7.54L118,141.5h-3.06l-3.26-33.29Z"/><path class="cls-19" d="M85.19,104.86s-8.48.63-10.52,7.13c-.92,2.94-3.8,29.47-3.8,29.47H79Z"/><path class="cls-20" d="M90.16,130.27s1,4.38,9.52,11.09h9.37L96.87,130.28Z"/><path class="cls-21" d="M107.65,141.56c4.74,2.32,8.92,2.37,12.37,1,.17-.07-1.16-31.2-1.16-31.2l-7-.58a3.65,3.65,0,0,0-3.93,4l1.83,16.71-20.24-8.19-3,4.78"/><polyline class="cls-20" points="94.64 141.58 84.33 141.48 96.58 131.32 107.1 128.89"/><path class="cls-21" d="M74.6,112.37l7-.57a3.65,3.65,0,0,1,3.93,4L83.7,132.55,104,124.37l3,4.78s-12.24,9.08-21.14,13.45c-4.74,2.32-11.69,2.74-15.14,1.34C70.48,143.87,74.6,112.37,74.6,112.37Z"/><path class="cls-15" d="M108.48,119.17s4.64-2,5.22-2.28a1,1,0,0,1-.32,1.48,12.12,12.12,0,0,1-2.07,1.14Z"/><path class="cls-15" d="M102.35,122.62s3.85-2.31,5.58-3.2a3.77,3.77,0,0,1,3.53-.15c.4.14.71-.28,1.24-.09,1.9.67,1.94,5.69,1.29,6.31a2.86,2.86,0,0,1-1.1.74,9.41,9.41,0,0,1-5,.36,3.38,3.38,0,0,0-2.78,1Z"/><polygon class="cls-20" points="82.99 115 82.31 133.51 85.1 131.9 82.99 115"/><path class="cls-15" d="M84.77,127.84s4.6-1.86,6.76.39L85.2,131.9Z"/><path class="cls-13" d="M103.41,83.72,92.22,78.4a.29.29,0,0,0-.37.19l0,0A.32.32,0,0,0,92,79l10.75,6.57a1,1,0,0,0,.79-1.8h0Z"/><path class="cls-13" d="M100.84,91.26l-8.43-4.35a.32.32,0,0,0-.42.18.32.32,0,0,0,.09.37l7.73,5.48a1,1,0,1,0,1.37-1.41,1.18,1.18,0,0,0-.22-.17Z"/><path class="cls-22" d="M115.64,83.75l-13.37-.27L97.83,93.84l6.47,3.55,6.11,2A9.28,9.28,0,0,0,116,89.8h0Z"/><polygon class="cls-23" points="115.66 88.94 106.24 86.98 115.17 90.97 115.66 88.94"/><polygon class="cls-23" points="113.86 96.39 105.47 90.76 111.93 97.57 113.86 96.39"/></g></g></g></svg>