<svg xmlns="http://www.w3.org/2000/svg" xmlns:xlink="http://www.w3.org/1999/xlink" viewBox="0 0 190 140"><defs><style>.a{fill:none;}.b,.w{isolation:isolate;}.c{clip-path:url(#a);}.d{fill:#cf804b;}.e{fill:#f0f2df;}.f{fill:#c78976;}.g{fill:#ffe981;}.h{fill:#f9b35c;}.i{fill:#263138;}.j{fill:#0c1c26;}.k{fill:#fff1ad;}.l{fill:#252733;}.m,.n{fill:#332938;}.m{opacity:0.4;mix-blend-mode:multiply;}.o{fill:#da806e;}.p,.w{fill:#fff;}.q{fill:#f2a572;}.r{fill:#f9d4a1;}.s{fill:#ce624f;opacity:0.3;}.t{fill:#3bb0d9;}.u{fill:#2b99ce;}.v{fill:#39b3da;}.w{opacity:0.4;}.x,.y{fill:#e44450;}.y{font-size:17.37px;font-family:Avenir-Black, Avenir;font-weight:800;}</style><clipPath id="a"><rect class="a" width="190" height="140" rx="19.73"/></clipPath></defs><g class="b"><g class="c"><g class="c"><path class="d" d="M162.71,281.3l-2,10.22s-.18.73,1,4.18,1.73,4.55-3,4.55H124s2.5-3.82,13.59-5.27S148,291.89,148,291.89l1.08-11.07Z"/><rect class="e" width="190" height="140" rx="19.73"/><path class="f" d="M188.69,169.33c0-.09,0-.18,0-.23A1.62,1.62,0,0,0,188.69,169.33Z"/><path class="f" d="M188.67,169.54a1.83,1.83,0,0,0,0-.21Z"/><path class="f" d="M188.72,169.07Z"/><path class="f" d="M188.72,169.1v0Z"/><path class="d" d="M128.18,269.88l-1.53,7.82s-.14.55.76,3.19,1.32,3.48-2.29,3.48H98.6s1.91-2.92,10.39-4,7.93-2.37,7.93-2.37l.83-8.46Z"/><path class="g" d="M141.2,97.17s-9.64-.59-13.54,11.8l-13.53,56.41,7.54,2.47,2.82-4.43Z"/><path class="h" d="M123.54,164.92s-2.62-14.28,5.34-49.46c2.34-10.34,3.32-.59,3.32-.59l2,21.69Z"/><polygon class="i" points="125.22 171.57 113.65 274.97 130.06 275.55 150.27 176.92 125.22 171.57"/><path class="j" d="M150.27,184.19s-11.1-16.81-10.94,5.23,2.6,26.86,2.6,26.86,8.3-1.53,8.34-3.36,3.58-10,3.58-10Z"/><polygon class="i" points="168.91 178.44 142.2 176.87 142.2 220.41 149.51 275.55 162.41 275.55 168.91 178.44"/><polygon class="j" points="123.77 186.49 122.85 192.14 167.12 197.54 168.44 186.87 123.77 186.49"/><path class="g" d="M161.64,96.38s-5.69,7.52-15.94.71c0,0-13.09-1.12-15,7s-9.76,85.85-9.76,85.85l51.94,2.16,0-90.94S172.48,98.76,161.64,96.38Z"/><path class="h" d="M174.41,152.22s-14,13.59-31.39,10.63L159.53,149Z"/><path class="h" d="M165.58,109.46l-2.66,1.64s2.94,29,5.75,33.62,6,1.06,5.74-2.56S165.58,109.46,165.58,109.46Z"/><path class="g" d="M168.25,98.43s8.14.32,10.14,16.3,3.77,27.92,3.77,27.92,2.28,6.57-3.77,8.48S143,162.85,143,162.85l-2.4-7.45L170,142.16l-6.42-27.43S159.86,100.38,168.25,98.43Z"/><rect class="k" x="138.91" y="148.49" width="32.39" height="0.68" transform="translate(-47.43 76.79) rotate(-24.24)"/><rect class="k" x="143.4" y="154.1" width="1.77" height="8.07" transform="matrix(0.94, -0.33, 0.33, 0.94, -44.58, 57.37)"/><path class="k" d="M172.86,188.9v3.18l-51.94-2.16s.19-1.15.53-3.15Z"/><polygon class="j" points="161.37 191.6 162.26 174.64 157.39 191.44 160.49 193.24 161.37 191.6"/><path class="k" d="M161.64,96.38a10.76,10.76,0,0,1-8.32,3.74c-5.25-.26-6.46-1.7-7.62-3L143.76,97s.5,3.53,5,4.53,8.37,1.07,10.81-.78a30.64,30.64,0,0,0,4.16-3.83Z"/><path class="k" d="M145.85,121.68a167,167,0,0,1,4-19.89l-2.27-.63a167.84,167.84,0,0,0-4.12,20.22Z"/><path class="d" d="M121.67,167.85s.13,3.75-1.44,5.24a29.6,29.6,0,0,0-3.19,3.78s-.53,2.72-1.43.57a6.7,6.7,0,0,1,.66-2.8c.6-.84-2.39.83-2.92,4.17s0,4.53,0,4.53-1.32,1-1.79-1.84c0,0-3.46-2.51-2.69-6.27s1.71-5.21,3-6.36c.88-.76,3.13-2,3.53-3.05Z"/><path class="d" d="M131.61,158.8s-5.93,2.81-6.75,3.08a1.35,1.35,0,0,0,1.71,1,15.58,15.58,0,0,0,2.91-1Z"/><path class="d" d="M140.3,155.85s-5.6,1.72-8,2.63a4.91,4.91,0,0,0-3.21,3.3c-.21.5-.9.44-1.17,1.12-1,2.42,3.83,6.83,5,6.74a3.68,3.68,0,0,0,1.67-.42,12.28,12.28,0,0,0,4.7-4.53,4.4,4.4,0,0,1,3.42-1.79Z"/><path class="l" d="M159.14,67.09c5.59.4,6.81,6.12,6.5,8.85-.17,1.5-1.59,4.59-4.14,4.41s-4.43-3-4.19-6.29S156.59,66.9,159.14,67.09Z"/><path class="d" d="M161.42,97a10.07,10.07,0,0,1-8.51,3.56c-5.55-.4-7.15-3.29-7.15-3.29l.83-11.4,15,1.09Z"/><path class="m" d="M149,96.08l-3.13-.23.5-6.89,10,.73A6.92,6.92,0,0,1,149,96.08Z"/><path class="d" d="M146.37,66.53a9.72,9.72,0,0,1,7.11-2.36l.44,0A9.79,9.79,0,0,1,163,74.67l-.31,4.21-.45,0-.82,11.27a18.62,18.62,0,0,1-13.12,2.75A7.42,7.42,0,0,1,142.16,85L143,73.22a9.76,9.76,0,0,1,1.15-3.93A9.58,9.58,0,0,1,146.37,66.53Z"/><path class="n" d="M145.56,83.34a.34.34,0,0,1,.32.37.37.37,0,0,0,.33.41l1.08.08a.34.34,0,0,1,.32.37.35.35,0,0,1-.37.32l-1.08-.08a1.07,1.07,0,0,1-1-1.15A.35.35,0,0,1,145.56,83.34Z"/><path class="n" d="M151,79.41a1.17,1.17,0,0,1,1,1.29,1.1,1.1,0,1,1-1-1.29Z"/><path class="n" d="M144,78.91c.49,0,.84.6.79,1.27s-.48,1.18-1,1.15-.84-.61-.79-1.28S143.53,78.87,144,78.91Z"/><path class="o" d="M149.86,89.47a1.4,1.4,0,0,1-1.5,1.29l-3.16-.23A1.38,1.38,0,0,1,143.91,89l.19-2.62,6,.43Z"/><path class="p" d="M146.64,89.8c-1.6-.12-2.51-.92-2.4-2.53l5.83.42C150,89.3,148.25,89.92,146.64,89.8Z"/><path class="l" d="M153.47,63.91l.46,0a10.14,10.14,0,0,1,9.35,10.81L163,79.09l-.46,0-.17,2.25L159,81.06,159,80a5,5,0,0,0-2.3-4.65,2.44,2.44,0,0,1-1.16-2.42v0a2.86,2.86,0,0,0-1.41-2.67,3,3,0,0,0-1.22-.38l-9.09-.66a10.07,10.07,0,0,1,9.61-5.28Z"/><path class="d" d="M163,77.94a2.14,2.14,0,0,1,2,2.29l-.32,4.42a2.13,2.13,0,0,1-2.29,2l-2.16-.15.47-6.53A2.17,2.17,0,0,1,163,77.94Z"/><path class="n" d="M153.89,77a1.64,1.64,0,0,1,1,1.71s-.32-.48-1.75-.53L148.25,78l.12-1.54A35.52,35.52,0,0,1,153.89,77Z"/><polygon class="n" points="148.26 77.97 147.9 76.43 148.26 76.46 148.26 77.97"/><path class="n" d="M145.67,76.36l-.11,1.55s-1.51-.13-2.86-.29l.11-1.48C144.09,76.22,145.67,76.36,145.67,76.36Z"/><polygon class="n" points="146.14 76.39 145.57 77.86 145.85 76.37 146.14 76.39"/><path class="n" d="M151.34,87.66l0,.62-4.66-1,.12-1.66,3.93,1.08A.88.88,0,0,1,151.34,87.66Z"/><path class="n" d="M143.64,86.09l2.37-.48-.12,1.66-3,.26,0-.64A.89.89,0,0,1,143.64,86.09Z"/><path class="l" d="M154.94,69.66a5.76,5.76,0,0,0-3.63,1.16c-1.44,1.27-7.27,4.65-10.79,3.83a8,8,0,0,1,2.82-10.33c6.06-4.22,14.86-4.83,17.09,2.64C162.77,70.37,154.94,69.66,154.94,69.66Z"/></g><path class="l" d="M32.05,99.45h0c-3.52-2.87-5.54-6.49-5.7-12.38V82.54h5.71Z"/><path class="q" d="M32.07,103.87a7.89,7.89,0,0,1-5.84,4.29c-1.74,3.87.21,10.52.21,10.52l7.15,4.62s19.22-7.13,19.29-8-6.55-7.19-6.55-7.19-4.25.42-4.24-2.89S32.07,103.87,32.07,103.87Z"/><circle class="l" cx="39.73" cy="83.06" r="13.26"/><rect class="q" x="32.03" y="92.13" width="10.07" height="14.51"/><path class="d" d="M35.16,98.31a6.93,6.93,0,0,0,6.93,6.94V96.37H35.16Z"/><path class="q" d="M41.52,74.15a9.67,9.67,0,0,0-9.64,9.71l0,8.69c0,5.35,8.42,9.64,11.88,9.64,1.58,0,7.45-3.37,7.46-10.26l0-8.15A9.66,9.66,0,0,0,41.52,74.15Z"/><path class="d" d="M46.59,92.18a.49.49,0,0,0-.49.5.53.53,0,0,1-.51.55H45a.5.5,0,0,0-.5.5.51.51,0,0,0,.5.5h.57a1.53,1.53,0,0,0,1.5-1.55A.5.5,0,0,0,46.59,92.18Z"/><path class="l" d="M31.88,90.46h0a1.72,1.72,0,0,0,1.73-1.73V80.91h-2Z"/><path class="q" d="M30.47,86.5h-.32A1.53,1.53,0,0,0,28.62,88v3.51a2,2,0,0,0,2,2H32L32,88A1.53,1.53,0,0,0,30.47,86.5Z"/><path class="n" d="M48.86,88.09c-.38,0-.69.42-.69,1s.31.95.69.95.69-.42.69-.95S49.25,88.09,48.86,88.09Z"/><path class="n" d="M41.69,88.14c-.36,0-.65.4-.65.89s.29.9.65.9.65-.4.65-.89S42.05,88.14,41.69,88.14Z"/><path class="l" d="M43.07,72.07c-7.86-7.58-15.73,9.48-10.53,11.42C32.54,83.49,50.92,79.64,43.07,72.07Z"/><path class="l" d="M44.18,73.2s2.83,8.09,7.38,9.64C54.76,83.94,46.22,69.29,44.18,73.2Z"/><path class="r" d="M30.56,92.49a1,1,0,1,0,1,1A1,1,0,0,0,30.56,92.49Z"/><path class="l" d="M47,86.21c-.16,0-.32-.18-.41-.33a.58.58,0,0,1,.18-.82,8.57,8.57,0,0,1,4.82-.36.41.41,0,0,1,.29.52.42.42,0,0,1-.53.29,6.54,6.54,0,0,0-4.14.64A.56.56,0,0,1,47,86.21Z"/><path class="l" d="M44.07,86.21a4.17,4.17,0,0,1-.58-.24s-2.94-1.61-5.51-.49a.43.43,0,0,1-.56-.22.44.44,0,0,1,.22-.56c2.94-1.28,6.58.23,6.73.31.36.16.31.63.2.84A.54.54,0,0,1,44.07,86.21Z"/><path class="l" d="M33.62,86.35s-.12-2.77,1.55-3.54-.24-1.57-.34-1.6a16.29,16.29,0,0,0-1.75,1.08Z"/><circle class="l" cx="25.06" cy="80.41" r="7.21"/><path class="p" d="M45.35,97.67c-1.45,0-2.85-.83-2.85-2l5.59-.06C48.09,96.79,46.48,97.67,45.35,97.67Z"/><path class="s" d="M49.16,91.66c.75,0,1.35.22,1.35.48s-.6.48-1.35.48-1.35-.22-1.35-.48S48.42,91.66,49.16,91.66Z"/><path class="s" d="M41,91.66c.75,0,1.35.21,1.35.48s-.6.47-1.35.47-1.35-.21-1.35-.48S40.29,91.66,41,91.66Z"/><path class="t" d="M26,108.35s2.09,6.62,11.83,6.35a9.78,9.78,0,0,0,4.47-1.16,7.82,7.82,0,0,0,4.05-5.32s2.67.16,3.79,1.1l1.54,29.76-32.22,0L23,109.25Z"/><path class="t" d="M46.38,108.22c.27,0,7,0,8.09,6.29l-1.24,24.57H50.67L48,111.31Z"/><path class="t" d="M25.85,108.51s-7.07.53-8.78,5.95c-.77,2.46-3.16,24.59-3.16,24.59h6.75Z"/><path class="u" d="M30,129.71s.85,3.66,7.94,9.26h7.82l-10.17-9.25Z"/><path class="v" d="M44.6,139.13c3.95,1.94,7.43,2,10.31.82.14-.06-1-26-1-26l-5.85-.48a3,3,0,0,0-3.28,3.37l1.52,13.94-16.89-6.83-2.49,4"/><polyline class="u" points="33.74 139.15 25.13 139.06 35.36 130.59 44.13 128.57"/><path class="v" d="M17,114.78l5.85-.48a3,3,0,0,1,3.28,3.37l-1.53,14,16.89-6.83,2.5,4S33.78,136.36,26.35,140c-4,1.94-9.75,2.29-12.63,1.12C13.58,141.07,17,114.78,17,114.78Z"/><path class="d" d="M45.29,120.45s3.87-1.62,4.35-1.9a.87.87,0,0,1-.27,1.23,9.17,9.17,0,0,1-1.72,1Z"/><path class="d" d="M40.17,123.33s3.21-1.93,4.66-2.67a3.13,3.13,0,0,1,2.94-.12c.33.11.6-.24,1-.08,1.58.57,1.61,4.75,1.07,5.27a2.3,2.3,0,0,1-.92.61,7.87,7.87,0,0,1-4.16.31,2.81,2.81,0,0,0-2.32.86Z"/><polygon class="u" points="24.01 116.97 23.45 132.42 25.78 131.08 24.01 116.97"/><path class="d" d="M25.5,127.69s3.84-1.56,5.64.32l-5.28,3.07Z"/><path class="p" d="M41.05,90.87l-9.33-4.43a.23.23,0,0,0-.31.15v0a.25.25,0,0,0,.14.31l9,5.48a.82.82,0,0,0,.66-1.51h0Z"/><path class="p" d="M38.91,97.17l-7-3.63a.27.27,0,0,0-.28.46l6.45,4.56a.82.82,0,0,0,1.16,0,.81.81,0,0,0,0-1.16.86.86,0,0,0-.18-.14Z"/><path class="g" d="M51.26,90.9,40.1,90.67l-3.7,8.65,5.4,3L46.9,104a7.72,7.72,0,0,0,4.67-8h0Z"/><polygon class="w" points="51.27 95.23 43.41 93.59 50.87 96.93 51.27 95.23"/><polygon class="w" points="49.77 101.45 42.77 96.75 48.16 102.43 49.77 101.45"/><rect class="x" x="57.99" y="41.41" width="81.77" height="2"/><polygon class="x" points="61.86 51.05 46.9 42.4 61.86 33.77 61.86 51.05"/><polygon class="x" points="136.68 51.05 151.64 42.4 136.68 33.77 136.68 51.05"/><text class="y" transform="translate(70.61 68.68)">6 feet</text></g></g></svg>