<svg xmlns="http://www.w3.org/2000/svg" xmlns:xlink="http://www.w3.org/1999/xlink" viewBox="0 0 190 140"><defs><style>.a{fill:#f0f2df;}.b{clip-path:url(#a);}.c{fill:#d6d9bf;stroke:#f0f2df;stroke-width:2px;}.c,.m{stroke-miterlimit:10;}.d{fill:#252733;}.e{fill:#39b3da;}.f{fill:#f2a572;}.g{fill:#cf804b;}.h{fill:#332938;}.i{fill:#f9d4a1;}.j{fill:#fff;}.k{fill:#ce624f;opacity:0.3;}.l{fill:#2b99ce;}.m{fill:#f9faf0;stroke:#2b99ce;}.n{fill:#61cbed;}</style><clipPath id="a"><rect class="a" width="190" height="140" rx="12.58"/></clipPath></defs><rect class="a" width="190" height="140" rx="12.58"/><g class="b"><rect class="a" width="190" height="140" rx="12.58"/><rect class="c" x="111.84" y="77.28" width="91.29" height="41.01" rx="4.99"/><polygon class="c" points="116.33 140.34 110.91 140.34 110.91 129.88 119.24 129.88 116.33 140.34"/><polygon class="c" points="200.52 140.34 205.94 140.34 205.94 129.88 197.61 129.88 200.52 140.34"/><path class="c" d="M203.71,92.21h0a7.4,7.4,0,0,0-7.4,7.4V118H118.67V99.61a7.4,7.4,0,0,0-7.4-7.4h0A5.78,5.78,0,0,0,105.48,98v29.44a5.79,5.79,0,0,0,5.79,5.79h92.44a5.79,5.79,0,0,0,5.79-5.79V98A5.78,5.78,0,0,0,203.71,92.21Z"/><rect class="c" x="119.12" y="106.77" width="77.02" height="11.4"/><line class="c" x1="157.28" y1="77.69" x2="157.28" y2="107.24"/><path class="d" d="M47,87.69h0c-4.63-3.77-7.28-8.54-7.49-16.27v-6h7.5Z"/><path class="e" d="M39.38,99.14H35a8.62,8.62,0,0,0-8.63,8.74l.45,32.2H71.51L71,106.2Z"/><path class="f" d="M47.06,93.49a10.37,10.37,0,0,1-7.68,5.65c-2.28,5.08.28,13.82.28,13.82L49.05,119s25.27-9.36,25.36-10.47S65.8,99.1,65.8,99.1s-5.58.56-5.58-3.79S47.06,93.49,47.06,93.49Z"/><circle class="d" cx="57.13" cy="66.15" r="17.43"/><rect class="f" x="47" y="78.07" width="13.23" height="19.06"/><path class="g" d="M51.12,86.19a9.1,9.1,0,0,0,9.1,9.12V83.64H51.12Z"/><path class="f" d="M59.47,54.44A12.71,12.71,0,0,0,46.81,67.2l0,11.42c0,7,11.07,12.66,15.62,12.67,2.07,0,9.79-4.43,9.8-13.48l0-10.71A12.71,12.71,0,0,0,59.47,54.44Z"/><path class="g" d="M66.15,78.14a.66.66,0,0,0-.66.65.7.7,0,0,1-.66.73h-.75a.65.65,0,0,0,0,1.3h.74a2,2,0,0,0,2-2A.65.65,0,0,0,66.15,78.14Z"/><path class="d" d="M46.8,75.88h0a2.29,2.29,0,0,0,2.29-2.28V63.32H46.41Z"/><path class="f" d="M45,70.67h-.42a2,2,0,0,0-2,2v4.61a2.56,2.56,0,0,0,2.57,2.56H47l0-7.18A2,2,0,0,0,45,70.67Z"/><path class="h" d="M69.13,72.76c-.51,0-.91.56-.91,1.25s.4,1.25.91,1.25S70,74.7,70,74,69.63,72.76,69.13,72.76Z"/><path class="h" d="M59.7,72.82c-.47,0-.86.53-.86,1.18s.39,1.18.86,1.18.86-.53.86-1.18S60.17,72.82,59.7,72.82Z"/><path class="d" d="M61.51,51.7c-10.32-10-20.67,12.46-13.83,15C47.68,66.72,71.84,61.65,61.51,51.7Z"/><path class="d" d="M63,53.19s3.73,10.63,9.7,12.67C76.88,67.3,65.66,48.05,63,53.19Z"/><path class="i" d="M45.07,78.54a1.33,1.33,0,1,0,1.33,1.33A1.33,1.33,0,0,0,45.07,78.54Z"/><path class="d" d="M66.51,68.43a.85.85,0,0,1,.61-1.4,11.18,11.18,0,0,1,5.48,3.21.57.57,0,0,1-.09.79.56.56,0,0,1-.78-.09c-1.59-2-4.92-2.4-5-2.4A.73.73,0,0,1,66.51,68.43Z"/><path class="d" d="M63,68.59a5.58,5.58,0,0,1-.82,0c-.05,0-4.38-.41-6.9,2.27a.56.56,0,0,1-.81-.77C57.37,67,62.54,67,62.76,67c.53,0,.71.6.69.91A.73.73,0,0,1,63,68.59Z"/><path class="d" d="M49.09,70.47s-.15-3.63,2-4.65-.31-2.06-.44-2.11a23.83,23.83,0,0,0-2.3,1.43Z"/><circle class="d" cx="37.85" cy="62.67" r="9.47"/><path class="j" d="M64.52,84.87c-1.92,0-3.75-.9-3.75-2.1l7.35-.06C68.11,83.92,66,84.87,64.52,84.87Z"/><path class="k" d="M69.52,77.46c1,0,1.77.28,1.77.62s-.79.63-1.77.63-1.77-.28-1.77-.63S68.54,77.46,69.52,77.46Z"/><path class="k" d="M58.84,77.45c1,0,1.77.28,1.77.62s-.79.63-1.77.63-1.77-.28-1.77-.63S57.86,77.45,58.84,77.45Z"/><path class="e" d="M65.86,99.21c.36.06,9.17,0,10.64,8.28l-1.87,32.08-3.12.43-3.58-36.72Z"/><polygon class="l" points="62.49 82.76 63.86 82.74 67.01 86.54 66.02 87.5 62.49 82.76"/><rect class="m" x="67.22" y="82.41" width="1.86" height="12.94" rx="0.86" transform="translate(177.17 114.63) rotate(140.77)"/><path class="f" d="M61.66,88.05s2.5-3.68,2.77-4.2a.93.93,0,0,1,.47,1.25,10.74,10.74,0,0,1-1,1.84Z"/><path class="f" d="M59.92,92.7s1.74-3.57,2.6-5.06a3.28,3.28,0,0,1,2.54-1.8c.36-.1.4-.56.88-.67,1.73-.41,4.17,3.28,4,4a2.58,2.58,0,0,1-.46,1.08A8.31,8.31,0,0,1,66,93a6.34,6.34,0,0,0-2.19,2.53Z"/><path class="e" d="M28.17,104.79l5.22-4.89c1.7-1.59,4-.72,4.8,1.82l7.64,9.06,14.1-18.11,4,2.73s-3.74,13.17-8.81,23.17c-2.69,5.32-7.92,10-11.22,10.66C43.69,129.26,28.17,104.79,28.17,104.79Z"/><path class="l" d="M26.37,107.87s14.46,28.37,24.52,18c0,0-10.63,12-24,5.09l-.65-24.07"/><path class="e" d="M64.79,99.39s3,13.35-7.94,15.2S49.08,118,49.08,118l11,9.46,14.69-15.37-4-10.81S69,99.05,64.79,99.39Z"/><path class="e" d="M76.5,107.49l2.38,25.73a6.11,6.11,0,0,1-6.09,6.68H69.16Z"/><path class="l" d="M66.76,116.62s.11,18.75-7.05,23.26l9.46-8Z"/><path class="n" d="M56.85,114.59s-3.7,10-6.52,12C50.33,126.55,54.18,119.73,56.85,114.59Z"/></g></svg>