<svg xmlns="http://www.w3.org/2000/svg" viewBox="0 0 190 140"><defs><style>.a{fill:#f0f2df;}.b{fill:#d6d9bf;}.c{fill:#cf804b;}.d{fill:#e1927a;}.e{fill:#bd6e39;}.f{fill:#bde5ec;}.g{fill:#fff;}.h{fill:#f2a572;}.i{fill:none;stroke:#cf804b;stroke-linecap:round;stroke-miterlimit:10;stroke-width:2.84px;}.j{fill:#39b3da;}</style></defs><rect class="a" width="190" height="140" rx="12.58"/><path class="b" d="M141.66,17.64V16.49h4.7l0,1.15h.94c1.55,0,3.1,0,4.65,0a1.12,1.12,0,0,0,.93-.4,2.32,2.32,0,0,1,2.79-.55A2.42,2.42,0,0,1,157,19.18a2.35,2.35,0,0,1-2.06,2,2.39,2.39,0,0,1-2.12-.81.93.93,0,0,0-.55-.32c-1.88,0-3.75,0-5.62,0a2,2,0,0,0-.27.06l0,1.07-1.1.07V25.9l1.11.06v4.7c1,0,2,0,3,0a2.94,2.94,0,0,1,2.93,3c0,.55,0,1.1,0,1.69h11.8v-7H190V49.52h-25.8v-7H152.32v1.51a2.91,2.91,0,0,1-3,3.14c-3.55,0-7.1.06-10.65,0a2.88,2.88,0,0,1-2.94-3.09V42.54c-.25,0-.46,0-.66,0h-7.91a3,3,0,0,0-3.27,3.29v2.9h-7c0-.07-.08-.14-.08-.22,0-2.4-.1-4.81,0-7.2a6.06,6.06,0,0,1,6.31-5.87c3.93,0,7.87,0,11.8,0h.79V33.65a2.91,2.91,0,0,1,2.92-3c1,0,1.94,0,3,0V26l1.14-.05V21.22l-1.1-.08L141.62,20H139.3c-1,0-2.08,0-3.12,0a1.33,1.33,0,0,0-1.11.45,2.35,2.35,0,1,1,0-3.2,1.16,1.16,0,0,0,1,.41C137.92,17.63,139.74,17.64,141.66,17.64Z"/><path class="c" d="M107.8,75.73C106.53,77,105.31,78,104,79.15s-2.59,2.2-4,3.22a73.19,73.19,0,0,1-8.6,5.91,3.65,3.65,0,1,1-3.61-6.35l.34-.19h0a73.5,73.5,0,0,0,8.3-4.45c1.37-.83,2.74-1.76,4.06-2.64s2.69-1.86,3.91-2.78l0-.05a2.57,2.57,0,0,1,3.32,3.91Z"/><path class="d" d="M111,82c-1.27,1-2.59,2-3.86,3.08s-2.59,2-3.91,3c-2.64,1.95-5.33,3.86-8.21,5.67a3.68,3.68,0,0,1-4-6.21,1,1,0,0,1,.39-.19c2.79-1.32,5.62-2.84,8.41-4.4,1.36-.78,2.78-1.61,4.15-2.44s2.78-1.67,4.1-2.5h0a2.46,2.46,0,0,1,3.42.79A2.49,2.49,0,0,1,111,82Z"/><path class="d" d="M112.83,88.53,98,97.91a3.68,3.68,0,0,1-4-6.21,2,2,0,0,0,.39-.24L110.34,84a2.54,2.54,0,0,1,3.37,1.22A2.47,2.47,0,0,1,112.83,88.53Z"/><path class="d" d="M112.25,95.66a24.88,24.88,0,0,1-3.37,2.49c-1.13.74-2.3,1.32-3.42,2s-2.3,1.17-3.47,1.71-2.3,1-3.57,1.51h0a3.67,3.67,0,1,1-2.64-6.84l.49-.14c1.07-.25,2.25-.59,3.37-.88s2.25-.69,3.37-1.08a31,31,0,0,0,3.23-1.27,20.24,20.24,0,0,0,2.83-1.46l.1,0a2.65,2.65,0,0,1,3.62.73A2.75,2.75,0,0,1,112.25,95.66Z"/><path class="c" d="M104.43,100.3c-4.35,1.52-10.51,12.12-17.79,12s-14-7.68-12.65-14.08c.63-3,4.15-10.89,5.47-13.19,4.5-7.82,11.73-3.32,13.78-2.15C95.93,84.42,104.43,100.3,104.43,100.3Z"/><path class="e" d="M90.26,81.3,92,93.37A5.87,5.87,0,0,1,80.34,95a6.12,6.12,0,0,1,0-1.91L83.47,85Z"/><path class="c" d="M92.75,77.88c-1.12,1.56-2.2,3.17-3.27,4.83-.54.83-1,1.66-1.57,2.5-.14.24-.19.34-.29.48s-.15.3-.2.44a3.83,3.83,0,0,0-.29.93c-.15.69-.15,1.08-.29,2.25-.1,1-.25,2-.34,2.93-.2,2-.39,3.91-.49,5.87a5.84,5.84,0,0,1-6.21,5.52,5.91,5.91,0,0,1-5.52-6.26,5.36,5.36,0,0,1,.59-2.2c.88-1.76,1.66-3.56,2.44-5.37.39-.88.78-1.81,1.17-2.69.2-.49.34-.83.64-1.51A9.33,9.33,0,0,1,80,83.84a13,13,0,0,1,1.07-1.62l.59-.73a6.3,6.3,0,0,1,.59-.63c.68-.69,1.36-1.37,2-2.1,1.37-1.42,2.64-2.84,3.91-4.3a2.85,2.85,0,0,1,4-.3A2.7,2.7,0,0,1,92.75,77.88Z"/><circle class="f" cx="122.9" cy="93.27" r="6.4"/><ellipse class="g" cx="120.5" cy="90.2" rx="1.66" ry="1.03" transform="translate(-30.02 88.76) rotate(-36.27)"/><circle class="f" cx="95.39" cy="96.35" r="9.19"/><ellipse class="g" cx="91.96" cy="91.99" rx="2.39" ry="1.42" transform="translate(-36.6 72.23) rotate(-36.27)"/><circle class="f" cx="100.32" cy="84.57" r="6.4"/><ellipse class="g" cx="97.94" cy="81.54" rx="1.66" ry="1.03" transform="translate(-29.26 73.73) rotate(-36.27)"/><circle class="f" cx="111.03" cy="82.52" r="9.58"/><ellipse class="g" cx="107.47" cy="77.96" rx="2.49" ry="1.51" transform="translate(-25.3 78.68) rotate(-36.27)"/><circle class="f" cx="106.77" cy="93.12" r="6.4"/><ellipse class="g" cx="104.37" cy="90.05" rx="1.66" ry="1.03" transform="matrix(0.81, -0.59, 0.59, 0.81, -33.05, 79.19)"/><circle class="f" cx="122.31" cy="85.06" r="6.4"/><ellipse class="g" cx="119.92" cy="82.02" rx="1.66" ry="1.03" transform="translate(-25.29 86.83) rotate(-36.27)"/><path class="c" d="M74.87,95.17S72.49,107.3,63.41,122.9s-9.7,16.54-9.7,16.54H72.26s7.22-21.66,17.23-28.18"/><path class="h" d="M123,103.33a9.43,9.43,0,0,0,1.07-.92l.54-.49a6.49,6.49,0,0,0,.59-.54,2.83,2.83,0,0,0,.19-3.71,2.78,2.78,0,0,0-3.91-.39l-.14.14-.49.2-.49.39c-.29.24-.64.49-1,.73-.15.12-.32.23-.48.34l.29-.29c.34-.34.63-.73,1-1.12s.69-.79,1-1.18a11.21,11.21,0,0,0,.93-1.22,6.87,6.87,0,0,0,.44-.63l.19-.35.25-.44a2.94,2.94,0,0,0-.69-3.66.33.33,0,0,0-.1-.06,3,3,0,0,0-.38-3.41,2.77,2.77,0,0,0-3.91,0l-.25.24-.34.35a2.57,2.57,0,0,0-.44.39c-.29.29-.63.58-.93.83s-.63.53-1,.78l-1,.73a29.38,29.38,0,0,1-4.3,2.59c-.34.2-.73.34-1.12.54s-.79.34-1.18.49l-1.17.49-1.17.39c-.78.29-1.62.49-2.4.73-.62.19-1.27.33-1.93.47-4,.58-5-1.48-4.59-3.59l.56-1.33,2.54-6.06a2.89,2.89,0,0,0-.88-3.37,2.8,2.8,0,0,0-3.91.54l0,.1-4,5.13-2,2.54-.24.34-.15.15a.64.64,0,0,0-.19.19,7.52,7.52,0,0,0-.83,1.42,15.07,15.07,0,0,0-.54,1.56,1,1,0,0,1-.1.3l0,.24-.14.44c-.69,2.25-1.32,4.4-2,6.55,0,0-11.57,34.88-17.86,38.53H90.1s3.59-11.76,6.94-18.83c.77-1.63,4-2.74,5.63-3.43h0a3.27,3.27,0,0,0,.76-.13c3.32-1.18,6.7-2.25,10-3.33,1.66-.54,3.37-1.07,5-1.56s3.42-1,5-1.42a2,2,0,0,0,1.51-2.34,2.13,2.13,0,0,0-2.44-1.67c-1.81.35-3.52.74-5.28,1.13l-.12,0c1.23-.9,2.47-1.8,3.64-2.77C121.58,104.56,122.31,104,123,103.33Z"/><path class="i" d="M108.58,100.35a8.71,8.71,0,0,0,3.57-1.61"/><path class="i" d="M122,90.39A31.9,31.9,0,0,1,114.69,97"/><path class="i" d="M111.27,105.53c.1-.09,6.94-4.54,9.19-8.11"/><path class="i" d="M111.66,110.66a37.11,37.11,0,0,0,7.43-4"/><path class="j" d="M124,68.88h0a3.77,3.77,0,0,1-5.33,0h0a3.77,3.77,0,0,1-.64-4.44l3.33-6.11,3.27,6.11A3.7,3.7,0,0,1,124,68.88Z"/><path class="j" d="M113.62,69.42h0a3,3,0,0,1-4.16,0h0A2.9,2.9,0,0,1,109,66l2.59-4.74L114.15,66A3,3,0,0,1,113.62,69.42Z"/></svg>