<svg xmlns="http://www.w3.org/2000/svg" xmlns:xlink="http://www.w3.org/1999/xlink" width="32" height="32" viewBox="0 0 32 32">
    <defs>
        <circle id="prefix__a" cx="16" cy="16" r="16"/>
    </defs>
    <g fill="none" fill-rule="evenodd">
        <mask id="prefix__b" fill="#fff">
            <use xlink:href="#prefix__a"/>
        </mask>
        <use fill="#FAD3D7" xlink:href="#prefix__a"/>
        <g mask="url(#prefix__b)">
            <g transform="translate(6.418 11)">
                <circle cx="9.529" cy="5.495" r="5.083" fill="#F06372"/>
                <path fill="#F06372" d="M9.591 12.56c5.16 0 9.344 4.184 9.344 9.345v.12l-.002.124H0l.002-.123C.07 16.778 4.343 12.56 9.59 12.56z"/>
                <path fill="#FDEFF1" fill-rule="nonzero" d="M10.12 6.73v-.22c0-.125.008-.23.025-.314.017-.085.047-.164.089-.237.042-.074.099-.147.17-.22.07-.074.162-.159.275-.255.13-.112.247-.221.351-.326.105-.104.194-.213.267-.326.073-.113.13-.237.17-.372.039-.136.059-.294.059-.475 0-.265-.048-.5-.144-.703-.096-.203-.228-.374-.394-.512-.167-.139-.359-.243-.576-.314-.218-.07-.448-.106-.69-.106-.26 0-.503.038-.73.115-.225.076-.425.187-.6.334-.176.147-.318.326-.428.538-.11.212-.182.453-.216.724l1.042.094c.005-.113.028-.223.067-.33.04-.108.098-.203.174-.285.076-.081.167-.146.271-.194.105-.048.222-.072.352-.072.254 0 .45.074.588.224.139.15.208.335.208.555 0 .17-.038.313-.114.432-.077.119-.168.226-.276.322l-.38.364c-.108.102-.197.198-.268.288-.07.09-.127.184-.17.28-.042.096-.073.197-.092.305-.02.107-.03.228-.03.364v.322h1zm-.492 1.82c.187 0 .346-.064.479-.194s.199-.285.199-.466c0-.18-.068-.333-.203-.457-.136-.125-.294-.187-.475-.187-.186 0-.346.065-.478.195-.133.13-.2.285-.2.466 0 .09.019.175.056.254.036.08.086.147.148.203.062.057.134.102.216.136.082.034.168.05.258.05z"/>
            </g>
        </g>
    </g>
</svg>
