<svg xmlns="http://www.w3.org/2000/svg" width="32" height="32" viewBox="0 0 32 32">
    <g fill="none" fill-rule="evenodd">
        <circle cx="16" cy="16" r="16" fill="#EFD7F6"/>
        <g transform="translate(5 6)">
            <path fill="#8917AA" d="M22.034 3.094h-.68c-.053-.218-.135-.425-.245-.615l.483-.484c.163.077.3.093.368.025.13-.13-.04-.513-.381-.854-.341-.34-.723-.512-.854-.38-.075.074-.048.232.05.417l-.452.452c-.195-.124-.41-.22-.638-.284V.74c.17-.06.277-.147.277-.243 0-.184-.39-.334-.873-.334-.482 0-.873.15-.873.334 0 .106.13.2.33.261v.579c-.247.053-.48.146-.692.27l-.406-.407c.077-.163.092-.3.024-.368-.13-.13-.512.04-.853.382-.341.34-.512.722-.381.853.074.075.232.048.417-.05l.38.38c-.135.216-.237.455-.298.71h-.545c-.06-.17-.147-.277-.244-.277-.184 0-.334.39-.334.873 0 .482.15.873.334.873.107 0 .2-.13.262-.33h.534c.064.251.167.488.305.7l-.398.398c-.163-.077-.3-.092-.367-.024-.13.13.04.512.38.853.342.341.724.512.854.381.075-.074.048-.232-.05-.417l.408-.408c.21.12.439.208.683.26v.611c-.17.06-.278.147-.278.243 0 .185.391.334.874.334.482 0 .873-.149.873-.334 0-.105-.13-.2-.331-.26v-.636c.223-.063.433-.158.624-.28l.475.474c-.077.163-.092.3-.025.367.13.13.513-.04.854-.381.34-.341.511-.723.381-.853-.074-.075-.233-.048-.418.05l-.48-.48c.109-.189.191-.394.245-.61h.698c.061.17.148.277.244.277.184 0 .334-.391.334-.874 0-.482-.15-.872-.334-.872-.106 0-.2.129-.261.33z"/>
            <rect width="19.657" height="11.467" y="4.867" fill="#8917AA" stroke="#EFD7F6" stroke-width=".667" rx="1.333"/>
            <circle cx="4.809" cy="8.834" r="1.217" fill="#FBEEFF"/>
            <path fill="#FBEEFF" d="M4.824 10.526c1.236 0 2.237 1.001 2.237 2.237v.059H2.528v-.03c.017-1.256 1.04-2.266 2.296-2.266z"/>
            <rect width="5.41" height="1" x="8.6" y="7.938" fill="#FBEEFF" rx=".5"/>
            <rect width="7.014" height="1" x="8.6" y="9.87" fill="#FBEEFF" rx=".5"/>
            <rect width="8.6" height="1" x="8.6" y="11.801" fill="#FBEEFF" rx=".5"/>
            <path fill="#8917AA" d="M24.732 12.036h-.373c-.029-.12-.074-.234-.134-.338l.265-.265c.089.042.164.05.201.013.072-.071-.022-.28-.209-.468-.187-.187-.396-.28-.468-.209-.04.041-.026.128.028.23l-.249.247c-.107-.068-.224-.12-.35-.155v-.347c.094-.033.153-.08.153-.133 0-.102-.215-.184-.48-.184-.264 0-.478.082-.478.184 0 .058.071.11.181.143v.317c-.135.03-.263.08-.38.148l-.222-.223c.042-.09.05-.164.013-.202-.071-.071-.281.023-.468.21s-.28.396-.209.468c.04.04.128.026.229-.028l.209.209c-.075.118-.13.249-.164.389h-.3c-.032-.093-.08-.152-.133-.152-.1 0-.183.214-.183.479 0 .264.082.479.183.479.059 0 .11-.071.144-.182h.293c.035.139.091.268.167.385l-.218.218c-.09-.042-.165-.05-.202-.013-.071.071.022.28.21.468.186.187.396.28.467.209.041-.041.027-.128-.027-.23l.224-.223c.115.065.24.114.374.142v.336c-.093.033-.152.08-.152.133 0 .101.214.183.479.183.264 0 .479-.082.479-.183 0-.058-.072-.11-.182-.143V13.6c.123-.035.238-.087.343-.154l.26.26c-.042.09-.05.164-.014.201.072.072.282-.022.468-.209.187-.187.281-.396.21-.468-.041-.04-.128-.026-.23.028l-.263-.264c.06-.103.105-.215.135-.334h.382c.034.093.081.152.134.152.101 0 .183-.215.183-.48 0-.263-.082-.478-.183-.478-.058 0-.11.071-.143.182zM4.126 19.162h-.203c-.016-.065-.04-.127-.073-.184l.145-.144c.048.023.09.027.11.007.038-.039-.013-.153-.115-.255-.102-.102-.216-.153-.255-.114-.022.022-.014.07.015.125l-.135.135c-.058-.037-.122-.066-.19-.085v-.189c.05-.018.082-.044.082-.072 0-.056-.117-.1-.26-.1-.145 0-.262.044-.262.1 0 .031.039.06.099.078v.173c-.074.015-.144.043-.207.08l-.122-.121c.023-.05.028-.09.008-.11-.04-.04-.154.012-.256.114-.101.102-.153.216-.113.255.022.022.07.014.124-.015l.114.114c-.04.064-.071.136-.09.212H2.38c-.018-.051-.044-.083-.073-.083-.055 0-.1.117-.1.261 0 .144.045.261.1.261.032 0 .06-.039.078-.099h.16c.02.076.05.146.091.21l-.119.119c-.048-.023-.09-.028-.11-.008-.039.04.012.154.114.256.102.102.216.153.255.114.023-.023.015-.07-.015-.125l.122-.122c.063.035.132.062.204.077v.183c-.05.018-.082.044-.082.073 0 .055.117.1.26.1.145 0 .262-.045.262-.1 0-.032-.04-.06-.1-.078v-.19c.068-.019.13-.047.187-.084l.142.142c-.023.049-.027.09-.007.11.04.039.153-.012.255-.114.102-.102.153-.216.114-.255-.022-.023-.07-.015-.125.015l-.143-.144c.032-.056.057-.117.073-.182h.209c.018.05.044.083.073.083.055 0 .1-.117.1-.262 0-.144-.045-.26-.1-.26-.032 0-.06.038-.079.098z"/>
        </g>
    </g>
</svg>
