<svg xmlns="http://www.w3.org/2000/svg" xmlns:xlink="http://www.w3.org/1999/xlink" width="32" height="32" viewBox="0 0 32 32">
    <defs>
        <circle id="prefix__a" cx="16" cy="16" r="16"/>
    </defs>
    <g fill="none" fill-rule="evenodd">
        <mask id="prefix__b" fill="#fff">
            <use xlink:href="#prefix__a"/>
        </mask>
        <use fill="#FBDFE3" xlink:href="#prefix__a"/>
        <g fill="#F06372" fill-rule="nonzero" mask="url(#prefix__b)">
            <g>
                <path d="M12.41 0H1.772C.795 0 0 .795 0 1.773c0 .977.795 1.772 1.773 1.772h10.636c.978 0 1.773-.795 1.773-1.772C14.182.795 13.387 0 12.409 0zM2.067 2.66c-.49 0-.886-.398-.886-.887 0-.49.397-.887.886-.887.49 0 .886.397.886.887 0 .489-.396.886-.886.886zm2.955 0c-.49 0-.886-.398-.886-.887 0-.49.397-.887.886-.887.49 0 .886.397.886.887 0 .489-.397.886-.886.886zM12.41 4.727H1.772C.795 4.727 0 5.522 0 6.5c0 .977.795 1.772 1.773 1.772h10.636c.978 0 1.773-.795 1.773-1.772 0-.978-.795-1.773-1.773-1.773zM2.067 7.387c-.49 0-.886-.398-.886-.887 0-.49.397-.887.886-.887.49 0 .886.397.886.887 0 .489-.396.886-.886.886zM12.41 9.454H1.772C.795 9.454 0 10.249 0 11.227c0 .977.795 1.772 1.773 1.772h10.636c.978 0 1.773-.795 1.773-1.772 0-.978-.795-1.773-1.773-1.773zM2.067 12.113c-.49 0-.886-.397-.886-.886 0-.49.397-.887.886-.887.49 0 .886.397.886.887s-.396.886-.886.886zm2.955 0c-.49 0-.886-.397-.886-.886 0-.49.397-.887.886-.887.49 0 .886.397.886.887s-.397.886-.886.886z" transform="translate(8.8 9.75)"/>
            </g>
        </g>
    </g>
</svg>
