<svg xmlns="http://www.w3.org/2000/svg" width="32" height="32" viewBox="0 0 32 32">
    <g fill="none" fill-rule="evenodd">
        <circle cx="16" cy="16" r="16" fill="#EFD7F6"/>
        <g>
            <path fill="#8917AA" d="M0 1.995l1.512-.756C3.142.424 4.939 0 6.762 0c1.824 0 3.626.405 5.275 1.186l1.708.81V7.09c0 4.59-2.689 8.755-6.873 10.644C2.69 15.846 0 11.681 0 7.091V1.995z" transform="translate(9.5 8)"/>
            <path fill="#FBEEFF" fill-rule="nonzero" d="M9.25 7H9V6c0-1.103-.897-2-2-2s-2 .897-2 2v1h-.25c-.413 0-.75.336-.75.75v3.5c0 .414.337.75.75.75h4.5c.413 0 .75-.336.75-.75v-3.5c0-.414-.337-.75-.75-.75zM5.667 6c0-.735.598-1.333 1.333-1.333S8.333 5.265 8.333 6v1H5.667V6z" transform="translate(9.5 8)"/>
        </g>
    </g>
</svg>
