<svg xmlns="http://www.w3.org/2000/svg" width="24" height="25" viewBox="0 0 24 25">
    <g fill="none" fill-rule="evenodd" transform="translate(0 .107)">
        <circle cx="12" cy="12" r="12" fill="#E58F13" stroke="#FFF" stroke-width=".5"/>
        <g>
            <path fill="#FFF" d="M10.4 3.167c.206 0 .374.168.374.375v.382c0 .181-.129.332-.3.367L10.4 4.3l-.602-.001V6.2c1.62.541 2.806 2.03 2.894 3.81l.006.215c0 2.344-1.9 4.244-4.244 4.244-2.343 0-4.243-1.9-4.243-4.244 0-1.873 1.215-3.462 2.9-4.025l-.001-1.903h-.554c-.207 0-.375-.167-.375-.374v-.382c0-.207.168-.375.375-.375h3.844zM15.64 0l.074.012c.024.006.047.015.07.026l2.956 1.469c.185.092.26.317.169.502l-.15.302c-.058.115-.167.188-.286.204l-.072.003c-.049-.003-.098-.015-.144-.038l-.424-.211-2.54 5.11c-.192.388-.57.623-.974.651l-.121.002c-.122-.004-.245-.028-.364-.072l-.118-.05c-.583-.29-.82-.996-.53-1.579l2.538-5.11-.423-.21c-.185-.092-.26-.317-.168-.503l.15-.301c.068-.139.212-.216.358-.207zm-.944 3.334l.808.571m-1.055-.068l.808.43m-.566-.338l.808.43m-.317-1.297l.808.43m-1.792 1.425l.808.43m-1.301.558l.808.43m-.31-2.004l.808.43m-1.055.065l.808.43m-1.054.064l.808.43m-9.594 3.4c.687.098 1.505.293 2.467.643 1.751.637 3.317.942 4.637.956-.29 1.725-1.787 3.04-3.594 3.04-2.016 0-3.65-1.633-3.65-3.649 0-.343.051-.674.14-.99zM0 14.555h20.73" transform="translate(.75 4.5)"/>
            <g fill="#E58F13">
                <path d="M2.607 4.74C1.645 4.39.827 4.195.14 4.097c-.09.316-.14.647-.14.99 0 2.016 1.634 3.65 3.65 3.65 1.807 0 3.304-1.316 3.593-3.041-1.32-.014-2.885-.32-4.636-.956M4.735 4.125c0 .328-.266.594-.594.594-.329 0-.595-.266-.595-.594 0-.329.266-.595.595-.595.328 0 .594.266.594.595M2.218 2.982c0 .155-.125.28-.28.28-.154 0-.279-.125-.279-.28 0-.154.125-.28.28-.28.154 0 .28.126.28.28M6.017 2.88c0 .185-.15.335-.334.335-.185 0-.335-.15-.335-.335 0-.185.15-.335.335-.335.184 0 .334.15.334.335M3.88 2.137c0 .164-.133.297-.297.297-.164 0-.297-.133-.297-.297 0-.164.133-.298.297-.298.164 0 .297.134.297.298M3.304.985c0 .082-.066.148-.148.148-.082 0-.149-.066-.149-.148 0-.082.067-.149.149-.149.082 0 .148.067.148.149M4.512.149c0 .082-.066.148-.148.148-.083 0-.15-.066-.15-.148 0-.083.067-.149.15-.149.082 0 .148.066.148.149" transform="translate(.75 4.5) translate(4.784 5.053)"/>
            </g>
        </g>
    </g>
</svg>
