<svg xmlns="http://www.w3.org/2000/svg" width="80" height="80" viewBox="0 0 80 80">
    <g fill="none" fill-rule="evenodd">
        <rect width="80" height="80" fill="#F9E5C8" rx="8"/>
        <g>
            <path fill="#FDF7EE" d="M33.523 21.222v-8.665h-9.196v8.665c-5.765 1.924-9.922 7.36-9.922 13.771 0 8.02 6.501 14.52 14.52 14.52 8.018 0 14.52-6.5 14.52-14.52 0-6.41-4.158-11.847-9.922-13.77" transform="translate(4.5 14.75)"/>
            <path stroke="#E79000" d="M33.523 21.222v-8.665h-9.196v8.665c-5.765 1.924-9.922 7.36-9.922 13.771 0 8.02 6.501 14.52 14.52 14.52 8.018 0 14.52-6.5 14.52-14.52 0-6.41-4.158-11.847-9.922-13.77z" transform="translate(4.5 14.75)"/>
            <path fill="#EDAE46" d="M35.583 14.712H22.428c-.707 0-1.28-.574-1.28-1.282v-1.308c0-.708.573-1.282 1.28-1.282h13.155c.707 0 1.281.574 1.281 1.282v1.308c0 .708-.574 1.282-1.281 1.282" transform="translate(4.5 14.75)"/>
            <path stroke="#E79000" d="M35.583 14.712H22.428c-.707 0-1.28-.574-1.28-1.282v-1.308c0-.708.573-1.282 1.28-1.282h13.155c.707 0 1.281.574 1.281 1.282v1.308c0 .708-.574 1.282-1.281 1.282z" transform="translate(4.5 14.75)"/>
            <path fill="#FDF7EE" d="M46.93 27.066c-1.992-.99-2.804-3.407-1.814-5.4l9.596-19.31 7.216 3.584-9.597 19.312c-.99 1.992-3.408 2.805-5.4 1.814" transform="translate(4.5 14.75)"/>
            <path stroke="#E79000" d="M46.93 27.066h0c-1.992-.99-2.804-3.407-1.814-5.4l9.596-19.31 7.216 3.584-9.597 19.312c-.99 1.992-3.408 2.805-5.4 1.814z" transform="translate(4.5 14.75)"/>
            <path fill="#EDAE46" d="M62.47 8.487L52.356 3.462c-.634-.316-.892-1.084-.578-1.72l.513-1.03c.314-.634 1.084-.893 1.717-.578L64.122 5.16c.634.314.893 1.084.578 1.717l-.514 1.032c-.314.634-1.083.893-1.717.578" transform="translate(4.5 14.75)"/>
            <path stroke="#E79000" d="M62.47 8.487L52.356 3.462c-.634-.316-.892-1.084-.578-1.72l.513-1.03c.314-.634 1.084-.893 1.717-.578L64.122 5.16c.634.314.893 1.084.578 1.717l-.514 1.032c-.314.634-1.083.893-1.717.578z" transform="translate(4.5 14.75)"/>
            <g>
                <path fill="#FFF" d="M0.177 0.193L2.942 1.567" transform="translate(4.5 14.75) translate(50.95 9.483)"/>
                <path stroke="#E79000" d="M0.177 0.193L2.942 1.567" transform="translate(4.5 14.75) translate(50.95 9.483)"/>
            </g>
            <g>
                <path fill="#FFF" d="M0.235 0.088L3 1.461" transform="translate(4.5 14.75) translate(50.05 11.286)"/>
                <path stroke="#E79000" d="M0.235 0.088L3 1.461" transform="translate(4.5 14.75) translate(50.05 11.286)"/>
            </g>
            <g>
                <path fill="#FFF" d="M0.293 0.432L3.058 1.806" transform="translate(4.5 14.75) translate(49.147 12.639)"/>
                <path stroke="#E79000" d="M0.293 0.432L3.058 1.806" transform="translate(4.5 14.75) translate(49.147 12.639)"/>
            </g>
            <g>
                <path fill="#FFF" d="M0.352 0.326L3.116 1.701" transform="translate(4.5 14.75) translate(48.246 14.443)"/>
                <path stroke="#E79000" d="M0.352 0.326L3.116 1.701" transform="translate(4.5 14.75) translate(48.246 14.443)"/>
            </g>
            <g>
                <path fill="#FFF" d="M0.41 0.221L3.175 1.595" transform="translate(4.5 14.75) translate(47.344 16.246)"/>
                <path stroke="#E79000" d="M0.41 0.221L3.175 1.595" transform="translate(4.5 14.75) translate(47.344 16.246)"/>
            </g>
            <g>
                <path fill="#FFF" d="M0.017 0.115L2.782 1.488" transform="translate(4.5 14.75) translate(46.893 18.05)"/>
                <path stroke="#E79000" d="M0.017 0.115L2.782 1.488" transform="translate(4.5 14.75) translate(46.893 18.05)"/>
            </g>
            <g>
                <path fill="#FFF" d="M0.075 0.008L2.84 1.383" transform="translate(4.5 14.75) translate(45.991 19.853)"/>
                <path stroke="#E79000" d="M0.075 0.008L2.84 1.383" transform="translate(4.5 14.75) translate(45.991 19.853)"/>
            </g>
            <path fill="#E79000" d="M25.29 33.512c-3.291-1.197-6.091-1.865-8.441-2.199-.304 1.08-.478 2.213-.478 3.387 0 6.897 5.59 12.486 12.486 12.486 6.185 0 11.306-4.501 12.298-10.404-4.516-.047-9.873-1.092-15.866-3.27" transform="translate(4.5 14.75)"/>
            <path stroke="#FDF7EE" d="M25.29 33.512c-3.291-1.197-6.091-1.865-8.441-2.199-.304 1.08-.478 2.213-.478 3.387 0 6.897 5.59 12.486 12.486 12.486 6.185 0 11.306-4.501 12.298-10.404-4.516-.047-9.873-1.092-15.866-3.27z" transform="translate(4.5 14.75)"/>
            <path fill="#E79000" d="M32.573 31.407c0 1.124-.911 2.034-2.035 2.034-1.123 0-2.034-.91-2.034-2.034 0-1.124.91-2.034 2.034-2.034 1.124 0 2.035.91 2.035 2.034M23.96 27.497c0 .528-.428.957-.956.957s-.956-.429-.956-.957.428-.956.956-.956.956.428.956.956M36.96 27.147c0 .632-.513 1.146-1.145 1.146s-1.144-.514-1.144-1.146c0-.631.512-1.144 1.144-1.144.632 0 1.144.513 1.144 1.144M29.648 24.605c0 .56-.455 1.017-1.017 1.017-.562 0-1.017-.456-1.017-1.017 0-.562.455-1.018 1.017-1.018.562 0 1.017.456 1.017 1.018M27.677 20.663c0 .28-.227.508-.508.508-.28 0-.509-.227-.509-.508s.228-.509.509-.509.508.228.508.51M31.81 17.802c0 .281-.228.507-.508.507-.282 0-.51-.226-.51-.507 0-.282.228-.509.51-.509.28 0 .508.227.508.509" transform="translate(4.5 14.75)"/>
            <path fill="#FFF" d="M0 0.451L70.929 0.451" transform="translate(4.5 14.75) translate(0 49.161)"/>
        </g>
    </g>
</svg>
