<svg xmlns="http://www.w3.org/2000/svg" xmlns:xlink="http://www.w3.org/1999/xlink" width="80" height="80" viewBox="0 0 80 80">
    <defs>
        <rect id="prefix__a" width="80" height="80" x="0" y="0" rx="8"/>
    </defs>
    <g fill="none" fill-rule="evenodd">
        <mask id="prefix__b" fill="#fff">
            <use xlink:href="#prefix__a"/>
        </mask>
        <use fill="#DFE9F5" xlink:href="#prefix__a"/>
        <g mask="url(#prefix__b)">
            <g>
                <path fill="#F5F8FC" d="M44.51 48.587v-6.13c6.76 0 12.258-5.498 12.258-12.257 0-6.76-5.498-12.258-12.257-12.258v-6.129c10.139 0 18.386 8.25 18.386 18.387 0 10.14-8.247 18.387-18.386 18.387" transform="translate(-2.5 24.5)"/>
                <path stroke="#0055B7" stroke-width="1.1" d="M44.51 48.587v-6.13c6.76 0 12.258-5.498 12.258-12.257 0-6.76-5.498-12.258-12.257-12.258v-6.129c10.139 0 18.386 8.25 18.386 18.387 0 10.14-8.247 18.387-18.386 18.387z" transform="translate(-2.5 24.5)"/>
                <path fill="#0055B7" d="M42.041 34.619L40.057 34.268 40.935 29.308 42.919 29.659z" transform="translate(-2.5 24.5)"/>
                <path fill="#F0F8FF" d="M43.755 31.8c-1.433.422-2.98.169-4.204-.686l-.247-.173 3.562-18.47 4.452.86L43.755 31.8z" transform="translate(-2.5 24.5)"/>
                <path stroke="#0055B7" stroke-width="1.1" d="M43.755 31.8h0c-1.433.422-2.98.169-4.204-.686l-.247-.173 3.562-18.47 4.452.86L43.755 31.8z" transform="translate(-2.5 24.5)"/>
                <path fill="#F0F8FF" d="M45.731 26.876L39.301 25.635 42.258 10.302 48.689 11.541z" transform="translate(-2.5 24.5)"/>
                <path stroke="#0055B7" stroke-width="1.1" d="M45.731 26.876L39.301 25.635 42.258 10.302 48.689 11.541z" transform="translate(-2.5 24.5)"/>
                <path fill="#0055B7" d="M48.957 7.49L43.516 6.441 44.088 3.472 49.529 4.522z" transform="translate(-2.5 24.5)"/>
                <path stroke="#0055B7" stroke-width="1.1" d="M48.957 7.49L43.516 6.441 44.088 3.472 49.529 4.522z" transform="translate(-2.5 24.5)"/>
                <path fill="#F5F8FC" d="M47.302 25.383L38.398 23.666 41.976 5.117 50.879 6.834z" transform="translate(-2.5 24.5)"/>
                <path stroke="#0055B7" stroke-width="1.1" d="M47.302 25.383L38.398 23.666 41.976 5.117 50.879 6.834z" transform="translate(-2.5 24.5)"/>
                <path fill="#6F9FD6" d="M52.08 1.936c-.341 1.776-2.835 2.787-5.566 2.26-2.732-.526-4.668-2.392-4.325-4.168l9.892 1.908z" transform="translate(-2.5 24.5)"/>
                <path stroke="#0055B7" stroke-width="1.1" d="M52.08 1.936c-.341 1.776-2.835 2.787-5.566 2.26-2.732-.526-4.668-2.392-4.325-4.168l9.892 1.908z" transform="translate(-2.5 24.5)"/>
                <path fill="#FFF" d="M52.822 15.34c0 2.642-2.142 4.785-4.785 4.785-2.643 0-4.786-2.143-4.786-4.786 0-2.642 2.143-4.785 4.786-4.785s4.785 2.143 4.785 4.785" transform="translate(-2.5 24.5)"/>
                <path stroke="#0055B7" stroke-width="1.1" d="M52.822 15.34c0 2.642-2.142 4.785-4.785 4.785-2.643 0-4.786-2.143-4.786-4.786 0-2.642 2.143-4.785 4.786-4.785s4.785 2.143 4.785 4.785z" transform="translate(-2.5 24.5)"/>
                <path fill="#0055B7" d="M51.455 15.34c0 1.888-1.53 3.418-3.418 3.418-1.888 0-3.418-1.53-3.418-3.419 0-1.888 1.53-3.418 3.418-3.418 1.888 0 3.418 1.53 3.418 3.418" transform="translate(-2.5 24.5)"/>
                <path stroke="#F0F8FF" stroke-width="1.1" d="M51.455 15.34c0 1.888-1.53 3.418-3.418 3.418-1.888 0-3.418-1.53-3.418-3.419 0-1.888 1.53-3.418 3.418-3.418 1.888 0 3.418 1.53 3.418 3.418z" transform="translate(-2.5 24.5)"/>
                <path fill="#CDE6FE" d="M41.489 49.594L44.511 49.594 44.511 38.512 41.489 38.512z" transform="translate(-2.5 24.5)"/>
                <path stroke="#0055B7" stroke-width="1.1" d="M41.489 49.594L44.511 49.594 44.511 38.512 41.489 38.512z" transform="translate(-2.5 24.5)"/>
                <path fill="#0055B7" d="M46.881 40.854L30.909 38.682 31.345 35.472 47.318 37.644z" transform="translate(-2.5 24.5)"/>
                <path stroke="#DFE9F5" stroke-width="1.1" d="M46.881 40.854L30.909 38.682 31.345 35.472 47.318 37.644z" transform="translate(-2.5 24.5)"/>
                <path fill="#CDE6FE" d="M61.638 50.601H22.346c0-1.39 1.128-2.518 2.519-2.518h34.254c1.391 0 2.519 1.127 2.519 2.518" transform="translate(-2.5 24.5)"/>
                <path stroke="#0055B7" stroke-width="1.1" d="M61.638 50.248H22.346c0-1.392 1.128-2.52 2.519-2.52h34.254c1.391 0 2.519 1.128 2.519 2.52z" transform="translate(-2.5 24.5)"/>
                <path fill="#0055B7" d="M66.172 55.364H17.309c0-3.187 2.582-5.77 5.768-5.77h37.325c3.187 0 5.77 2.583 5.77 5.77" transform="translate(-2.5 24.5)"/>
                <path fill="#FFF" d="M0 0.425L84.979 0.425" transform="translate(-2.5 24.5) translate(0 55.017)"/>
            </g>
        </g>
    </g>
</svg>
