<svg xmlns="http://www.w3.org/2000/svg" width="24" height="24" viewBox="0 0 24 24">
    <g fill="none" fill-rule="evenodd" transform="translate(0 .107)">
        <circle cx="12.031" cy="11.865" r="11.636" fill="#0055B7" stroke="#FFF" stroke-width=".5"/>
        <g>
            <g>
                <path fill="#FFF" d="M10.87 0l2.548.492c-.066.345-.448.578-.934.613l.277.053-.099.509.447.087-.286 1.48c1.954.584 3.382 2.398 3.382 4.54 0 2.233-1.553 4.11-3.637 4.608h2.664c.276 0 .511.171.605.414.69.128 1.212.733 1.212 1.461H4.459c0-.775.594-1.411 1.35-1.48.098-.233.329-.396.597-.396h4.283V9.915h.78l-.001 1.017c1.741 0 3.158-1.417 3.158-3.158 0-1.372-.879-2.542-2.103-2.977l-.18.928-.156.808-.632-.123-.229 1.186c-.092.027-.186.043-.28.049l-.042.002-.12.675-.51-.09.12-.677c-.088-.036-.172-.08-.251-.136l-.064-.045.228-1.185-.514-.099.922-4.779.445.086.1-.51.15.03L11.471.9C11.056.684 10.805.336 10.87 0zM0 14.554h21.894" transform="translate(.677 4)"/>
                <path fill="#FFF" d="M13.61 3.945c0 .68-.553 1.233-1.234 1.233-.68 0-1.233-.552-1.233-1.233 0-.68.553-1.233 1.233-1.233.681 0 1.233.552 1.233 1.233" transform="translate(.677 4)"/>
                <path stroke="#FFF" stroke-width=".5" d="M12.376 10.237L7.351 9.464" transform="translate(.677 4)"/>
            </g>
            <path stroke="#0055B7" stroke-width=".5" d="M13.61 3.945c0 .68-.553 1.233-1.234 1.233-.68 0-1.232-.552-1.232-1.233s.552-1.233 1.232-1.233c.681 0 1.233.552 1.233 1.233z" transform="translate(.677 4)"/>
        </g>
    </g>
</svg>
