<?xml version="1.0" encoding="UTF-8"?>
<svg xmlns="http://www.w3.org/2000/svg" xmlns:xlink="http://www.w3.org/1999/xlink" width="24pt" height="24pt" viewBox="0 0 24 24" version="1.1">
<g id="surface1">
<path style=" stroke:none;fill-rule:nonzero;fill:rgb(14.509804%,69.411765%,98.039216%);fill-opacity:1;" d="M 16.78125 17.25 L 17.71875 17.25 C 18.496094 17.25 19.125 17.878906 19.125 18.65625 L 19.125 21.375 L 15.375 21.375 L 15.375 18.65625 C 15.375 17.878906 16.003906 17.25 16.78125 17.25 Z M 16.78125 17.25 "/>
<path style=" stroke:none;fill-rule:nonzero;fill:rgb(50.196078%,85.490196%,100%);fill-opacity:1;" d="M 17.8125 19.5 L 19.3125 19.5 C 19.832031 19.5 20.25 19.917969 20.25 20.4375 L 20.25 21.375 L 16.875 21.375 L 16.875 20.4375 C 16.875 19.917969 17.292969 19.5 17.8125 19.5 Z M 17.8125 19.5 "/>
<path style=" stroke:none;fill-rule:nonzero;fill:rgb(50.196078%,85.490196%,100%);fill-opacity:1;" d="M 1.875 13.640625 L 15.375 13.640625 L 15.375 21.90625 L 1.875 21.90625 Z M 1.875 13.640625 "/>
<path style=" stroke:none;fill-rule:nonzero;fill:rgb(14.117647%,44.313725%,83.921569%);fill-opacity:1;" d="M 1.125 21.375 L 21 21.375 L 21 22.875 L 1.125 22.875 Z M 1.125 21.375 "/>
<path style=" stroke:none;fill-rule:nonzero;fill:rgb(14.117647%,44.313725%,83.921569%);fill-opacity:1;" d="M 16.125 14.25 L 7.125 14.25 L 7.125 9 L 14.625 9 L 16.125 13.5 Z M 16.125 14.25 "/>
<path style=" stroke:none;fill-rule:nonzero;fill:rgb(14.509804%,69.411765%,98.039216%);fill-opacity:1;" d="M 11.625 13.5 L 6.375 8.25 L 1.125 13.5 L 1.125 14.25 L 11.625 14.25 Z M 11.625 13.5 "/>
<path style=" stroke:none;fill-rule:nonzero;fill:rgb(94.901961%,98.431373%,100%);fill-opacity:1;" d="M 3.375 15.75 L 9.375 15.75 L 9.375 21.375 L 3.375 21.375 Z M 3.375 15.75 "/>
<path style=" stroke:none;fill-rule:nonzero;fill:rgb(80%,94.117647%,100%);fill-opacity:1;" d="M 6 15.75 L 6.75 15.75 L 6.75 21.375 L 6 21.375 Z M 6 15.75 "/>
<path style=" stroke:none;fill-rule:nonzero;fill:rgb(94.901961%,98.431373%,100%);fill-opacity:1;" d="M 10.875 15.75 L 13.875 15.75 L 13.875 19.875 L 10.875 19.875 Z M 10.875 15.75 "/>
<path style=" stroke:none;fill-rule:nonzero;fill:rgb(14.509804%,69.411765%,98.039216%);fill-opacity:1;" d="M 10.875 15.75 L 13.875 15.75 L 13.875 17.25 L 10.875 17.25 Z M 10.875 15.75 "/>
<path style=" stroke:none;fill-rule:nonzero;fill:rgb(94.901961%,98.431373%,100%);fill-opacity:1;" d="M 6.375 10.5 L 4.125 12.75 L 8.625 12.75 Z M 6.375 10.5 "/>
<path style=" stroke:none;fill-rule:nonzero;fill:rgb(87.843137%,96.470588%,100%);fill-opacity:1;" d="M 16.875 1.125 C 14.242188 1.125 11.914062 2.84375 11.140625 5.359375 C 10.367188 7.875 11.324219 10.605469 13.5 12.085938 L 13.5 14.25 L 15.90625 13.046875 C 18.136719 13.410156 20.382812 12.492188 21.71875 10.667969 C 23.050781 8.84375 23.25 6.425781 22.226562 4.410156 C 21.203125 2.394531 19.136719 1.125 16.875 1.125 Z M 16.875 1.125 "/>
<path style=" stroke:none;fill-rule:nonzero;fill:rgb(98.039216%,78.431373%,31.372549%);fill-opacity:1;" d="M 20.390625 9.523438 L 18 8.625 L 15.75 8.625 L 13.359375 9.523438 C 12.992188 9.660156 12.75 10.007812 12.75 10.398438 L 12.75 11.480469 C 12.984375 11.703125 13.234375 11.90625 13.5 12.085938 L 13.5 14.25 L 15.90625 13.046875 C 16.226562 13.097656 16.550781 13.125 16.875 13.125 C 18.410156 13.128906 19.886719 12.539062 21 11.480469 L 21 10.398438 C 21 10.007812 20.757812 9.660156 20.390625 9.523438 Z M 20.390625 9.523438 "/>
<path style=" stroke:none;fill-rule:nonzero;fill:rgb(100%,83.137255%,81.176471%);fill-opacity:1;" d="M 17.625 6.75 L 16.125 6.75 L 15.75 8.625 L 16.875 9.375 L 18 8.625 Z M 17.625 6.75 "/>
<path style=" stroke:none;fill-rule:nonzero;fill:rgb(98.431373%,72.156863%,69.019608%);fill-opacity:1;" d="M 17.625 6.75 L 16.125 6.75 L 15.914062 7.796875 L 16.007812 7.855469 C 16.542969 8.175781 17.207031 8.175781 17.742188 7.855469 L 17.835938 7.796875 Z M 17.625 6.75 "/>
<path style=" stroke:none;fill-rule:nonzero;fill:rgb(100%,83.137255%,81.176471%);fill-opacity:1;" d="M 18.292969 6.648438 L 17.355469 7.210938 C 17.058594 7.390625 16.691406 7.390625 16.394531 7.210938 L 15.457031 6.648438 C 15.171875 6.480469 15 6.171875 15 5.84375 L 15 2.625 L 18.75 2.625 L 18.75 5.84375 C 18.75 6.171875 18.578125 6.480469 18.292969 6.648438 Z M 18.292969 6.648438 "/>
<path style=" stroke:none;fill-rule:nonzero;fill:rgb(82.745098%,16.470588%,12.54902%);fill-opacity:1;" d="M 17.109375 1.125 L 17.578125 1.125 C 18.355469 1.125 18.984375 1.753906 18.984375 2.53125 L 18.984375 3.375 L 17.109375 3.375 Z M 17.109375 1.125 "/>
<path style=" stroke:none;fill-rule:nonzero;fill:rgb(98.039216%,36.470588%,24.705882%);fill-opacity:1;" d="M 16.5 10.5 L 17.25 10.5 L 17.25 11.25 L 16.5 11.25 Z M 16.5 10.5 "/>
<path style=" stroke:none;fill-rule:nonzero;fill:rgb(98.039216%,36.470588%,24.705882%);fill-opacity:1;" d="M 15.375 1.125 L 17.34375 1.125 L 17.34375 2.71875 C 17.34375 3.496094 16.714844 4.125 15.9375 4.125 L 13.96875 4.125 L 13.96875 2.53125 C 13.96875 1.753906 14.597656 1.125 15.375 1.125 Z M 15.375 1.125 "/>
</g>
</svg>
