<?xml version="1.0" encoding="UTF-8" standalone="no"?> <svg id="Flat" height="512" viewBox="0 0 512 512" width="512" xmlns="http://www.w3.org/2000/svg"><g><g><g><path d="m358 368h20a30 30 0 0 1 30 30v58a0 0 0 0 1 0 0h-80a0 0 0 0 1 0 0v-58a30 30 0 0 1 30-30z" fill="#25b1fa"/><path d="m380 416h32a20 20 0 0 1 20 20v20a0 0 0 0 1 0 0h-72a0 0 0 0 1 0 0v-20a20 20 0 0 1 20-20z" fill="#80daff"/><path d="m40 291.04h288v176.265h-288z" fill="#80daff"/><path d="m24 456h424v32h-424z" fill="#2471d6"/><path d="m344 304h-192v-112h160l32 96z" fill="#2471d6"/><path d="m248 288-112-112-112 112v16h224z" fill="#25b1fa"/><path d="m72 336h128v120h-128z" fill="#f2fbff"/><path d="m128 336h16v120h-16z" fill="#ccf0ff"/><path d="m232 336h64v88h-64z" fill="#f2fbff"/><path d="m232 336h64v32h-64z" fill="#25b1fa"/></g><path d="m136 224-48 48h96z" fill="#f2fbff"/></g><path d="m360 24a128.009 128.009 0 0 0 -72 233.844v46.156l51.324-25.662a128.009 128.009 0 1 0 20.676-254.338z" fill="#e0f6ff"/><g><g><path d="m435.022 203.133-51.022-19.133h-48l-51.022 19.133a20 20 0 0 0 -12.978 18.727v23.09a128.579 128.579 0 0 0 16 12.894v46.156l51.324-25.662a128.916 128.916 0 0 0 20.676 1.662 127.562 127.562 0 0 0 88-35.049v-23.091a20 20 0 0 0 -12.978-18.727z" fill="#fac850"/><path d="m376 144h-32l-8 40 24 16 24-16z" fill="#ffd4cf"/><path d="m376 144h-32l-4.475 22.375 1.953 1.171a36 36 0 0 0 37.044 0l1.953-1.172z" fill="#fbb8b0"/><path d="m390.29 141.826-20 12a20 20 0 0 1 -20.58 0l-20-12a20 20 0 0 1 -9.71-17.15v-68.676h80v68.676a20 20 0 0 1 -9.71 17.15z" fill="#ffd4cf"/><path d="m365 24h10a30 30 0 0 1 30 30v18a0 0 0 0 1 0 0h-40a0 0 0 0 1 0 0v-48a0 0 0 0 1 0 0z" fill="#d32a20"/></g><g fill="#fa5d3f"><path d="m352 224h16v16h-16z"/><path d="m328 24h42a0 0 0 0 1 0 0v34a30 30 0 0 1 -30 30h-42a0 0 0 0 1 0 0v-34a30 30 0 0 1 30-30z"/></g></g></g></svg>