<svg xmlns="http://www.w3.org/2000/svg" xmlns:xlink="http://www.w3.org/1999/xlink" width="135" height="118" viewBox="0 0 135 118">
    <defs>
        <path id="prefix__a" d="M0.597 0.299L0.896 0.299 0.896 0.597 0.597 0.597z"/>
        <path id="prefix__c" d="M0.597 0.299L0.896 0.299 0.896 0.597 0.597 0.597z"/>
        <path id="prefix__e" d="M0.597 0.299L0.896 0.299 0.896 0.597 0.597 0.597z"/>
        <path id="prefix__g" d="M0 0.328L30.468 0.328 30.468 8.212 0 8.212z"/>
        <path id="prefix__i" d="M0.423 0.341L52.363 0.341 52.363 19.899 0.423 19.899z"/>
    </defs>
    <g fill="none" fill-rule="evenodd">
        <path fill="#EAF5FF" d="M0 0H135V118H0z"/>
        <g>
            <path fill="#000" fill-opacity=".2" d="M51.427 36.26L51.469 37.706 48.472 39.894 45.821 39.414 44.935 38.952 41.822 37.19 45.135 34.231z" transform="translate(5.692 26.5)"/>
            <path fill="#4D6EB4" d="M50.034 37.19L44.935 38.952 44.935 28.131 50.034 26.368z" transform="translate(5.692 26.5)"/>
            <path fill="#6B82C0" d="M44.935 28.131L44.935 35.189 50.034 37.19 50.034 26.368z" transform="translate(5.692 26.5)"/>
            <path fill="#91ABD8" d="M26.945 31.894L44.935 38.952 44.935 28.131 26.945 21.073z" transform="translate(5.692 26.5)"/>
            <path fill="#C4D5ED" d="M38.6 27.17L27.824 22.942 27.824 25.072 38.6 29.3z" transform="translate(5.692 26.5)"/>
            <path fill="#4D6EB4" d="M30.045 26.485L27.824 25.614 27.824 26.829 30.045 27.7z" transform="translate(5.692 26.5)"/>
            <path fill="#6B82C0" d="M30.283 26.57L30.283 27.785 35.142 29.692 35.142 28.476zM27.824 31.484L37.806 35.382 37.806 34.554 27.824 30.655z" transform="translate(5.692 26.5)"/>
            <path fill="#A2BDE2" d="M44.935 28.131L26.945 21.073 32.044 19.31 50.034 26.368z" transform="translate(5.692 26.5)"/>
            <path fill="#C4D5ED" d="M50.034 37.19L47.323 39.74 47.323 28.918 50.034 26.368z" transform="translate(5.692 26.5)"/>
            <g>
                <path fill="#91ABD8" d="M46.26 39.314l1.063.169V28.662l-.93-.148s-.805-.32-.805.658v9.094c0 .979.672 1.048.672 1.048" transform="translate(5.692 26.5) translate(0 .257)"/>
                <path fill="#C4D5ED" d="M39.212 29.639c0 1.447.998 3.018 2.218 3.49 1.221.473 2.22-.323 2.22-1.77v-.201c0-1.448-.999-3.018-2.22-3.492-1.22-.472-2.218.324-2.218 1.771v.202z" transform="translate(5.692 26.5) translate(0 .257)"/>
                <path fill="#4D6EB4" d="M42.741 30.519L41.819 30.16 41.819 28.95 40.875 28.585 40.875 29.793 39.952 29.435 39.952 30.449 40.875 30.807 40.875 32.018 41.819 32.384 41.819 31.175 42.741 31.533z" transform="translate(5.692 26.5) translate(0 .257)"/>
                <g transform="translate(5.692 26.5) translate(0 .257) translate(0 67.515)">
                    <mask id="prefix__b" fill="#fff">
                        <use xlink:href="#prefix__a"/>
                    </mask>
                </g>
                <path fill="#B3AEA9" d="M17.759 34.763c-.002 0-.003-.002-.004-.003.001.001.002.003.004.003M17.732 34.732l-.003-.003.003.003M17.71 34.7l-.002-.002.001.002M17.691 34.668l-.001-.002.001.002" transform="translate(5.692 26.5) translate(0 .257)"/>
                <g transform="translate(5.692 26.5) translate(0 .257) translate(0 67.515)">
                    <mask id="prefix__d" fill="#fff">
                        <use xlink:href="#prefix__c"/>
                    </mask>
                </g>
                <g transform="translate(5.692 26.5) translate(0 .257) translate(0 67.515)">
                    <mask id="prefix__f" fill="#fff">
                        <use xlink:href="#prefix__e"/>
                    </mask>
                </g>
                <path fill="#B3AEA9" d="M17.784 34.79l.006.006-.006-.006M17.817 34.82l.009.007c-.004-.002-.005-.005-.009-.008M17.854 34.849l.01.009-.01-.01M17.895 34.878c.004.003.01.006.013.01l-.013-.01M17.94 34.906l.017.011c-.005-.004-.01-.008-.017-.01M17.99 34.934l.02.012-.02-.012M18.043 34.962l.021.012-.021-.012M18.105 34.99c.007.005.013.007.02.01-.007-.003-.013-.005-.02-.01" transform="translate(5.692 26.5) translate(0 .257)"/>
                <path fill="#000" fill-opacity=".2" d="M17.005 36.03v.36c0 .17.177.345.531.482l15.55 5.969c.708.274 1.866.298 2.573.054.052-.018 6.62-2.427 6.645-2.435.354-.123.53-.29.53-.46v-.353c0-.17-.176-.346-.53-.484l-15.628-5.997c-.713-.246-1.814-.261-2.495-.026-.024.01-6.645 2.435-6.645 2.435-.35.121-.526.287-.53.456" transform="translate(5.692 26.5) translate(0 .257)"/>
                <path fill="#6A95CE" d="M41.37 38.737L25.74 32.74c-.713-.246-1.812-.26-2.495-.024l-6.644 2.434c-.708.245-.708.67 0 .943.007.004 15.55 5.97 15.55 5.97.708.274 1.866.298 2.573.053.045-.014 6.713-2.459 6.745-2.472l.006-.002c.6-.249.564-.643-.106-.904" transform="translate(5.692 26.5) translate(0 .257)"/>
                <path fill="#3B6EB5" d="M41.9 39.22v.002c-.001.152-.143.302-.426.419l-.005.002c-.032.013-6.7 2.457-6.745 2.473-.707.245-1.865.22-2.573-.054 0 0-15.543-5.966-15.55-5.97-.357-.138-.534-.315-.53-.488v.36c0 .17.176.344.53.481l15.55 5.97c.708.274 1.866.298 2.573.054l6.645-2.435c.353-.123.53-.29.53-.461v-.353z" transform="translate(5.692 26.5) translate(0 .257)"/>
                <path fill="#7DB0DF" d="M21.985 35.413l-1.95-.77-.059-.022h-.002c-.103-.036-.226-.058-.374-.058-.8 0-.886.632-.886.741v.53c0 .073.065.147.197.21l.061.026.058.02 1.93.763c.345.135.911.146 1.256.027.174-.06.26-.141.26-.225v-.526c0-.127-.057-.552-.491-.716" transform="translate(5.692 26.5) translate(0 .257)"/>
                <path fill="#6A95CE" d="M22.2 36.307l-1.825-.706c-.334-.148-.89-.186-1.236-.084-.332.097-.353.29-.057.436l1.84.712c.336.14.878.176 1.217.077.331-.098.354-.289.062-.435" transform="translate(5.692 26.5) translate(0 .257)"/>
                <path fill="#8BBFE7" d="M21.865 35.507l-.856-.334c-.65.067-.725.612-.725.712 0 .095-.006.248.034.396l.805.314c.25.097.633.141.829-.023.269-.227.269-.431.269-.546 0-.091-.04-.4-.356-.519" transform="translate(5.692 26.5) translate(0 .257)"/>
                <path fill="#263D81" d="M20.285 35.885c0-.1.074-.645.724-.711l-.993-.388c-.014-.005-.208-.058-.315-.058-.58 0-.642.458-.642.537 0 .08-.008.212.036.334.044.12.188.277.312.325l.912.357c-.042-.148-.034-.301-.034-.396" transform="translate(5.692 26.5) translate(0 .257)"/>
                <path fill="#F2F1F8" d="M21.585 35.665l-2.22-.862c-.007-.003-.093-.025-.14-.025-.259 0-.287.203-.287.239 0 .035-.004.094.016.149.02.054.084.124.138.146l2.16.839c.113.043.284.063.37-.01.12-.102.12-.193.12-.244 0-.041-.018-.179-.157-.232" transform="translate(5.692 26.5) translate(0 .257)"/>
                <path fill="#7DB0DF" d="M24.52 34.481l-1.95-.77-.059-.022h-.002c-.102-.037-.225-.058-.374-.058-.8 0-.886.632-.886.74v.531c0 .073.066.147.198.21.018.009.039.017.06.026l.057.02 1.931.763c.346.135.911.146 1.256.027.173-.06.26-.14.26-.225v-.526c0-.126-.057-.552-.491-.716" transform="translate(5.692 26.5) translate(0 .257)"/>
                <path fill="#6A95CE" d="M24.736 35.375l-1.826-.706c-.333-.149-.89-.186-1.235-.085-.333.098-.355.29-.057.437l1.84.712c.336.14.878.177 1.216.077.332-.098.355-.29.062-.435" transform="translate(5.692 26.5) translate(0 .257)"/>
                <path fill="#8BBFE7" d="M24.4 34.575l-.856-.333c-.65.066-.724.611-.724.71 0 .096-.007.249.034.397l.804.314c.25.097.634.141.83-.024.268-.226.268-.43.268-.545 0-.09-.04-.4-.355-.519" transform="translate(5.692 26.5) translate(0 .257)"/>
                <path fill="#263D81" d="M22.82 34.952c0-.099.074-.644.724-.71l-.993-.388c-.014-.006-.207-.058-.314-.058-.58 0-.643.458-.643.537 0 .08-.007.211.037.333.043.122.187.279.311.327l.912.356c-.04-.148-.034-.301-.034-.397" transform="translate(5.692 26.5) translate(0 .257)"/>
                <path fill="#F2F1F8" d="M24.12 34.734l-2.22-.863c-.006-.002-.093-.026-.14-.026-.259 0-.287.205-.287.24 0 .036-.003.094.017.148.02.055.083.124.138.146.097.039 2.16.84 2.16.84.112.043.283.063.37-.01.12-.101.12-.193.12-.244 0-.041-.02-.178-.158-.231" transform="translate(5.692 26.5) translate(0 .257)"/>
                <path fill="#7DB0DF" d="M27.056 33.549l-1.951-.77-.058-.023h-.002c-.103-.035-.226-.056-.374-.056-.8 0-.886.631-.886.74l-.002.53c0 .073.067.147.199.21l.061.026.057.02 1.93.764c.345.134.912.146 1.257.026.173-.06.259-.142.259-.225v-.527c0-.126-.056-.551-.49-.715" transform="translate(5.692 26.5) translate(0 .257)"/>
                <path fill="#6A95CE" d="M27.272 34.443s-1.818-.701-1.826-.706c-.334-.148-.89-.186-1.235-.084-.333.097-.355.29-.057.436l1.839.712c.336.142.878.176 1.217.076.332-.097.354-.288.062-.434" transform="translate(5.692 26.5) translate(0 .257)"/>
                <path fill="#8BBFE7" d="M26.936 33.644l-.857-.334c-.65.066-.723.611-.723.71 0 .096-.008.25.032.397l.806.315c.25.096.633.14.83-.024.268-.226.268-.432.268-.546 0-.092-.041-.4-.356-.518" transform="translate(5.692 26.5) translate(0 .257)"/>
                <path fill="#263D81" d="M25.356 34.02c0-.1.074-.644.724-.71l-.994-.388c-.013-.006-.207-.058-.314-.058-.579 0-.643.458-.643.538 0 .079-.007.21.037.332.044.122.187.278.312.327l.91.356c-.04-.148-.032-.3-.032-.396" transform="translate(5.692 26.5) translate(0 .257)"/>
                <path fill="#F2F1F8" d="M26.655 33.801l-2.22-.861c-.006-.004-.092-.027-.14-.027-.258 0-.287.204-.287.24 0 .035-.003.094.017.149.019.054.083.124.138.146l2.16.839c.113.044.284.063.37-.01.12-.101.12-.193.12-.244 0-.041-.018-.178-.158-.232" transform="translate(5.692 26.5) translate(0 .257)"/>
                <path fill="#7DB0DF" d="M26.774 37.24l-1.95-.768c-.02-.008-.038-.016-.059-.023-.104-.036-.227-.057-.374-.057-.801 0-.888.631-.888.74v.53c0 .073.067.147.198.21l.061.026.057.02 1.931.764c.345.134.911.145 1.256.026.173-.06.259-.14.259-.225v-.526c0-.126-.056-.552-.491-.716" transform="translate(5.692 26.5) translate(0 .257)"/>
                <path fill="#6A95CE" d="M26.99 38.135l-1.826-.706c-.333-.148-.89-.185-1.235-.084-.333.098-.353.29-.057.437l1.84.711c.336.14.877.176 1.217.077.332-.098.354-.289.06-.435" transform="translate(5.692 26.5) translate(0 .257)"/>
                <path fill="#8BBFE7" d="M26.655 37.336L25.8 37c-.65.067-.724.612-.724.711 0 .096-.008.249.033.397l.805.315c.25.097.634.14.83-.025.269-.225.269-.43.269-.545 0-.09-.042-.4-.357-.518" transform="translate(5.692 26.5) translate(0 .257)"/>
                <path fill="#263D81" d="M25.075 37.712c0-.099.074-.644.724-.71l-.994-.388c-.013-.006-.207-.058-.314-.058-.58 0-.642.458-.642.537 0 .08-.007.211.036.333.043.122.188.278.31.327l.913.356c-.042-.148-.033-.301-.033-.397" transform="translate(5.692 26.5) translate(0 .257)"/>
                <path fill="#F2F1F8" d="M26.374 37.493l-2.219-.861c-.006-.003-.092-.026-.14-.026-.26 0-.288.203-.288.24 0 .034-.004.093.017.147.02.055.083.125.139.146l2.16.84c.111.044.282.063.369-.01.121-.102.121-.193.121-.243 0-.042-.019-.179-.16-.233" transform="translate(5.692 26.5) translate(0 .257)"/>
                <path fill="#7DB0DF" d="M29.31 36.309l-1.95-.769-.059-.023H27.3c-.103-.036-.227-.058-.375-.058-.8 0-.886.632-.886.741v.53c0 .073.066.148.197.21l.061.026.057.02 1.932.764c.344.134.91.145 1.256.026.172-.06.259-.141.259-.225v-.526c0-.127-.056-.552-.492-.716" transform="translate(5.692 26.5) translate(0 .257)"/>
                <path fill="#6A95CE" d="M29.526 37.203l-1.826-.706c-.334-.147-.89-.185-1.235-.084-.334.097-.353.29-.057.436l1.839.712h.001c.336.14.877.176 1.217.077.33-.098.353-.289.06-.435" transform="translate(5.692 26.5) translate(0 .257)"/>
                <path fill="#8BBFE7" d="M29.19 36.404l-.856-.334c-.65.066-.724.611-.724.71 0 .096-.007.25.033.397l.806.315c.25.096.634.14.829-.024.269-.226.269-.431.269-.546 0-.091-.042-.4-.356-.518" transform="translate(5.692 26.5) translate(0 .257)"/>
                <path fill="#263D81" d="M27.61 36.78c0-.099.075-.644.725-.71l-.994-.388c-.013-.005-.207-.058-.314-.058-.58 0-.642.458-.642.537 0 .08-.008.212.035.333.043.122.189.279.311.327l.912.356c-.04-.148-.032-.3-.032-.397" transform="translate(5.692 26.5) translate(0 .257)"/>
                <path fill="#F2F1F8" d="M28.909 36.562l-2.22-.863c-.005-.003-.092-.026-.139-.026-.26 0-.287.204-.287.24 0 .036-.004.094.016.149.02.054.083.124.139.145l2.16.84c.11.043.283.063.37-.01.12-.1.12-.193.12-.244 0-.04-.019-.178-.16-.231" transform="translate(5.692 26.5) translate(0 .257)"/>
                <path fill="#7DB0DF" d="M31.845 35.377l-1.95-.77-.059-.021-.002-.001c-.102-.037-.225-.057-.373-.057-.8 0-.887.631-.887.74v.53c0 .073.065.147.197.21.02.01.04.017.06.026l.059.02 1.93.764c.346.134.911.145 1.257.026.173-.06.259-.14.259-.225v-.527c0-.125-.056-.552-.491-.715" transform="translate(5.692 26.5) translate(0 .257)"/>
                <path fill="#6A95CE" d="M32.061 36.271l-1.826-.706c-.334-.148-.89-.185-1.235-.084-.334.098-.354.29-.057.436l1.84.712c.336.141.877.177 1.217.076.331-.097.353-.288.061-.434" transform="translate(5.692 26.5) translate(0 .257)"/>
                <path fill="#8BBFE7" d="M31.726 35.472l-.856-.334c-.65.067-.724.612-.724.71 0 .096-.008.25.033.397l.804.315c.251.096.635.14.83-.025.269-.226.269-.43.269-.545 0-.091-.042-.4-.356-.518" transform="translate(5.692 26.5) translate(0 .257)"/>
                <path fill="#263D81" d="M30.146 35.849c0-.1.073-.644.725-.71l-.994-.389c-.014-.006-.208-.058-.315-.058-.58 0-.643.458-.643.538 0 .079-.006.211.036.332.044.122.188.278.312.327l.912.356c-.042-.148-.033-.301-.033-.396" transform="translate(5.692 26.5) translate(0 .257)"/>
                <path fill="#F2F1F8" d="M31.445 35.63l-2.22-.862c-.005-.003-.093-.027-.14-.027-.259 0-.287.205-.287.24 0 .036-.004.094.017.148.02.055.083.124.139.147l2.158.839c.113.044.284.063.371-.01.121-.101.121-.192.121-.243 0-.042-.019-.179-.16-.232" transform="translate(5.692 26.5) translate(0 .257)"/>
                <path fill="#7DB0DF" d="M31.564 39.07l-1.951-.77c-.018-.008-.037-.016-.058-.023h-.001c-.103-.036-.226-.057-.374-.057-.8 0-.886.631-.886.74l-.002.53c0 .074.067.148.199.21l.061.027.057.02 1.93.763c.345.134.912.146 1.256.027.174-.06.26-.142.26-.225v-.527c0-.126-.056-.552-.49-.716" transform="translate(5.692 26.5) translate(0 .257)"/>
                <path fill="#6A95CE" d="M31.78 39.963s-1.817-.701-1.826-.706c-.333-.147-.89-.185-1.235-.084-.333.097-.354.29-.057.437l1.84.712v-.001c.336.142.878.176 1.217.077.332-.098.354-.289.062-.435" transform="translate(5.692 26.5) translate(0 .257)"/>
                <path fill="#8BBFE7" d="M31.445 39.164l-.857-.334c-.65.066-.724.612-.724.71 0 .096-.006.25.034.398l.805.314c.25.096.633.14.829-.024.269-.226.269-.431.269-.545 0-.092-.04-.4-.356-.52" transform="translate(5.692 26.5) translate(0 .257)"/>
                <path fill="#263D81" d="M29.865 39.54c0-.098.074-.644.723-.71l-.993-.387c-.013-.006-.207-.058-.314-.058-.58 0-.642.457-.642.537 0 .079-.008.21.036.333.044.121.188.277.311.326l.913.357c-.042-.149-.034-.302-.034-.397" transform="translate(5.692 26.5) translate(0 .257)"/>
                <path fill="#F2F1F8" d="M31.164 39.323l-2.22-.863c-.006-.003-.092-.026-.14-.026-.259 0-.287.204-.287.24 0 .035-.003.093.017.148.02.054.083.124.138.146l2.16.84c.112.043.284.062.37-.011.12-.1.12-.193.12-.244 0-.04-.019-.178-.158-.23" transform="translate(5.692 26.5) translate(0 .257)"/>
                <path fill="#7DB0DF" d="M34.099 38.137h.001l-1.951-.769-.058-.023h-.002c-.102-.036-.227-.057-.373-.057-.801 0-.887.632-.887.74l-.001.53c0 .073.067.147.198.21l.062.027.056.019 1.93.764c.346.135.913.145 1.257.026.172-.06.259-.14.259-.225v-.526c0-.127-.056-.552-.491-.716" transform="translate(5.692 26.5) translate(0 .257)"/>
                <path fill="#6A95CE" d="M34.316 39.031l-1.826-.706c-.333-.148-.89-.185-1.235-.084-.333.098-.355.29-.057.437l1.84.711c.334.14.878.177 1.216.077.332-.098.355-.289.062-.435" transform="translate(5.692 26.5) translate(0 .257)"/>
                <path fill="#8BBFE7" d="M33.98 38.232l-.857-.334c-.649.067-.723.611-.723.711 0 .095-.007.248.033.396l.805.315c.25.097.633.14.83-.024.268-.226.268-.431.268-.546 0-.09-.04-.399-.356-.518" transform="translate(5.692 26.5) translate(0 .257)"/>
                <path fill="#263D81" d="M32.4 38.609c0-.1.074-.644.723-.711l-.992-.388c-.014-.006-.207-.058-.315-.058-.578 0-.642.458-.642.537 0 .08-.007.212.036.334.044.121.188.278.312.326.218.086.577.227.911.356-.04-.148-.033-.301-.033-.396" transform="translate(5.692 26.5) translate(0 .257)"/>
                <path fill="#F2F1F8" d="M33.699 38.39l-2.22-.862c-.006-.003-.092-.026-.14-.026-.259 0-.287.204-.287.24 0 .035-.003.093.016.148.02.054.085.124.14.146l2.16.84c.112.042.283.062.37-.011.12-.101.12-.192.12-.243 0-.042-.02-.179-.16-.232" transform="translate(5.692 26.5) translate(0 .257)"/>
                <path fill="#7DB0DF" d="M36.635 37.205l-1.95-.77c-.02-.007-.039-.015-.059-.021l-.001-.001c-.103-.036-.227-.057-.374-.057-.8 0-.888.632-.888.74v.53c0 .073.067.148.198.21.02.01.04.017.062.026l.056.02 1.931.764c.345.134.912.146 1.257.027.171-.06.258-.142.259-.226v-.526c0-.127-.056-.552-.491-.716" transform="translate(5.692 26.5) translate(0 .257)"/>
                <path fill="#6A95CE" d="M36.851 38.1s-1.817-.702-1.826-.707c-.333-.147-.89-.185-1.234-.084-.334.098-.355.29-.058.436l1.84.713c.335.14.878.175 1.216.076.332-.098.354-.289.062-.434" transform="translate(5.692 26.5) translate(0 .257)"/>
                <path fill="#8BBFE7" d="M36.516 37.3l-.857-.334c-.65.066-.723.612-.723.711 0 .095-.008.249.032.397l.805.314c.25.097.634.14.83-.024.269-.226.269-.43.269-.546 0-.091-.042-.4-.356-.518" transform="translate(5.692 26.5) translate(0 .257)"/>
                <path fill="#263D81" d="M34.936 37.677c0-.1.074-.645.723-.71l-.993-.388c-.014-.006-.207-.058-.314-.058-.58 0-.643.458-.643.537 0 .079-.007.211.037.332.043.122.188.279.31.327l.912.357c-.04-.148-.032-.302-.032-.397" transform="translate(5.692 26.5) translate(0 .257)"/>
                <path fill="#F2F1F8" d="M36.234 37.458l-2.22-.862c-.005-.003-.09-.026-.14-.026-.258 0-.286.204-.286.24 0 .035-.003.093.016.148.02.054.084.123.14.146l2.159.84c.112.043.284.062.37-.01.12-.102.12-.194.12-.244 0-.041-.019-.179-.159-.232" transform="translate(5.692 26.5) translate(0 .257)"/>
                <path fill="#3B6EB5" d="M39.055 39.35c-.004-.003-1.131-.459-1.139-.461-.216-.075-.547-.079-.753-.008l-4.058 1.522c-.214.075-.214.202 0 .285l1.115.452c.214.083.564.09.777.016.014-.004 4.08-1.53 4.089-1.533l.002-.001c.18-.075.171-.194-.033-.273" transform="translate(5.692 26.5) translate(0 .257)"/>
                <path fill="#BBC4CC" d="M32.347 43.861c0-.17-.176-.346-.53-.483-.017-.005-17.88-6.839-17.905-6.848-.713-.247-1.814-.26-2.495-.025L2.41 39.782c-.35.121-.527.286-.53.456h-.002v.358c0 .17.177.346.532.483l17.825 6.818c.708.275 1.866.3 2.574.054.051-.018 8.982-3.269 9.006-3.276.354-.123.531-.29.531-.461v-.353" transform="translate(5.692 26.5) translate(0 .257)"/>
                <path fill="#6A95CE" d="M30.535 42.902c-.016-.006-17.878-6.838-17.905-6.847-.713-.247-1.812-.261-2.495-.026l-9.007 3.277c-.707.246-.707.67 0 .944l17.826 6.819c.708.275 1.867.299 2.575.054l9.106-3.314.006-.003c.599-.25.564-.644-.106-.904" transform="translate(5.692 26.5) translate(0 .257)"/>
                <g transform="translate(5.692 26.5) translate(0 .257) translate(.597 39.433)">
                    <mask id="prefix__h" fill="#fff">
                        <use xlink:href="#prefix__g"/>
                    </mask>
                    <path fill="#3B6EB5" d="M30.468 3.952c0 .153-.142.304-.426.42h.001l-.005.003c-.032.013-9.063 3.299-9.106 3.315-.708.244-1.868.22-2.576-.055L.531.817C.174.678-.003.5 0 .329H0v.358c0 .17.177.346.53.483L18.357 7.99c.708.274 1.868.298 2.576.054.05-.02 8.981-3.27 9.005-3.278.354-.122.53-.29.53-.46v-.353z" mask="url(#prefix__h)"/>
                </g>
                <path fill="#3B6EB5" d="M26.831 43.99c-.005-.002-1.132-.458-1.14-.46-.216-.076-.548-.08-.754-.009l-4.058 1.523c-.213.073-.213.202 0 .285l1.117.451c.214.084.563.091.776.017l4.09-1.534h.001c.18-.075.17-.194-.032-.273" transform="translate(5.692 26.5) translate(0 .257)"/>
                <path fill="#7DB0DF" d="M6.71 39.307c0-.283-.156-.925-1.59-.925-1.436 0-1.59.657-1.59.853l-.001.688c-.002.15.153.304.463.425.62.24 1.634.26 2.254.046.31-.106.465-.253.465-.402v-.685z" transform="translate(5.692 26.5) translate(0 .257)"/>
                <path fill="#6A95CE" d="M6.127 40.287c-.554.191-1.461.173-2.015-.042s-.554-.547 0-.74c.554-.19 1.46-.172 2.015.044.555.214.555.546 0 .738" transform="translate(5.692 26.5) translate(0 .257)"/>
                <path fill="#3B6EB5" d="M3.696 39.923L3.696 39.923 3.696 39.928z" transform="translate(5.692 26.5) translate(0 .257)"/>
                <path fill="#AEC1E3" d="M6.058 39.681c-.516.18-1.36.161-1.879-.038-.289-.114-.417-.261-.38-.4.028-.108.364-.41 1.38-.41s1.224.349 1.259.455c.044.144-.082.29-.38.393" transform="translate(5.692 26.5) translate(0 .257)"/>
                <path fill="#3B6EB5" d="M3.792 39.285L3.792 39.285 3.792 39.29z" transform="translate(5.692 26.5) translate(0 .257)"/>
                <path fill="#DBE2F2" d="M6.058 39.681c-.516.18-1.36.161-1.879-.038-.258-.1-.387-.228-.387-.353v.515c0 .124.13.252.387.352.518.2 1.363.218 1.88.04.258-.09.386-.211.386-.337v-.514c0 .124-.128.246-.387.335" transform="translate(5.692 26.5) translate(0 .257)"/>
                <path fill="#8BADDB" d="M5.823 39.008c-.055-.021-.156-.022-.214-.002l-1.288.462c-.06.021-.037.064.027.097.065.033.16.026.22.005l1.296-.465h.001c.051-.022.013-.075-.042-.097" transform="translate(5.692 26.5) translate(0 .257)"/>
                <path fill="#6690CA" d="M5.855 39.026l-1.506.539c.064.034.158.025.22.005l1.295-.465h.002-.001c.04-.017.025-.054-.01-.079" transform="translate(5.692 26.5) translate(0 .257)"/>
                <path fill="#F2F1F8" d="M5.492 39.422c-.28-.039-.54-.136-.77-.295-.171-.119-.331-.322-.434-.501-.405.105-.565.316-.585.388-.04.146.099.299.413.416.56.208 1.476.227 2.036.04.088-.029.165-.062.228-.098-.292.073-.588.092-.888.05M3.792 39.56c-.045-.173-.208-.335-.208-.335v.673c-.001.126.408.582 1.536.582 0 0-1.175-.34-1.328-.92" transform="translate(5.692 26.5) translate(0 .257)"/>
                <path fill="#7DB0DF" d="M9.88 38.138c0-.282-.157-.925-1.592-.925-1.434 0-1.59.658-1.59.853l-.001.688c0 .15.155.305.465.425.62.24 1.634.261 2.253.047.31-.107.465-.254.465-.403v-.685z" transform="translate(5.692 26.5) translate(0 .257)"/>
                <path fill="#6A95CE" d="M9.295 39.118c-.553.192-1.46.173-2.014-.041-.554-.216-.554-.548 0-.74.554-.191 1.46-.172 2.014.042.556.215.556.548 0 .74" transform="translate(5.692 26.5) translate(0 .257)"/>
                <path fill="#3B6EB5" d="M6.866 38.755h-.001v0" transform="translate(5.692 26.5) translate(0 .257)"/>
                <path fill="#AEC1E3" d="M9.228 38.513c-.517.178-1.363.161-1.88-.039-.29-.114-.417-.26-.38-.4.028-.108.364-.41 1.38-.41s1.225.35 1.259.456c.044.144-.082.29-.38.393" transform="translate(5.692 26.5) translate(0 .257)"/>
                <path fill="#3B6EB5" d="M6.962 38.117L6.962 38.117 6.962 38.121z" transform="translate(5.692 26.5) translate(0 .257)"/>
                <path fill="#DBE2F2" d="M9.228 38.513c-.517.178-1.363.161-1.88-.039-.257-.1-.386-.228-.386-.353v.515c0 .125.129.253.387.352.516.2 1.362.218 1.879.04.259-.09.387-.211.387-.337v-.514c0 .124-.128.247-.387.336" transform="translate(5.692 26.5) translate(0 .257)"/>
                <path fill="#8BADDB" d="M8.993 37.84c-.056-.022-.157-.022-.215-.003l-1.287.462c-.06.021-.038.064.026.097.066.034.16.026.22.005l1.296-.465c.052-.021.013-.074-.04-.097" transform="translate(5.692 26.5) translate(0 .257)"/>
                <path fill="#6690CA" d="M9.024 37.857l-1.507.539c.065.034.16.026.22.005l1.297-.465c.04-.017.025-.053-.01-.08" transform="translate(5.692 26.5) translate(0 .257)"/>
                <path fill="#F2F1F8" d="M8.662 38.254c-.282-.04-.54-.137-.77-.295-.172-.12-.333-.322-.434-.502-.406.105-.567.316-.586.389-.04.145.098.298.413.415.56.208 1.476.228 2.036.041.089-.03.165-.063.227-.1-.291.075-.587.092-.886.052M6.962 38.391c-.045-.173-.208-.335-.208-.335v.673c0 .127.407.582 1.535.582 0 0-1.175-.34-1.327-.92" transform="translate(5.692 26.5) translate(0 .257)"/>
                <path fill="#7DB0DF" d="M13.035 36.988c0-.281-.157-.925-1.591-.925-1.435 0-1.59.658-1.59.853l-.002.688c-.002.15.154.304.465.425.619.24 1.633.261 2.253.047.31-.107.465-.254.465-.403v-.685z" transform="translate(5.692 26.5) translate(0 .257)"/>
                <path fill="#6A95CE" d="M12.45 37.968c-.554.191-1.46.172-2.014-.042-.554-.215-.554-.547 0-.739.554-.191 1.46-.172 2.014.042.555.215.555.548 0 .74" transform="translate(5.692 26.5) translate(0 .257)"/>
                <path fill="#3B6EB5" d="M10.021 37.604L10.021 37.604 10.021 37.61z" transform="translate(5.692 26.5) translate(0 .257)"/>
                <path fill="#AEC1E3" d="M12.383 37.362c-.517.18-1.362.162-1.88-.038-.29-.114-.416-.26-.38-.4.028-.108.364-.41 1.38-.41s1.225.35 1.258.455c.045.145-.08.29-.378.393" transform="translate(5.692 26.5) translate(0 .257)"/>
                <path fill="#3B6EB5" d="M10.116 36.967L10.116 36.967 10.116 36.971z" transform="translate(5.692 26.5) translate(0 .257)"/>
                <path fill="#DBE2F2" d="M12.383 37.362c-.517.18-1.362.162-1.88-.038-.258-.1-.387-.228-.387-.353v.515c0 .125.13.253.388.352.517.201 1.362.218 1.879.04.258-.09.387-.212.387-.337v-.515c0 .125-.129.248-.387.336" transform="translate(5.692 26.5) translate(0 .257)"/>
                <path fill="#8BADDB" d="M12.147 36.69c-.055-.022-.155-.023-.213-.003l-1.288.462c-.06.022-.038.064.026.098.065.033.16.025.22.003.004 0 1.294-.463 1.296-.465.052-.02.014-.073-.041-.096" transform="translate(5.692 26.5) translate(0 .257)"/>
                <path fill="#6690CA" d="M12.178 36.708c-.116.04-1.506.538-1.506.538.065.034.16.026.221.005.003-.002 1.293-.464 1.295-.466h.001c.04-.015.025-.052-.01-.077" transform="translate(5.692 26.5) translate(0 .257)"/>
                <path fill="#F2F1F8" d="M11.817 37.104c-.281-.04-.54-.137-.771-.295-.172-.12-.332-.322-.433-.502-.407.105-.565.316-.586.389-.04.145.098.298.414.415.56.208 1.475.226 2.035.04.089-.029.165-.062.228-.098-.293.074-.588.092-.887.05M10.116 37.24c-.044-.172-.208-.334-.208-.334v.673c0 .127.408.582 1.536.582 0 0-1.175-.34-1.328-.92" transform="translate(5.692 26.5) translate(0 .257)"/>
                <path fill="#7DB0DF" d="M9.873 40.522c0-.282-.158-.925-1.59-.925-1.436 0-1.592.657-1.592.853v.688c-.002.15.154.303.464.424.62.24 1.633.26 2.253.046.31-.106.465-.252.465-.402v-.684z" transform="translate(5.692 26.5) translate(0 .257)"/>
                <path fill="#6A95CE" d="M9.289 41.501c-.554.191-1.461.172-2.015-.042-.554-.215-.554-.547 0-.739.554-.191 1.46-.172 2.015.042.555.215.555.548 0 .74" transform="translate(5.692 26.5) translate(0 .257)"/>
                <path fill="#3B6EB5" d="M6.859 41.138L6.859 41.138 6.859 41.143z" transform="translate(5.692 26.5) translate(0 .257)"/>
                <path fill="#AEC1E3" d="M9.22 40.896c-.515.178-1.36.16-1.878-.04-.29-.112-.418-.26-.38-.398.027-.108.362-.41 1.378-.41s1.226.348 1.26.454c.044.144-.082.29-.38.394" transform="translate(5.692 26.5) translate(0 .257)"/>
                <path fill="#3B6EB5" d="M6.954 40.5L6.954 40.5 6.954 40.504z" transform="translate(5.692 26.5) translate(0 .257)"/>
                <path fill="#DBE2F2" d="M9.22 40.896c-.515.178-1.36.16-1.878-.04-.258-.1-.388-.227-.388-.352v.515c0 .125.13.252.388.352.517.201 1.363.218 1.879.04.259-.09.387-.211.387-.337v-.514c0 .125-.128.247-.387.336" transform="translate(5.692 26.5) translate(0 .257)"/>
                <path fill="#8BADDB" d="M8.985 40.222c-.055-.021-.156-.022-.214-.001l-1.287.461c-.06.022-.038.064.027.098.064.033.158.025.22.004l1.295-.465c.052-.022.013-.075-.04-.097" transform="translate(5.692 26.5) translate(0 .257)"/>
                <path fill="#6690CA" d="M9.016 40.24l-1.506.54c.065.033.16.024.22.004.004-.001 1.294-.463 1.296-.465h.001c.04-.016.025-.053-.011-.079" transform="translate(5.692 26.5) translate(0 .257)"/>
                <path fill="#F2F1F8" d="M8.654 40.637c-.28-.04-.539-.136-.77-.295-.17-.119-.332-.323-.434-.501-.405.104-.565.315-.585.388-.04.145.099.298.414.415.56.208 1.476.227 2.035.041.088-.03.165-.062.227-.1-.291.076-.587.093-.887.052M6.954 40.774c-.044-.173-.207-.335-.207-.335v.673c-.002.127.407.582 1.535.582 0 0-1.174-.34-1.328-.92" transform="translate(5.692 26.5) translate(0 .257)"/>
                <path fill="#7DB0DF" d="M13.042 39.353c0-.282-.157-.925-1.592-.925-1.434 0-1.59.658-1.59.853v.689c-.002.15.153.303.465.423.618.24 1.633.262 2.252.047.31-.106.465-.253.465-.402v-.685z" transform="translate(5.692 26.5) translate(0 .257)"/>
                <path fill="#6A95CE" d="M12.458 40.333c-.554.191-1.46.172-2.015-.042-.555-.215-.555-.547 0-.74.554-.19 1.461-.172 2.015.043.553.215.553.547 0 .739" transform="translate(5.692 26.5) translate(0 .257)"/>
                <path fill="#3B6EB5" d="M10.028 39.97v0" transform="translate(5.692 26.5) translate(0 .257)"/>
                <path fill="#AEC1E3" d="M12.39 39.727c-.517.179-1.363.161-1.879-.039-.29-.113-.418-.26-.381-.399.028-.108.364-.411 1.379-.411 1.017 0 1.225.35 1.26.456.045.143-.082.29-.38.393" transform="translate(5.692 26.5) translate(0 .257)"/>
                <path fill="#3B6EB5" d="M10.124 39.331L10.124 39.331 10.124 39.336z" transform="translate(5.692 26.5) translate(0 .257)"/>
                <path fill="#DBE2F2" d="M12.39 39.727c-.517.179-1.363.161-1.879-.039-.259-.1-.387-.227-.387-.352v.515c0 .125.128.252.387.352.516.2 1.362.218 1.879.039.259-.089.387-.21.387-.335v-.516c0 .124-.128.247-.387.336" transform="translate(5.692 26.5) translate(0 .257)"/>
                <path fill="#8BADDB" d="M12.154 39.054c-.055-.021-.155-.022-.213-.002-.003 0-1.287.462-1.287.462-.061.021-.04.064.025.098.064.032.16.025.22.003l1.297-.465c.051-.021.012-.074-.042-.096" transform="translate(5.692 26.5) translate(0 .257)"/>
                <path fill="#6690CA" d="M12.186 39.072l-1.507.54c.064.032.16.024.22.003.005 0 1.294-.463 1.297-.464.04-.017.025-.054-.01-.08" transform="translate(5.692 26.5) translate(0 .257)"/>
                <path fill="#F2F1F8" d="M11.824 39.468c-.281-.038-.54-.136-.771-.295-.171-.119-.332-.322-.433-.5-.406.104-.567.315-.586.387-.04.146.098.299.413.415.56.209 1.476.228 2.036.041.089-.028.166-.062.227-.099-.291.075-.587.092-.886.05M10.124 39.606c-.045-.173-.208-.336-.208-.336v.674c-.001.126.406.582 1.534.582 0 0-1.174-.34-1.326-.92" transform="translate(5.692 26.5) translate(0 .257)"/>
                <path fill="#7DB0DF" d="M16.197 38.203c0-.283-.157-.925-1.592-.925-1.434 0-1.59.657-1.59.853v.688c-.002.15.153.304.464.424.619.24 1.633.261 2.253.048.31-.108.465-.254.465-.403v-.685z" transform="translate(5.692 26.5) translate(0 .257)"/>
                <path fill="#6A95CE" d="M15.613 39.183c-.554.191-1.462.172-2.014-.042-.555-.215-.555-.547 0-.74.552-.191 1.46-.172 2.014.043.555.215.555.547 0 .739" transform="translate(5.692 26.5) translate(0 .257)"/>
                <path fill="#3B6EB5" d="M13.183 38.82h-.001v0" transform="translate(5.692 26.5) translate(0 .257)"/>
                <path fill="#AEC1E3" d="M15.544 38.578c-.515.178-1.361.16-1.878-.04-.29-.113-.418-.26-.381-.399.028-.109.364-.41 1.38-.41s1.224.348 1.259.455c.045.144-.082.29-.38.394" transform="translate(5.692 26.5) translate(0 .257)"/>
                <path fill="#3B6EB5" d="M13.279 38.181L13.279 38.181 13.279 38.186z" transform="translate(5.692 26.5) translate(0 .257)"/>
                <path fill="#DBE2F2" d="M15.544 38.578c-.515.178-1.361.16-1.878-.04-.259-.1-.387-.228-.387-.352v.514c0 .126.128.253.387.353.517.2 1.363.218 1.878.039.26-.089.388-.21.388-.336v-.515c0 .125-.129.248-.388.337" transform="translate(5.692 26.5) translate(0 .257)"/>
                <path fill="#8BADDB" d="M15.31 37.904c-.056-.022-.157-.022-.215-.002l-1.287.462c-.06.02-.038.064.026.097.066.033.16.026.22.004.004-.001 1.294-.463 1.296-.465h.001-.001c.053-.021.014-.074-.04-.096" transform="translate(5.692 26.5) translate(0 .257)"/>
                <path fill="#6690CA" d="M15.34 37.922l-1.505.539c.065.033.16.025.22.004.004 0 1.294-.463 1.295-.464l.002-.001h-.002c.042-.016.026-.053-.01-.078" transform="translate(5.692 26.5) translate(0 .257)"/>
                <path fill="#F2F1F8" d="M14.978 38.318c-.28-.038-.539-.136-.77-.295-.171-.118-.332-.322-.433-.502-.407.106-.566.317-.586.39-.04.145.098.298.414.415.56.207 1.475.227 2.035.04.089-.029.165-.062.228-.099-.292.075-.588.092-.888.05M13.279 38.456c-.046-.173-.208-.336-.208-.336v.674c-.002.126.407.582 1.534.582 0 0-1.174-.34-1.326-.92" transform="translate(5.692 26.5) translate(0 .257)"/>
                <path fill="#7DB0DF" d="M13.035 41.736c0-.282-.157-.924-1.591-.924-1.435 0-1.59.656-1.59.852l-.002.688c-.002.15.154.304.465.425.619.24 1.633.261 2.253.047.31-.108.465-.254.465-.403v-.685z" transform="translate(5.692 26.5) translate(0 .257)"/>
                <path fill="#6A95CE" d="M12.45 42.716c-.554.192-1.46.172-2.014-.042-.554-.215-.554-.547 0-.74.554-.19 1.46-.171 2.014.043.555.214.555.548 0 .74" transform="translate(5.692 26.5) translate(0 .257)"/>
                <path fill="#3B6EB5" d="M10.021 42.353L10.021 42.353 10.021 42.358z" transform="translate(5.692 26.5) translate(0 .257)"/>
                <path fill="#AEC1E3" d="M12.383 42.11c-.517.18-1.362.162-1.88-.038-.29-.114-.416-.26-.38-.4.028-.108.364-.41 1.38-.41s1.225.349 1.258.455c.045.144-.08.29-.378.393" transform="translate(5.692 26.5) translate(0 .257)"/>
                <path fill="#3B6EB5" d="M10.116 41.714L10.116 41.714 10.116 41.719z" transform="translate(5.692 26.5) translate(0 .257)"/>
                <path fill="#DBE2F2" d="M12.383 42.11c-.517.18-1.362.162-1.88-.038-.258-.101-.387-.229-.387-.353v.515c0 .124.13.252.388.353.517.2 1.362.217 1.879.038.258-.09.387-.211.387-.336v-.515c0 .125-.129.247-.387.336" transform="translate(5.692 26.5) translate(0 .257)"/>
                <path fill="#8BADDB" d="M12.147 41.438c-.055-.022-.155-.023-.213-.003-.003 0-1.288.462-1.288.462-.06.021-.038.064.026.097.065.033.16.026.22.005.004-.001 1.294-.464 1.296-.466.052-.02.014-.074-.041-.095" transform="translate(5.692 26.5) translate(0 .257)"/>
                <path fill="#6690CA" d="M12.178 41.455l-1.506.539c.065.034.16.025.221.005.003-.002 1.293-.464 1.295-.466h.001c.04-.016.025-.053-.01-.078" transform="translate(5.692 26.5) translate(0 .257)"/>
                <path fill="#F2F1F8" d="M11.817 41.85c-.281-.037-.54-.134-.771-.294-.172-.118-.332-.322-.433-.501-.407.105-.565.316-.586.388-.04.146.098.298.414.416.56.207 1.475.227 2.035.04.089-.03.165-.062.228-.098-.293.074-.588.092-.887.05M10.116 41.99c-.044-.174-.208-.337-.208-.337v.674c0 .126.408.582 1.536.582 0 0-1.175-.34-1.328-.92" transform="translate(5.692 26.5) translate(0 .257)"/>
                <path fill="#7DB0DF" d="M16.204 40.568c0-.283-.157-.925-1.592-.925-1.434 0-1.591.657-1.591.852v.689c0 .15.154.303.465.424.62.24 1.634.262 2.253.047.31-.106.465-.254.465-.403v-.684z" transform="translate(5.692 26.5) translate(0 .257)"/>
                <path fill="#6A95CE" d="M15.62 41.547c-.554.192-1.46.172-2.015-.042-.554-.214-.554-.547 0-.74.554-.19 1.46-.171 2.015.044.554.214.554.547 0 .738" transform="translate(5.692 26.5) translate(0 .257)"/>
                <path fill="#3B6EB5" d="M13.19 41.184h-.001v.005l.001-.005" transform="translate(5.692 26.5) translate(0 .257)"/>
                <path fill="#AEC1E3" d="M15.551 40.942c-.516.178-1.361.161-1.878-.04-.29-.112-.418-.26-.381-.398.028-.109.363-.41 1.379-.41 1.017 0 1.225.348 1.26.455.045.144-.082.29-.38.393" transform="translate(5.692 26.5) translate(0 .257)"/>
                <path fill="#3B6EB5" d="M13.286 40.545L13.286 40.545 13.286 40.55z" transform="translate(5.692 26.5) translate(0 .257)"/>
                <path fill="#DBE2F2" d="M15.551 40.942c-.516.178-1.361.161-1.878-.04-.259-.099-.387-.227-.387-.352v.515c0 .125.128.253.387.353.517.2 1.362.217 1.878.039.26-.09.388-.211.388-.337v-.514c0 .124-.128.247-.388.336" transform="translate(5.692 26.5) translate(0 .257)"/>
                <path fill="#8BADDB" d="M15.316 40.269c-.054-.022-.156-.023-.214-.003l-1.287.463c-.06.02-.038.063.026.097.065.033.16.026.22.004l1.297-.465c.051-.021.012-.074-.042-.096" transform="translate(5.692 26.5) translate(0 .257)"/>
                <path fill="#6690CA" d="M15.348 40.287l-1.506.538c.064.034.16.026.22.005l1.296-.465c.04-.016.026-.053-.01-.078" transform="translate(5.692 26.5) translate(0 .257)"/>
                <path fill="#F2F1F8" d="M14.985 40.682c-.28-.038-.539-.135-.77-.294-.171-.119-.331-.322-.433-.502-.406.105-.566.316-.586.389-.039.145.099.298.413.415.56.208 1.476.227 2.036.04.09-.028.166-.062.228-.098-.292.074-.588.092-.888.05M13.286 40.82c-.046-.173-.207-.335-.207-.335l-.002.673c0 .127.408.582 1.535.582 0 0-1.174-.34-1.326-.92" transform="translate(5.692 26.5) translate(0 .257)"/>
                <path fill="#7DB0DF" d="M19.359 39.418c0-.283-.158-.925-1.591-.925-1.435 0-1.59.657-1.59.852l-.002.689c-.001.15.155.303.465.423.62.242 1.634.263 2.253.048.31-.107.465-.253.465-.403v-.684z" transform="translate(5.692 26.5) translate(0 .257)"/>
                <path fill="#6A95CE" d="M18.775 40.397c-.554.192-1.461.173-2.015-.042s-.554-.547 0-.74c.554-.19 1.46-.171 2.015.044.555.214.555.547 0 .738" transform="translate(5.692 26.5) translate(0 .257)"/>
                <path fill="#3B6EB5" d="M16.345 40.034h-.001v.005l.001-.005" transform="translate(5.692 26.5) translate(0 .257)"/>
                <path fill="#AEC1E3" d="M18.707 39.792c-.517.178-1.363.16-1.88-.04-.289-.112-.417-.26-.38-.399.028-.108.364-.41 1.38-.41s1.225.35 1.259.455c.044.144-.082.291-.38.394" transform="translate(5.692 26.5) translate(0 .257)"/>
                <path fill="#3B6EB5" d="M16.441 39.395L16.441 39.395 16.441 39.4z" transform="translate(5.692 26.5) translate(0 .257)"/>
                <path fill="#DBE2F2" d="M18.707 39.792c-.517.178-1.363.16-1.88-.04-.257-.1-.386-.227-.386-.352v.515c0 .125.129.253.387.353.516.2 1.362.217 1.879.038.26-.089.387-.21.387-.335v-.515c0 .124-.128.247-.387.336" transform="translate(5.692 26.5) translate(0 .257)"/>
                <path fill="#8BADDB" d="M18.471 39.118c-.055-.021-.156-.022-.214-.001l-1.287.461c-.06.021-.04.064.026.098.065.032.16.026.22.003.004 0 1.294-.463 1.296-.464.052-.021.013-.075-.04-.097" transform="translate(5.692 26.5) translate(0 .257)"/>
                <path fill="#6690CA" d="M18.503 39.136l-1.507.54c.065.032.16.025.22.004l1.296-.465c.041-.017.026-.053-.01-.079" transform="translate(5.692 26.5) translate(0 .257)"/>
                <path fill="#F2F1F8" d="M18.14 39.532c-.28-.038-.54-.136-.77-.294-.171-.119-.332-.323-.434-.502-.405.105-.565.316-.585.389-.039.145.098.298.413.415.56.208 1.477.227 2.036.041.088-.03.166-.063.228-.1-.292.075-.588.093-.888.051M16.441 39.67c-.045-.173-.208-.335-.208-.335v.673c-.001.127.407.582 1.535.582 0 0-1.175-.34-1.327-.92" transform="translate(5.692 26.5) translate(0 .257)"/>
                <path fill="#7DB0DF" d="M16.197 42.95c0-.282-.157-.924-1.592-.924-1.434 0-1.59.657-1.59.854v.687c-.002.15.153.303.464.424.619.24 1.633.262 2.253.047.31-.107.465-.253.465-.403v-.685z" transform="translate(5.692 26.5) translate(0 .257)"/>
                <path fill="#6A95CE" d="M15.613 43.93c-.554.191-1.462.173-2.014-.042-.555-.215-.555-.547 0-.739.552-.19 1.46-.172 2.014.043.555.214.555.547 0 .738" transform="translate(5.692 26.5) translate(0 .257)"/>
                <path fill="#3B6EB5" d="M13.183 43.567L13.183 43.567 13.183 43.572z" transform="translate(5.692 26.5) translate(0 .257)"/>
                <path fill="#AEC1E3" d="M15.544 43.325c-.515.178-1.361.162-1.878-.039-.29-.113-.418-.26-.381-.4.028-.107.364-.41 1.38-.41s1.224.35 1.259.456c.045.144-.082.29-.38.393" transform="translate(5.692 26.5) translate(0 .257)"/>
                <path fill="#3B6EB5" d="M13.279 42.928L13.279 42.928 13.279 42.933z" transform="translate(5.692 26.5) translate(0 .257)"/>
                <path fill="#DBE2F2" d="M15.544 43.325c-.515.178-1.361.162-1.878-.039-.259-.1-.387-.228-.387-.353v.515c0 .125.128.252.387.353.517.2 1.363.217 1.878.039.26-.09.388-.212.388-.336v-.515c0 .124-.129.247-.388.336" transform="translate(5.692 26.5) translate(0 .257)"/>
                <path fill="#8BADDB" d="M15.31 42.652c-.056-.022-.157-.023-.215-.002l-1.287.462c-.06.02-.038.063.026.097.066.033.16.025.22.004.004-.001 1.294-.464 1.296-.466h.001-.001c.053-.02.014-.074-.04-.095" transform="translate(5.692 26.5) translate(0 .257)"/>
                <path fill="#6690CA" d="M15.34 42.67l-1.505.538c.065.034.16.025.22.005l1.295-.465h.002-.002c.042-.016.026-.053-.01-.078" transform="translate(5.692 26.5) translate(0 .257)"/>
                <path fill="#F2F1F8" d="M14.978 43.066c-.28-.04-.539-.136-.77-.295-.171-.119-.332-.323-.433-.501-.407.104-.566.316-.586.388-.04.145.098.298.414.415.56.208 1.475.227 2.035.041.089-.03.165-.063.228-.1-.292.075-.588.093-.888.052M13.279 43.203c-.046-.172-.208-.335-.208-.335v.673c-.002.127.407.582 1.534.582 0 0-1.174-.34-1.326-.92" transform="translate(5.692 26.5) translate(0 .257)"/>
                <path fill="#7DB0DF" d="M19.366 41.783c0-.284-.156-.926-1.592-.926-1.435 0-1.591.657-1.591.853v.688c0 .15.155.304.464.424.62.24 1.635.262 2.254.047.31-.106.465-.252.465-.402v-.684z" transform="translate(5.692 26.5) translate(0 .257)"/>
                <path fill="#6A95CE" d="M18.782 42.762c-.554.191-1.46.173-2.015-.042-.554-.215-.554-.548 0-.74.555-.191 1.461-.172 2.015.043.554.215.554.547 0 .739" transform="translate(5.692 26.5) translate(0 .257)"/>
                <path fill="#3B6EB5" d="M16.352 42.398h-.001v.005l.001-.005" transform="translate(5.692 26.5) translate(0 .257)"/>
                <path fill="#AEC1E3" d="M18.714 42.157c-.517.178-1.362.16-1.879-.04-.291-.112-.417-.26-.38-.398.027-.11.362-.411 1.378-.411 1.017 0 1.226.35 1.26.455.044.144-.081.29-.38.394" transform="translate(5.692 26.5) translate(0 .257)"/>
                <path fill="#3B6EB5" d="M16.448 41.76L16.448 41.76 16.448 41.764z" transform="translate(5.692 26.5) translate(0 .257)"/>
                <path fill="#DBE2F2" d="M18.714 42.157c-.517.178-1.362.16-1.879-.04-.258-.1-.387-.228-.387-.353v.516c0 .124.129.252.387.352.517.2 1.362.218 1.879.039.259-.09.387-.21.387-.336v-.515c0 .125-.128.248-.387.337" transform="translate(5.692 26.5) translate(0 .257)"/>
                <path fill="#8BADDB" d="M18.478 41.483c-.054-.021-.155-.022-.213-.002-.003 0-1.288.462-1.288.462-.06.021-.038.064.026.097s.16.026.221.004l1.296-.464c.05-.022.012-.075-.042-.097" transform="translate(5.692 26.5) translate(0 .257)"/>
                <path fill="#6690CA" d="M18.51 41.5c-.117.043-1.507.54-1.507.54.064.033.16.025.221.004.004 0 1.293-.463 1.296-.464.04-.017.025-.054-.01-.08" transform="translate(5.692 26.5) translate(0 .257)"/>
                <path fill="#F2F1F8" d="M18.147 41.896c-.28-.038-.539-.135-.77-.294-.171-.118-.331-.322-.434-.5-.405.104-.565.315-.585.388-.04.145.1.297.413.415.56.207 1.477.227 2.037.04.088-.03.164-.062.227-.099-.291.075-.588.092-.888.05M16.448 42.035c-.046-.174-.208-.336-.208-.336v.673c-.002.127.406.582 1.534.582 0 0-1.174-.339-1.326-.919" transform="translate(5.692 26.5) translate(0 .257)"/>
                <path fill="#7DB0DF" d="M22.521 40.632c0-.283-.157-.925-1.592-.925-1.434 0-1.59.657-1.59.853v.688c-.001.15.153.303.464.425.62.24 1.634.26 2.253.046.31-.107.465-.253.465-.402v-.685z" transform="translate(5.692 26.5) translate(0 .257)"/>
                <path fill="#6A95CE" d="M21.937 41.612c-.554.19-1.46.172-2.015-.042-.555-.215-.555-.548 0-.74.554-.191 1.461-.173 2.015.043.553.215.553.547 0 .74" transform="translate(5.692 26.5) translate(0 .257)"/>
                <path fill="#3B6EB5" d="M19.507 41.248v0" transform="translate(5.692 26.5) translate(0 .257)"/>
                <path fill="#AEC1E3" d="M21.869 41.007c-.517.178-1.363.16-1.879-.04-.29-.113-.417-.26-.381-.398.028-.11.364-.411 1.379-.411 1.017 0 1.225.349 1.26.455.045.144-.082.29-.38.394" transform="translate(5.692 26.5) translate(0 .257)"/>
                <path fill="#3B6EB5" d="M19.603 40.609L19.603 40.609 19.603 40.615z" transform="translate(5.692 26.5) translate(0 .257)"/>
                <path fill="#DBE2F2" d="M21.869 41.007c-.517.178-1.363.16-1.879-.04-.258-.1-.387-.228-.387-.352v.514c0 .125.129.253.387.353.516.2 1.362.218 1.879.04.259-.09.387-.212.387-.337v-.514c0 .124-.128.246-.387.336" transform="translate(5.692 26.5) translate(0 .257)"/>
                <path fill="#8BADDB" d="M21.633 40.333c-.055-.022-.155-.023-.213-.002-.003 0-1.287.462-1.287.462-.061.02-.04.064.025.097s.16.026.22.005l1.297-.466c.051-.021.012-.074-.042-.096" transform="translate(5.692 26.5) translate(0 .257)"/>
                <path fill="#6690CA" d="M21.665 40.35c-.116.043-1.507.54-1.507.54.065.033.16.025.221.005l1.296-.465v-.001c.04-.016.025-.053-.01-.078" transform="translate(5.692 26.5) translate(0 .257)"/>
                <path fill="#F2F1F8" d="M21.303 40.747c-.281-.039-.54-.136-.771-.295-.17-.119-.332-.322-.433-.502-.406.106-.566.317-.586.389-.04.146.098.299.413.416.56.208 1.477.226 2.036.04.089-.029.166-.062.227-.099-.291.074-.588.092-.886.05M19.603 40.885c-.045-.174-.208-.335-.208-.335v.672c-.002.127.407.582 1.535.582 0 0-1.175-.339-1.327-.919" transform="translate(5.692 26.5) translate(0 .257)"/>
                <path fill="#7DB0DF" d="M19.359 44.165c0-.282-.158-.925-1.591-.925-1.435 0-1.59.657-1.59.854l-.002.687c-.001.15.155.305.465.425.62.241 1.634.26 2.253.046.31-.106.465-.253.465-.402v-.685z" transform="translate(5.692 26.5) translate(0 .257)"/>
                <path fill="#6A95CE" d="M18.775 45.145c-.554.191-1.461.172-2.015-.042-.554-.215-.554-.548 0-.739.554-.192 1.46-.173 2.015.042.555.215.555.547 0 .74" transform="translate(5.692 26.5) translate(0 .257)"/>
                <path fill="#3B6EB5" d="M16.345 44.782h-.001v.005l.001-.005" transform="translate(5.692 26.5) translate(0 .257)"/>
                <path fill="#AEC1E3" d="M18.707 44.54c-.517.178-1.363.16-1.88-.04-.289-.113-.417-.26-.38-.399.028-.108.364-.41 1.38-.41s1.225.349 1.259.455c.044.144-.082.29-.38.393" transform="translate(5.692 26.5) translate(0 .257)"/>
                <path fill="#3B6EB5" d="M16.441 44.143L16.441 44.143 16.441 44.147z" transform="translate(5.692 26.5) translate(0 .257)"/>
                <path fill="#DBE2F2" d="M18.707 44.54c-.517.178-1.363.16-1.88-.04-.257-.1-.386-.227-.386-.352v.515c0 .124.129.253.387.352.516.2 1.362.218 1.879.04.26-.09.387-.211.387-.337v-.514c0 .124-.128.246-.387.335" transform="translate(5.692 26.5) translate(0 .257)"/>
                <path fill="#8BADDB" d="M18.471 43.866c-.055-.021-.156-.021-.214-.002l-1.287.462c-.06.021-.04.063.026.097.066.033.16.026.22.004.004 0 1.294-.463 1.296-.465.052-.02.013-.074-.04-.096" transform="translate(5.692 26.5) translate(0 .257)"/>
                <path fill="#6690CA" d="M18.503 43.884c-.117.043-1.507.539-1.507.539.066.033.16.025.22.004.004 0 1.294-.463 1.296-.465.041-.016.026-.053-.01-.078" transform="translate(5.692 26.5) translate(0 .257)"/>
                <path fill="#F2F1F8" d="M18.14 44.28c-.28-.038-.54-.136-.77-.295-.171-.119-.332-.322-.432-.501-.407.105-.567.316-.587.388-.039.145.098.298.413.416.56.207 1.477.227 2.036.04.088-.03.166-.062.228-.099-.292.074-.588.093-.888.051M16.441 44.418c-.045-.173-.208-.336-.208-.336v.674c-.001.126.407.582 1.535.582 0 0-1.175-.34-1.327-.92" transform="translate(5.692 26.5) translate(0 .257)"/>
                <path fill="#7DB0DF" d="M22.528 42.997c0-.283-.157-.926-1.592-.926-1.434 0-1.59.657-1.59.853v.688c-.002.15.153.305.464.425.62.24 1.634.262 2.253.047.31-.107.465-.253.465-.403v-.684z" transform="translate(5.692 26.5) translate(0 .257)"/>
                <path fill="#6A95CE" d="M21.944 43.976c-.555.192-1.46.173-2.015-.041-.554-.216-.554-.548 0-.74.555-.19 1.46-.172 2.015.042.554.215.554.548 0 .74" transform="translate(5.692 26.5) translate(0 .257)"/>
                <path fill="#3B6EB5" d="M19.513 43.613L19.513 43.613 19.513 43.618z" transform="translate(5.692 26.5) translate(0 .257)"/>
                <path fill="#AEC1E3" d="M21.876 43.37c-.517.18-1.362.161-1.879-.039-.291-.112-.417-.26-.381-.398.028-.108.364-.411 1.38-.411s1.225.35 1.258.455c.045.144-.08.29-.378.394" transform="translate(5.692 26.5) translate(0 .257)"/>
                <path fill="#3B6EB5" d="M19.61 42.974v0" transform="translate(5.692 26.5) translate(0 .257)"/>
                <path fill="#DBE2F2" d="M21.876 43.37c-.517.18-1.362.161-1.879-.039-.259-.1-.388-.227-.388-.352v.515c0 .124.13.253.388.352.517.2 1.362.218 1.88.04.257-.09.386-.211.386-.337v-.515c0 .126-.129.248-.387.337" transform="translate(5.692 26.5) translate(0 .257)"/>
                <path fill="#8BADDB" d="M21.64 42.699c-.054-.023-.155-.023-.213-.003-.003 0-1.287.46-1.287.46-.061.023-.04.065.025.098.064.034.16.026.22.005l1.297-.465c.05-.021.012-.075-.043-.095" transform="translate(5.692 26.5) translate(0 .257)"/>
                <path fill="#6690CA" d="M21.672 42.715l-1.507.539c.064.035.16.026.22.005l1.297-.465c.04-.017.025-.053-.01-.08" transform="translate(5.692 26.5) translate(0 .257)"/>
                <path fill="#F2F1F8" d="M21.31 43.112c-.282-.039-.54-.137-.771-.295-.17-.118-.331-.322-.434-.502-.405.105-.566.316-.585.39-.04.144.099.297.413.414.56.208 1.477.227 2.036.041.09-.03.165-.063.227-.1-.29.075-.587.093-.886.052M19.61 43.25c-.046-.173-.208-.336-.208-.336l-.001.674c0 .126.407.58 1.535.58 0 0-1.174-.338-1.326-.919" transform="translate(5.692 26.5) translate(0 .257)"/>
                <path fill="#7DB0DF" d="M25.683 41.847c0-.283-.157-.926-1.592-.926-1.434 0-1.59.657-1.59.853v.688c-.002.15.153.304.465.425.618.24 1.633.261 2.252.046.31-.106.465-.252.465-.402v-.684z" transform="translate(5.692 26.5) translate(0 .257)"/>
                <path fill="#6A95CE" d="M25.099 42.826c-.554.192-1.46.172-2.014-.041-.555-.216-.555-.548 0-.74.554-.191 1.46-.172 2.014.042.554.215.554.548 0 .739" transform="translate(5.692 26.5) translate(0 .257)"/>
                <path fill="#3B6EB5" d="M22.67 42.462h-.003v.005l.002-.005" transform="translate(5.692 26.5) translate(0 .257)"/>
                <path fill="#AEC1E3" d="M25.03 42.221c-.516.178-1.362.161-1.878-.04-.29-.112-.418-.259-.381-.398.028-.108.364-.411 1.379-.411 1.017 0 1.225.35 1.26.456.045.143-.082.29-.38.393" transform="translate(5.692 26.5) translate(0 .257)"/>
                <path fill="#3B6EB5" d="M22.765 41.825L22.765 41.825 22.765 41.829z" transform="translate(5.692 26.5) translate(0 .257)"/>
                <path fill="#DBE2F2" d="M25.03 42.221c-.516.178-1.362.161-1.878-.04-.259-.1-.387-.227-.387-.352v.515c0 .125.128.252.387.352.516.2 1.362.218 1.878.04.26-.09.388-.211.388-.337v-.515c0 .126-.128.248-.388.337" transform="translate(5.692 26.5) translate(0 .257)"/>
                <path fill="#8BADDB" d="M24.795 41.547c-.055-.021-.156-.022-.213-.001-.003 0-1.287.461-1.287.461-.061.021-.04.064.025.098.065.032.16.025.22.003.004 0 1.294-.463 1.297-.464.052-.022.012-.074-.042-.097" transform="translate(5.692 26.5) translate(0 .257)"/>
                <path fill="#6690CA" d="M24.827 41.565l-1.507.54c.065.032.16.025.221.004.004-.001 1.294-.463 1.296-.465.04-.017.025-.053-.01-.08" transform="translate(5.692 26.5) translate(0 .257)"/>
                <path fill="#F2F1F8" d="M24.465 41.961c-.282-.039-.54-.136-.771-.294-.171-.118-.332-.322-.433-.502-.406.105-.566.316-.586.389-.039.145.099.297.414.415.56.208 1.475.227 2.036.04.088-.029.165-.062.227-.098-.292.074-.587.091-.887.05M22.765 42.1c-.046-.175-.207-.336-.207-.336l-.002.673c0 .127.408.581 1.535.581 0 0-1.174-.338-1.326-.918" transform="translate(5.692 26.5) translate(0 .257)"/>
                <path fill="#000" fill-opacity=".2" d="M107.86 43.416c-.025-.01-35.148-13.446-35.19-13.46-1.098-.382-2.797-.404-3.849-.04l-13.957 5.077c-1.092.378-1.092 1.033 0 1.456.01.005 35.068 13.416 35.068 13.416 1.093.423 2.88.46 3.972.083.068-.023 14.063-5.115 14.111-5.136l.009-.003h-.002c.927-.384.872-.993-.162-1.393" transform="translate(5.692 26.5) translate(0 .257)"/>
                <g transform="translate(5.692 26.5) translate(0 .257) translate(50.785)">
                    <mask id="prefix__j" fill="#fff">
                        <use xlink:href="#prefix__i"/>
                    </mask>
                    <path fill="#5D87C5" d="M51.544 14.1C51.519 14.09 16.396.654 16.355.64c-1.1-.381-2.798-.403-3.85-.039L1.241 4.684C.15 5.06.15 5.717 1.242 6.14l35.069 13.416c1.092.423 2.878.46 3.97.084.07-.025 11.37-4.123 11.418-4.143l.007-.003c.927-.384.872-.993-.162-1.394" mask="url(#prefix__j)"/>
                </g>
                <path fill="#4680C1" d="M89.23 19.9c-.767-.002-1.55-.118-2.134-.344L52.026 6.14c-.55-.214-.823-.487-.817-.754v-.001 29.252c0 .264.272.534.818.745L87.097 48.8c.583.226 1.366.342 2.134.343V19.899z" transform="translate(5.692 26.5) translate(0 .257)"/>
                <path fill="#6A95CE" d="M102.492 15.494l-.008.003c-.049.02-11.349 4.118-11.417 4.142-.508.176-1.167.262-1.836.26v29.243c.67 0 1.328-.085 1.836-.26L102.33 44.8c.546-.189.819-.447.819-.711V14.845v.002c-.002.236-.221.466-.657.647" transform="translate(5.692 26.5) translate(0 .257)"/>
                <path fill="#3C68A4" d="M57.522 2.692l38.807 15.04.637-.232L58.158 2.46l-.636.232" transform="translate(5.692 26.5) translate(0 .257)"/>
                <path fill="#557BBC" d="M96.332 46.973c.21-.076.422-.152.632-.23V17.502l-.632.23v29.242z" transform="translate(5.692 26.5) translate(0 .257)"/>
                <path fill="#C4D5ED" d="M61.38 4.449L61.38 5.356 64.401 4.361 64.401 3.455z" transform="translate(5.692 26.5) translate(0 .257)"/>
                <path fill="#91ABD8" d="M58.834 4.362L61.381 5.355 61.381 4.449 58.834 3.455z" transform="translate(5.692 26.5) translate(0 .257)"/>
                <path fill="#A2BDE2" d="M61.38 4.449L58.834 3.455 61.853 2.461 64.401 3.455z" transform="translate(5.692 26.5) translate(0 .257)"/>
                <path fill="#C4D5ED" d="M91.095 15.944L91.095 16.852 94.115 15.857 94.115 14.951z" transform="translate(5.692 26.5) translate(0 .257)"/>
                <path fill="#91ABD8" d="M88.548 15.857L91.095 16.851 91.095 15.944 88.548 14.95z" transform="translate(5.692 26.5) translate(0 .257)"/>
                <path fill="#A2BDE2" d="M91.095 15.944L88.547 14.951 91.567 13.957 94.115 14.951z" transform="translate(5.692 26.5) translate(0 .257)"/>
                <path fill="#859CC5" d="M73.237 5.843c-.408.141-1.075.127-1.483-.031-.408-.158-.408-.403 0-.544.408-.14 1.075-.127 1.483.031.408.158.408.403 0 .544" transform="translate(5.692 26.5) translate(0 .257)"/>
                <path fill="#7D91C2" d="M73.543 5.578c0 .098-.102.194-.306.265-.407.141-1.075.127-1.483-.03-.206-.08-.308-.183-.306-.283v1.341c0 .099.102.2.306.278.408.159 1.076.172 1.483.032.204-.071.306-.168.306-.267V5.578z" transform="translate(5.692 26.5) translate(0 .257)"/>
                <path fill="#859CC5" d="M84.159 10.008c-.408.14-1.076.127-1.483-.031-.408-.158-.408-.403 0-.544.407-.14 1.075-.127 1.483.031.408.158.408.404 0 .544" transform="translate(5.692 26.5) translate(0 .257)"/>
                <path fill="#7D91C2" d="M84.465 9.742c0 .099-.102.195-.306.266-.407.14-1.076.127-1.483-.03-.207-.081-.309-.183-.306-.283v1.34c0 .099.102.2.306.28.407.157 1.076.17 1.483.03.204-.07.306-.167.306-.265V9.742z" transform="translate(5.692 26.5) translate(0 .257)"/>
                <path fill="#A2BDE2" d="M83.455 9.94c-.407 0-.736-.04-.736-.447V7.971c0-3.031-1.985-4.027-5.014-5.2-1.296-.504-3.256-1.263-3.98-.768-.414.284-.501 1.09-.501 1.718V5.3c0 .407-.252.474-.658.474-.407 0-.814-.067-.814-.474V3.721c0-1.446.374-2.406 1.142-2.932.615-.42 1.438-.52 2.519-.304.805.16 1.678.468 2.824.913 1.532.593 2.999 1.208 4.094 2.176 1.251 1.105 1.858 2.544 1.858 4.397v1.522c0 .407-.328.448-.734.448M69.707 7.85c-.407.141-1.075.127-1.482-.03-.408-.16-.408-.404 0-.545.407-.14 1.075-.127 1.482.032.408.157.408.402 0 .543" transform="translate(5.692 26.5) translate(0 .257)"/>
                <path fill="#91ABD8" d="M70.013 7.585c0 .098-.101.195-.306.265-.407.142-1.075.127-1.482-.03-.207-.08-.308-.183-.307-.283v1.34c0 .1.103.2.307.28.407.157 1.075.171 1.482.03.205-.07.306-.167.306-.266V7.585z" transform="translate(5.692 26.5) translate(0 .257)"/>
                <path fill="#A2BDE2" d="M80.629 12.015c-.408.14-1.076.127-1.483-.032-.408-.157-.408-.402 0-.543.407-.141 1.075-.128 1.483.03.408.16.408.404 0 .545" transform="translate(5.692 26.5) translate(0 .257)"/>
                <path fill="#91ABD8" d="M80.935 11.75c0 .098-.102.194-.306.265-.408.14-1.076.126-1.483-.031-.206-.08-.309-.182-.306-.282v1.341c0 .098.102.199.306.278.407.158 1.075.172 1.483.031.204-.07.306-.167.306-.266V11.75z" transform="translate(5.692 26.5) translate(0 .257)"/>
                <path fill="#C4D5ED" d="M79.926 11.947c-.408 0-.736-.04-.736-.447V9.978c0-3.031-1.986-4.027-5.015-5.2-1.296-.504-3.256-1.263-3.979-.768-.415.284-.501 1.09-.501 1.718v1.578c0 .406-.253.474-.66.474-.406 0-.812-.067-.812-.474V5.728c0-1.447.373-2.406 1.141-2.932.616-.421 1.439-.52 2.52-.305.804.16 1.677.47 2.824.914 1.532.594 2.998 1.208 4.094 2.176 1.251 1.105 1.858 2.544 1.858 4.397V11.5c0 .407-.328.447-.734.447" transform="translate(5.692 26.5) translate(0 .257)"/>
                <path fill="#BFC7E5" d="M61.863 25.302c0 5.351 3.694 11.162 8.208 12.911 4.514 1.75 8.208-1.198 8.208-6.55v-.746c0-5.352-3.694-11.162-8.208-12.912-4.514-1.749-8.208 1.199-8.208 6.55v.747z" transform="translate(5.692 26.5) translate(0 .257)"/>
                <path fill="#3B6EB5" d="M72.337 25.525c-.59-.23-1.902-.464-2.528.515-.076.118-.312.031-.386-.143-.626-1.473-1.942-2.267-2.532-2.498-1.983-.774-3.235.166-2.974 2.43.275 2.378 3.877 6.349 5.208 7.728.304.315.668.45.963.357 1.32-.406 4.947-1.67 5.223-3.769.261-1.983-.991-3.846-2.974-4.62" transform="translate(5.692 26.5) translate(0 .257)"/>
                <path fill="#000" fill-opacity=".2" d="M82.302 51.441c.002-.257-.264-.52-.797-.726l-7.319-2.8c.222-.145.334-.309.334-.475v-.514c0-.256-.267-.518-.797-.724l-3.64-1.441.67.266c.605-.227 1.019-.38 1.031-.387l.008-.003h-.001c.429-.178.641-.404.639-.635v-.5c.006-.261-.26-.527-.797-.735-.023-.01-2.04-.82-2.08-.834-1.07-.37-2.722-.392-3.745-.038l-1.529.57-1.883-.745c-1.07-.371-2.721-.392-3.746-.038l-.395.14c-2.19-.838-3.618-1.383-3.627-1.386-1.07-.37-2.721-.392-3.746-.037-.034.011-39.7 14.512-39.7 14.512-.525.181-.79.43-.796.683v1.223c0 .256.265.518.797.724l26.76 10.236c1.062.413 2.8.45 3.862.082.079-.027 39.664-14.501 39.7-14.513.532-.184.798-.435.798-.692V51.44l-.001.001" transform="translate(5.692 26.5) translate(0 .257)"/>
                <path fill="#6A95CE" d="M80.091 50.16c-.025-.009-26.837-10.265-26.877-10.278-1.07-.37-2.722-.392-3.747-.039L9.768 54.357c-1.063.368-1.063 1.005 0 1.417.011.003 26.76 10.235 26.76 10.235 1.062.412 2.8.448 3.864.081.065-.023 39.802-14.55 39.85-14.57l.007-.003c.9-.373.849-.967-.158-1.356" transform="translate(5.692 26.5) translate(0 .257)"/>
                <path fill="#3B6EB5" d="M80.888 50.886v.001c-.001.23-.214.454-.639.63l-.006.003c-.049.02-39.786 14.547-39.851 14.57-1.063.367-2.802.33-3.864-.08L9.768 55.773c-.538-.209-.802-.474-.797-.734v-.002 1.225c0 .256.265.518.797.724.012.006 26.76 10.237 26.76 10.237 1.062.411 2.8.447 3.864.08.077-.026 39.662-14.5 39.7-14.513.53-.184.796-.435.796-.692v-1.213z" transform="translate(5.692 26.5) translate(0 .257)"/>
                <path fill="#DDE7F5" d="M37.978 65.059L12.855 55.171 51.877 40.874 77 50.763z" transform="translate(5.692 26.5) translate(0 .257)"/>
                <path fill="#4D6EB4" d="M65.236 53.138L50.958 47.531 54.199 46.311 68.477 51.919z" transform="translate(5.692 26.5) translate(0 .257)"/>
                <path fill="#A2BDE2" d="M61.53 54.448L40.401 46.18 41.234 45.89 62.364 54.159zM60.204 54.927L39.075 46.659 39.907 46.368 61.037 54.637zM58.877 55.405L37.748 47.136 38.581 46.846 59.711 55.115zM57.551 55.883L36.422 47.615 37.254 47.324 58.383 55.593zM56.224 56.362L35.096 48.093 35.928 47.803 57.057 56.071zM54.898 56.84L33.769 48.571 34.601 48.281 55.73 56.55zM53.572 57.318L32.443 49.05 33.275 48.759 54.404 57.028zM52.245 57.796L31.116 49.528 31.947 49.238 53.077 57.506zM50.919 58.275L29.79 50.006 30.622 49.715 51.751 57.985zM49.592 58.753L28.463 50.484 29.296 50.194 50.424 58.463zM48.265 59.231L27.137 50.963 27.968 50.672 49.098 58.941zM46.939 59.71L25.81 51.441 26.642 51.15 47.772 59.419zM45.612 60.188L24.484 51.919 25.315 51.629 46.445 59.898zM44.285 60.666L23.157 52.398 23.989 52.107 45.119 60.376zM42.959 61.144L21.83 52.875 22.662 52.585 43.792 60.854zM27.344 56.009L20.504 53.354 21.336 53.063 28.177 55.719zM35.012 61.425L21.114 55.974 22.674 55.43 36.571 60.881zM29.096 59.798L24.248 57.897 24.791 57.707 29.64 59.609z" transform="translate(5.692 26.5) translate(0 .257)"/>
                <path fill="#4D6EB4" d="M51.471 46.449c-1.662.574-4.382.518-6.044-.127-1.662-.644-1.662-1.641 0-2.216 1.662-.576 4.382-.518 6.044.127 1.663.644 1.663 1.64 0 2.216" transform="translate(5.692 26.5) translate(0 .257)"/>
                <path fill="#DDE7F5" d="M51.267 45.878L49.755 45.291 51.2 44.764 49.987 44.293 48.544 44.82 47.062 44.243 45.811 44.675 47.324 45.264 45.878 45.791 47.091 46.261 48.535 45.735 50.016 46.312z" transform="translate(5.692 26.5) translate(0 .257)"/>
                <path fill="#C4D5ED" d="M68.237 42.921c-.65.225-1.712.203-2.36-.049-.651-.251-.651-.64 0-.866.648-.224 1.71-.202 2.36.05.65.252.65.64 0 .865m4.07 2.727l-3.638-1.441 1.7-.635.008-.003c.9-.374.847-.967-.158-1.357-.025-.01-2.04-.82-2.08-.833-1.07-.371-2.721-.392-3.746-.038l-1.528.569c-1.117-.443-1.873-.74-1.884-.744-1.07-.372-2.721-.392-3.745-.038l-3.301 1.175c-1.064.367-1.064 1.004 0 1.416l11.209 4.44c1.062.411 2.8.447 3.863.08.065-.023 3.405-1.213 3.452-1.232l.008-.003c.9-.374.848-.966-.16-1.356" transform="translate(5.692 26.5) translate(0 .257)"/>
                <path fill="#A8C3E5" d="M65.542 42.69c.08-.062.19-.12.335-.169.648-.224 1.71-.202 2.36.05.143.055.254.117.334.182.284-.22.172-.5-.334-.698-.65-.25-1.712-.273-2.36-.05-.508.176-.62.452-.335.685M70.377 43.569s-.003 0-.008.003l-1.7.635.669.266 1.03-.387.01-.003c.427-.178.64-.405.636-.636v-.5c-.005.226-.218.448-.637.622M73.104 46.372c0 .23-.212.455-.636.632l-.009.003c-.047.02-3.386 1.209-3.452 1.232-1.063.366-2.801.331-3.863-.081l-11.21-4.44c-.531-.205-.797-.468-.797-.724v.542h.002c.018.248.283.499.795.698l11.21 4.439c1.062.412 2.8.448 3.863.08.066-.022 3.405-1.212 3.452-1.23l.009-.004c.425-.178.638-.403.636-.634v-.513z" transform="translate(5.692 26.5) translate(0 .257)"/>
                <path fill="#000" fill-opacity=".2" d="M65.65 49.874c-.145-.064-.831-.244-1.411.035l-1.436.51-24.776 8.815-.036.013-.012.005c-.097.037-.19.085-.28.146l-.016.01-.037.029c-.015.01-.03.02-.043.032l-.002.001c-.042.034-.081.07-.119.11l-1.58 1.383c-.003 0-.004.002-.005.003l-.004.004c-.018.017-.034.04-.044.067l-.515.186.002-.001c-.063.023-.123.073-.152.173-.03.095.015.237.099.273.087.04.187.046.266.016l-.004.002.494-.18.024.01c.012.005.023.008.034.01h.005l.009.003 1.765.341c.213.074.434.117.651.126l.067.013c.06 0 .122-.003.183-.01h.01l.002-.001c.114-.013.23-.038.348-.075l.02-.007c.017-.006.034-.01.052-.017l24.852-8.858 1.657-.591c.423-.208.717-.622.715-1.273-.002-.625-.232-1.062-.783-1.303" transform="translate(5.692 26.5) translate(0 .257)"/>
                <path fill="#4F69B0" d="M64.902 49.396c-.145-.064-.831-.245-1.411.035L37.24 58.77h.002c-.357.132-.692.418-.861.983-.165.552.092 1.361.569 1.571.505.222 1.076.262 1.53.09l-.02.008 26.509-9.449c.422-.208.716-.622.716-1.274-.003-.625-.234-1.06-.784-1.302" transform="translate(5.692 26.5) translate(0 .257)"/>
                <path fill="#374D97" d="M63.577 50.358c-.08-.035-.461-.136-.783.02l-25 8.946.008-.003c-.2.072-.39.23-.485.547-.092.307.052.757.315.873.281.123.597.145.85.05l-.012.004 25.144-9.007c.235-.116.398-.346.398-.707-.001-.347-.13-.588-.435-.723" transform="translate(5.692 26.5) translate(0 .257)"/>
                <path fill="#1D2557" d="M56.652 53.078c-.05-.022-.287-.084-.487.012L38.188 59.47l.005-.002c-.125.045-.243.144-.302.341-.058.191.032.47.196.543.175.077.372.09.528.031l-.006.002 18.067-6.416c.146-.072.248-.215.247-.44 0-.215-.08-.366-.271-.45" transform="translate(5.692 26.5) translate(0 .257)"/>
                <path fill="#C4D5ED" d="M62.154 50.33c-.046-.02-.262-.077-.446.012L39.495 58.32c-.113.042-.218.133-.272.311-.053.175.029.43.18.497.16.07.339.083.483.028-.002 0-.005 0-.007.002l22.296-8.014c.134-.065.227-.196.227-.403-.001-.197-.074-.334-.248-.41" transform="translate(5.692 26.5) translate(0 .257)"/>
                <path fill="#475CA8" d="M38.829 59.636c-.294-.893-1.246-1.005-1.587-.867-.143.057-.271.128-.387.221h-.001l-.003.002c-.04.034-.08.07-.117.11l-1.59 1.39.205.555 2.497.484c.06 0 .121-.004.184-.01l.01-.001c.138-.016.278-.048.42-.1.527-.187.724-.703.369-1.784" transform="translate(5.692 26.5) translate(0 .257)"/>
                <path fill="#303D79" d="M35.084 60.674c0 .15.104.314.232.364.127.049.23-.034.23-.185v-.02c0-.152-.103-.316-.23-.366-.128-.048-.232.035-.232.186v.021z" transform="translate(5.692 26.5) translate(0 .257)"/>
                <path fill="#00002C" d="M35.546 60.853v-.02c0-.145-.095-.301-.216-.357l-.745.27.002-.002c-.062.023-.122.072-.152.173-.029.096.016.236.1.273.088.04.186.046.265.016l-.003.001.735-.267c.008-.026.014-.054.014-.087" transform="translate(5.692 26.5) translate(0 .257)"/>
                <path fill="#1D2557" d="M64.902 49.396c-.145-.064-.831-.245-1.411.035l-1.436.51c.517-.143 1.047-.002 1.173.054.551.242.782.677.784 1.302.001.643-.286 1.056-.7 1.266l1.658-.591c.422-.208.716-.622.716-1.274-.003-.625-.234-1.06-.784-1.302" transform="translate(5.692 26.5) translate(0 .257)"/>
                <path fill="#000" fill-opacity=".2" d="M101.832 54.563c-1.029-.356-3.747-.91-6.698-.237-.353.08-.762-.057-.669-.226.767-1.434-1.109-2.469-2.14-2.826-3.462-1.198-7.587-.705-10.09 1.34-2.658 2.145-.687 6.481.04 7.995.16.345.715.55 1.472.543 3.41-.024 13.366-.176 17.493-1.874 3.933-1.602 4.054-3.518.592-4.715" transform="translate(5.692 26.5) translate(0 .257)"/>
                <path fill="#2955A5" d="M92.421 46.401c-.906-.354-2.923-.712-3.887.793-.116.181-.479.048-.592-.22-.963-2.265-2.984-3.486-3.892-3.84-1.079-.42-2.016-.512-2.76-.3h-.001c-.085.025-.169.053-.25.086l-5.201 1.78 7.85 16.408 5.278-1.81c2.027-.625 7.603-2.568 8.028-5.794.402-3.048-1.524-5.913-4.573-7.103" transform="translate(5.692 26.5) translate(0 .257)"/>
                <path fill="#4F69B0" d="M87.143 48.211c-.907-.353-2.924-.712-3.887.792-.116.182-.48.048-.593-.219-.962-2.265-2.983-3.486-3.891-3.84-3.048-1.19-4.974.254-4.572 3.733.423 3.657 5.96 9.761 8.005 11.883.467.483 1.028.69 1.484.548 2.026-.624 7.601-2.568 8.027-5.794.402-3.048-1.524-5.913-4.573-7.103" transform="translate(5.692 26.5) translate(0 .257)"/>
                <path fill="#BFC7E5" d="M85.944 54.79L83.798 53.957 83.798 51.14 81.598 50.288 81.598 53.101 79.451 52.267 79.451 54.628 81.598 55.462 81.598 58.279 83.798 59.132 83.798 56.318 85.944 57.152z" transform="translate(5.692 26.5) translate(0 .257)"/>
            </g>
        </g>
    </g>
</svg>
