<?xml version="1.0" encoding="UTF-8"?>
<svg width="343px" height="100px" viewBox="0 0 343 100" version="1.1" xmlns="http://www.w3.org/2000/svg" xmlns:xlink="http://www.w3.org/1999/xlink">
    <!-- Generator: sketchtool 64 (101010) - https://sketch.com -->
    <title>D980C1A5-B95D-4091-A75C-696DDB2783C3</title>
    <desc>Created with sketchtool.</desc>
    <g id="Page-1" stroke="none" stroke-width="1" fill="none" fill-rule="evenodd">
        <g id="dos-and-don’t">
            <g id="Group-318" transform="translate(-1.000000, 0.000000)">
                <polygon id="Fill-1" fill="#F0F2DF" points="1 100 344 100 344 5.68434189e-14 1 5.68434189e-14"></polygon>
                <g id="Group-317" transform="translate(0.000000, 11.208000)">
                    <path d="M86.9975,44.7517 L86.9975,44.7517 C81.7755,40.4957 78.7865,35.1227 78.5505,26.4047 L78.5565,19.6777 L87.0185,19.6847 L86.9975,44.7517 Z" id="Fill-2" fill="#252733"></path>
                    <path d="M87.0347,51.2922 C87.0347,51.2922 84.7687,56.6222 78.3757,57.6612 C75.8037,63.3882 78.6857,73.2402 78.6857,73.2402 L89.2747,80.0922 C89.2747,80.0922 117.7687,69.5312 117.8727,68.2812 C117.9777,67.0312 108.1657,57.6182 108.1657,57.6182 C108.1657,57.6182 101.8697,58.2482 101.8737,53.3442 C101.8777,48.4412 87.0347,51.2922 87.0347,51.2922" id="Fill-4" fill="#F2A572"></path>
                    <path d="M98.3989,0.811293096 C87.5449,0.8023 78.7399,9.5933 78.7308915,20.4463 C78.7209,31.2993 87.5119,40.1043 98.3649,40.1143069 C109.2179,40.1233 118.0239,31.3323 118.032909,20.4793 C118.0429,9.6263 109.2519,0.8203 98.3989,0.811293096" id="Fill-6" fill="#252733"></path>
                    <polygon id="Fill-8" fill="#F2A572" points="86.9536 55.3889 101.8716 55.4019 101.8906 33.9049 86.9726 33.8919"></polygon>
                    <path d="M91.6058959,43.0593 C91.6009,48.7353 96.1979,53.3393 101.8739,53.3443 L101.8849,40.1823 L91.6079,40.1733 L91.6058959,43.0593 Z" id="Fill-10" fill="#CF804B"></path>
                    <path d="M101.0278,7.25108772 C93.1118,7.2822 86.7198,13.7252 86.7506877,21.6412 L86.8008,34.5252 C86.8328,42.4412 99.2848,48.8002 104.4158,48.8052006 C106.7588,48.8072 115.4598,43.8092 115.4678,33.6062 L115.4168,21.5282 C115.3858,13.6122 108.9438,7.2202 101.0278,7.25108772" id="Fill-12" fill="#F2A572"></path>
                    <path d="M108.5532,33.9758 C108.1472,33.9758 107.8172,34.3048 107.8172,34.7108 C107.8162,35.1638 107.4792,35.5328 107.0642,35.5328 L106.2222,35.5318 C105.8162,35.5308 105.487198,35.8608 105.487198,36.2668 C105.4862,36.6718 105.8152,37.0018 106.2212,37.0028007 L107.0632,37.0028007 C108.2882,37.0038 109.2862,35.9758 109.2882,34.7118 C109.2882,34.3058 108.9592,33.9758 108.5532,33.9758" id="Fill-14" fill="#CF804B"></path>
                    <path d="M86.7422,31.4294007 L86.7422,31.4294007 C88.1642,31.4304 89.3172,30.2794 89.3192,28.8574 L89.3282,17.2624 L86.3012,17.2594 L86.7422,31.4294007 Z" id="Fill-16" fill="#252733"></path>
                    <path d="M84.6616,25.5519934 L84.1896,25.553 C82.9316,25.557 81.9136,26.58 81.9165934,27.839 L81.9326,33.044 C81.9366,34.641 83.2356,35.932 84.8326,35.9280093 L86.9706,35.922 L86.9476,27.824 C86.9436,26.566 85.9196,25.549 84.6616,25.5519934" id="Fill-18" fill="#F2A572"></path>
                    <path d="M111.916,27.907 C111.349,27.907 110.889,28.538 110.887998,29.318 C110.887,30.098 111.347,30.731 111.914,30.731 C112.48,30.731 112.941002,30.1 112.941002,29.32 C112.942,28.54 112.483,27.907 111.916,27.907" id="Fill-20" fill="#332938"></path>
                    <path d="M101.2861,27.9797 C100.7521,27.9797 100.3181,28.5747 100.3171,29.3087 C100.3171,30.0437 100.7491,30.6397013 101.2841,30.6397013 C101.8181,30.6407 102.2511,30.0447 102.2521,29.3107 C102.2521,28.5757 101.8201,27.9797 101.2861,27.9797" id="Fill-22" fill="#332938"></path>
                    <path d="M103.3266,4.1619 C91.6836,-7.0601 80.0196,18.2159 87.7336,21.0959 C87.7336,21.0959 114.9706,15.3839 103.3266,4.1619" id="Fill-24" fill="#252733"></path>
                    <path d="M104.9765,5.843 C104.9765,5.843 109.1765,17.834 115.9065,20.135 C120.6545,21.757 108.0045,0.042 104.9765,5.843" id="Fill-26" fill="#252733"></path>
                    <path d="M84.7876,34.4293989 C83.9596,34.4284 83.2886,35.0984 83.2876,35.9264 C83.2876,36.7544 83.9576,37.4264011 84.7856,37.4264011 C85.6126,37.4274 86.2846,36.7574 86.2856,35.9293989 C86.2856,35.1014 85.6156,34.4293989 84.7876,34.4293989" id="Fill-28" fill="#F9D4A1"></path>
                    <path d="M109.1094,25.1204 C108.8764,25.1204 108.6304,24.8564 108.5104,24.6384 C108.1934,24.0564 108.4634,23.5754 108.7754,23.4234 C108.9334,23.3474 112.7104,21.9324 115.9184,22.8804 C116.2514,22.9784 116.4424,23.3284 116.3434,23.6624 C116.2454,23.9954 115.8954,24.1864 115.5624,24.0874 C112.8144,23.2774 109.4594,25.0254 109.4244,25.0414 C109.3364,25.0844 109.2024,25.1204 109.1094,25.1204" id="Fill-30" fill="#252733"></path>
                    <path d="M104.8081,25.1165 C104.7111,25.1165 104.0411,24.8175 103.9491,24.7695 C103.8991,24.7435 99.5911,22.3895 95.7901,24.0445 C95.4711,24.1825 95.1001,24.0365 94.9611,23.7185 C94.8231,23.3995 94.9691,23.0285 95.2871,22.8895 C99.6441,20.9935 105.0281,23.2315 105.2511,23.3465 C105.7941,23.5775 105.7191,24.2825 105.5581,24.5905 C105.4471,24.8065 105.2601,25.1165 104.8081,25.1165" id="Fill-32" fill="#252733"></path>
                    <path d="M89.3218,25.3284 C89.3218,25.3284 89.1508,21.2314 91.6258,20.0814 C94.1008,18.9324 91.2688,17.7574 91.1218,17.7084 C90.9758,17.6594 88.5308,19.3184 88.5308,19.3184 L89.3218,25.3284 Z" id="Fill-34" fill="#252733"></path>
                    <path d="M87.3276039,16.5393 C87.3226,22.4373 82.5366,27.2163 76.6376,27.2103056 C70.7396,27.2063 65.9616,22.4193 65.9665961,16.5203 C65.9716,10.6223 70.7576,5.8443 76.6566,5.84929608 C82.5546,5.8543 87.3326,10.6403 87.3276039,16.5393" id="Fill-39" fill="#252733"></path>
                    <path d="M106.7143,42.1106006 C104.5563,42.1086 102.4853,40.8786 102.4863,39.2146 L110.7743,39.1356 C110.7723,40.7986 108.3783,42.1116 106.7143,42.1106006" id="Fill-41" fill="#FFFFFF"></path>
                    <path d="M112.3608,33.2077976 C113.4648,33.2088 114.3608,33.5258 114.359801,33.9158 C114.359801,34.3048 113.4648,34.6208 112.3598,34.6198024 C111.2558,34.6188 110.3608,34.3018 110.3608,33.9118 C110.3608,33.5218 111.2568,33.2068 112.3608,33.2077976" id="Fill-43" fill="#CE624F"></path>
                    <path d="M100.3144,33.1974976 C101.4184,33.1985 102.3134,33.5155 102.3134,33.9055 C102.3134,34.2945 101.4174,34.6095 100.3134,34.6095 C99.2094,34.6085 98.3144,34.2915 98.3144,33.9015 C98.3144,33.5115 99.2104,33.1965 100.3144,33.1974976" id="Fill-45" fill="#CE624F"></path>
                    <path d="M78.0317,57.9397 C78.0317,57.9397 81.1347,67.7437 95.5617,67.3467 C97.8717,67.2837 100.1687,66.7347 102.1957,65.6267 C104.6187,64.3007 107.2727,61.9287 108.1927,57.7417 C108.1927,57.7417 112.1557,57.9837 113.8057,59.3747 L116.0887,103.4797 L68.3427,103.4397 L73.5637,59.2687 L78.0317,57.9397 Z" id="Fill-47" fill="#FAAF3B"></path>
                    <path d="M108.2319,57.7419 C108.6419,57.8059 118.5759,57.6819 120.2269,67.0709 L118.3839,103.4819 L114.5999,103.4789 L110.5709,62.3269 L108.2319,57.7419 Z" id="Fill-49" fill="#FAAF3B"></path>
                    <path d="M77.8105,58.1741 C77.8105,58.1741 67.3295,58.9561 64.8065,66.9931 C63.6635,70.6341 60.1095,103.4321 60.1095,103.4321 L70.1225,103.4411 L77.8105,58.1741 Z" id="Fill-51" fill="#FAAF3B"></path>
                    <path d="M105.5981,103.5515 C111.4561,106.4235 116.6171,106.4855 120.8861,104.7555 C121.0981,104.6695 119.4461,66.1855 119.4461,66.1855 L110.7771,65.4685 C107.9481,65.2345 105.6061,67.6385 105.9161,70.4615 L108.1831,91.1275 L83.1521,81.0065 L79.4541,86.9185" id="Fill-55" fill="#FAAF3B"></path>
                    <polyline id="Fill-57" fill="#E59231" points="89.5068 103.5808 76.7468 103.4548 91.9048 90.8968 104.9048 87.8968"></polyline>
                    <path d="M64.7119,67.4783 L73.3799,66.7613 C76.2099,66.5263 78.5509,68.9313 78.2419,71.7533 L75.9739,92.4203 L101.0059,82.2983 L104.7039,88.2103 C104.7039,88.2103 89.5699,99.4453 78.5599,104.8433 C72.7019,107.7153 64.1069,108.2453 59.8379,106.5153 C59.6259,106.4293 64.7119,67.4783 64.7119,67.4783" id="Fill-59" fill="#FAAF3B"></path>
                    <path d="M106.6147,75.8704 C106.6147,75.8704 112.3567,73.4664 113.0717,73.0584 C113.0717,73.0584 113.7817,74.0764 112.6737,74.8814 C111.5657,75.6864 110.1147,76.2894 110.1147,76.2894 L106.6147,75.8704 Z" id="Fill-61" fill="#CF804B"></path>
                    <path d="M99.0283,80.1404 C99.0283,80.1404 103.7883,77.2784 105.9353,76.1804 C107.6133,75.3224 108.5453,75.4114 110.2983,76.0014 C110.7883,76.1664 111.1823,75.6474 111.8363,75.8814 C114.1753,76.7194 114.2293,82.9184 113.4293,83.6884 C112.6303,84.4584 112.0653,84.6004 112.0653,84.6004 C112.0653,84.6004 108.8813,85.8124 105.8923,85.0534 C103.4623,84.9984 102.4583,86.3334 102.4583,86.3334 L99.0283,80.1404 Z" id="Fill-63" fill="#CF804B"></path>
                    <path d="M108.1138,57.6101 C107.1778,63.2191 101.1138,67.5521 93.7538,67.5521 C86.3718,67.5521 80.2918,63.1941 79.3838,57.5621 C78.2888,57.8571 76.6368,58.3061 75.0658,58.7491 C76.6508,65.7701 84.4048,71.1051 93.7538,71.1051 C103.2598,71.1051 111.1118,65.5881 112.5098,58.3911 C111.2348,57.9711 109.6748,57.6071 108.1138,57.6101" id="Fill-65" fill="#EE467F"></path>
                    <polygon id="Fill-67" fill="#EB9B34" points="75.0893 70.7166 74.2533 93.6046 77.7073 91.6176"></polygon>
                    <path d="M77.2964,86.5906 C77.2964,86.5906 82.9854,84.2906 85.6484,87.0746 L77.8314,91.6176 L77.2964,86.5906 Z" id="Fill-69" fill="#CF804B"></path>
                    <path d="M100.3432,32.0334 L86.5122,25.4644 C86.3032,25.4074 86.1062,25.4814 86.0492,25.6904 C86.0492,25.6914 86.0302,25.7404 86.0302,25.7414 C85.9762,25.9274 86.0702,26.1244 86.2482,26.2004 L99.5362,34.3234 C100.1522,34.5944 100.8702,34.3154 101.1412,33.7004 C101.4132,33.0854 101.1342,32.3664 100.5182,32.0954 L100.3432,32.0334 Z" id="Fill-71" fill="#FFFFFF"></path>
                    <path d="M97.1723,41.3596 L86.7473,35.9866 C86.5433,35.9016 86.3093,35.9986 86.2243,36.2026 C86.1563,36.3656 86.2033,36.5526 86.3393,36.6656 L95.8903,43.4336 C96.3713,43.9026 97.1403,43.8926 97.6093,43.4116 C98.0783,42.9306 98.0683,42.1616 97.5873,41.6926 C97.5053,41.6116 97.4113,41.5446 97.3103,41.4896 L97.1723,41.3596 Z" id="Fill-73" fill="#FFFFFF"></path>
                    <path d="M115.4668,32.0745 L98.9368,31.7405 L93.4438,44.5565 L101.4428,48.9465 L109.0048,51.4165 C113.6888,49.4385 116.5098,44.6115 115.9338,39.5595 L115.4668,32.0745 Z" id="Fill-75" fill="#BDE5EC"></path>
                    <polygon id="Fill-77" fill="#FFFFFF" points="115.4902 38.4973 103.8402 36.0653 114.8872 41.0093"></polygon>
                    <polygon id="Fill-79" fill="#FFFFFF" points="113.2685 47.7107 102.8945 40.7447 110.8815 49.1687"></polygon>
                    <path d="M146.8584,63.3733 C146.8584,70.0003 141.4854,75.3733 134.8584,75.3733 C128.2314,75.3733 122.8584,70.0003 122.8584,63.3733 C122.8584,56.7463 128.2314,51.3733 134.8584,51.3733 C141.4854,51.3733 146.8584,56.7463 146.8584,63.3733" id="Fill-81" fill="#2B770C"></path>
                    <path d="M223.6792,63.0549 C223.6792,69.6819 218.3062,75.0549 211.6792,75.0549 C205.0522,75.0549 199.6792,69.6819 199.6792,63.0549 C199.6792,56.4279 205.0522,51.0549 211.6792,51.0549 C218.3062,51.0549 223.6792,56.4279 223.6792,63.0549" id="Fill-83" fill="#D10202"></path>
                    <path d="M128.6684,62.8181 C129.2824,62.2041 130.2864,62.2041 130.9004,62.8181 L133.2274,65.1451 L139.8424,58.5291 C140.4564,57.9161 141.4604,57.9161 142.0744,58.5291 C142.6884,59.1431 142.6884,60.1481 142.0744,60.7611 L134.3434,68.4931 C133.7114,69.1091 132.7404,69.1071 132.1104,68.4931 L128.6684,65.0501 C128.0544,64.4371 128.0544,63.4321 128.6684,62.8181" id="Fill-85" fill="#FFFFFF"></path>
                    <path d="M217.0361,66.7117 C217.5051,67.1807 217.5051,67.9397 217.0361,68.4087 C216.5671,68.8777 215.8081,68.8777 215.3391,68.4087 L211.6801,64.7497 L208.0201,68.4087 C207.5511,68.8777 206.7921,68.8777 206.3231,68.4087 C206.0901,68.1727 205.9721,67.8687 205.9721,67.5617 C205.9721,67.2547 206.0901,66.9477 206.3231,66.7147 L209.9831,63.0547 L206.3231,59.3957 C205.8541,58.9267 205.8541,58.1687 206.3231,57.6987 C206.5571,57.4657 206.8631,57.3477 207.1701,57.3477 C207.4771,57.3477 207.7841,57.4657 208.0171,57.6987 L211.6771,61.3577 L215.3361,57.6987 C215.8061,57.2297 216.5641,57.2297 217.0331,57.6987 C217.5021,58.1687 217.5021,58.9267 217.0331,59.3957 L213.3731,63.0547 L217.0361,66.7117 Z" id="Fill-87" fill="#FFFFFF"></path>
                    <path d="M216.8296,66.9211 C217.1186,67.2191 217.1806,67.6681 216.9656,68.0281 C216.7586,68.3731 216.3366,68.5381 215.9536,68.4321 C215.6256,68.3401 215.3896,68.0341 215.1566,67.8031 C214.3086,66.9571 213.4656,66.1121 212.6186,65.2651 C212.3756,65.0241 212.1346,64.7811 211.8926,64.5401 C211.7796,64.4271 211.5886,64.4271 211.4756,64.5401 C210.9656,65.0501 210.4546,65.5611 209.9476,66.0681 L207.9406,68.0751 C207.8936,68.1221 207.8496,68.1671 207.8016,68.2131 C207.5446,68.4591 207.1526,68.5321 206.8256,68.3941 C206.4616,68.2401 206.2406,67.8571 206.2786,67.4671 C206.2996,67.2401 206.4146,67.0481 206.5716,66.8891 C207.1676,66.2871 207.7696,65.6911 208.3686,65.0911 C208.9676,64.4921 209.5816,63.9051 210.1656,63.2941 C210.1776,63.2821 210.1866,63.2741 210.1986,63.2621 C210.3106,63.1501 210.3106,62.9581 210.1986,62.8451 C209.6876,62.3351 209.1776,61.8241 208.6696,61.3171 C207.9996,60.6471 207.3296,59.9771 206.6626,59.3101 C206.6156,59.2631 206.5716,59.2181 206.5236,59.1711 C206.2786,58.9151 206.2046,58.5221 206.3436,58.1941 C206.4976,57.8321 206.8806,57.6131 207.2706,57.6491 C207.4976,57.6691 207.6896,57.7841 207.8496,57.9411 C208.4516,58.5371 209.0476,59.1391 209.6466,59.7381 C210.2456,60.3371 210.8326,60.9511 211.4436,61.5351 C211.4556,61.5471 211.4646,61.5561 211.4756,61.5671 C211.5886,61.6801 211.7796,61.6801 211.8926,61.5671 C212.4116,61.0481 212.9336,60.5261 213.4536,60.0061 L215.4486,58.0111 C215.5106,57.9491 215.5756,57.8761 215.6456,57.8221 C215.9176,57.6191 216.3016,57.5841 216.6016,57.7431 C217.1626,58.0411 217.2426,58.7701 216.8056,59.2101 C216.2156,59.8061 215.6226,60.3931 215.0296,60.9861 C214.4216,61.5941 213.7986,62.1931 213.2026,62.8131 C213.1906,62.8251 213.1786,62.8371 213.1666,62.8481 C213.0556,62.9611 213.0556,63.1521 213.1666,63.2651 C213.5796,63.6781 213.9906,64.0881 214.4036,64.5011 C215.0616,65.1591 215.7166,65.8151 216.3746,66.4721 C216.5256,66.6201 216.6766,66.7711 216.8296,66.9211 C217.0986,67.1901 217.5166,66.7741 217.2456,66.5051 C216.8326,66.0921 216.4226,65.6821 216.0096,65.2681 C215.3506,64.6101 214.6956,63.9551 214.0376,63.2971 L213.5856,62.8451 L213.5856,63.2621 L215.2386,61.6091 L217.2016,59.6471 C217.7006,59.1481 217.8446,58.3781 217.4606,57.7631 C216.9536,56.9491 215.8146,56.8281 215.1296,57.4891 C214.5576,58.0471 213.9996,58.6191 213.4356,59.1831 L212.2226,60.3961 C211.9836,60.6351 211.7326,60.8651 211.5056,61.1131 C211.4936,61.1251 211.4816,61.1371 211.4706,61.1491 L211.8866,61.1491 L210.2636,59.5251 L208.2826,57.5451 C208.1326,57.3951 207.9676,57.2651 207.7696,57.1791 C207.2946,56.9731 206.7216,57.0231 206.2996,57.3301 C205.5566,57.8731 205.4736,58.9471 206.1136,59.6051 C206.6806,60.1871 207.2616,60.7531 207.8376,61.3291 L209.0356,62.5271 C209.2686,62.7601 209.4926,63.0051 209.7376,63.2291 L209.7736,63.2651 L209.7736,62.8481 C209.2326,63.3881 208.6896,63.9321 208.1496,64.4721 C207.4886,65.1321 206.8306,65.7911 206.1696,66.4521 C206.0196,66.6021 205.8896,66.7681 205.8036,66.9651 C205.5976,67.4411 205.6476,68.0101 205.9546,68.4321 C206.4976,69.1761 207.5716,69.2581 208.2296,68.6181 C208.8106,68.0511 209.3776,67.4701 209.9536,66.8951 L211.1516,65.6961 C211.3846,65.4631 211.6296,65.2391 211.8536,64.9941 L211.8896,64.9591 L211.4736,64.9591 L213.5506,67.0361 L214.8086,68.2941 L215.1056,68.5911 C215.3716,68.8541 215.6966,69.0131 216.0676,69.0491 C216.6666,69.1051 217.2716,68.7601 217.5286,68.2161 C217.8036,67.6381 217.6886,66.9631 217.2426,66.5051 C216.9796,66.2311 216.5636,66.6471 216.8296,66.9211" id="Fill-89" fill="#FFFFFF"></path>
                    <path d="M246.0581,50.2053 C246.0581,50.2053 233.4581,49.4433 228.3571,65.6333 L210.6561,139.4033 L220.5281,142.6363 L224.2081,136.8353 L246.0581,50.2053 Z" id="Fill-103" fill="#FFE981"></path>
                    <path d="M222.9619,138.8005 C222.9619,138.8005 219.5379,120.1245 229.9469,74.1255 C233.0059,60.6065 234.2879,73.3535 234.2879,73.3535 L236.9329,101.7225 L222.9619,138.8005 Z" id="Fill-105" fill="#F9B35C"></path>
                    <path d="M271.1684,52.8806 C267.9564,54.6966 262.5774,56.0896 255.2914,52.2866 C253.4254,51.3136 251.3074,50.8736 249.1864,50.9666 C243.8114,51.2006 234.5504,52.6946 232.7134,60.0676 C230.6554,68.3216 223.6854,132.2736 220.7814,159.4056 C220.0794,165.9726 225.2954,171.7436 232.1754,172.0166 L277.3944,173.8146 C284.1824,174.0846 289.8394,168.8826 289.8404,162.3706 L289.8584,62.7286 C289.8594,57.7106 286.4544,53.2926 281.4604,51.7876 C281.2674,51.7296 281.0694,51.6706 280.8664,51.6116 C277.6004,50.6646 274.1074,51.2196 271.1684,52.8806" id="Fill-115" fill="#FFE981"></path>
                    <path d="M272.7866,49.1819 C272.7866,49.1819 268.6306,54.3919 261.9156,54.0599 C255.0376,53.7209 253.4606,51.8389 251.9516,50.0999 L249.4106,49.9149 C249.4106,49.9149 250.0576,54.5419 255.9416,55.8389 C261.8266,57.1359 266.8936,57.2389 270.0786,54.8259 C273.2626,52.4139 275.5156,49.8199 275.5156,49.8199 L272.7866,49.1819 Z" id="Fill-121" fill="#FFF1AD"></path>
                    <path d="M269.5239,10.8704 C276.8359,11.4004 278.4209,18.8814 278.0169,22.4484 C277.7949,24.4114 275.9439,28.4514 272.6069,28.2094 C269.2689,27.9674 266.8159,24.2854 267.1279,19.9844 C267.4389,15.6834 266.1859,10.6284 269.5239,10.8704" id="Fill-125" fill="#252733"></path>
                    <path d="M272.5068,49.9705 C272.5068,49.9705 268.6258,55.1575 261.3718,54.6325 C254.1188,54.1065 252.0278,50.3245 252.0278,50.3245 L253.1078,35.4205 L272.7818,36.8465 L272.5068,49.9705 Z" id="Fill-127" fill="#CF804B"></path>
                    <path d="M256.2568,48.7766 L252.1618,48.4796 L252.8148,39.4716 L265.9178,40.4216 C265.5578,45.3966 261.2318,49.1376 256.2568,48.7766" id="Fill-129" fill="#332938"></path>
                    <path d="M252.8178,10.1404 C255.2928,7.9924 258.5928,6.7994 262.1128,7.0544 L262.6958,7.0964 C269.7428,7.6074 275.0458,13.7384 274.5348,20.7864 L274.1358,26.2894 L273.5458,26.2474 L272.4768,40.9884 C272.4768,40.9884 265.1668,46.2924 255.3158,44.5884 C250.4068,43.7344 246.9548,39.2724 247.3148,34.3044 L248.4318,18.8934 C248.5668,17.0274 249.0968,15.2854 249.9288,13.7464 C250.6698,12.3674 251.6528,11.1484 252.8178,10.1404" id="Fill-131" fill="#CF804B"></path>
                    <path d="M251.7666,32.1238 C252.0156,32.1418 252.2026,32.3578 252.1846,32.6068 C252.1646,32.8848 252.3546,33.1258 252.6086,33.1448 L254.0266,33.2478 C254.2746,33.2658 254.4616,33.4808 254.4436,33.7298 C254.4256,33.9788 254.2096,34.1658 253.9606,34.1478 L252.5436,34.0458 C251.7926,33.9908 251.2276,33.3168 251.2836,32.5418 C251.3016,32.2928 251.5176,32.1058 251.7666,32.1238" id="Fill-133" fill="#332938"></path>
                    <path d="M258.874,26.9875 C259.664,27.0445 260.253,27.7995 260.19,28.6745 C260.127,29.5485 259.435,30.2105 258.645,30.1525 C257.854,30.0955 257.265,29.3405 257.328,28.4665 C257.391,27.5925 258.083,26.9295 258.874,26.9875" id="Fill-135" fill="#332938"></path>
                    <path d="M249.7485,26.3259 C250.3835,26.3719 250.8475,27.1179 250.7845,27.9929 C250.7215,28.8669 250.1545,29.5369 249.5195,29.4919 C248.8835,29.4459 248.4195,28.6999 248.4825,27.8259 C248.5465,26.9509 249.1125,26.2799 249.7485,26.3259" id="Fill-137" fill="#332938"></path>
                    <path d="M257.3803,40.1418 C257.3073,41.1468 256.4333,41.9028 255.4283,41.8298 L251.2883,41.5298 C250.2823,41.4568 249.5273,40.5828 249.6003,39.5778 L249.8483,36.1488 L257.6293,36.7128 L257.3803,40.1418 Z" id="Fill-139" fill="#DA806E"></path>
                    <path d="M253.1792,40.5701 C251.0752,40.4171 249.8862,39.3671 250.0382,37.2631 L257.6562,37.8161 C257.5042,39.9191 255.2832,40.7221 253.1792,40.5701" id="Fill-141" fill="#E5A27C"></path>
                    <path d="M262.1079,6.7126 L262.7099,6.7556 C266.0649,6.9996 269.0329,8.4736 271.2119,10.7046 C273.2819,12.8306 274.6349,15.6426 274.9099,18.7326 C274.9789,19.4356 274.9839,20.1566 274.9319,20.8876 L274.5199,26.5666 L273.9089,26.5216 L273.6959,29.4646 L269.2829,29.1456 L269.3839,27.7556 C269.5589,25.3346 268.4559,22.9406 266.3849,21.6696 C265.4649,21.1046 264.7479,20.1446 264.8659,18.5116 L264.8689,18.4716 C264.9749,17.0026 264.2129,15.6706 263.0179,14.9786 C262.5479,14.7046 262.0039,14.5316 261.4239,14.4896 C256.8079,14.1496 249.5319,13.6186 249.5319,13.6186 C250.2979,12.1966 251.3149,10.9406 252.5159,9.8976 C255.0699,7.6796 258.4789,6.4496 262.1079,6.7126" id="Fill-143" fill="#252733"></path>
                    <path d="M274.5796,25.0637 C276.1226,25.1757 277.2836,26.5177 277.1716,28.0617 L276.7526,33.8367 C276.6416,35.3807 275.2996,36.5417 273.7556,36.4297 L270.9286,36.2247 L271.5476,27.6857 C271.6606,26.1247 273.0176,24.9507 274.5796,25.0637" id="Fill-145" fill="#CF804B"></path>
                    <path d="M262.6577,23.8352 C264.1117,24.3422 263.9127,26.0732 263.9127,26.0732 C263.9127,26.0732 263.4897,25.4392 261.6257,25.3802 C259.2127,25.3042 255.2847,25.1562 255.2847,25.1562 L255.4307,23.1372 C255.4307,23.1372 261.2037,23.3282 262.6577,23.8352" id="Fill-147" fill="#332938"></path>
                    <polygon id="Fill-149" fill="#332938" points="255.289 25.1003 254.817 23.0883 255.299 23.1233"></polygon>
                    <path d="M251.9111,22.9919 L251.7641,25.0179 C251.7641,25.0179 249.7921,24.8539 248.0221,24.6469 L248.1621,22.7069 C249.8441,22.8119 251.9111,22.9919 251.9111,22.9919" id="Fill-151" fill="#332938"></path>
                    <polygon id="Fill-153" fill="#332938" points="252.5215 23.0398 251.7705 24.9598 252.1425 23.0128"></polygon>
                    <path d="M259.3237,37.7673 L259.2647,38.5883 L253.1787,37.3333 L253.3367,35.1573 L258.4757,36.5673 C259.0087,36.7133 259.3637,37.2163 259.3237,37.7673" id="Fill-155" fill="#332938"></path>
                    <path d="M249.249,35.7195 L252.345,35.0855 L252.187,37.2615 L248.266,37.6035 L248.327,36.7695 C248.364,36.2525 248.741,35.8235 249.249,35.7195" id="Fill-157" fill="#332938"></path>
                    <path d="M264.0332,14.241 C264.0332,14.241 261.1512,14.104 259.2752,15.758 C257.3982,17.412 249.7692,21.835 245.1682,20.759 C245.1682,20.759 240.9472,12.77 248.8642,7.252 C256.7812,1.735 268.2892,0.936 271.2112,10.705 C274.2682,15.169 264.0332,14.241 264.0332,14.241" id="Fill-159" fill="#252733"></path>
                    <polygon id="Fill-161" fill="#8CDAED" points="224.9341 37.4841 233.8011 34.2611 236.6791 37.5041 243.0301 36.3961 235.7431 40.5991 232.8211 36.4751"></polygon>
                    <polygon id="Fill-163" fill="#8CDAED" points="232.3447 30.3728 238.0607 30.0748 239.1567 32.4678 243.0377 32.9518 238.0637 34.0988 237.0997 31.1868"></polygon>
                    <line x1="248.9658" y1="50.5168" x2="268.1558" y2="98.7588" id="Fill-165" fill="#F9B35C"></line>
                    <polygon id="Fill-167" fill="#F9B35C" points="274.7856 70.6687 263.5836 83.0067 264.1726 86.1267"></polygon>
                    <path d="M289.6552,81.6917 C289.6552,81.6917 272.9222,114.8597 260.5912,118.9987" id="Fill-169" fill="#F9B35C"></path>
                    <path d="M239.6245,53.5886 C239.6245,53.5886 249.0835,105.5006 251.2725,110.3806" id="Fill-173" fill="#F9B35C"></path>
                    <path d="M253.3047,64.4954 C253.3047,64.4954 254.6437,55.0174 254.8047,50.8754 C254.9297,47.6374 254.1167,46.2484 251.9297,43.9414 C251.3167,43.2964 251.8417,42.3074 251.0037,41.4554 C248.0047,38.4124 238.2977,42.8104 237.6747,44.6154 C237.0527,46.4194 237.2377,47.4034 237.2377,47.4034 C237.2377,47.4034 237.6507,53.2454 240.9957,57.3584 C242.8367,61.1094 241.4817,63.6404 241.4817,63.6404 L253.3047,64.4954 Z" id="Fill-175" fill="#CF804B"></path>
                    <g id="Group-257" transform="translate(163.000000, 18.000000)">
                        <path d="M22.8691,12.6257 C23.1171,12.6627 23.2091,12.6977 23.2231,12.7337 C23.2371,12.7687 23.1851,12.8057 23.0851,12.8427 L22.9471,12.8967 C22.9031,12.9117 22.8611,12.9297 22.8201,12.9507 C22.7471,12.9867 22.7521,13.0237 22.7311,13.0587 C22.6631,13.1997 22.6041,13.3437 22.5541,13.4927 C22.5081,13.6337 22.4741,13.7787 22.4521,13.9257 C22.4291,14.0687 22.4291,14.2157 22.4521,14.3587 C22.4741,14.4857 22.3901,14.6077 22.2631,14.6307 C22.1361,14.6537 22.0151,14.5687 21.9921,14.4417 C21.9861,14.4147 21.9861,14.3867 21.9921,14.3587 C22.0151,14.2157 22.0151,14.0687 21.9921,13.9257 C21.9711,13.7777 21.9361,13.6327 21.8891,13.4927 C21.8401,13.3437 21.7811,13.1987 21.7121,13.0587 C21.6931,13.0237 21.6961,12.9867 21.6241,12.9507 C21.5831,12.9287 21.5401,12.9107 21.4961,12.8967 L21.3601,12.8427 C21.2581,12.8057 21.2151,12.7707 21.2221,12.7337 C21.2291,12.6957 21.3271,12.6627 21.5761,12.6257 C22.0051,12.5647 22.4401,12.5647 22.8691,12.6257" id="Fill-177" fill="#E44450"></path>
                        <path d="M26.5942,17.7234 C26.5572,17.9714 26.5222,18.0624 26.4862,18.0774 C26.4512,18.0914 26.4142,18.0394 26.3772,17.9394 L26.3232,17.8014 C26.3072,17.7584 26.2892,17.7154 26.2692,17.6734 C26.2332,17.6014 26.1962,17.6064 26.1612,17.5854 C26.0202,17.5174 25.8752,17.4584 25.7272,17.4084 C25.5862,17.3624 25.4412,17.3284 25.2942,17.3064 C25.1502,17.2834 25.0042,17.2834 24.8612,17.3064 C24.7342,17.3284 24.6122,17.2444 24.5892,17.1174 C24.5662,16.9904 24.6512,16.8694 24.7782,16.8464 C24.8052,16.8404 24.8332,16.8404 24.8612,16.8464 C25.0042,16.8694 25.1512,16.8694 25.2942,16.8464 C25.4412,16.8254 25.5862,16.7904 25.7272,16.7434 C25.8762,16.6944 26.0212,16.6354 26.1612,16.5664 C26.1962,16.5474 26.2332,16.5504 26.2692,16.4784 C26.2902,16.4364 26.3082,16.3944 26.3232,16.3504 L26.3772,16.2144 C26.4142,16.1124 26.4492,16.0694 26.4862,16.0764 C26.5232,16.0834 26.5572,16.1814 26.5942,16.4304 C26.6542,16.8594 26.6542,17.2944 26.5942,17.7234" id="Fill-179" fill="#E44450"></path>
                        <path d="M21.5019,21.4539 C21.2539,21.4169 21.1619,21.3809 21.1479,21.3439 C21.1339,21.3069 21.1839,21.2729 21.2859,21.2359 L21.4239,21.1829 C21.4669,21.1669 21.5099,21.1489 21.5509,21.1279 C21.6239,21.0929 21.6189,21.0559 21.6399,21.0199 C21.7069,20.8799 21.7659,20.7349 21.8169,20.5869 C21.8629,20.4459 21.8969,20.3009 21.9179,20.1539 C21.9399,20.0099 21.9399,19.8639 21.9179,19.7209 C21.8949,19.5939 21.9789,19.4719 22.1059,19.4489 C22.2329,19.4259 22.3549,19.5099 22.3769,19.6379 C22.3829,19.6649 22.3829,19.6929 22.3769,19.7209 C22.3549,19.8639 22.3549,20.0099 22.3769,20.1539 C22.3979,20.3009 22.4329,20.4459 22.4799,20.5869 C22.5289,20.7359 22.5879,20.8799 22.6569,21.0199 C22.6759,21.0559 22.6709,21.0929 22.7449,21.1279 C22.7869,21.1499 22.8289,21.1679 22.8729,21.1829 L23.0089,21.2359 C23.1109,21.2729 23.1539,21.3089 23.1469,21.3439 C23.1399,21.3799 23.0429,21.4169 22.7929,21.4539 C22.3649,21.5139 21.9299,21.5139 21.5019,21.4539" id="Fill-181" fill="#E44450"></path>
                        <path d="M25.7895,14.4016 C25.9395,14.6036 25.9785,14.6936 25.9665,14.7286 C25.9545,14.7636 25.8905,14.7536 25.7895,14.7076 L25.6535,14.6496 C25.6125,14.6286 25.5695,14.6106 25.5255,14.5976 C25.4795,14.5806 25.4285,14.5856 25.3865,14.6116 C25.2405,14.6616 25.0985,14.7206 24.9595,14.7886 C24.8275,14.8606 24.7005,14.9436 24.5815,15.0366 C24.4635,15.1216 24.3595,15.2236 24.2735,15.3406 C24.2005,15.4466 24.0545,15.4736 23.9485,15.4006 C23.8415,15.3276 23.8145,15.1816 23.8885,15.0756 C23.9035,15.0516 23.9245,15.0306 23.9485,15.0156 C24.0645,14.9286 24.1675,14.8256 24.2525,14.7076 C24.3405,14.5876 24.4185,14.4616 24.4855,14.3286 C24.5545,14.1906 24.6135,14.0486 24.6625,13.9026 C24.6885,13.8606 24.6935,13.8096 24.6765,13.7626 C24.6635,13.7186 24.6465,13.6766 24.6255,13.6356 L24.5675,13.4996 C24.5205,13.4016 24.5165,13.3456 24.5455,13.3226 C24.5765,13.2996 24.6715,13.3456 24.8725,13.4996 C25.2185,13.7566 25.5265,14.0606 25.7895,14.4016" id="Fill-183" fill="#E44450"></path>
                        <path d="M24.8257,20.6438 C24.6237,20.7938 24.5337,20.8328 24.4977,20.8208 C24.4627,20.8088 24.4737,20.7448 24.5197,20.6438 L24.5777,20.5078 C24.5987,20.4668 24.6167,20.4238 24.6287,20.3798 C24.6467,20.3338 24.6407,20.2828 24.6147,20.2408 C24.5657,20.0948 24.5067,19.9528 24.4377,19.8138 C24.3707,19.6818 24.2927,19.5548 24.2047,19.4358 C24.1197,19.3178 24.0167,19.2138 23.9007,19.1278 C23.7937,19.0548 23.7667,18.9088 23.8407,18.8028 C23.9137,18.6958 24.0587,18.6688 24.1657,18.7428 C24.1897,18.7578 24.2097,18.7788 24.2257,18.8028 C24.3087,18.9178 24.4087,19.0198 24.5227,19.1048 C24.6427,19.1928 24.7687,19.2708 24.9017,19.3378 C25.0397,19.4098 25.1817,19.4718 25.3277,19.5238 C25.3697,19.5498 25.4217,19.5558 25.4677,19.5388 C25.5117,19.5248 25.5547,19.5078 25.5947,19.4868 L25.7307,19.4288 C25.8287,19.3808 25.8857,19.3768 25.9087,19.4078 C25.9307,19.4368 25.8857,19.5328 25.7307,19.7348 C25.4717,20.0778 25.1677,20.3838 24.8257,20.6438" id="Fill-185" fill="#E44450"></path>
                        <path d="M21.8183,29.1873 C22.4043,29.1873 22.8803,29.6623 22.8803,30.2493 C22.8803,30.8343 22.4043,31.3103 21.8183,31.3103 C21.2323,31.3103 20.7573,30.8343 20.7573,30.2493 C20.7573,29.6623 21.2323,29.1873 21.8183,29.1873" id="Fill-187" fill="#ECC6C3"></path>
                        <path d="M23.8525,23.8806 C24.7805,23.8806 25.5335,24.6326 25.5335,25.5616 C25.5335,26.4886 24.7805,27.2416 23.8525,27.2416 C22.9245,27.2416 22.1725,26.4886 22.1725,25.5616 C22.1725,24.6326 22.9245,23.8806 23.8525,23.8806" id="Fill-189" fill="#ECC6C3"></path>
                        <path d="M13.1333,20.5305 C16.2123,20.5305 18.7093,23.0265 18.7093,26.1055 C18.7093,29.1855 16.2123,31.6815 13.1333,31.6815 C10.0543,31.6815 7.5583,29.1855 7.5583,26.1055 C7.5583,23.0265 10.0543,20.5305 13.1333,20.5305" id="Fill-191" fill="#ECC6C3"></path>
                        <path d="M14.1928,19.3225 C14.3318,19.3395 14.4698,19.3665 14.6048,19.4055 C14.6878,19.4335 14.7338,19.4625 14.7428,19.4905 C14.7548,19.5475 14.6788,19.6015 14.5358,19.6675 C14.3928,19.7325 14.2178,19.7785 14.1128,19.8355 C14.0088,19.8915 14.0088,19.9475 13.9808,20.0125 C13.8778,20.2305 13.7898,20.4545 13.7168,20.6845 C13.6448,20.9035 13.5908,21.1285 13.5578,21.3565 C13.5238,21.5785 13.5238,21.8045 13.5578,22.0275 C13.6018,22.2225 13.4788,22.4165 13.2838,22.4605 C13.0888,22.5045 12.8948,22.3815 12.8498,22.1865 C12.8388,22.1335 12.8388,22.0795 12.8498,22.0275 C12.8848,21.8045 12.8848,21.5785 12.8498,21.3565 C12.8168,21.1285 12.7638,20.9035 12.6908,20.6845 C12.6138,20.4475 12.5208,20.2145 12.4138,19.9895 C12.3828,19.9325 12.3848,19.8775 12.2808,19.8125 C12.1758,19.7465 11.9998,19.7005 11.8578,19.6445 C11.7158,19.5875 11.6388,19.5325 11.6508,19.4675 C11.6588,19.4395 11.7048,19.4105 11.7888,19.3825 C11.9238,19.3435 12.0618,19.3165 12.2008,19.2995 C12.8628,19.2175 13.5328,19.2255 14.1928,19.3225" id="Fill-193" fill="#E44450"></path>
                        <path d="M19.9804,27.2292 C19.9644,27.3692 19.9364,27.5062 19.8954,27.6412 C19.8674,27.7242 19.8404,27.7702 19.8124,27.7792 C19.7554,27.7912 19.6994,27.7152 19.6354,27.5722 C19.5714,27.4292 19.5224,27.2542 19.4674,27.1492 C19.4124,27.0452 19.3554,27.0472 19.2904,27.0172 C19.0774,26.9162 18.8584,26.8282 18.6344,26.7532 C18.4154,26.6812 18.1904,26.6272 17.9624,26.5942 C17.7394,26.5602 17.5124,26.5602 17.2904,26.5942 C17.0904,26.6042 16.9194,26.4512 16.9094,26.2502 C16.9004,26.0862 17.0034,25.9372 17.1614,25.8862 C17.2034,25.8792 17.2474,25.8792 17.2904,25.8862 C17.5124,25.9212 17.7394,25.9212 17.9624,25.8862 C18.1904,25.8532 18.4154,25.7992 18.6344,25.7272 C18.8644,25.6542 19.0884,25.5662 19.3064,25.4632 C19.3634,25.4362 19.4184,25.4362 19.4834,25.3312 C19.5484,25.2272 19.5954,25.0502 19.6514,24.9082 C19.7084,24.7672 19.7634,24.6892 19.8284,24.7012 C19.8564,24.7122 19.8834,24.7562 19.9114,24.8392 C19.9514,24.9742 19.9804,25.1122 19.9964,25.2512 C20.0794,25.9082 20.0744,26.5732 19.9804,27.2292" id="Fill-195" fill="#E44450"></path>
                        <path d="M12.0737,33.0168 C11.9347,32.9998 11.7967,32.9728 11.6617,32.9338 C11.5767,32.9058 11.5327,32.8768 11.5237,32.8488 C11.5097,32.7918 11.5877,32.7378 11.7307,32.6718 C11.8737,32.6068 12.0487,32.5598 12.1517,32.4948 C12.2547,32.4298 12.2557,32.3838 12.2857,32.3178 C12.3877,32.0998 12.4757,31.8748 12.5497,31.6458 C12.6217,31.4268 12.6747,31.2018 12.7067,30.9738 C12.7427,30.7518 12.7427,30.5258 12.7067,30.3038 C12.6707,30.1078 12.7997,29.9198 12.9957,29.8838 C13.1907,29.8478 13.3787,29.9768 13.4147,30.1728 C13.4237,30.2158 13.4237,30.2608 13.4147,30.3038 C13.3787,30.5258 13.3787,30.7518 13.4147,30.9738 C13.4477,31.2018 13.4997,31.4268 13.5727,31.6458 C13.6457,31.8748 13.7337,32.0998 13.8357,32.3178 C13.8657,32.3748 13.8657,32.4298 13.9697,32.4948 C14.0737,32.5598 14.2517,32.6068 14.3907,32.6718 C14.5307,32.7378 14.6127,32.7838 14.5977,32.8488 C14.5897,32.8768 14.5447,32.9058 14.4597,32.9338 C14.3247,32.9728 14.1867,32.9998 14.0477,33.0168 C13.3927,33.1048 12.7287,33.1048 12.0737,33.0168" id="Fill-197" fill="#E44450"></path>
                        <path d="M6.2861,25.1189 C6.3021,24.9789 6.3291,24.8419 6.3691,24.7069 C6.3971,24.6239 6.4261,24.5779 6.4541,24.5689 C6.5091,24.5569 6.5651,24.6329 6.6311,24.7759 C6.6751,24.9159 6.7251,25.0549 6.7831,25.1899 C6.8381,25.2939 6.8941,25.2919 6.9601,25.3229 C7.1781,25.4239 7.4021,25.5119 7.6301,25.5859 C7.8491,25.6579 8.0741,25.7109 8.3031,25.7449 C8.5251,25.7799 8.7521,25.7799 8.9741,25.7449 C9.1651,25.6839 9.3691,25.7899 9.4301,25.9809 C9.4911,26.1719 9.3861,26.3749 9.1951,26.4359 C9.1661,26.4459 9.1361,26.4509 9.1051,26.4529 C9.0621,26.4599 9.0181,26.4599 8.9741,26.4529 C8.7521,26.4179 8.5251,26.4179 8.3031,26.4529 C8.0741,26.4869 7.8491,26.5399 7.6301,26.6119 C7.4011,26.6889 7.1771,26.7809 6.9601,26.8879 C6.9031,26.9159 6.8471,26.9159 6.7831,27.0199 C6.7201,27.1589 6.6641,27.2999 6.6151,27.4429 C6.5581,27.5869 6.5021,27.6619 6.4381,27.6499 C6.4101,27.6399 6.3821,27.5959 6.3531,27.5119 C6.3141,27.3769 6.2861,27.2399 6.2701,27.0999 C6.1861,26.4419 6.1911,25.7759 6.2861,25.1189" id="Fill-199" fill="#E44450"></path>
                        <path d="M18.7231,22.0764 C18.8111,22.1874 18.8891,22.3054 18.9561,22.4304 C18.9951,22.5084 19.0081,22.5614 18.9941,22.5854 C18.9791,22.6104 18.8691,22.6214 18.7281,22.5594 C18.5871,22.4974 18.4241,22.4124 18.3101,22.3824 C18.2401,22.3604 18.1621,22.3694 18.0981,22.4074 C17.8721,22.4894 17.6511,22.5854 17.4371,22.6954 C17.2311,22.8004 17.0351,22.9224 16.8491,23.0594 C16.6671,23.1894 16.5061,23.3474 16.3721,23.5274 C16.2471,23.6844 16.0171,23.7104 15.8601,23.5854 C15.7171,23.4724 15.6811,23.2694 15.7741,23.1134 C15.8001,23.0774 15.8311,23.0464 15.8661,23.0214 C16.0461,22.8874 16.2041,22.7254 16.3351,22.5434 C16.4731,22.3584 16.5951,22.1614 16.6991,21.9564 C16.8091,21.7424 16.9061,21.5214 16.9881,21.2944 C17.0251,21.2294 17.0341,21.1524 17.0121,21.0804 C16.9791,20.9674 16.8921,20.8034 16.8351,20.6634 C16.7791,20.5234 16.7591,20.4304 16.8091,20.3994 C16.8581,20.3694 16.8871,20.3994 16.9651,20.4364 C17.0891,20.5034 17.2071,20.5814 17.3181,20.6684 C17.8481,21.0724 18.3201,21.5464 18.7231,22.0764" id="Fill-201" fill="#E44450"></path>
                        <path d="M17.2192,31.761 C17.1082,31.848 16.9902,31.926 16.8652,31.993 C16.7862,32.032 16.7352,32.044 16.7082,32.03 C16.6812,32.016 16.6752,31.906 16.7362,31.766 C16.7982,31.627 16.8812,31.462 16.9132,31.349 C16.9392,31.278 16.9342,31.2 16.9012,31.133 C16.8192,30.907 16.7222,30.685 16.6112,30.471 C16.5062,30.269 16.3852,30.076 16.2482,29.895 C16.1162,29.712 15.9572,29.551 15.7762,29.417 C15.6182,29.292 15.5922,29.063 15.7182,28.905 C15.8312,28.762 16.0332,28.725 16.1902,28.82 C16.2252,28.845 16.2562,28.877 16.2822,28.913 C16.4162,29.094 16.5772,29.253 16.7592,29.386 C16.9452,29.522 17.1412,29.644 17.3462,29.748 C17.5612,29.858 17.7812,29.954 18.0082,30.036 C18.0722,30.074 18.1492,30.083 18.2202,30.061 C18.3342,30.028 18.4982,29.941 18.6382,29.884 C18.7782,29.827 18.8732,29.808 18.9032,29.858 C18.9332,29.907 18.9032,29.935 18.8642,30.015 C18.7982,30.139 18.7202,30.258 18.6332,30.369 C18.2262,30.894 17.7502,31.362 17.2192,31.761" id="Fill-203" fill="#E44450"></path>
                        <path d="M7.542,30.2629 C7.455,30.1519 7.377,30.0339 7.31,29.9089 C7.27,29.8309 7.259,29.7779 7.271,29.7529 C7.284,29.7289 7.395,29.7179 7.537,29.7799 C7.678,29.8419 7.841,29.9269 7.954,29.9569 C8.025,29.9789 8.103,29.9699 8.167,29.9319 C8.393,29.8499 8.614,29.7539 8.828,29.6439 C9.034,29.5389 9.23,29.4169 9.415,29.2789 C9.598,29.1469 9.76,28.9879 9.895,28.8069 C10.01,28.6399 10.239,28.5989 10.406,28.7149 C10.572,28.8309 10.613,29.0599 10.498,29.2259 C10.473,29.2629 10.442,29.2939 10.406,29.3179 C10.225,29.4519 10.065,29.6129 9.934,29.7959 C9.796,29.9809 9.675,30.1779 9.571,30.3829 C9.461,30.5969 9.365,30.8179 9.283,31.0449 C9.244,31.1089 9.235,31.1869 9.258,31.2589 C9.292,31.3699 9.376,31.5359 9.435,31.6739 C9.493,31.8119 9.513,31.9089 9.463,31.9399 C9.414,31.9699 9.385,31.9399 9.306,31.9029 C9.182,31.8349 9.063,31.7579 8.952,31.6709 C8.421,31.2669 7.947,30.7929 7.542,30.2629" id="Fill-205" fill="#E44450"></path>
                        <path d="M9.04,20.5784 C9.151,20.4914 9.27,20.4134 9.394,20.3464 C9.474,20.3074 9.525,20.2954 9.551,20.3074 C9.578,20.3204 9.585,20.4334 9.525,20.5734 C9.465,20.7124 9.378,20.8774 9.348,20.9904 C9.326,21.0624 9.335,21.1404 9.373,21.2044 C9.455,21.4314 9.551,21.6514 9.661,21.8664 C9.766,22.0714 9.887,22.2674 10.024,22.4534 C10.156,22.6364 10.316,22.7974 10.498,22.9314 C10.663,23.0474 10.702,23.2744 10.585,23.4394 C10.469,23.6044 10.241,23.6434 10.077,23.5274 C10.04,23.5024 10.009,23.4714 9.985,23.4344 C9.851,23.2534 9.689,23.0934 9.505,22.9624 C9.32,22.8264 9.124,22.7044 8.92,22.5994 C8.706,22.4904 8.485,22.3934 8.258,22.3114 C8.193,22.2744 8.116,22.2664 8.044,22.2884 C7.931,22.3224 7.767,22.4094 7.627,22.4654 C7.487,22.5224 7.392,22.5414 7.362,22.4924 C7.332,22.4424 7.362,22.4144 7.4,22.3344 C7.468,22.2104 7.545,22.0924 7.632,21.9814 C8.037,21.4534 8.511,20.9814 9.04,20.5784" id="Fill-207" fill="#E44450"></path>
                        <path d="M22.1845,13.4036 C24.1695,13.4036 25.7785,15.0126 25.7785,16.9986 C25.7785,18.9836 24.1695,20.5926 22.1845,20.5926 C20.1995,20.5926 18.5905,18.9836 18.5905,16.9986 C18.5905,15.0126 20.1995,13.4036 22.1845,13.4036" id="Fill-209" fill="#ECC6C3"></path>
                        <path d="M17.7715,16.3562 C17.8085,16.1082 17.8435,16.0162 17.8795,16.0022 C17.9145,15.9882 17.9515,16.0382 17.9885,16.1402 L18.0425,16.2782 C18.0575,16.3222 18.0755,16.3642 18.0965,16.4052 C18.1325,16.4782 18.1695,16.4732 18.2045,16.4942 C18.3455,16.5612 18.4905,16.6202 18.6385,16.6702 C18.7795,16.7172 18.9245,16.7512 19.0715,16.7722 C19.2145,16.7942 19.3615,16.7942 19.5045,16.7722 C19.6315,16.7492 19.7535,16.8332 19.7765,16.9602 C19.7995,17.0872 19.7145,17.2092 19.5875,17.2312 C19.5605,17.2372 19.5325,17.2372 19.5045,17.2312 C19.3615,17.2092 19.2145,17.2092 19.0715,17.2312 C18.9225,17.2522 18.7765,17.2882 18.6345,17.3362 C18.4865,17.3852 18.3415,17.4442 18.2015,17.5132 C18.1655,17.5322 18.1285,17.5272 18.0935,17.6012 C18.0715,17.6422 18.0535,17.6852 18.0385,17.7292 L17.9855,17.8652 C17.9485,17.9672 17.9125,18.0102 17.8755,18.0022 C17.8385,17.9962 17.8045,17.8982 17.7675,17.6492 C17.7095,17.2202 17.7095,16.7852 17.7715,16.3562" id="Fill-211" fill="#E44450"></path>
                        <path d="M18.5815,19.678 C18.4315,19.476 18.3925,19.386 18.4045,19.351 C18.4165,19.315 18.4805,19.326 18.5815,19.372 L18.7175,19.43 C18.7585,19.451 18.8005,19.469 18.8455,19.482 C18.8915,19.499 18.9425,19.493 18.9845,19.468 C19.1305,19.418 19.2725,19.359 19.4115,19.291 C19.5435,19.223 19.6695,19.145 19.7895,19.057 C19.9075,18.972 20.0115,18.868 20.0975,18.751 C20.1705,18.645 20.3165,18.617 20.4225,18.691 C20.5295,18.764 20.5565,18.91 20.4825,19.016 C20.4675,19.04 20.4465,19.061 20.4225,19.076 C20.3065,19.163 20.2035,19.266 20.1185,19.385 C20.0305,19.504 19.9525,19.631 19.8855,19.763 C19.8165,19.901 19.7575,20.043 19.7075,20.189 C19.6825,20.231 19.6765,20.282 19.6935,20.329 C19.7065,20.373 19.7245,20.415 19.7455,20.456 L19.8035,20.593 C19.8495,20.69 19.8545,20.746 19.8245,20.769 C19.7945,20.792 19.6995,20.746 19.4975,20.593 C19.1515,20.331 18.8435,20.024 18.5815,19.678" id="Fill-213" fill="#E44450"></path>
                        <path d="M19.5473,13.4446 C19.7493,13.2946 19.8393,13.2556 19.8743,13.2676 C19.9093,13.2796 19.8993,13.3436 19.8533,13.4446 L19.7953,13.5806 C19.7743,13.6216 19.7563,13.6646 19.7433,13.7086 C19.7263,13.7546 19.7313,13.8056 19.7573,13.8476 C19.8103,13.9936 19.8723,14.1356 19.9433,14.2746 C20.0103,14.4066 20.0893,14.5326 20.1763,14.6526 C20.2613,14.7706 20.3643,14.8746 20.4813,14.9606 C20.5883,15.0336 20.6143,15.1796 20.5413,15.2856 C20.4683,15.3926 20.3223,15.4196 20.2153,15.3456 C20.1923,15.3306 20.1713,15.3096 20.1553,15.2856 C20.0693,15.1696 19.9653,15.0666 19.8483,14.9816 C19.7283,14.8936 19.6013,14.8156 19.4693,14.7486 C19.3313,14.6766 19.1893,14.6146 19.0433,14.5626 C19.0013,14.5366 18.9493,14.5306 18.9033,14.5486 C18.8593,14.5616 18.8173,14.5786 18.7763,14.5996 L18.6393,14.6576 C18.5423,14.7036 18.4853,14.7096 18.4633,14.6786 C18.4403,14.6496 18.4853,14.5536 18.6393,14.3516 C18.8993,14.0096 19.2043,13.7036 19.5473,13.4446" id="Fill-215" fill="#E44450"></path>
                        <path d="M13.77,15.2131 C14.405,15.2131 14.92,15.7281 14.92,16.3631 C14.92,16.9981 14.405,17.5131 13.77,17.5131 C13.135,17.5131 12.621,16.9981 12.621,16.3631 C12.621,15.7281 13.135,15.2131 13.77,15.2131" id="Fill-217" fill="#ECC6C3"></path>
                        <path d="M9.1709,14.6829 C10.2949,14.6829 11.2049,15.5939 11.2049,16.7169 C11.2049,17.8399 10.2949,18.7509 9.1709,18.7509 C8.0479,18.7509 7.1369,17.8399 7.1369,16.7169 C7.1369,15.5939 8.0479,14.6829 9.1709,14.6829" id="Fill-219" fill="#ECC6C3"></path>
                        <path d="M17.3125,7.2703 C17.3665,7.4473 17.3725,7.5193 17.3535,7.5403 C17.3335,7.5613 17.2925,7.5383 17.2365,7.4833 L17.1575,7.4083 C17.1335,7.3843 17.1075,7.3613 17.0805,7.3403 C17.0335,7.3033 17.0105,7.3193 16.9805,7.3163 C16.8655,7.3153 16.7505,7.3213 16.6355,7.3353 C16.5275,7.3503 16.4195,7.3733 16.3145,7.4043 C16.2125,7.4353 16.1155,7.4813 16.0265,7.5423 C15.9495,7.5973 15.8415,7.5803 15.7865,7.5023 C15.7305,7.4253 15.7485,7.3173 15.8255,7.2623 C15.8425,7.2503 15.8605,7.2413 15.8805,7.2363 C15.9835,7.2063 16.0815,7.1593 16.1695,7.0983 C16.2605,7.0383 16.3465,6.9693 16.4255,6.8933 C16.5085,6.8133 16.5855,6.7283 16.6575,6.6383 C16.6745,6.6133 16.7005,6.6043 16.7015,6.5443 C16.7035,6.5103 16.7015,6.4763 16.6975,6.4423 L16.6895,6.3353 C16.6815,6.2553 16.6915,6.2153 16.7185,6.2083 C16.7465,6.2013 16.7995,6.2553 16.9025,6.4103 C17.0785,6.6763 17.2165,6.9663 17.3125,7.2703" id="Fill-221" fill="#E44450"></path>
                        <path d="M15.1001,11.3655 C14.9241,11.4195 14.8511,11.4255 14.8301,11.4065 C14.8101,11.3865 14.8321,11.3455 14.8881,11.2895 L14.9621,11.2105 C14.9861,11.1855 15.0091,11.1595 15.0301,11.1335 C15.0671,11.0865 15.0521,11.0635 15.0551,11.0335 C15.0561,10.9185 15.0491,10.8035 15.0351,10.6885 C15.0211,10.5805 14.9971,10.4725 14.9661,10.3675 C14.9351,10.2655 14.8891,10.1685 14.8291,10.0795 C14.7731,10.0025 14.7901,9.8945 14.8681,9.8395 C14.9451,9.7835 15.0531,9.8015 15.1081,9.8785 C15.1211,9.8945 15.1291,9.9135 15.1351,9.9335 C15.1651,10.0365 15.2111,10.1345 15.2721,10.2215 C15.3321,10.3135 15.4011,10.3995 15.4771,10.4785 C15.5571,10.5615 15.6421,10.6385 15.7331,10.7105 C15.7571,10.7275 15.7671,10.7535 15.8261,10.7545 C15.8601,10.7555 15.8941,10.7545 15.9281,10.7505 L16.0361,10.7425 C16.1161,10.7345 16.1551,10.7445 16.1621,10.7715 C16.1691,10.7985 16.1151,10.8515 15.9611,10.9555 C15.6941,11.1315 15.4051,11.2695 15.1001,11.3655" id="Fill-223" fill="#E44450"></path>
                        <path d="M11.0034,9.1584 C10.9494,8.9814 10.9434,8.9094 10.9644,8.8874 C10.9844,8.8664 11.0224,8.8894 11.0794,8.9454 L11.1584,9.0204 C11.1834,9.0444 11.2094,9.0674 11.2354,9.0884 C11.2824,9.1254 11.3054,9.1104 11.3354,9.1134 C11.4504,9.1134 11.5654,9.1064 11.6804,9.0934 C11.7884,9.0794 11.8964,9.0554 12.0004,9.0234 C12.1034,8.9924 12.2004,8.9464 12.2884,8.8854 C12.3664,8.8304 12.4734,8.8474 12.5294,8.9254 C12.5854,9.0024 12.5664,9.1094 12.4894,9.1654 C12.4734,9.1774 12.4544,9.1864 12.4344,9.1914 C12.3314,9.2214 12.2344,9.2684 12.1464,9.3284 C12.0544,9.3894 11.9684,9.4584 11.8904,9.5344 C11.8074,9.6144 11.7294,9.6994 11.6574,9.7894 C11.6404,9.8134 11.6134,9.8224 11.6134,9.8834 C11.6124,9.9164 11.6144,9.9504 11.6174,9.9854 L11.6254,10.0924 C11.6334,10.1724 11.6234,10.2124 11.5974,10.2184 C11.5714,10.2244 11.5164,10.1724 11.4124,10.0174 C11.2364,9.7514 11.0994,9.4624 11.0034,9.1584" id="Fill-225" fill="#E44450"></path>
                        <path d="M17.0561,9.7771 C16.9701,9.9411 16.9221,9.9951 16.8941,9.9981 C16.8671,10.0021 16.8541,9.9561 16.8521,9.8741 L16.8481,9.7651 C16.8491,9.7311 16.8471,9.6971 16.8421,9.6641 C16.8391,9.6281 16.8191,9.5951 16.7881,9.5751 C16.7091,9.4941 16.6241,9.4181 16.5351,9.3481 C16.4451,9.2821 16.3501,9.2241 16.2501,9.1741 C16.1571,9.1231 16.0561,9.0861 15.9511,9.0661 C15.8561,9.0501 15.7921,8.9621 15.8071,8.8681 C15.8221,8.7741 15.9101,8.7101 16.0051,8.7251 C16.0261,8.7281 16.0461,8.7351 16.0641,8.7461 C16.1581,8.7971 16.2601,8.8321 16.3651,8.8511 C16.4731,8.8721 16.5821,8.8831 16.6911,8.8861 C16.8051,8.8881 16.9181,8.8821 17.0311,8.8691 C17.0671,8.8731 17.1031,8.8601 17.1281,8.8341 C17.1541,8.8121 17.1771,8.7861 17.1971,8.7591 L17.2691,8.6771 C17.3191,8.6161 17.3551,8.5951 17.3801,8.6081 C17.4051,8.6201 17.4051,8.6981 17.3661,8.8811 C17.3041,9.1931 17.2001,9.4941 17.0561,9.7771" id="Fill-227" fill="#E44450"></path>
                        <path d="M12.5957,11.1135 C12.4317,11.0275 12.3777,10.9795 12.3747,10.9515 C12.3717,10.9245 12.4167,10.9115 12.4987,10.9095 L12.6077,10.9055 C12.6417,10.9065 12.6757,10.9045 12.7087,10.8995 C12.7447,10.8965 12.7777,10.8765 12.7977,10.8455 C12.8787,10.7665 12.9547,10.6815 13.0257,10.5925 C13.0917,10.5065 13.1517,10.4145 13.2027,10.3175 C13.2547,10.2235 13.2917,10.1225 13.3117,10.0175 C13.3267,9.9235 13.4147,9.8595 13.5097,9.8745 C13.6037,9.8895 13.6677,9.9775 13.6527,10.0715 C13.6497,10.0925 13.6417,10.1135 13.6317,10.1315 C13.5807,10.2225 13.5447,10.3215 13.5247,10.4245 C13.5037,10.5315 13.4917,10.6415 13.4887,10.7505 C13.4857,10.8645 13.4887,10.9795 13.5007,11.0935 C13.4957,11.1295 13.5097,11.1655 13.5347,11.1905 C13.5577,11.2165 13.5827,11.2385 13.6097,11.2595 L13.6917,11.3315 C13.7547,11.3815 13.7747,11.4175 13.7617,11.4425 C13.7487,11.4675 13.6707,11.4675 13.4877,11.4285 C13.1777,11.3645 12.8777,11.2595 12.5957,11.1135" id="Fill-229" fill="#E44450"></path>
                        <path d="M8.9658,3.2957 C9.9418,5.3457 9.0708,7.7977 7.0218,8.7737 C4.9718,9.7497 2.5198,8.8787 1.5438,6.8297 C0.5678,4.7797 1.4388,2.3277 3.4878,1.3517 C5.5368,0.3757 7.9898,1.2467 8.9658,3.2957" id="Fill-231" fill="#ECC6C3"></path>
                        <path d="M10.1054,3.6179 C10.1384,3.7159 10.1634,3.8169 10.1804,3.9189 C10.1884,3.9829 10.1844,4.0219 10.1674,4.0369 C10.1344,4.0639 10.0734,4.0309 9.9844,3.9559 C9.8964,3.8809 9.8094,3.7789 9.7384,3.7279 C9.6684,3.6759 9.6314,3.6939 9.5794,3.6959 C9.4014,3.6959 9.2244,3.7089 9.0484,3.7329 C8.8794,3.7539 8.7124,3.7899 8.5504,3.8399 C8.3914,3.8879 8.2414,3.9589 8.1044,4.0529 C7.9884,4.1439 7.8194,4.1239 7.7294,4.0079 C7.6374,3.8909 7.6574,3.7229 7.7734,3.6319 C7.8054,3.6079 7.8414,3.5909 7.8794,3.5819 C8.0384,3.5349 8.1894,3.4629 8.3264,3.3689 C8.4674,3.2749 8.6004,3.1679 8.7234,3.0499 C8.8564,2.9239 8.9814,2.7879 9.0974,2.6449 C9.1264,2.6069 9.1634,2.5909 9.1734,2.5009 C9.1844,2.4099 9.1584,2.2779 9.1514,2.1659 C9.1444,2.0539 9.1554,1.9849 9.2034,1.9719 C9.2254,1.9689 9.2584,1.9909 9.3034,2.0369 C9.3724,2.1149 9.4344,2.1979 9.4894,2.2849 C9.7534,2.6999 9.9604,3.1479 10.1054,3.6179" id="Fill-233" fill="#E44450"></path>
                        <path d="M6.6772,9.9763 C6.5792,10.0093 6.4782,10.0343 6.3762,10.0503 C6.3112,10.0583 6.2722,10.0543 6.2582,10.0383 C6.2312,10.0053 6.2642,9.9433 6.3392,9.8553 C6.4142,9.7673 6.5152,9.6793 6.5672,9.6093 C6.6192,9.5393 6.6002,9.5023 6.5992,9.4503 C6.5992,9.2753 6.5882,9.1013 6.5672,8.9293 C6.5462,8.7603 6.5102,8.5943 6.4602,8.4313 C6.4122,8.2723 6.3412,8.1213 6.2472,7.9843 C6.1772,7.8543 6.2252,7.6923 6.3552,7.6223 C6.4622,7.5643 6.5942,7.5853 6.6772,7.6743 C6.6952,7.7003 6.7092,7.7293 6.7182,7.7603 C6.7652,7.9193 6.8372,8.0703 6.9312,8.2073 C7.0262,8.3483 7.1332,8.4813 7.2502,8.6043 C7.3712,8.7333 7.5012,8.8553 7.6382,8.9683 C7.6752,8.9973 7.6932,9.0333 7.7822,9.0433 C7.8732,9.0543 8.0052,9.0293 8.1172,9.0213 C8.2292,9.0143 8.2992,9.0263 8.3112,9.0743 C8.3132,9.0963 8.2922,9.1273 8.2462,9.1733 C8.1692,9.2423 8.0862,9.3053 7.9982,9.3603 C7.5872,9.6233 7.1432,9.8303 6.6772,9.9763" id="Fill-235" fill="#E44450"></path>
                        <path d="M0.3193,6.5476 C0.2863,6.4496 0.2613,6.3496 0.2433,6.2476 C0.2363,6.1816 0.2403,6.1436 0.2573,6.1286 C0.2903,6.1006 0.3513,6.1356 0.4403,6.2106 C0.5283,6.2846 0.6153,6.3866 0.6913,6.4346 C0.7673,6.4816 0.7983,6.4686 0.8513,6.4676 C1.0293,6.4656 1.2063,6.4536 1.3823,6.4296 C1.5503,6.4086 1.7173,6.3726 1.8803,6.3216 C2.0383,6.2756 2.1893,6.2036 2.3253,6.1096 C2.4443,6.0236 2.6103,6.0496 2.6963,6.1686 C2.7823,6.2866 2.7563,6.4526 2.6373,6.5386 C2.6113,6.5586 2.5813,6.5726 2.5503,6.5806 C2.3913,6.6266 2.2403,6.6986 2.1043,6.7926 C1.9623,6.8866 1.8293,6.9936 1.7063,7.1106 C1.5773,7.2326 1.4553,7.3616 1.3423,7.4986 C1.3143,7.5366 1.2773,7.5546 1.2673,7.6446 C1.2563,7.7346 1.2823,7.8666 1.2833,7.9806 C1.2833,8.0946 1.2783,8.1636 1.2313,8.1746 C1.2093,8.1776 1.1763,8.1566 1.1313,8.1096 C1.0623,8.0316 1.0003,7.9486 0.9443,7.8616 C0.6783,7.4536 0.4683,7.0116 0.3193,6.5476" id="Fill-237" fill="#E44450"></path>
                        <path d="M3.7417,0.1926 C3.8397,0.1586 3.9397,0.1336 4.0427,0.1176 C4.1067,0.1096 4.1457,0.1136 4.1607,0.1306 C4.1867,0.1626 4.1537,0.2246 4.0797,0.3136 C3.9997,0.3866 3.9237,0.4646 3.8517,0.5456 C3.7997,0.6156 3.8197,0.6526 3.8197,0.7056 C3.8217,0.8826 3.8337,1.0596 3.8567,1.2346 C3.8787,1.4036 3.9137,1.5706 3.9637,1.7336 C4.0117,1.8926 4.0837,2.0436 4.1767,2.1806 C4.2777,2.2886 4.2727,2.4576 4.1647,2.5586 C4.0567,2.6596 3.8877,2.6536 3.7867,2.5466 C3.7717,2.5296 3.7587,2.5116 3.7477,2.4916 C3.7287,2.4646 3.7157,2.4356 3.7057,2.4046 C3.6587,2.2456 3.5867,2.0946 3.4927,1.9576 C3.3977,1.8166 3.2917,1.6836 3.1737,1.5606 C3.0497,1.4326 2.9177,1.3126 2.7777,1.2016 C2.7417,1.1726 2.7227,1.1356 2.6337,1.1256 C2.5217,1.1276 2.4097,1.1346 2.2987,1.1486 C2.1857,1.1556 2.1167,1.1426 2.1047,1.0956 C2.1027,1.0736 2.1237,1.0406 2.1697,0.9956 C2.2477,0.9266 2.3297,0.8646 2.4177,0.8096 C2.8297,0.5456 3.2747,0.3376 3.7417,0.1926" id="Fill-239" fill="#E44450"></path>
                        <path d="M9.708,7.5061 C9.663,7.6001 9.608,7.6901 9.547,7.7741 C9.507,7.8241 9.476,7.8491 9.455,7.8471 C9.434,7.8461 9.392,7.7771 9.389,7.6631 C9.385,7.5491 9.39,7.4141 9.374,7.3291 C9.366,7.2751 9.335,7.2261 9.29,7.1951 C9.164,7.0701 9.03,6.9541 8.889,6.8461 C8.754,6.7421 8.61,6.6511 8.46,6.5711 C8.315,6.4901 8.16,6.4331 7.998,6.4011 C7.853,6.3671 7.763,6.2231 7.796,6.0791 C7.827,5.9471 7.95,5.8591 8.084,5.8721 C8.115,5.8781 8.146,5.8881 8.174,5.9041 C8.32,5.9821 8.478,6.0361 8.641,6.0651 C8.808,6.0981 8.977,6.1161 9.147,6.1211 C9.324,6.1261 9.502,6.1201 9.679,6.1031 C9.733,6.1081 9.788,6.0891 9.829,6.0521 C9.894,5.9941 9.976,5.8841 10.051,5.8021 C10.126,5.7201 10.182,5.6771 10.218,5.7011 C10.253,5.7241 10.242,5.7531 10.242,5.8161 C10.237,5.9201 10.223,6.0241 10.2,6.1251 C10.099,6.6051 9.934,7.0701 9.708,7.5061" id="Fill-241" fill="#E44450"></path>
                        <path d="M2.7856,9.5745 C2.6926,9.5285 2.6026,9.4745 2.5196,9.4125 C2.4686,9.3715 2.4436,9.3415 2.4446,9.3195 C2.4456,9.2975 2.5166,9.2585 2.6296,9.2545 C2.7416,9.2515 2.8776,9.2555 2.9636,9.2405 C3.0176,9.2345 3.0686,9.2075 3.1026,9.1635 C3.2276,9.0375 3.3446,8.9025 3.4516,8.7615 C3.5526,8.6275 3.6426,8.4855 3.7206,8.3365 C3.8006,8.1915 3.8566,8.0335 3.8886,7.8705 C3.9216,7.7265 4.0656,7.6365 4.2106,7.6705 C4.3416,7.7005 4.4306,7.8235 4.4176,7.9575 C4.4106,7.9895 4.3996,8.0195 4.3846,8.0485 C4.3066,8.1945 4.2516,8.3525 4.2216,8.5155 C4.1886,8.6825 4.1706,8.8515 4.1656,9.0215 C4.1606,9.1995 4.1666,9.3765 4.1836,9.5535 C4.1786,9.6075 4.1976,9.6615 4.2346,9.7025 C4.2926,9.7665 4.4026,9.8485 4.4846,9.9245 C4.5666,9.9995 4.6096,10.0565 4.5866,10.0925 C4.5626,10.1275 4.5346,10.1165 4.4696,10.1165 C4.3656,10.1115 4.2616,10.0965 4.1606,10.0745 C3.6816,9.9705 3.2196,9.8025 2.7856,9.5745" id="Fill-243" fill="#E44450"></path>
                        <path d="M0.7158,2.6584 C0.7618,2.5654 0.8168,2.4764 0.8778,2.3924 C0.9168,2.3404 0.9488,2.3164 0.9688,2.3174 C0.9898,2.3174 1.0318,2.3884 1.0358,2.5024 C1.0398,2.6164 1.0348,2.7514 1.0498,2.8364 C1.0578,2.8904 1.0888,2.9384 1.1338,2.9694 C1.2598,3.0944 1.3948,3.2104 1.5358,3.3184 C1.6708,3.4224 1.8138,3.5144 1.9648,3.5934 C2.1108,3.6734 2.2678,3.7304 2.4308,3.7624 C2.5778,3.7874 2.6778,3.9264 2.6538,4.0744 C2.6298,4.2214 2.4898,4.3214 2.3428,4.2974 C2.3108,4.2924 2.2798,4.2814 2.2528,4.2654 C2.1058,4.1864 1.9478,4.1324 1.7848,4.1024 C1.6178,4.0694 1.4488,4.0514 1.2788,4.0474 C1.1018,4.0414 0.9238,4.0474 0.7468,4.0644 C0.6918,4.0594 0.6368,4.0784 0.5968,4.1164 C0.5338,4.1744 0.4498,4.2834 0.3768,4.3654 C0.3028,4.4484 0.2448,4.4914 0.2088,4.4684 C0.1728,4.4454 0.1838,4.4164 0.1838,4.3524 C0.1888,4.2484 0.2028,4.1444 0.2258,4.0434 C0.3258,3.5614 0.4908,3.0954 0.7158,2.6584" id="Fill-245" fill="#E44450"></path>
                        <path d="M7.6367,0.5867 C7.7297,0.6327 7.8187,0.6877 7.9027,0.7487 C7.9537,0.7897 7.9787,0.8197 7.9787,0.8407 C7.9787,0.8627 7.9057,0.9027 7.7937,0.9077 C7.6817,0.9117 7.5447,0.9057 7.4597,0.9217 C7.4057,0.9297 7.3567,0.9607 7.3247,1.0067 C7.2007,1.1327 7.0837,1.2667 6.9767,1.4077 C6.8727,1.5427 6.7807,1.6857 6.6997,1.8357 C6.6207,1.9817 6.5637,2.1387 6.5327,2.3027 C6.5077,2.4487 6.3687,2.5467 6.2217,2.5217 C6.0757,2.4967 5.9777,2.3577 6.0027,2.2117 C6.0077,2.1787 6.0177,2.1487 6.0347,2.1207 C6.1137,1.9737 6.1687,1.8157 6.1977,1.6517 C6.2297,1.4857 6.2477,1.3167 6.2527,1.1477 C6.2587,0.9697 6.2527,0.7927 6.2357,0.6157 C6.2397,0.5607 6.2197,0.5057 6.1827,0.4657 C6.1247,0.4007 6.0147,0.3187 5.9327,0.2437 C5.8507,0.1697 5.8077,0.1117 5.8307,0.0757 C5.8547,0.0407 5.8827,0.0507 5.9477,0.0517 C6.0517,0.0577 6.1557,0.0717 6.2567,0.0937 C6.7367,0.1957 7.2007,0.3617 7.6367,0.5867" id="Fill-247" fill="#E44450"></path>
                        <path d="M16.5776,7.0613 C17.2066,8.3823 16.6456,9.9633 15.3246,10.5933 C14.0036,11.2223 12.4226,10.6613 11.7926,9.3393 C11.1636,8.0183 11.7246,6.4373 13.0466,5.8083 C14.3676,5.1793 15.9486,5.7403 16.5776,7.0613" id="Fill-249" fill="#ECC6C3"></path>
                        <path d="M13.2138,5.0598 C13.3908,5.0058 13.4628,4.9998 13.4838,5.0188 C13.5048,5.0388 13.4828,5.0788 13.4268,5.1358 L13.3518,5.2148 C13.3278,5.2388 13.3048,5.2648 13.2838,5.2918 C13.2468,5.3388 13.2628,5.3618 13.2598,5.3918 C13.2588,5.5068 13.2658,5.6218 13.2788,5.7368 C13.2938,5.8448 13.3168,5.9528 13.3498,6.0568 C13.3798,6.1598 13.4258,6.2568 13.4868,6.3458 C13.5428,6.4228 13.5248,6.5298 13.4468,6.5858 C13.3698,6.6418 13.2628,6.6238 13.2068,6.5458 C13.1948,6.5298 13.1858,6.5108 13.1808,6.4908 C13.1508,6.3878 13.1038,6.2908 13.0438,6.2028 C12.9818,6.1098 12.9128,6.0238 12.8358,5.9448 C12.7558,5.8618 12.6708,5.7838 12.5798,5.7128 C12.5558,5.6948 12.5478,5.6688 12.4868,5.6688 C12.4528,5.6668 12.4188,5.6678 12.3848,5.6728 L12.2778,5.6808 C12.1978,5.6878 12.1578,5.6778 12.1508,5.6508 C12.1438,5.6238 12.1978,5.5708 12.3518,5.4668 C12.6188,5.2918 12.9088,5.1548 13.2138,5.0598" id="Fill-251" fill="#E44450"></path>
                        <path d="M11.2597,6.6516 C11.3457,6.4876 11.3937,6.4336 11.4217,6.4306 C11.4487,6.4276 11.4617,6.4726 11.4637,6.5546 L11.4677,6.6636 C11.4667,6.6976 11.4687,6.7316 11.4737,6.7646 C11.4767,6.8006 11.4967,6.8336 11.5277,6.8536 C11.6067,6.9346 11.6917,7.0106 11.7807,7.0816 C11.8667,7.1476 11.9597,7.2076 12.0557,7.2586 C12.1497,7.3106 12.2517,7.3466 12.3567,7.3666 C12.4507,7.3816 12.5147,7.4706 12.5007,7.5646 C12.4857,7.6586 12.3967,7.7226 12.3027,7.7076 C12.2817,7.7046 12.2617,7.6976 12.2437,7.6866 C12.1497,7.6366 12.0477,7.6006 11.9427,7.5816 C11.8347,7.5616 11.7257,7.5486 11.6157,7.5466 C11.5027,7.5446 11.3887,7.5506 11.2767,7.5636 C11.2397,7.5596 11.2047,7.5726 11.1787,7.5986 C11.1537,7.6216 11.1307,7.6466 11.1107,7.6726 L11.0387,7.7556 C10.9887,7.8166 10.9517,7.8386 10.9267,7.8256 C10.9027,7.8126 10.9027,7.7346 10.9417,7.5516 C11.0057,7.2376 11.1127,6.9356 11.2597,6.6516" id="Fill-253" fill="#E44450"></path>
                        <path d="M15.7148,5.3191 C15.8788,5.4051 15.9328,5.4531 15.9358,5.4811 C15.9388,5.5081 15.8938,5.5211 15.8118,5.5231 L15.7028,5.5271 C15.6688,5.5261 15.6348,5.5281 15.6018,5.5331 C15.5658,5.5361 15.5328,5.5561 15.5128,5.5871 C15.4328,5.6681 15.3578,5.7551 15.2878,5.8451 C15.2208,5.9321 15.1618,6.0251 15.1108,6.1211 C15.0588,6.2151 15.0218,6.3161 15.0018,6.4211 C14.9868,6.5151 14.8988,6.5791 14.8038,6.5641 C14.7098,6.5491 14.6458,6.4611 14.6608,6.3661 C14.6638,6.3461 14.6718,6.3261 14.6818,6.3071 C14.7328,6.2131 14.7678,6.1111 14.7868,6.0061 C14.8078,5.8991 14.8188,5.7901 14.8218,5.6801 C14.8258,5.5661 14.8218,5.4511 14.8108,5.3381 C14.8148,5.3011 14.8018,5.2661 14.7758,5.2401 C14.7538,5.2151 14.7288,5.1921 14.7018,5.1721 L14.6198,5.1001 C14.5578,5.0491 14.5368,5.0131 14.5488,4.9881 C14.5618,4.9641 14.6398,4.9641 14.8228,5.0031 C15.1328,5.0671 15.4338,5.1731 15.7148,5.3191" id="Fill-255" fill="#E44450"></path>
                    </g>
                    <g id="Group-316" transform="translate(187.000000, 15.000000)">
                        <path d="M22.6845,13.3469 C22.9325,13.3839 23.0235,13.4199 23.0385,13.4549 C23.0525,13.4899 23.0005,13.5279 22.9005,13.5649 L22.7625,13.6179 C22.7185,13.6329 22.6765,13.6509 22.6345,13.6729 C22.5625,13.7079 22.5675,13.7449 22.5465,13.7809 C22.4785,13.9209 22.4195,14.0659 22.3695,14.2139 C22.3235,14.3549 22.2895,14.4999 22.2675,14.6469 C22.2445,14.7909 22.2445,14.9369 22.2675,15.0799 C22.2895,15.2069 22.2055,15.3289 22.0785,15.3519 C21.9515,15.3749 21.8305,15.2909 21.8075,15.1629 C21.8015,15.1359 21.8015,15.1079 21.8075,15.0799 C21.8305,14.9369 21.8305,14.7909 21.8075,14.6469 C21.7865,14.4999 21.7515,14.3549 21.7045,14.2139 C21.6555,14.0649 21.5965,13.9209 21.5275,13.7809 C21.5085,13.7449 21.5115,13.7079 21.4385,13.6729 C21.3985,13.6509 21.3555,13.6319 21.3115,13.6179 L21.1755,13.5649 C21.0735,13.5279 21.0305,13.4919 21.0375,13.4549 C21.0445,13.4179 21.1425,13.3839 21.3915,13.3469 C21.8205,13.2869 22.2555,13.2869 22.6845,13.3469" id="Fill-258" fill="#E44450"></path>
                        <path d="M26.4096,18.4446 C26.3726,18.6926 26.3366,18.7846 26.3016,18.7986 C26.2666,18.8126 26.2286,18.7616 26.1916,18.6606 L26.1386,18.5226 C26.1226,18.4796 26.1046,18.4366 26.0836,18.3956 C26.0486,18.3226 26.0116,18.3276 25.9756,18.3066 C25.8356,18.2386 25.6906,18.1796 25.5426,18.1306 C25.4016,18.0846 25.2566,18.0496 25.1096,18.0276 C24.9656,18.0056 24.8196,18.0056 24.6766,18.0276 C24.5496,18.0506 24.4276,17.9656 24.4046,17.8396 C24.3816,17.7126 24.4656,17.5906 24.5936,17.5676 C24.6206,17.5626 24.6486,17.5626 24.6766,17.5676 C24.8196,17.5906 24.9656,17.5906 25.1096,17.5676 C25.2566,17.5466 25.4016,17.5126 25.5426,17.4656 C25.6916,17.4156 25.8356,17.3566 25.9756,17.2876 C26.0116,17.2686 26.0486,17.2726 26.0836,17.1996 C26.1056,17.1586 26.1236,17.1156 26.1386,17.0716 L26.1916,16.9356 C26.2286,16.8336 26.2646,16.7906 26.3016,16.7986 C26.3386,16.8046 26.3726,16.9026 26.4096,17.1516 C26.4696,17.5806 26.4696,18.0156 26.4096,18.4446" id="Fill-260" fill="#E44450"></path>
                        <path d="M21.3169,22.1755 C21.0689,22.1375 20.9779,22.1025 20.9629,22.0655 C20.9489,22.0285 20.9989,21.9945 21.1019,21.9575 L21.2389,21.9045 C21.2829,21.8885 21.3249,21.8705 21.3669,21.8495 C21.4389,21.8145 21.4339,21.7775 21.4549,21.7415 C21.5229,21.6005 21.5819,21.4565 21.6319,21.3085 C21.6779,21.1675 21.7119,21.0225 21.7329,20.8755 C21.7559,20.7315 21.7559,20.5855 21.7329,20.4415 C21.7099,20.3145 21.7949,20.1935 21.9209,20.1705 C22.0479,20.1475 22.1699,20.2315 22.1929,20.3585 C22.1979,20.3855 22.1979,20.4145 22.1929,20.4415 C22.1699,20.5855 22.1699,20.7315 22.1929,20.8755 C22.2129,21.0225 22.2479,21.1675 22.2959,21.3085 C22.3439,21.4565 22.4029,21.6015 22.4719,21.7415 C22.4919,21.7775 22.4859,21.8145 22.5609,21.8495 C22.6019,21.8705 22.6449,21.8895 22.6879,21.9045 L22.8239,21.9575 C22.9269,21.9945 22.9689,22.0295 22.9629,22.0655 C22.9549,22.1005 22.8579,22.1375 22.6089,22.1755 C22.1799,22.2355 21.7459,22.2355 21.3169,22.1755" id="Fill-262" fill="#E44450"></path>
                        <path d="M25.6049,15.1228 C25.7549,15.3248 25.7939,15.4148 25.7819,15.4498 C25.7699,15.4858 25.7059,15.4748 25.6049,15.4288 L25.4689,15.3708 C25.4279,15.3498 25.3849,15.3318 25.3409,15.3188 C25.2949,15.3018 25.2429,15.3078 25.2019,15.3328 C25.0559,15.3828 24.9139,15.4418 24.7749,15.5108 C24.6429,15.5818 24.5159,15.6648 24.3969,15.7578 C24.2789,15.8428 24.1749,15.9458 24.0889,16.0618 C24.0159,16.1688 23.8699,16.1958 23.7639,16.1228 C23.6569,16.0488 23.6299,15.9028 23.7029,15.7968 C23.7189,15.7728 23.7399,15.7528 23.7639,15.7368 C23.8799,15.6508 23.9829,15.5468 24.0679,15.4288 C24.1559,15.3098 24.2339,15.1828 24.3009,15.0508 C24.3689,14.9128 24.4279,14.7698 24.4779,14.6238 C24.5039,14.5818 24.5089,14.5308 24.4919,14.4838 C24.4789,14.4398 24.4619,14.3978 24.4409,14.3568 L24.3819,14.2208 C24.3359,14.1228 24.3309,14.0668 24.3609,14.0438 C24.3919,14.0208 24.4869,14.0668 24.6879,14.2208 C25.0339,14.4778 25.3419,14.7818 25.6049,15.1228" id="Fill-264" fill="#E44450"></path>
                        <path d="M24.6406,21.365 C24.4386,21.515 24.3486,21.554 24.3136,21.542 C24.2786,21.53 24.2886,21.466 24.3346,21.365 L24.3926,21.229 C24.4136,21.188 24.4316,21.146 24.4446,21.102 C24.4616,21.055 24.4566,21.004 24.4306,20.962 C24.3806,20.816 24.3216,20.674 24.2536,20.535 C24.1856,20.403 24.1076,20.277 24.0196,20.157 C23.9346,20.039 23.8326,19.935 23.7156,19.849 C23.6096,19.776 23.5826,19.63 23.6556,19.524 C23.7286,19.417 23.8746,19.39 23.9806,19.464 C24.0046,19.48 24.0256,19.5 24.0406,19.524 C24.1236,19.639 24.2246,19.741 24.3386,19.826 C24.4576,19.914 24.5846,19.992 24.7166,20.06 C24.8546,20.131 24.9966,20.193 25.1426,20.245 C25.1846,20.272 25.2366,20.277 25.2826,20.26 C25.3266,20.246 25.3696,20.229 25.4106,20.208 L25.5466,20.15 C25.6436,20.102 25.7006,20.099 25.7236,20.129 C25.7466,20.159 25.7006,20.254 25.5466,20.456 C25.2876,20.799 24.9826,21.105 24.6406,21.365" id="Fill-266" fill="#E44450"></path>
                        <path d="M22,14.1252 C23.985,14.1252 25.594,15.7342 25.594,17.7192 C25.594,19.7052 23.985,21.3132 22,21.3132 C20.015,21.3132 18.406,19.7052 18.406,17.7192 C18.406,15.7342 20.015,14.1252 22,14.1252" id="Fill-268" fill="#ECC6C3"></path>
                        <path d="M17.5864,17.0774 C17.6234,16.8294 17.6594,16.7384 17.6944,16.7234 C17.7304,16.7094 17.7674,16.7594 17.8044,16.8614 L17.8574,16.9994 C17.8724,17.0434 17.8914,17.0854 17.9124,17.1274 C17.9474,17.1994 17.9844,17.1944 18.0204,17.2154 C18.1604,17.2834 18.3054,17.3424 18.4534,17.3924 C18.5944,17.4384 18.7394,17.4724 18.8864,17.4934 C19.0304,17.5164 19.1764,17.5164 19.3204,17.4934 C19.4474,17.4704 19.5684,17.5544 19.5914,17.6814 C19.6144,17.8084 19.5304,17.9304 19.4034,17.9524 C19.3764,17.9584 19.3474,17.9584 19.3204,17.9524 C19.1764,17.9304 19.0304,17.9304 18.8864,17.9524 C18.7384,17.9744 18.5914,18.0094 18.4494,18.0574 C18.3014,18.1064 18.1564,18.1654 18.0164,18.2344 C17.9814,18.2534 17.9434,18.2484 17.9084,18.3224 C17.8864,18.3634 17.8684,18.4064 17.8534,18.4504 L17.8004,18.5864 C17.7634,18.6884 17.7284,18.7314 17.6904,18.7244 C17.6534,18.7174 17.6204,18.6194 17.5834,18.3704 C17.5244,17.9414 17.5254,17.5064 17.5864,17.0774" id="Fill-270" fill="#E44450"></path>
                        <path d="M18.3969,20.3992 C18.2469,20.1972 18.2079,20.1072 18.2199,20.0722 C18.2319,20.0372 18.2959,20.0472 18.3969,20.0932 L18.5329,20.1512 C18.5739,20.1722 18.6159,20.1902 18.6599,20.2032 C18.7069,20.2202 18.7579,20.2152 18.7999,20.1892 C18.9459,20.1392 19.0879,20.0802 19.2269,20.0122 C19.3589,19.9442 19.4849,19.8662 19.6049,19.7782 C19.7229,19.6932 19.8269,19.5902 19.9129,19.4722 C19.9859,19.3662 20.1319,19.3392 20.2379,19.4122 C20.3449,19.4852 20.3719,19.6312 20.2979,19.7382 C20.2819,19.7612 20.2619,19.7822 20.2379,19.7982 C20.1209,19.8842 20.0189,19.9882 19.9339,20.1062 C19.8459,20.2252 19.7679,20.3522 19.6999,20.4842 C19.6319,20.6222 19.5729,20.7652 19.5229,20.9102 C19.4979,20.9522 19.4919,21.0042 19.5089,21.0502 C19.5219,21.0942 19.5399,21.1372 19.5609,21.1772 L19.6189,21.3142 C19.6649,21.4112 19.6699,21.4672 19.6399,21.4912 C19.6099,21.5142 19.5149,21.4672 19.3129,21.3142 C18.9669,21.0532 18.6579,20.7452 18.3969,20.3992" id="Fill-272" fill="#E44450"></path>
                        <path d="M19.3623,14.1658 C19.5643,14.0158 19.6543,13.9768 19.6903,13.9888 C19.7253,14.0008 19.7143,14.0648 19.6683,14.1658 L19.6103,14.3018 C19.5893,14.3428 19.5713,14.3858 19.5593,14.4298 C19.5413,14.4758 19.5473,14.5278 19.5733,14.5688 C19.6253,14.7148 19.6873,14.8578 19.7583,14.9958 C19.8263,15.1278 19.9043,15.2548 19.9923,15.3738 C20.0773,15.4918 20.1793,15.5958 20.2963,15.6818 C20.4033,15.7548 20.4293,15.9008 20.3563,16.0068 C20.2833,16.1138 20.1373,16.1408 20.0313,16.0678 C20.0073,16.0518 19.9873,16.0308 19.9713,16.0068 C19.8843,15.8908 19.7813,15.7878 19.6633,15.7028 C19.5433,15.6148 19.4173,15.5368 19.2843,15.4698 C19.1473,15.3988 19.0043,15.3358 18.8583,15.2838 C18.8163,15.2578 18.7653,15.2528 18.7183,15.2698 C18.6753,15.2828 18.6323,15.2998 18.5913,15.3208 L18.4553,15.3788 C18.3583,15.4258 18.3013,15.4308 18.2783,15.4008 C18.2553,15.3708 18.3013,15.2748 18.4553,15.0738 C18.7143,14.7308 19.0203,14.4258 19.3623,14.1658" id="Fill-274" fill="#E44450"></path>
                        <path d="M13.5854,15.9348 C14.2204,15.9348 14.7354,16.4498 14.7354,17.0848 C14.7354,17.7198 14.2204,18.2338 13.5854,18.2338 C12.9504,18.2338 12.4354,17.7198 12.4354,17.0848 C12.4354,16.4498 12.9504,15.9348 13.5854,15.9348" id="Fill-276" fill="#ECC6C3"></path>
                        <path d="M8.9863,15.4041 C10.1103,15.4041 11.0203,16.3151 11.0203,17.4381 C11.0203,18.5621 10.1103,19.4721 8.9863,19.4721 C7.8623,19.4721 6.9523,18.5621 6.9523,17.4381 C6.9523,16.3151 7.8623,15.4041 8.9863,15.4041" id="Fill-278" fill="#ECC6C3"></path>
                        <path d="M17.1279,7.9919 C17.1819,8.1689 17.1879,8.2409 17.1689,8.2619 C17.1489,8.2829 17.1079,8.2599 17.0519,8.2039 L16.9729,8.1299 C16.9479,8.1049 16.9229,8.0829 16.8959,8.0619 C16.8489,8.0249 16.8259,8.0399 16.7959,8.0369 C16.6809,8.0369 16.5659,8.0429 16.4509,8.0569 C16.3429,8.0719 16.2349,8.0949 16.1299,8.1259 C16.0279,8.1569 15.9299,8.2029 15.8419,8.2629 C15.7649,8.3189 15.6569,8.3019 15.6019,8.2239 C15.5459,8.1469 15.5639,8.0389 15.6409,7.9839 C15.6569,7.9709 15.6759,7.9629 15.6959,7.9569 C15.7989,7.9269 15.8969,7.8809 15.9839,7.8199 C16.0759,7.7599 16.1619,7.6909 16.2409,7.6149 C16.3239,7.5349 16.4009,7.4499 16.4729,7.3589 C16.4899,7.3349 16.5159,7.3259 16.5169,7.2659 C16.5179,7.2319 16.5169,7.1979 16.5129,7.1639 L16.5049,7.0559 C16.4969,6.9769 16.5069,6.9369 16.5339,6.9299 C16.5609,6.9229 16.6139,6.9769 16.7179,7.1309 C16.8939,7.3979 17.0319,7.6869 17.1279,7.9919" id="Fill-280" fill="#E44450"></path>
                        <path d="M14.9155,12.0872 C14.7385,12.1412 14.6665,12.1462 14.6455,12.1272 C14.6245,12.1082 14.6475,12.0672 14.7035,12.0102 L14.7775,11.9312 C14.8015,11.9072 14.8245,11.8812 14.8455,11.8552 C14.8825,11.8082 14.8675,11.7852 14.8705,11.7542 C14.8705,11.6402 14.8645,11.5252 14.8505,11.4102 C14.8355,11.3012 14.8125,11.1942 14.7815,11.0892 C14.7505,10.9862 14.7045,10.8892 14.6445,10.8012 C14.5885,10.7242 14.6055,10.6162 14.6835,10.5602 C14.7605,10.5052 14.8685,10.5232 14.9235,10.6002 C14.9365,10.6162 14.9445,10.6352 14.9505,10.6552 C14.9805,10.7582 15.0265,10.8552 15.0875,10.9432 C15.1475,11.0352 15.2165,11.1212 15.2925,11.1992 C15.3725,11.2832 15.4575,11.3602 15.5485,11.4322 C15.5725,11.4492 15.5815,11.4752 15.6415,11.4762 C15.6755,11.4772 15.7095,11.4752 15.7435,11.4722 L15.8505,11.4642 C15.9305,11.4562 15.9705,11.4662 15.9775,11.4932 C15.9845,11.5202 15.9305,11.5732 15.7765,11.6772 C15.5095,11.8532 15.2205,11.9912 14.9155,12.0872" id="Fill-282" fill="#E44450"></path>
                        <path d="M10.8183,9.8796 C10.7643,9.7036 10.7593,9.6306 10.7793,9.6096 C10.7993,9.5876 10.8383,9.6106 10.8953,9.6676 L10.9743,9.7426 C10.9983,9.7656 11.0243,9.7886 11.0503,9.8096 C11.0973,9.8466 11.1203,9.8316 11.1513,9.8346 C11.2663,9.8346 11.3803,9.8276 11.4953,9.8146 C11.6043,9.8006 11.7113,9.7766 11.8153,9.7446 C11.9183,9.7136 12.0153,9.6676 12.1043,9.6076 C12.1813,9.5516 12.2893,9.5686 12.3443,9.6466 C12.4003,9.7236 12.3823,9.8316 12.3053,9.8866 C12.2883,9.8996 12.2703,9.9076 12.2503,9.9136 C12.1473,9.9426 12.0493,9.9896 11.9613,10.0506 C11.8703,10.1106 11.7843,10.1796 11.7053,10.2556 C11.6223,10.3356 11.5443,10.4216 11.4733,10.5106 C11.4553,10.5356 11.4293,10.5436 11.4293,10.6046 C11.4283,10.6386 11.4293,10.6726 11.4333,10.7066 L11.4413,10.8136 C11.4483,10.8936 11.4393,10.9336 11.4133,10.9396 C11.3873,10.9466 11.3313,10.8936 11.2283,10.7386 C11.0523,10.4726 10.9143,10.1836 10.8183,9.8796" id="Fill-284" fill="#E44450"></path>
                        <path d="M16.8716,10.4983 C16.7846,10.6623 16.7376,10.7173 16.7096,10.7203 C16.6826,10.7233 16.6686,10.6773 16.6676,10.5953 L16.6636,10.4863 C16.6646,10.4523 16.6626,10.4183 16.6576,10.3853 C16.6536,10.3493 16.6346,10.3163 16.6036,10.2963 C16.5246,10.2153 16.4396,10.1393 16.3506,10.0693 C16.2606,10.0033 16.1656,9.9453 16.0656,9.8953 C15.9726,9.8443 15.8716,9.8073 15.7666,9.7873 C15.6716,9.7723 15.6076,9.6843 15.6226,9.5893 C15.6376,9.4953 15.7256,9.4313 15.8206,9.4463 C15.8416,9.4493 15.8616,9.4563 15.8796,9.4673 C15.9736,9.5183 16.0756,9.5533 16.1806,9.5723 C16.2886,9.5933 16.3966,9.6053 16.5066,9.6073 C16.6206,9.6093 16.7336,9.6033 16.8466,9.5903 C16.8826,9.5943 16.9186,9.5813 16.9436,9.5553 C16.9686,9.5333 16.9916,9.5083 17.0126,9.4813 L17.0846,9.3993 C17.1346,9.3373 17.1706,9.3163 17.1956,9.3293 C17.2206,9.3413 17.2206,9.4193 17.1816,9.6023 C17.1196,9.9143 17.0156,10.2153 16.8716,10.4983" id="Fill-286" fill="#E44450"></path>
                        <path d="M12.4111,11.8352 C12.2471,11.7492 12.1931,11.7012 12.1901,11.6732 C12.1861,11.6462 12.2321,11.6332 12.3141,11.6312 L12.4231,11.6272 C12.4571,11.6282 12.4911,11.6262 12.5241,11.6212 C12.5601,11.6182 12.5931,11.5982 12.6131,11.5672 C12.6941,11.4882 12.7701,11.4032 12.8401,11.3142 C12.9071,11.2282 12.9671,11.1352 13.0181,11.0392 C13.0701,10.9452 13.1061,10.8442 13.1271,10.7392 C13.1421,10.6452 13.2301,10.5812 13.3251,10.5962 C13.4181,10.6112 13.4831,10.6992 13.4681,10.7932 C13.4651,10.8142 13.4571,10.8342 13.4471,10.8522 C13.3961,10.9442 13.3601,11.0432 13.3391,11.1462 C13.3191,11.2532 13.3071,11.3622 13.3041,11.4722 C13.3001,11.5862 13.3041,11.7012 13.3151,11.8142 C13.3111,11.8512 13.3241,11.8872 13.3501,11.9122 C13.3731,11.9372 13.3981,11.9602 13.4251,11.9812 L13.5071,12.0532 C13.5701,12.1022 13.5901,12.1392 13.5771,12.1642 C13.5641,12.1892 13.4861,12.1882 13.3031,12.1492 C12.9931,12.0862 12.6931,11.9802 12.4111,11.8352" id="Fill-288" fill="#E44450"></path>
                        <path d="M8.7812,4.0173 C9.7572,6.0663 8.8862,8.5193 6.8372,9.4953 C4.7872,10.4713 2.3352,9.6003 1.3592,7.5513 C0.3832,5.5013 1.2532,3.0493 3.3032,2.0733 C5.3522,1.0973 7.8052,1.9673 8.7812,4.0173" id="Fill-290" fill="#ECC6C3"></path>
                        <path d="M9.9209,4.3396 C9.9539,4.4376 9.9789,4.5386 9.9959,4.6406 C10.0039,4.7046 9.9989,4.7436 9.9829,4.7586 C9.9499,4.7846 9.8889,4.7516 9.7999,4.6776 C9.7109,4.6026 9.6249,4.5006 9.5539,4.4486 C9.4839,4.3976 9.4469,4.4146 9.3949,4.4166 C9.2169,4.4176 9.0399,4.4306 8.8639,4.4546 C8.6949,4.4756 8.5279,4.5116 8.3659,4.5616 C8.2069,4.6096 8.0569,4.6806 7.9199,4.7746 C7.8029,4.8646 7.6349,4.8446 7.5449,4.7286 C7.4529,4.6126 7.4729,4.4446 7.5889,4.3536 C7.6209,4.3286 7.6569,4.3116 7.6949,4.3026 C7.8539,4.2556 8.0039,4.1836 8.1419,4.0906 C8.2829,3.9956 8.4159,3.8896 8.5389,3.7716 C8.6719,3.6446 8.7969,3.5096 8.9129,3.3666 C8.9419,3.3286 8.9789,3.3126 8.9889,3.2216 C8.9999,3.1316 8.9739,2.9996 8.9669,2.8876 C8.9599,2.7756 8.9709,2.7066 9.0189,2.6936 C9.0399,2.6906 9.0739,2.7116 9.1189,2.7586 C9.1879,2.8366 9.2499,2.9196 9.3049,3.0066 C9.5689,3.4216 9.7759,3.8696 9.9209,4.3396" id="Fill-292" fill="#E44450"></path>
                        <path d="M6.4926,10.6975 C6.3946,10.7315 6.2936,10.7555 6.1916,10.7715 C6.1266,10.7795 6.0876,10.7765 6.0736,10.7595 C6.0466,10.7265 6.0796,10.6645 6.1546,10.5765 C6.2296,10.4895 6.3306,10.4005 6.3826,10.3305 C6.4346,10.2615 6.4156,10.2245 6.4146,10.1715 C6.4146,9.9975 6.4036,9.8235 6.3826,9.6505 C6.3616,9.4825 6.3256,9.3155 6.2756,9.1535 C6.2276,8.9935 6.1566,8.8435 6.0626,8.7055 C5.9926,8.5755 6.0406,8.4135 6.1706,8.3435 C6.2776,8.2855 6.4096,8.3065 6.4926,8.3955 C6.5106,8.4215 6.5246,8.4505 6.5336,8.4815 C6.5806,8.6405 6.6526,8.7915 6.7466,8.9285 C6.8416,9.0705 6.9476,9.2025 7.0656,9.3255 C7.1866,9.4555 7.3166,9.5765 7.4536,9.6895 C7.4906,9.7185 7.5086,9.7545 7.5976,9.7655 C7.6886,9.7755 7.8206,9.7505 7.9326,9.7425 C8.0446,9.7365 8.1146,9.7475 8.1266,9.7955 C8.1286,9.8175 8.1076,9.8495 8.0606,9.8945 C7.9846,9.9635 7.9016,10.0265 7.8136,10.0815 C7.4026,10.3445 6.9586,10.5515 6.4926,10.6975" id="Fill-294" fill="#E44450"></path>
                        <path d="M0.1342,7.2693 C0.1012,7.1713 0.0762,7.0703 0.0592,6.9683 C0.0512,6.9033 0.0562,6.8643 0.0722,6.8503 C0.1052,6.8223 0.1662,6.8563 0.2552,6.9313 C0.3442,7.0063 0.4302,7.1083 0.5062,7.1553 C0.5822,7.2033 0.6132,7.1893 0.6672,7.1893 C0.8442,7.1873 1.0212,7.1753 1.1972,7.1513 C1.3662,7.1293 1.5322,7.0933 1.6952,7.0433 C1.8542,6.9963 2.0052,6.9243 2.1412,6.8313 C2.2592,6.7453 2.4262,6.7713 2.5112,6.8903 C2.5972,7.0083 2.5712,7.1743 2.4522,7.2603 C2.4262,7.2793 2.3972,7.2933 2.3652,7.3013 C2.2062,7.3483 2.0552,7.4203 1.9192,7.5143 C1.7782,7.6083 1.6452,7.7143 1.5222,7.8313 C1.3922,7.9543 1.2712,8.0833 1.1572,8.2203 C1.1302,8.2583 1.0932,8.2753 1.0822,8.3663 C1.0722,8.4563 1.0972,8.5883 1.0982,8.7023 C1.0992,8.8163 1.0942,8.8843 1.0462,8.8953 C1.0252,8.8993 0.9912,8.8783 0.9462,8.8313 C0.8772,8.7533 0.8152,8.6703 0.7602,8.5833 C0.4942,8.1753 0.2832,7.7333 0.1342,7.2693" id="Fill-296" fill="#E44450"></path>
                        <path d="M3.5571,0.9138 C3.6551,0.8798 3.7551,0.8548 3.8571,0.8388 C3.9211,0.8308 3.9611,0.8358 3.9761,0.8518 C4.0021,0.8838 3.9691,0.9458 3.8941,1.0348 C3.8151,1.1088 3.7391,1.1858 3.6671,1.2678 C3.6151,1.3368 3.6341,1.3738 3.6351,1.4268 C3.6371,1.6038 3.6491,1.7808 3.6721,1.9568 C3.6941,2.1248 3.7291,2.2918 3.7791,2.4548 C3.8271,2.6138 3.8991,2.7648 3.9921,2.9018 C4.0931,3.0098 4.0881,3.1788 3.9801,3.2798 C3.8721,3.3808 3.7031,3.3748 3.6021,3.2678 C3.5871,3.2508 3.5741,3.2328 3.5631,3.2128 C3.5441,3.1868 3.5301,3.1578 3.5211,3.1258 C3.4741,2.9668 3.4021,2.8158 3.3081,2.6788 C3.2131,2.5378 3.1071,2.4048 2.9891,2.2818 C2.8651,2.1538 2.7331,2.0338 2.5931,1.9228 C2.5571,1.8938 2.5381,1.8568 2.4491,1.8478 C2.3371,1.8498 2.2251,1.8568 2.1141,1.8698 C2.0011,1.8768 1.9321,1.8638 1.9201,1.8178 C1.9181,1.7948 1.9391,1.7628 1.9851,1.7168 C2.0621,1.6478 2.1451,1.5858 2.2331,1.5308 C2.6441,1.2668 3.0901,1.0598 3.5571,0.9138" id="Fill-298" fill="#E44450"></path>
                        <path d="M9.5234,8.2273 C9.4784,8.3213 9.4234,8.4113 9.3614,8.4953 C9.3224,8.5453 9.2914,8.5703 9.2704,8.5693 C9.2494,8.5673 9.2074,8.4983 9.2034,8.3843 C9.2004,8.2703 9.2054,8.1353 9.1894,8.0503 C9.1814,7.9963 9.1504,7.9473 9.1054,7.9163 C8.9794,7.7923 8.8444,7.6753 8.7044,7.5673 C8.5684,7.4643 8.4254,7.3723 8.2754,7.2923 C8.1304,7.2123 7.9754,7.1553 7.8134,7.1223 C7.6684,7.0893 7.5784,6.9443 7.6114,6.8003 C7.6424,6.6693 7.7654,6.5813 7.8984,6.5933 C7.9304,6.5993 7.9614,6.6103 7.9894,6.6253 C8.1354,6.7033 8.2934,6.7573 8.4564,6.7863 C8.6224,6.8193 8.7924,6.8383 8.9624,6.8423 C9.1394,6.8483 9.3174,6.8423 9.4944,6.8253 C9.5484,6.8293 9.6034,6.8103 9.6444,6.7733 C9.7094,6.7153 9.7914,6.6053 9.8664,6.5233 C9.9404,6.4413 9.9974,6.3983 10.0334,6.4223 C10.0684,6.4453 10.0574,6.4743 10.0574,6.5373 C10.0524,6.6413 10.0384,6.7453 10.0154,6.8463 C9.9144,7.3273 9.7494,7.7913 9.5234,8.2273" id="Fill-300" fill="#E44450"></path>
                        <path d="M2.601,10.2961 C2.508,10.2501 2.418,10.1961 2.335,10.1341 C2.284,10.0931 2.259,10.0631 2.26,10.0411 C2.261,10.0191 2.332,9.9791 2.444,9.9761 C2.557,9.9731 2.693,9.9761 2.778,9.9621 C2.833,9.9561 2.884,9.9281 2.918,9.8851 C3.043,9.7581 3.16,9.6241 3.267,9.4821 C3.368,9.3491 3.458,9.2071 3.536,9.0581 C3.615,8.9131 3.672,8.7551 3.704,8.5921 C3.737,8.4481 3.881,8.3581 4.026,8.3911 C4.157,8.4211 4.246,8.5451 4.233,8.6781 C4.226,8.7101 4.215,8.7411 4.2,8.7691 C4.122,8.9161 4.066,9.0741 4.037,9.2371 C4.004,9.4031 3.986,9.5731 3.981,9.7431 C3.976,9.9201 3.982,10.0981 3.999,10.2751 C3.994,10.3291 4.013,10.3831 4.05,10.4231 C4.108,10.4881 4.218,10.5701 4.3,10.6451 C4.382,10.7201 4.425,10.7781 4.402,10.8141 C4.378,10.8491 4.35,10.8381 4.285,10.8381 C4.181,10.8331 4.077,10.8181 3.976,10.7961 C3.497,10.6911 3.035,10.5231 2.601,10.2961" id="Fill-302" fill="#E44450"></path>
                        <path d="M0.5312,3.3801 C0.5772,3.2871 0.6322,3.1971 0.6932,3.1131 C0.7322,3.0621 0.7642,3.0381 0.7842,3.0381 C0.8052,3.0391 0.8472,3.1091 0.8512,3.2231 C0.8542,3.3371 0.8492,3.4721 0.8652,3.5571 C0.8732,3.6111 0.9042,3.6601 0.9492,3.6911 C1.0752,3.8161 1.2102,3.9321 1.3512,4.0401 C1.4862,4.1441 1.6292,4.2361 1.7802,4.3151 C1.9252,4.3951 2.0822,4.4521 2.2462,4.4841 C2.3932,4.5091 2.4932,4.6481 2.4692,4.7961 C2.4452,4.9431 2.3052,5.0431 2.1582,5.0191 C2.1262,5.0141 2.0952,5.0031 2.0682,4.9861 C1.9212,4.9081 1.7632,4.8531 1.6002,4.8241 C1.4332,4.7911 1.2642,4.7731 1.0942,4.7691 C0.9172,4.7631 0.7392,4.7691 0.5622,4.7861 C0.5072,4.7811 0.4522,4.7991 0.4122,4.8381 C0.3482,4.8951 0.2652,5.0051 0.1922,5.0871 C0.1182,5.1701 0.0592,5.2131 0.0242,5.1901 C-0.0118,5.1671 -0.0008,5.1381 -0.0008,5.0731 C0.0042,4.9691 0.0182,4.8661 0.0412,4.7641 C0.1412,4.2831 0.3062,3.8171 0.5312,3.3801" id="Fill-304" fill="#E44450"></path>
                        <path d="M7.4521,1.3079 C7.5451,1.3549 7.6341,1.4089 7.7181,1.4699 C7.7691,1.5109 7.7941,1.5409 7.7941,1.5629 C7.7941,1.5839 7.7211,1.6249 7.6091,1.6289 C7.4971,1.6329 7.3601,1.6279 7.2751,1.6429 C7.2211,1.6519 7.1721,1.6819 7.1401,1.7279 C7.0161,1.8539 6.8991,1.9889 6.7911,2.1289 C6.6881,2.2639 6.5961,2.4069 6.5151,2.5569 C6.4361,2.7029 6.3791,2.8599 6.3481,3.0239 C6.3231,3.1699 6.1831,3.2679 6.0371,3.2439 C5.8911,3.2179 5.7931,3.0789 5.8181,2.9329 C5.8221,2.9009 5.8331,2.8699 5.8501,2.8419 C5.9291,2.6959 5.9831,2.5369 6.0121,2.3729 C6.0451,2.2069 6.0631,2.0379 6.0681,1.8689 C6.0731,1.6909 6.0671,1.5139 6.0501,1.3369 C6.0551,1.2819 6.0351,1.2279 5.9981,1.1869 C5.9401,1.1229 5.8301,1.0409 5.7481,0.9659 C5.6661,0.8909 5.6221,0.8329 5.6461,0.7969 C5.6691,0.7619 5.6981,0.7729 5.7631,0.7729 C5.8671,0.7789 5.9711,0.7929 6.0721,0.8149 C6.5521,0.9169 7.0161,1.0829 7.4521,1.3079" id="Fill-306" fill="#E44450"></path>
                        <path d="M16.393,7.783 C17.022,9.104 16.461,10.685 15.14,11.314 C13.818,11.944 12.237,11.383 11.608,10.061 C10.979,8.74 11.54,7.159 12.861,6.53 C14.183,5.901 15.764,6.462 16.393,7.783" id="Fill-308" fill="#ECC6C3"></path>
                        <path d="M13.0293,5.781 C13.2063,5.727 13.2783,5.722 13.2993,5.741 C13.3203,5.76 13.2983,5.801 13.2423,5.858 L13.1673,5.937 C13.1423,5.961 13.1203,5.987 13.0993,6.013 C13.0623,6.06 13.0773,6.083 13.0743,6.114 C13.0743,6.228 13.0813,6.343 13.0943,6.458 C13.1083,6.567 13.1323,6.674 13.1643,6.778 C13.1953,6.881 13.2413,6.978 13.3023,7.067 C13.3573,7.144 13.3403,7.252 13.2623,7.307 C13.1853,7.363 13.0773,7.345 13.0223,7.268 C13.0103,7.251 13.0013,7.232 12.9963,7.213 C12.9663,7.11 12.9193,7.012 12.8583,6.924 C12.7973,6.832 12.7283,6.745 12.6513,6.666 C12.5713,6.583 12.4863,6.505 12.3953,6.434 C12.3713,6.417 12.3633,6.39 12.3023,6.39 C12.2683,6.388 12.2343,6.39 12.2003,6.394 L12.0923,6.402 C12.0123,6.409 11.9733,6.4 11.9663,6.372 C11.9593,6.345 12.0133,6.292 12.1673,6.189 C12.4343,6.013 12.7243,5.876 13.0293,5.781" id="Fill-310" fill="#E44450"></path>
                        <path d="M11.0752,7.3733 C11.1612,7.2093 11.2092,7.1543 11.2372,7.1513 C11.2642,7.1483 11.2772,7.1943 11.2792,7.2763 L11.2832,7.3853 C11.2822,7.4193 11.2842,7.4533 11.2892,7.4863 C11.2922,7.5223 11.3122,7.5553 11.3432,7.5753 C11.4222,7.6563 11.5072,7.7323 11.5962,7.8023 C11.6822,7.8693 11.7752,7.9293 11.8712,7.9803 C11.9652,8.0323 12.0672,8.0683 12.1722,8.0883 C12.2662,8.1033 12.3302,8.1913 12.3152,8.2863 C12.3012,8.3803 12.2122,8.4443 12.1182,8.4293 C12.0972,8.4263 12.0772,8.4193 12.0592,8.4083 C11.9652,8.3573 11.8632,8.3223 11.7582,8.3033 C11.6502,8.2823 11.5412,8.2703 11.4312,8.2683 C11.3182,8.2663 11.2042,8.2723 11.0922,8.2853 C11.0552,8.2813 11.0202,8.2933 10.9942,8.3203 C10.9692,8.3423 10.9462,8.3673 10.9262,8.3943 L10.8542,8.4763 C10.8042,8.5383 10.7672,8.5593 10.7422,8.5463 C10.7182,8.5343 10.7182,8.4563 10.7572,8.2723 C10.8212,7.9593 10.9282,7.6573 11.0752,7.3733" id="Fill-312" fill="#E44450"></path>
                        <path d="M15.5302,6.0403 C15.6942,6.1273 15.7482,6.1743 15.7512,6.2023 C15.7542,6.2293 15.7082,6.2433 15.6272,6.2443 L15.5182,6.2483 C15.4842,6.2473 15.4502,6.2493 15.4172,6.2543 C15.3812,6.2583 15.3482,6.2773 15.3282,6.3083 C15.2482,6.3893 15.1732,6.4763 15.1032,6.5673 C15.0362,6.6543 14.9772,6.7463 14.9252,6.8423 C14.8742,6.9363 14.8372,7.0373 14.8172,7.1423 C14.8022,7.2363 14.7132,7.3003 14.6192,7.2863 C14.5252,7.2703 14.4612,7.1823 14.4762,7.0883 C14.4792,7.0673 14.4862,7.0473 14.4972,7.0293 C14.5482,6.9353 14.5832,6.8333 14.6022,6.7273 C14.6232,6.6203 14.6342,6.5113 14.6372,6.4013 C14.6412,6.2873 14.6372,6.1733 14.6262,6.0593 C14.6302,6.0233 14.6172,5.9873 14.5912,5.9613 C14.5692,5.9363 14.5442,5.9143 14.5172,5.8933 L14.4352,5.8213 C14.3732,5.7703 14.3522,5.7353 14.3642,5.7103 C14.3772,5.6853 14.4552,5.6863 14.6382,5.7243 C14.9482,5.7883 15.2492,5.8943 15.5302,6.0403" id="Fill-314" fill="#E44450"></path>
                    </g>
                </g>
            </g>
        </g>
    </g>
</svg>