<svg xmlns="http://www.w3.org/2000/svg" xmlns:xlink="http://www.w3.org/1999/xlink" width="135" height="118" viewBox="0 0 135 118">
    <defs>
        <path id="prefix__a" d="M0 0H135V118H0z"/>
    </defs>
    <g fill="none" fill-rule="evenodd" transform="translate(.093)">
        <mask id="prefix__b" fill="#fff">
            <use xlink:href="#prefix__a"/>
        </mask>
        <use fill="#F0F2DF" xlink:href="#prefix__a"/>
        <g mask="url(#prefix__b)">
            <g fill-rule="nonzero" transform="translate(48.907 20)">
                <path fill="#FFC298" d="M63.89 33l-11.17 6.13c-1.753.937-3.933.29-4.891-1.451-.958-1.742-.338-3.93 1.391-4.909.155-.08.316-.15.48-.21L61.62 28c.893-.405 1.935-.304 2.733.267.797.57 1.23 1.524 1.135 2.5-.096.976-.705 1.828-1.598 2.233z"/>
                <path fill="#FFC298" d="M63.3 43.44l-10.68 3c-1.905.533-3.882-.58-4.415-2.485-.533-1.905.58-3.882 2.485-4.415.178-.043.358-.076.54-.1l11-1.31c1.393-.12 2.65.834 2.908 2.207.258 1.374-.567 2.72-1.908 3.113l.07-.01z"/>
                <path fill="#FFC298" d="M62.12 51.15l-7-1.16 2.57-.46-4.28 2.29c-1.23.654-2.756.276-3.539-.877-.783-1.153-.572-2.71.489-3.613l3.7-3.1c.673-.576 1.595-.765 2.44-.5h.11l6.75 2.14c1.366.421 2.17 1.831 1.836 3.22-.333 1.39-1.688 2.283-3.096 2.04l.02.02zM61.9 58.94l-10.79 1.54c-1.75.249-3.371-.97-3.62-2.72-.249-1.75.97-3.371 2.72-3.62h.28l10.9-.56c1.376.028 2.513 1.083 2.643 2.453.13 1.37-.787 2.62-2.133 2.907z"/>
                <path fill="#F2A572" d="M26.7 36.49s-7 6.08-9.09 10.38c-2.09 4.3-4.19 33-4.19 33l15.74 9.28c1.04-2.91 2.448-5.676 4.19-8.23 2.63-3.67 10.47-6.2 12.42-10.71 1.95-4.51-2.45-27.66-2.36-28.34.09-.68-16.71-5.38-16.71-5.38z"/>
                <path fill="#CC814F" d="M26.59 41.87s-5.3 6.5-5 10.88c.196 2.602.853 5.148 1.94 7.52l5.23-10-2.17-8.4zM32.58 62.29s-.35 9-3.74 12.37c-2.85 3 2.74 11.15.23 14.49h.1c1.046-2.883 2.454-5.622 4.19-8.15 2.63-3.68 10.47-6.21 12.43-10.72.65-1.53.58-5.22.19-9.44l-6.28.56-7.12.89z"/>
                <path fill="#252733" d="M61.52 5.35v60.31c0 2.92-2 5.28-4.35 5.28H31c-2.4 0-4.34-2.36-4.34-5.28V5.35C26.66 2.43 28.6.06 31 .06h26.15c2.42 0 4.37 2.37 4.37 5.29z"/>
                <rect width="31.29" height="55.74" x="28.41" y="8.54" fill="#FFF" rx=".91"/>
                <g>
                    <path fill="#FA7A19" d="M8.694 1.402c1.852-1.862 4.862-1.87 6.724-.019l.064.065c1.789 1.848 1.77 4.797-.055 6.623l-.103.101c-.108-.28-.273-.544-.497-.772-.873-.887-2.299-.9-3.186-.027l-3.252 3.196-.527-.527c-.88-.88-2.306-.88-3.186 0-.226.227-.394.489-.504.769l-2.68-2.68c-1.86-1.86-1.86-4.878 0-6.738l.065-.064C3.402-.448 6.33-.444 8.175 1.352l.05.05.234.235z" transform="translate(36 27)"/>
                    <path fill="#019443" d="M13.863 8.348c.349.355.344.925-.011 1.274L8.37 15.01l-2.738-2.738c-.352-.352-.352-.923 0-1.275.352-.352.922-.352 1.274 0l1.475 1.474 4.207-4.135c.355-.35.926-.344 1.275.01z" transform="translate(36 27)"/>
                </g>
                <path fill="#F2A572" d="M45.58 49.21l-2.53.79-2.54.7c-1.7.46-3.42.9-5.15 1.3l2-.82c-1.833 2.142-3.123 4.694-3.76 7.44-.83 3.237-1.47 6.519-1.92 9.83-.638 4.054-4.441 6.823-8.495 6.185-4.054-.638-6.823-4.441-6.185-8.495.112-.665.307-1.313.58-1.93 1.566-3.591 3.343-7.087 5.32-10.47 1.128-1.868 2.434-3.623 3.9-5.24 1.536-1.709 3.32-3.178 5.29-4.36l.89-.53c.332-.19.708-.29 1.09-.29 1.65-.09 3.31-.22 5-.37l2.5-.21 2.43-.29h.14c1.81-.244 3.502.95 3.88 2.737.378 1.787-.686 3.563-2.44 4.073v-.05zM13.42 79.87L.15 117.09 26.49 117.09 29.17 89.18"/>
            </g>
        </g>
    </g>
</svg>
