<svg xmlns="http://www.w3.org/2000/svg" xmlns:xlink="http://www.w3.org/1999/xlink" width="343" height="100" viewBox="0 0 343 100">
    <defs>
        <path id="prefix__a" d="M0 322L343 322 343 0.255 0 0.255z"/>
        <path id="prefix__c" d="M17.138.142c-.897 0-1.813.072-2.749.212C10.113.997 6.61 3.079 3.933 6.466 1.55 9.483.363 12.859.339 16.543v.18c.002.716.048 1.445.138 2.184.437 3.59 1.904 6.732 4.422 9.324 3.119 3.211 6.311 6.351 9.473 9.521.053.053.119.093.2.155.057-.112.104-.199.144-.289 2.157-4.777 8.298-6.172 12.292-2.772.732.624 1.383 1.342 2.071 2.016.084.083.17.163.265.254.084-.077.154-.135.218-.196.725-.709 1.45-1.417 2.174-2.127 3.032-2.971 6.039-5.969 9.104-8.907 3.968-3.798 10.487-2.456 12.683 2.571.036.083.077.162.127.269 5.295-4.755 7.32-13.77 2.475-21.098-2.518-3.809-6.06-6.246-10.552-7.106-6.271-1.199-11.559.741-15.937 5.344-.106-.099-.195-.178-.28-.261-.409-.399-.799-.821-1.229-1.197C24.896 1.588 21.239.15 17.182.142h-.044z"/>
        <path id="prefix__e" d="M26.006 1.4c-1.087 1.043-2.154 2.104-3.229 3.158-3.728 3.653-7.457 7.305-11.187 10.957-.089.088-.186.169-.33.3-.086-.115-.143-.213-.221-.291-1.452-1.458-2.905-2.915-4.361-4.369-.241-.242-.476-.492-.737-.71-1.496-1.256-3.749-.866-4.746.813-.732 1.235-.55 2.776.49 3.822 3.136 3.153 6.279 6.297 9.422 9.443.042.042.088.08.245.222.58-.619 1.129-1.247 1.724-1.83 3.671-3.61 7.353-7.209 11.032-10.813 2.1-2.059 4.201-4.117 6.297-6.18 1.016-.999 1.305-2.332.782-3.554-.532-1.245-1.68-1.922-2.876-1.922-.805 0-1.631.307-2.305.954z"/>
    </defs>
    <g fill="none" fill-rule="evenodd">
        <path fill="#F0F2DF" d="M0 179.531L343 179.531 343 79.531 0 79.531z" transform="translate(0 -80)"/>
        <g transform="translate(0 -80) translate(0 .745)">
            <path fill="#58595B" d="M129.432 150.42l5.193-13.957 7.894-2.143-8.18 20.042s-2.648 2.443-3.12 1.878c-.47-.565-1.787-5.82-1.787-5.82"/>
            <path fill="#252733" d="M89.21 124.245c-4.147-3.375-6.524-7.639-6.717-14.558v-5.34h6.717v19.898z"/>
            <path fill="#F2A572" d="M89.244 129.437s-1.795 4.232-6.869 5.062c-2.038 4.548.257 12.366.257 12.366l8.41 5.432s22.61-8.403 22.693-9.395c.082-.992-7.714-8.458-7.714-8.458s-4.997.505-4.997-3.388c0-3.892-11.78-1.62-11.78-1.62"/>
            <path fill="#252733" d="M98.23 89.358c-8.615 0-15.599 6.984-15.599 15.599s6.984 15.599 15.6 15.599c8.615 0 15.6-6.984 15.6-15.6 0-8.614-6.986-15.598-15.6-15.598"/>
            <mask id="prefix__b" fill="#fff">
                <use xlink:href="#prefix__a"/>
            </mask>
            <path fill="#F2A572" d="M89.183 132.689L101.025 132.689 101.025 115.625 89.183 115.625z" mask="url(#prefix__b)"/>
            <path fill="#CF804B" d="M92.867 122.899c0 4.505 3.652 8.157 8.157 8.157v-10.448h-8.157v2.29z" mask="url(#prefix__b)"/>
            <path fill="#F2A572" d="M100.321 94.468c-6.283.03-11.353 5.148-11.322 11.432l.05 10.228c.028 6.283 9.917 11.323 13.991 11.323 1.86 0 8.762-3.974 8.762-12.072l-.048-9.588c-.03-6.283-5.149-11.353-11.433-11.323" mask="url(#prefix__b)"/>
            <path fill="#332938" d="M106.314 115.676c-.322 0-.584.262-.584.584 0 .36-.269.653-.598.653h-.668c-.322 0-.584.262-.584.583 0 .323.263.584.585.584h.667c.974 0 1.765-.816 1.765-1.82 0-.322-.262-.584-.584-.584" mask="url(#prefix__b)"/>
            <path fill="#252733" d="M88.998 113.67c1.129 0 2.044-.915 2.044-2.043v-9.205h-2.403l.359 11.248z" mask="url(#prefix__b)"/>
            <path fill="#F2A572" d="M87.343 109.006l-.375.001c-1 .004-1.806.817-1.802 1.816l.016 4.132c.005 1.268 1.036 2.292 2.304 2.287l1.697-.006-.025-6.428c-.003-.999-.816-1.806-1.815-1.802" mask="url(#prefix__b)"/>
            <path fill="#332938" d="M108.978 110.857c-.45 0-.813.502-.813 1.12 0 .62.363 1.122.813 1.122.45 0 .816-.502.816-1.121 0-.62-.365-1.121-.816-1.121M100.541 110.921c-.424 0-.768.473-.768 1.056 0 .584.344 1.056.768 1.056.424 0 .768-.472.768-1.055 0-.584-.344-1.056-.768-1.056" mask="url(#prefix__b)"/>
            <path fill="#252733" d="M102.144 92.014c-9.25-8.9-18.49 11.172-12.366 13.453 0 0 21.616-4.553 12.366-13.453" mask="url(#prefix__b)"/>
            <path fill="#252733" d="M103.456 93.347s3.341 9.516 8.686 11.337c3.77 1.285-6.287-15.944-8.686-11.337" mask="url(#prefix__b)"/>
            <path fill="#F9D4A1" d="M87.45 116.052c-.658 0-1.19.533-1.19 1.19 0 .657.532 1.19 1.19 1.19.655 0 1.188-.533 1.188-1.19 0-.657-.533-1.19-1.189-1.19" mask="url(#prefix__b)"/>
            <path fill="#332938" d="M106.749 108.647c-.186 0-.381-.208-.476-.382-.252-.462-.039-.844.21-.965.125-.061 3.121-1.186 5.669-.436.265.078.416.356.339.62-.078.266-.356.417-.621.339-2.182-.641-4.844.748-4.871.762-.07.034-.177.062-.25.062M103.335 108.647c-.077 0-.609-.237-.683-.275-.039-.02-3.461-1.886-6.476-.57-.254.11-.548-.006-.658-.26-.111-.251.005-.546.257-.656 3.458-1.508 7.734.264 7.911.356.431.183.371.742.245.987-.089.17-.238.418-.596.418" mask="url(#prefix__b)"/>
            <path fill="#252733" d="M91.042 108.825s-.139-3.252 1.825-4.167c1.964-.914-.285-1.844-.401-1.883-.116-.039-2.056 1.28-2.056 1.28l.632 4.77zM89.453 101.85c0 4.683-3.796 8.479-8.479 8.479-4.682 0-8.478-3.796-8.478-8.48 0-4.682 3.796-8.477 8.478-8.477 4.683 0 8.48 3.795 8.48 8.478" mask="url(#prefix__b)"/>
            <path fill="#FFF" d="M104.86 122.135c-1.714 0-3.358-.975-3.358-2.295l6.578-.07c0 1.322-1.9 2.365-3.22 2.365" mask="url(#prefix__b)"/>
            <path fill="#39B3DA" d="M106.022 134.444c-.194.182 9.204 8.302-.634 10.307-9.837 2.006-20.55-11.082-20.55-11.082s-13.959 3.333-10.38 14.349l8.174-1.153 15.599 23.844s17.56-1.883 17.654-2.165c.094-.283 5.837-8.286 5.837-8.286s-.188-2.918-2.26-6.967c-2.07-4.049-6.45-13.591-13.44-18.847" mask="url(#prefix__b)"/>
            <path fill="#39B3DA" d="M106.022 134.444s2.103-1.538 4.9 1.146c2.797 2.683 16.975 18.958 16.975 18.958s-4.15 12.395-4.29 11.548c-.142-.848-10.665-24.242-10.665-24.242l-6.92-7.41z" mask="url(#prefix__b)"/>
            <path fill="#39B3DA" d="M125.583 170.71s9.039 5.836 12.429 6.12l16.9-4.238s5.952-2.542 13.027 12.146c0 0 13.289 1.412 13.289 16.1l11.298 16.665s-7.343 16.383-12.711 31.636l-20.996 1.694s-1.977-27.116 2.637-44.628l-20.338.565s-31.014-8.96-31.324-11.4c-.311-2.44-10.163-20.236-8.485-20.8 1.677-.566 18.531-8.397 20.414-8.436 1.883-.038 3.86 4.575 3.86 4.575" mask="url(#prefix__b)"/>
            <path fill="#2B99CE" d="M84.532 144.751s16.775 16.213 18.172 18.661c1.396 2.448 19.084-7.222 20.478-4.979 1.394 2.242-15.546 16.701-18.34 17.455-2.797.753-12.802-11.11-12.802-11.11l-7.508-20.027z" mask="url(#prefix__b)"/>
            <path fill="#2B99CE" d="M114.491 144.17s4.436 2.38 7.058 4.315c2.622 1.935 1.714 8.43 1.633 9.949l2.496-6.244s-12.878-13.956-17.113-15.47c1.624 2.33 1.23 3.248 5.926 7.45M138.012 176.83l-12.522 4.13-20.101-1.734s2.804-4.657 3.59-5.033c.787-.377 3.61.188 12.744 1.13 9.133.941 16.289 1.506 16.289 1.506" mask="url(#prefix__b)"/>
            <path fill="#263138" d="M75.12 151.06s-11.834-3.11-9.017 14.993c2.817 18.104 10.706 73.83 10.706 73.83h81.493l1.437-8.769 1.597-24.893-20.286.566s-8.735-27.439-20.569-27.439l-25.332-.244-20.03-28.044z" mask="url(#prefix__b)"/>
            <path fill="#39B3DA" d="M79.246 136.083s-13.09 6.022 1.018 23.313l12.315 17.999s7.92 7.626 18.344 0c10.424-7.627 16.496-12.146 16.496-12.146l-4.236-6.815S100.26 170.05 100.4 169.627c.142-.424-12.597-21.69-12.597-21.69s-3.203-12.21-8.557-11.854" mask="url(#prefix__b)"/>
            <path fill="#231F20" d="M131.1 150.03l4.687-12.48 7.25-2.712-8.18 20.042s-2.648 2.443-3.12 1.878c-.47-.565-.636-6.728-.636-6.728" mask="url(#prefix__b)"/>
            <path fill="#F2A572" d="M123.183 158.433l2.495-6.244s1.13-1.579 3.013-2.122c1.883-.543 3.578-2.143 4.802-2.426 1.223-.282 1.412.283.564 1.507 0 0 1.884-1.695 3.39-2.919 1.507-1.224 2.354.66.565 2.636-1.79 1.978-1.318 1.202-1.318 1.202s.753 1.906-.66 3.694c0 0 1.037 1.13.095 2.543 0 0 1.035 1.412.094 3.012-.941 1.601-5.555 5.367-8.804 5.932l-4.236-6.815z" mask="url(#prefix__b)"/>
            <path fill="#404041" d="M134.605 136.398L135.786 137.551 143.036 134.838 141.855 133.685z" mask="url(#prefix__b)"/>
        </g>
        <g transform="translate(0 -80) translate(186 104.745)">
            <mask id="prefix__d" fill="#fff">
                <use xlink:href="#prefix__c"/>
            </mask>
            <path fill="#F8941C" d="M-2.047 -2.293L61.307 -2.21 61.252 40.378 -2.103 40.295z" mask="url(#prefix__d)"/>
        </g>
        <g transform="translate(0 -80) translate(204 132.745)">
            <mask id="prefix__f" fill="#fff">
                <use xlink:href="#prefix__e"/>
            </mask>
            <path fill="#00953F" d="M-1.64 -2.004L33.86 -1.958 33.822 27.183 -1.678 27.137z" mask="url(#prefix__f)"/>
        </g>
    </g>
</svg>
