<?xml version="1.0" encoding="UTF-8"?>
<svg width="67px" height="58px" viewBox="0 0 67 58" version="1.1" xmlns="http://www.w3.org/2000/svg" xmlns:xlink="http://www.w3.org/1999/xlink">
    <!-- Generator: Sketch 64 (93537) - https://sketch.com -->
    <title>Group 51</title>
    <desc>Created with Sketch.</desc>
    <g id="Version-2.0-Final" stroke="none" stroke-width="1" fill="none" fill-rule="evenodd">
        <g id="03_MediaTab_Banner" transform="translate(-277.000000, -125.000000)">
            <g id="Group-55" transform="translate(16.000000, 104.000000)">
                <g id="Group-54" transform="translate(15.000000, 18.000000)">
                    <g id="Group-51" transform="translate(278.500000, 32.000000) scale(-1, 1) translate(-278.500000, -32.000000) translate(244.000000, 2.000000)">
                        <g id="Group-50">
                            <g id="Group-38" transform="translate(38.117647, 30.000000) rotate(-90.000000) translate(-38.117647, -30.000000) translate(8.117647, 0.000000)">
                                <path d="M14.8235294,9.17647059 L17.9173512,9.17647059 L17.9173512,9.17647059 L45.1764706,9.17647059 C48.2952551,9.17647059 50.8235294,11.7047449 50.8235294,14.8235294 L50.8235294,45.1764706 C50.8235294,48.2952551 48.2952551,50.8235294 45.1764706,50.8235294 L14.8235294,50.8235294 C11.7047449,50.8235294 9.17647059,48.2952551 9.17647059,45.1764706 L9.17647059,26.5507258 L9.17647059,26.5507258 L9.17647059,20.2179688 L9.17647059,15.4628191" id="Rectangle" stroke-opacity="0.287013767" stroke="#FFFFFF" stroke-width="2.11764706" stroke-linecap="round" transform="translate(30.000000, 30.000000) rotate(-315.000000) translate(-30.000000, -30.000000) "></path>
                                <circle id="Oval-Copy" fill="#F3797C" cx="24.7058824" cy="30" r="2.11764706"></circle>
                                <circle id="Oval-Copy-2" fill="#F3797C" cx="48" cy="30" r="2.11764706"></circle>
                                <circle id="Oval-Copy-3" fill="#F3797C" cx="14.1176471" cy="30" r="2.11764706"></circle>
                                <circle id="Oval-Copy-4" fill="#F3797C" cx="35.6470588" cy="30" r="2.11764706"></circle>
                                <circle id="Oval-Copy-5" fill="#F3797C" cx="24.7058824" cy="39.1764706" r="2.11764706"></circle>
                                <circle id="Oval-Copy-6" fill="#F3797C" cx="35.6470588" cy="39.1764706" r="2.11764706"></circle>
                                <circle id="Oval-Copy-7" fill="#F3797C" cx="30.3529412" cy="47.6470588" r="2.11764706"></circle>
                            </g>
                            <circle id="Oval" fill="#50E3C2" cx="2.11764706" cy="30" r="2.11764706"></circle>
                        </g>
                        <g id="lock" transform="translate(21.882353, 21.529412)" fill="#F3797C" fill-rule="nonzero">
                            <path d="M9.26470588,5.29411765 L8.82352941,5.29411765 L8.82352941,3.52941176 C8.82352941,1.58289292 7.24063649,0 5.29411765,0 C3.34759881,0 1.76470588,1.58289292 1.76470588,3.52941176 L1.76470588,5.29411765 L1.32352941,5.29411765 C0.594123392,5.29411765 0,5.8875948 0,6.61764706 L0,12.7941176 C0,13.5241699 0.594123392,14.1176471 1.32352941,14.1176471 L9.26470588,14.1176471 C9.9941119,14.1176471 10.5882353,13.5241699 10.5882353,12.7941176 L10.5882353,6.61764706 C10.5882353,5.8875948 9.9941119,5.29411765 9.26470588,5.29411765 Z M2.94121238,3.52941176 C2.94121238,2.23173254 3.99643842,1.1765065 5.29411765,1.1765065 C6.59179688,1.1765065 7.64702291,2.23173254 7.64702291,3.52941176 L7.64702291,5.29411765 L2.94121238,5.29411765 L2.94121238,3.52941176 Z" id="Shape"></path>
                        </g>
                    </g>
                </g>
            </g>
        </g>
    </g>
</svg>