<?xml version="1.0" encoding="UTF-8"?>
<svg width="76px" height="56px" viewBox="0 0 76 56" version="1.1" xmlns="http://www.w3.org/2000/svg" xmlns:xlink="http://www.w3.org/1999/xlink">
    <!-- Generator: Sketch 64 (93537) - https://sketch.com -->
    <title>Logo</title>
    <desc>Created with Sketch.</desc>
    <g id="Page-1" stroke="none" stroke-width="1" fill="none" fill-rule="evenodd">
        <g id="Home_FAQs" transform="translate(-150.000000, -518.000000)" fill-rule="nonzero">
            <g id="Logo" transform="translate(150.000000, 518.000000)">
                <g>
                    <path d="M2.68519759,53.1446752 L2.97789685,51.8847957 L5.07769591,51.8847957 L5.37039518,53.1446752 L8.05559277,53.1446752 L5.99397187,45.1908908 L2.0616209,45.1908908 L0,53.1446752 L2.68519759,53.1446752 Z M4.60683188,49.861353 L3.43603483,49.861353 L3.95780308,47.6342934 L4.09778969,47.6342934 L4.60683188,49.861353 Z M10.4035499,53.335566 C10.7810895,53.335566 11.1819603,53.2549676 11.6061621,53.0937709 C12.0303639,52.9325742 12.3654834,52.7077473 12.6115204,52.41929 L12.6115204,52.41929 L13.3369056,53.1446752 L14.6095111,53.1446752 L14.6095111,48.6905559 C14.6095111,47.2906899 13.5914267,46.5907569 11.5552579,46.5907569 C10.4438491,46.5907569 9.46394284,46.7222594 8.61553918,46.9852646 L8.61553918,46.9852646 L8.9209645,48.8050904 C9.60817147,48.5760214 10.431123,48.4614869 11.3898192,48.4614869 C11.5679839,48.4614869 11.7928109,48.469971 12.0643001,48.486939 L12.0643001,48.486939 L12.0643001,48.945077 L11.5552579,48.945077 C9.24759991,48.945077 8.09377093,49.7086403 8.09377093,51.2357669 C8.09377093,52.0672025 8.33556597,52.635633 8.81915606,52.9410583 C9.03974101,53.0852869 9.26456798,53.1870953 9.49363697,53.2464836 C9.72270596,53.3058718 10.0260103,53.335566 10.4035499,53.335566 Z M11.1862023,51.477562 L10.664434,51.477562 L10.664434,50.9557937 C10.664434,50.7267247 10.7344273,50.5803751 10.8744139,50.5167448 C11.0144005,50.4531145 11.2371065,50.4212994 11.5425318,50.4212994 L11.5425318,50.4212994 L12.0643001,50.4212994 L12.0643001,51.019424 C12.0643001,51.1551686 12.0112748,51.265461 11.9052244,51.3503014 C11.7991739,51.4351418 11.5594999,51.477562 11.1862023,51.477562 L11.1862023,51.477562 Z M18.300067,53.1446752 L18.300067,49.5050234 C18.4188435,49.3607948 18.6415495,49.2420183 18.9681849,49.1486939 C19.2948203,49.0553695 19.5599464,49.0044653 19.7635633,48.9959812 L19.7635633,48.9959812 L19.6108506,46.5907569 C18.8557714,46.7349855 18.2279527,47.0361688 17.7273945,47.4943068 L17.7273945,47.4943068 L17.0274615,46.7816477 L15.754856,46.7816477 L15.754856,53.1446752 L18.300067,53.1446752 Z M23.64501,53.335566 C24.8327752,53.335566 25.6917839,53.0577138 26.2220362,52.5020094 C26.7522885,51.946305 27.0174146,51.1000223 27.0174146,49.9631614 C27.0174146,48.8263005 26.7522885,47.9800179 26.2220362,47.4243135 C25.6917839,46.8686091 24.8327752,46.5907569 23.64501,46.5907569 C22.4572449,46.5907569 21.5982362,46.8686091 21.0679839,47.4243135 C20.5377316,47.9800179 20.2726055,48.8263005 20.2726055,49.9631614 C20.2726055,51.1000223 20.5356106,51.948426 21.0616209,52.5083724 C21.5961152,53.0598348 22.4572449,53.335566 23.64501,53.335566 Z M23.403215,51.477562 L23.0087073,51.477562 L23.0087073,48.9832552 C23.0087073,48.7541862 23.0787006,48.6078366 23.2186872,48.5442063 C23.3586738,48.480576 23.5813798,48.4487609 23.8868051,48.4487609 L23.8868051,48.4487609 L24.2813128,48.4487609 L24.2813128,50.9430676 C24.2813128,51.1721366 24.2113195,51.3184863 24.0713329,51.3821165 C23.9313463,51.4457468 23.7086403,51.477562 23.403215,51.477562 L23.403215,51.477562 Z M30.4343603,55.2444742 C31.270038,55.2444742 31.9339138,55.1808439 32.4259879,55.0535834 C33.4186202,54.8075463 33.9149364,54.1712436 33.9149364,53.1446752 C33.9149364,52.5423086 33.7261666,52.1287118 33.3486269,51.9038848 C32.9710873,51.6790578 32.3241795,51.5411922 31.4079035,51.490288 L31.4079035,51.490288 L31.4588078,51.1848627 C32.3156955,51.1169904 32.911699,50.9197365 33.2468185,50.5931011 C33.5819379,50.2664657 33.7494977,49.7680286 33.7494977,49.0977897 C33.7494977,48.6311677 33.6943514,48.249386 33.5840589,47.9524447 L33.5840589,47.9524447 L34.3094441,47.0997991 L32.9732083,45.8144675 L31.8660415,46.6671132 C31.5521322,46.616209 31.1915606,46.5907569 30.7843269,46.5907569 C29.65595,46.5907569 28.8414825,46.7774057 28.3409243,47.1507033 C27.8403662,47.5240009 27.5900871,48.0818263 27.5900871,48.8241795 C27.5900871,49.5665327 27.7491628,50.1116321 28.0673141,50.4594776 C28.3854655,50.8073231 28.8499665,51.0363921 29.4608171,51.1466845 L29.4608171,51.1466845 L29.0790355,52.2411253 C29.0790355,52.3174816 29.0853985,52.3768698 29.0981246,52.41929 C29.1108506,52.4617102 29.1532708,52.5147354 29.2253851,52.5783657 C29.2974994,52.641996 29.4502121,52.7056263 29.6835231,52.7692565 C29.9168341,52.8328868 30.4110292,52.8647019 31.1661085,52.8647019 L31.1661085,52.8647019 L31.1661085,53.3101139 C31.047332,53.3270819 30.8437151,53.335566 30.5552579,53.335566 C29.5880777,53.335566 28.7439161,53.2125474 28.0227729,52.9665104 L28.0227729,52.9665104 L27.6918955,54.8626926 C28.6845278,55.1172137 29.5986827,55.2444742 30.4343603,55.2444742 Z M30.3770931,49.64501 L29.9825854,49.64501 L29.9825854,48.8178165 C29.9825854,48.5887475 30.0525787,48.4423979 30.1925653,48.3787676 C30.3325519,48.3151373 30.5552579,48.2833222 30.8606832,48.2833222 L30.8606832,48.2833222 L31.2551909,48.2833222 L31.2551909,49.1105157 C31.2551909,49.3395847 31.1851976,49.4859344 31.045211,49.5495646 C30.9052244,49.6131949 30.6825184,49.64501 30.3770931,49.64501 L30.3770931,49.64501 Z M36.8164769,55.2444742 C37.4867158,55.2444742 38,55.1023666 38.3563295,54.8181514 C38.7126591,54.5339361 39.0096004,53.9761107 39.2471534,53.1446752 L39.2471534,53.1446752 L40.8379102,46.7816477 L38.2926993,46.7816477 L37.5927662,50.9176155 L37.4655057,50.9176155 L36.7655727,46.7816477 L34.2203617,46.7816477 L35.6456798,52.4829203 L36.9819156,52.4829203 L36.9946417,52.5592766 C36.9267694,52.6950212 36.841929,52.8095557 36.7401206,52.9028801 C36.5534718,53.0725608 36.154722,53.2252735 35.5438714,53.3610181 L35.5438714,53.3610181 L34.3476222,53.5900871 L34.3476222,55.2444742 L36.8164769,55.2444742 Z M43.33858,53.335566 C43.7161197,53.335566 44.1169904,53.2549676 44.5411922,53.0937709 C44.9653941,52.9325742 45.3005135,52.7077473 45.5465506,52.41929 L45.5465506,52.41929 L46.2719357,53.1446752 L47.5445412,53.1446752 L47.5445412,48.6905559 C47.5445412,47.2906899 46.5264568,46.5907569 44.490288,46.5907569 C43.3788792,46.5907569 42.398973,46.7222594 41.5505693,46.9852646 L41.5505693,46.9852646 L41.8559946,48.8050904 C42.5432016,48.5760214 43.3661532,48.4614869 44.3248493,48.4614869 C44.5030141,48.4614869 44.727841,48.469971 44.9993302,48.486939 L44.9993302,48.486939 L44.9993302,48.945077 L44.490288,48.945077 C42.1826301,48.945077 41.0288011,49.7086403 41.0288011,51.2357669 C41.0288011,52.0672025 41.2705961,52.635633 41.7541862,52.9410583 C41.9747712,53.0852869 42.1995981,53.1870953 42.4286671,53.2464836 C42.6577361,53.3058718 42.9610404,53.335566 43.33858,53.335566 Z M44.1212324,51.477562 L43.5994642,51.477562 L43.5994642,50.9557937 C43.5994642,50.7267247 43.6694575,50.5803751 43.8094441,50.5167448 C43.9494307,50.4531145 44.1721366,50.4212994 44.477562,50.4212994 L44.477562,50.4212994 L44.9993302,50.4212994 L44.9993302,51.019424 C44.9993302,51.1551686 44.946305,51.265461 44.8402545,51.3503014 C44.7342041,51.4351418 44.49453,51.477562 44.1212324,51.477562 L44.1212324,51.477562 Z M53.3476222,53.335566 C53.8057602,53.335566 54.1726948,53.3249609 54.448426,53.3037508 C54.7241572,53.2825407 55.0444296,53.2210315 55.4092431,53.119223 C55.7740567,53.0174146 56.0561509,52.871065 56.2555258,52.6801741 C56.4549006,52.4892833 56.6267024,52.2093101 56.770931,51.8402545 C56.9151596,51.4711989 56.9872739,51.019424 56.9872739,50.4849297 C56.9872739,49.7383344 56.775173,49.1550569 56.3509712,48.7350971 C55.9267694,48.3151373 55.1589641,48.0500112 54.0475553,47.9397187 L54.0475553,47.9397187 L53.1312793,47.8506363 L53.1312793,47.2270596 C53.4621567,47.1846394 53.8651485,47.1634293 54.3402545,47.1634293 C54.8153606,47.1634293 55.4474213,47.2270596 56.2364367,47.3543202 L56.2364367,47.3543202 L56.5545881,45.3181514 C55.6467962,45.1060505 54.6287118,45 53.5003349,45 C52.371958,45 51.5723376,45.2036169 51.1014735,45.6108506 C50.6306095,46.0180844 50.3951775,46.7646796 50.3951775,47.8506363 C50.3951775,48.6396517 50.5881893,49.2356553 50.974213,49.638647 C51.3602367,50.0416388 52.0707747,50.2897968 53.1058272,50.3831212 L53.1058272,50.3831212 L54.2511721,50.4849297 L54.2511721,51.1212324 C53.8693905,51.1721366 53.3667113,51.1975887 52.7431346,51.1975887 C52.1195579,51.1975887 51.4175039,51.1000223 50.6369725,50.9048895 L50.6369725,50.9048895 L50.280643,53.0046885 C51.2223711,53.2252735 52.2446975,53.335566 53.3476222,53.335566 Z M61.0596115,53.335566 C61.9928555,53.335566 62.9345836,53.2083054 63.8847957,52.9537843 L63.8847957,52.9537843 L63.5793704,51.0830543 C62.7733869,51.3375754 61.9758875,51.4648359 61.1868721,51.4648359 C60.932351,51.4648359 60.6778299,51.4521098 60.4233088,51.4266577 L60.4233088,51.4266577 L60.4233088,50.9812458 C61.8486269,50.9812458 62.8306542,50.8179281 63.3693905,50.4912927 C63.9081268,50.1646573 64.177495,49.628042 64.177495,48.8814468 C64.177495,47.9991069 63.952668,47.3967403 63.5030141,47.074347 C63.0533601,46.7519536 62.2367716,46.5907569 61.0532485,46.5907569 C59.8697254,46.5907569 59.0128377,46.8686091 58.4825854,47.4243135 C57.9523331,47.9800179 57.687207,48.8263005 57.687207,49.9631614 C57.687207,51.1000223 57.9523331,51.946305 58.4825854,52.5020094 C59.0128377,53.0577138 59.8718464,53.335566 61.0596115,53.335566 Z M60.945077,49.5050234 L60.4233088,49.5050234 L60.4233088,48.9832552 C60.4233088,48.7541862 60.4933021,48.6078366 60.6332887,48.5442063 C60.7732753,48.480576 60.9959812,48.4487609 61.3014066,48.4487609 L61.3014066,48.4487609 L61.8231748,48.4487609 L61.8231748,48.9705291 C61.8231748,49.1995981 61.7531815,49.3459478 61.6131949,49.409578 C61.4732083,49.4732083 61.2505023,49.5050234 60.945077,49.5050234 L60.945077,49.5050234 Z M68.5679839,53.2846618 L68.6825184,51.4139317 C68.4025452,51.3969636 68.1522661,51.3672695 67.9316812,51.3248493 L67.9316812,51.3248493 L67.9316812,48.4233088 L68.809779,48.4233088 L68.809779,46.7816477 L67.9316812,46.7816477 L67.9316812,45.1272605 L65.3864702,45.7635633 L65.3864702,46.7816477 L64.7501674,46.7816477 L64.7501674,48.4233088 L65.3864702,48.4233088 L65.3864702,51.948426 C65.3864702,52.1520429 65.4204063,52.3302076 65.4882786,52.4829203 C65.5985711,52.7374414 65.8700603,52.9410583 66.3027461,53.0937709 C66.6505916,53.2210315 67.4056709,53.2846618 68.5679839,53.2846618 L68.5679839,53.2846618 Z M71.8131279,53.335566 C72.754856,53.335566 73.4802411,53.0301407 73.9892833,52.41929 L73.9892833,52.41929 L74.7273945,53.1446752 L76,53.1446752 L76,46.7816477 L73.454789,46.7816477 L73.454789,50.9430676 C73.454789,51.1721366 73.3847957,51.3184863 73.2448091,51.3821165 C73.1048225,51.4457468 72.8821165,51.477562 72.5766912,51.477562 L72.5766912,51.477562 L72.1821835,51.477562 L72.1821835,46.7816477 L69.6369725,46.7816477 L69.6369725,51.2357669 C69.6369725,51.9908462 69.8108953,52.5295825 70.1587408,52.8519759 C70.5065863,53.1743693 71.0580487,53.335566 71.8131279,53.335566 Z" id="AarogyaSetu" fill="#292B76"></path>
                    <g id="Group-29-Copy" transform="translate(21.000000, 0.000000)">
                        <path d="M17.3513946,2.82886896 C21.0885147,-0.928553279 27.1640416,-0.945011441 30.9214639,2.79210863 L30.9214639,2.79210863 L31.0504118,2.92281254 C34.6614801,6.6529065 34.6246324,12.6041943 30.9398689,16.2889578 L30.9398689,16.2889578 L30.731796,16.4923667 C30.5148254,15.9264695 30.180497,15.3949548 29.7284923,14.9351705 C27.968109,13.144489 25.0894263,13.1198517 23.2986521,14.8801406 L16.7356262,21.3312545 L15.6721449,20.2681322 C13.8963764,18.4927758 11.0176724,18.4929429 9.24210992,20.2685053 C8.78560469,20.7250105 8.44646486,21.2544373 8.22469043,21.81929 L2.81664236,16.4104163 C-0.938880788,12.6548931 -0.938880788,6.56598705 2.81664236,2.8104639 L2.81664236,2.8104639 L2.94719266,2.68234381 C6.67022079,-0.903599971 12.5798454,-0.896254671 16.3032557,2.7280167 L16.3032557,2.7280167 L16.4050948,2.828847 L16.8780251,3.30432231 Z" id="Combined-Shape" fill="#FA7A19"></path>
                        <path d="M27.7830714,16.8476749 C28.4872361,17.5639591 28.4774113,18.7154604 27.7611271,19.4196251 L16.6975589,30.2959981 L11.1711428,24.769582 C10.4608925,24.0593317 10.4608925,22.9077885 11.1711428,22.1975382 C11.8814172,21.4872638 13.032979,21.4871969 13.7433359,22.1973889 L16.7193977,25.1727601 L25.211054,16.8256623 C25.9273863,16.1215245 27.0788958,16.1313797 27.7830714,16.8476749 Z" id="Path" fill="#019443"></path>
                    </g>
                </g>
            </g>
        </g>
    </g>
</svg>