<?xml version="1.0" encoding="UTF-8"?>
<svg width="81px" height="80px" viewBox="0 0 81 80" version="1.1" xmlns="http://www.w3.org/2000/svg" xmlns:xlink="http://www.w3.org/1999/xlink">
    <title>SadFace</title>
    <g id="All-states" stroke="none" stroke-width="1" fill="none" fill-rule="evenodd">
        <g id="03_Exit-App" transform="translate(-147.000000, -128.000000)" fill-rule="nonzero">
            <g id="Group-2" transform="translate(16.000000, 128.000000)">
                <g id="SadFace" transform="translate(131.000000, 0.000000)">
                    <path d="M67.6734371,10.6723787 C75.5580497,17.9831396 80.5,28.4254427 80.5,40 C80.5,62.055625 62.555625,80 40.5,80 C26.705523,80 14.5192666,72.9805986 7.32560145,62.3261664 C14.4649293,68.9471322 24.0181868,73 34.5,73 C56.555625,73 74.5,55.055625 74.5,33 C74.5,24.8394188 72.0434151,17.2416676 67.8309345,10.9074359 Z" id="Combined-Shape" fill="#D7E7FF"></path>
                    <path d="M40.5,0 C62.555625,0 80.5,17.944375 80.5,40 C80.5,62.055625 62.555625,80 40.5,80 C18.444375,80 0.5,62.055625 0.5,40 C0.5,17.944375 18.444375,0 40.5,0 Z M40.5,3.33328125 C20.281875,3.33328125 3.83328125,19.781875 3.83328125,40 C3.83328125,60.218125 20.281875,76.6667187 40.5,76.6667187 C60.718125,76.6667187 77.1667187,60.218125 77.1667187,40 C77.1667187,19.781875 60.718125,3.33328125 40.5,3.33328125 Z M25.4997891,28.5 C27.9850704,28.5 29.9997891,30.5147186 29.9997891,33 C29.9997891,35.4852814 27.9850704,37.5 25.4997891,37.5 C23.0145077,37.5 20.9997891,35.4852814 20.9997891,33 C20.9997891,30.5147186 23.0145077,28.5 25.4997891,28.5 Z M55.5002109,28.5 C57.9854923,28.5 60.0002109,30.5147186 60.0002109,33 C60.0002109,35.4852814 57.9854923,37.5 55.5002109,37.5 C53.0149296,37.5 51.0002109,35.4852814 51.0002109,33 C51.0002109,30.5147186 53.0149296,28.5 55.5002109,28.5 Z" id="Combined-Shape" fill="#242833"></path>
                    <path d="M49.9625,49.5140625 C47.2807813,48.6453125 44.155625,48.0003125 40.5,48 C40.5,48 40.4984375,48 40.4951563,48 C28.2815625,48 21.2796875,54.8635938 20.9882813,55.155 C20.3389063,55.804375 20.3389063,56.8557813 20.9867188,57.506875 C21.3121875,57.8340625 21.7403125,57.9967188 22.1684375,57.9967188 C22.5915625,57.9967188 23.0164063,57.8371875 23.341875,57.515 C23.4053125,57.453125 29.7171875,51.3332813 40.4951563,51.3332813 L40.5,51.3332813 C51.28125,51.3348438 57.5964063,57.453125 57.6582813,57.515 C58.3142188,58.1610938 59.365625,58.1579688 60.0134375,57.506875 C60.66125,56.8557813 60.66125,55.804375 60.011875,55.155 C59.848125,54.9904687 57.4959375,52.7626562 53.3578125,50.8325 L49.9625,49.5140625 Z" id="Shape" fill="#242833"></path>
                </g>
            </g>
        </g>
    </g>
</svg>