<svg xmlns="http://www.w3.org/2000/svg" xmlns:xlink="http://www.w3.org/1999/xlink" width="343" height="100" viewBox="0 0 343 100">
    <defs>
        <path id="prefix__a" d="M1 345L344 345 344 0.105 1 0.105z"/>
    </defs>
    <g fill="none" fill-rule="evenodd">
        <path fill="#F0F2DF" d="M1 101L344 101 344 1 1 1z" transform="translate(-1 -1)"/>
        <g transform="translate(-1 -1) translate(0 .895)">
            <path fill="#252733" d="M79.147 59.968c-5.223-4.256-8.212-9.63-8.448-18.347l.007-6.727 8.462.007-.022 25.067z"/>
            <path fill="#F2A572" d="M79.184 66.508s-2.266 5.33-8.66 6.369c-2.572 5.727.31 15.58.31 15.58l10.59 6.852s28.493-10.562 28.598-11.812c.105-1.25-9.707-10.663-9.707-10.663s-6.297.63-6.292-4.274c.004-4.903-14.84-2.052-14.84-2.052"/>
            <path fill="#252733" d="M90.547 16.027c-10.853-.01-19.659 8.782-19.668 19.635C70.87 46.515 79.66 55.32 90.514 55.33c10.853.01 19.658-8.782 19.668-19.635.01-10.853-8.78-19.66-19.635-19.668"/>
            <path fill="#F2A572" d="M79.103 70.604L94.02 70.617 94.04 49.12 79.121 49.107z"/>
            <path fill="#CF804B" d="M83.755 58.275c-.005 5.675 4.592 10.28 10.268 10.285l.01-13.162-10.276-.009-.002 2.886z"/>
            <path fill="#F2A572" d="M93.176 22.467c-7.916.031-14.308 6.473-14.277 14.39l.051 12.884c.031 7.916 12.483 14.275 17.615 14.28 2.342.002 11.043-4.997 11.052-15.199l-.05-12.078c-.033-7.916-6.475-14.308-14.39-14.277"/>
            <path fill="#CF804B" d="M100.702 49.191c-.406 0-.735.33-.736.735 0 .453-.338.822-.752.822h-.842c-.406 0-.736.328-.736.734 0 .406.328.735.734.736l.842.001c1.226.001 2.224-1.027 2.225-2.292 0-.406-.33-.736-.735-.736"/>
            <path fill="#252733" d="M78.891 46.645c1.422 0 2.575-1.15 2.576-2.572l.01-11.595-3.027-.003.441 14.17z"/>
            <path fill="#F2A572" d="M76.81 40.767l-.472.001c-1.258.004-2.276 1.027-2.272 2.286l.015 5.205c.004 1.597 1.303 2.89 2.9 2.884l2.138-.006-.023-8.098c-.004-1.258-1.027-2.275-2.286-2.272"/>
            <path fill="#332938" d="M104.065 43.122c-.567 0-1.027.631-1.028 1.411-.001.78.458 1.413 1.026 1.413.566.001 1.026-.63 1.027-1.41 0-.78-.458-1.414-1.025-1.414M93.435 43.195c-.534 0-.967.595-.968 1.33-.001.734.432 1.33.966 1.331.534 0 .968-.595.968-1.33 0-.735-.432-1.33-.966-1.33"/>
            <path fill="#252733" d="M95.476 19.377C83.832 8.155 72.169 33.431 79.883 36.311c0 0 27.237-5.712 15.593-16.934"/>
            <path fill="#252733" d="M97.126 21.059s4.2 11.99 10.93 14.29c4.748 1.623-7.903-20.092-10.93-14.29"/>
            <path fill="#F9D4A1" d="M76.936 49.645c-.828-.001-1.499.669-1.5 1.498 0 .827.67 1.499 1.498 1.499s1.5-.67 1.5-1.497c0-.828-.67-1.5-1.498-1.5"/>
            <path fill="#252733" d="M101.258 40.336c-.233 0-.479-.263-.599-.482-.317-.581-.047-1.063.265-1.215.158-.076 3.935-1.491 7.143-.543.333.098.524.448.425.782-.098.333-.448.524-.782.425-2.747-.81-6.103.938-6.137.954-.088.043-.223.079-.315.079M96.957 40.332c-.097 0-.766-.3-.858-.347-.05-.025-4.36-2.38-8.16-.725-.32.138-.69-.008-.828-.326-.14-.32.007-.69.325-.83 4.357-1.895 9.741.343 9.963.458.544.23.469.936.308 1.244-.111.216-.298.526-.75.526M81.47 40.544s-.17-4.097 2.304-5.247c2.476-1.15-.357-2.324-.503-2.373-.147-.05-2.59 1.61-2.59 1.61l.79 6.01zM79.477 31.755c-.005 5.899-4.791 10.677-10.69 10.67-5.9-.003-10.677-4.79-10.671-10.688.005-5.9 4.79-10.677 10.69-10.672 5.898.005 10.676 4.79 10.67 10.69"/>
            <path fill="#FFF" d="M98.863 57.326c-2.158-.002-4.229-1.232-4.228-2.896l8.288-.079c-.002 1.663-2.397 2.976-4.06 2.975"/>
            <path fill="#CE624F" d="M104.51 48.423c1.104.001 2 .318 1.999.708 0 .39-.896.705-2 .704-1.104 0-2-.318-2-.708 0-.39.897-.705 2-.704M92.463 48.413c1.104 0 2 .318 1.999.708 0 .389-.896.705-2 .704-1.104-.001-2-.318-2-.708 0-.39.897-.705 2-.704"/>
            <path fill="#3BB0D9" d="M70.18 73.155s3.104 9.805 17.53 9.407c2.31-.063 4.607-.612 6.635-1.72 2.423-1.326 5.077-3.697 5.997-7.885 0 0 3.963.242 5.613 1.633l2.283 44.106-47.747-.04 5.222-44.172 4.468-1.329z"/>
            <path fill="#3BB0D9" d="M100.38 72.957c.41.064 10.344-.059 11.996 9.33l-1.843 36.41-3.784-.003-4.03-41.152-2.338-4.585zM69.96 73.39s-10.481.781-13.004 8.819c-1.144 3.64-4.698 36.438-4.698 36.438l10.014.01L69.96 73.39z"/>
            <path fill="#39B3DA" d="M97.742 118.771c5.857 2.874 11.018 2.938 15.288 1.208.212-.085-1.43-38.569-1.43-38.569l-8.667-.72c-2.83-.235-5.171 2.17-4.863 4.992l2.26 20.666L75.304 96.22l-3.7 5.912"/>
            <path fill="#39B3DA" d="M56.866 82.686l8.67-.714c2.83-.234 5.17 2.172 4.86 4.994L68.12 107.63l25.035-10.114 3.696 5.914s-15.137 11.23-26.149 16.625c-5.859 2.87-14.454 3.397-18.722 1.666-.212-.086 4.885-39.036 4.885-39.036"/>
            <path fill="#CF804B" d="M98.763 91.086s5.743-2.404 6.458-2.812c0 0 .71 1.018-.398 1.824-1.109.805-2.559 1.407-2.559 1.407l-3.5-.42z"/>
            <path fill="#CF804B" d="M91.177 95.356s4.76-2.862 6.907-3.96c1.678-.858 2.61-.77 4.362-.18.491.166.885-.353 1.54-.118 2.338.837 2.392 7.036 1.592 7.806-.799.77-1.364.913-1.364.913s-3.184 1.212-6.173.453c-2.43-.056-3.434 1.279-3.434 1.279l-3.43-6.193z"/>
            <path fill="#2B99CE" d="M67.238 85.932L66.402 108.821 69.856 106.833z"/>
            <path fill="#FFF" d="M92.492 47.249l-13.83-6.57c-.21-.056-.406.019-.464.227l-.02.05c-.053.187.04.384.219.46l13.288 8.123c.616.272 1.334-.008 1.606-.623.27-.615-.008-1.334-.623-1.605l-.176-.062zM89.321 56.575l-10.425-5.372c-.204-.085-.438.011-.523.215-.068.163-.02.351.115.463l9.551 6.768c.481.469 1.25.459 1.72-.022.468-.481.458-1.25-.023-1.719-.082-.08-.176-.148-.277-.203l-.138-.13z"/>
            <path fill="#BDE5EC" d="M107.616 47.29l-16.53-.335-5.493 12.816 7.999 4.39 7.562 2.471c4.684-1.978 7.505-6.805 6.929-11.857l-.467-7.485z"/>
            <path fill="#FFF" d="M107.639 53.713L95.989 51.281 107.036 56.225zM105.418 62.926L95.043 55.96 103.031 64.384z"/>
            <path fill="#FFE981" d="M255.45 69.084s-14.201-.86-19.951 17.39l-19.952 83.148 11.128 3.644 4.148-6.538 24.627-97.644z"/>
            <path fill="#F9B35C" d="M229.417 168.942s-3.859-21.05 7.874-72.898c3.448-15.237 4.893-.87 4.893-.87l2.98 31.976-15.747 41.792z"/>
            <path fill="#FFE981" d="M285.576 67.93s-8.383 11.071-23.484 1.035c0 0-19.296-1.642-22.149 10.299-2.853 11.94-14.386 126.53-14.386 126.53l76.558 3.175.023-134.024s-.579-3.516-16.562-7.015"/>
            <path fill="#F9B35C" d="M291.388 87.198l-3.93 2.428s4.34 42.718 8.478 49.548c4.14 6.83 8.858 1.561 8.463-3.782-.395-5.34-13.01-48.194-13.01-48.194"/>
            <path fill="#FFE981" d="M295.327 70.94s11.995.47 14.94 24.025c2.946 23.557 5.556 41.15 5.556 41.15s3.358 9.684-5.556 12.501-52.128 17.271-52.128 17.271l-3.545-10.982 43.247-19.513-9.467-40.427s-5.422-21.143 6.953-24.026"/>
            <path fill="#FFF1AD" d="M285.576 67.93s-4.684 5.873-12.253 5.499c-7.752-.383-9.53-2.504-11.23-4.464l-2.865-.208s.73 5.215 7.362 6.677c6.633 1.462 12.344 1.577 15.934-1.142s6.128-5.643 6.128-5.643l-3.076-.719z"/>
            <path fill="#FFF1AD" d="M262.3 105.21c1.812-14.258 5.925-29.162 5.966-29.31l-3.352-.932c-.044.152-4.222 15.3-6.065 29.802l3.45.44z"/>
            <path fill="#252733" d="M281.898 24.748c8.242.597 10.03 9.029 9.573 13.05-.25 2.213-2.336 6.766-6.098 6.493-3.762-.272-6.527-4.423-6.176-9.27.351-4.848-1.06-10.546 2.701-10.273"/>
            <path fill="#CF804B" d="M285.261 68.819s-4.375 5.847-12.55 5.255c-8.176-.593-10.533-4.855-10.533-4.855l1.218-16.8 22.175 1.608-.31 14.792z"/>
            <path fill="#332938" d="M266.945 67.474l-4.616-.335.736-10.153 14.77 1.07c-.407 5.608-5.283 9.823-10.89 9.418"/>
            <path fill="#CF804B" d="M263.069 23.925c2.79-2.42 6.51-3.766 10.477-3.479l.657.048c7.943.576 13.92 7.486 13.344 15.43l-.45 6.204-.665-.049-1.204 16.615s-8.241 5.98-19.343 4.06c-5.533-.964-9.425-5.993-9.02-11.594l1.26-17.369c.152-2.103.75-4.067 1.688-5.802.835-1.554 1.943-2.928 3.256-4.064"/>
            <path fill="#332938" d="M261.884 48.703c.28.021.491.264.471.544-.023.315.192.586.478.606l1.597.116c.281.02.492.264.472.545-.02.28-.265.491-.545.471l-1.598-.115c-.846-.063-1.483-.822-1.42-1.695.021-.281.265-.492.545-.471M269.895 42.914c.891.064 1.555.916 1.483 1.9-.071.986-.851 1.732-1.742 1.668-.891-.065-1.555-.916-1.484-1.901.072-.985.852-1.731 1.743-1.667M259.61 42.168c.715.052 1.238.893 1.166 1.878-.07.985-.709 1.742-1.426 1.69-.716-.052-1.239-.893-1.167-1.878.071-.985.71-1.742 1.426-1.69"/>
            <path fill="#DA806E" d="M268.211 57.74c-.082 1.134-1.067 1.986-2.2 1.904l-4.667-.34c-1.133-.081-1.985-1.065-1.903-2.198l.281-3.865 8.77.636-.28 3.864z"/>
            <path fill="#FFF" d="M263.477 58.223c-2.371-.172-3.712-1.355-3.541-3.727l8.587.623c-.172 2.371-2.675 3.276-5.046 3.104"/>
            <path fill="#252733" d="M273.54 20.061l.679.05c3.781.273 7.126 1.935 9.582 4.45 2.334 2.396 3.859 5.565 4.168 9.048.078.793.085 1.606.025 2.43l-.464 6.4-.689-.05-.24 3.318-4.974-.36.114-1.568c.197-2.729-1.046-5.426-3.38-6.859-1.037-.637-1.846-1.719-1.713-3.56l.004-.045c.12-1.656-.739-3.157-2.087-3.937-.529-.309-1.142-.504-1.796-.55-5.202-.384-13.403-.983-13.403-.983.863-1.602 2.008-3.019 3.362-4.195 2.88-2.499 6.722-3.885 10.812-3.589"/>
            <path fill="#CF804B" d="M287.597 40.745c1.74.127 3.048 1.64 2.922 3.379l-.472 6.51c-.126 1.74-1.639 3.048-3.379 2.922l-3.186-.23.698-9.624c.127-1.76 1.657-3.084 3.417-2.956"/>
            <path fill="#332938" d="M274.16 39.361c1.639.572 1.415 2.522 1.415 2.522s-.478-.714-2.578-.78c-2.72-.087-7.147-.253-7.147-.253l.165-2.277s6.507.216 8.145.788M265.854 40.787L265.322 38.519 265.866 38.559zM262.047 38.41l-.166 2.285s-2.222-.186-4.217-.419l.158-2.186c1.895.117 4.225.32 4.225.32M262.735 38.464L261.889 40.629 262.308 38.433zM270.402 55.064l-.067.925-6.86-1.414.178-2.453 5.792 1.59c.602.164 1.002.731.957 1.352M259.046 52.756l3.49-.715-.178 2.453-4.42.385.068-.939c.042-.583.467-1.067 1.04-1.184"/>
            <path fill="#252733" d="M275.71 28.547s-3.248-.154-5.363 1.71c-2.116 1.865-10.714 6.85-15.9 5.637 0 0-4.758-9.005 4.165-15.224 8.924-6.22 21.896-7.12 25.189 3.892 3.446 5.03-8.091 3.985-8.091 3.985"/>
            <path fill="#3BB0D9" d="M284.013 50.867s-4.537 8.947-10.115 11.06c-5.579 2.114-13.37.267-15.76-4.173-2.388-4.442-1.027-8.003-1.027-8.003s1.964-1.895 4.21-2.692c2.246-.798 5.58.854 9.048 1.714s9.684-4.024 9.763-3.893c.08.133 1.385-1.889 1.385-1.889s-1.086 4.606-10.005 7.102c0 0 .83 6.081 2.857 7.564l1.734.938s6.673-5.771 7.695-8.423l.215.696z"/>
            <path fill="#D6D9BF" d="M227 81.105c0 26.51-21.49 48-48 48s-48-21.49-48-48 21.49-48 48-48 48 21.49 48 48"/>
            <path stroke="#F0F2DF" stroke-width="2" d="M227 81.105c0 26.51-21.49 48-48 48s-48-21.49-48-48 21.49-48 48-48 48 21.49 48 48z"/>
            <path fill="#39B3DA" d="M186.87 97.939h16.484c.98 0 1.783-.802 1.783-1.782V64.925l-4.455-6.638h-11.14l-4.454 6.638v31.232c0 .98.802 1.782 1.782 1.782"/>
            <path stroke="#2BC8D8" stroke-width="3" d="M196.671 52.05L181.968 52.05 177.067 56.951"/>
            <mask id="prefix__b" fill="#fff">
                <use xlink:href="#prefix__a"/>
            </mask>
            <path fill="#FFF" d="M185.087 90.365L201.126 90.365 201.126 71.653 185.087 71.653z" mask="url(#prefix__b)"/>
            <path fill="#2652E4" d="M190.879 58.287L199.79 58.287 199.79 55.168 190.879 55.168zM192.662 55.168L198.008 55.168 198.008 48.485 192.662 48.485z" mask="url(#prefix__b)"/>
            <path stroke="#E44450" stroke-width="3" d="M185.087 81.009L197.562 81.009M191.325 87.246L191.325 74.771" mask="url(#prefix__b)"/>
            <path stroke="#FFF" stroke-linecap="round" stroke-width="2" d="M186.87 64.97L201.127 64.97" mask="url(#prefix__b)"/>
            <path fill="#FFF" d="M164.14 69.745c.151-1.59.53-4.392.227-5.603-.15-.907-1.893-1.816-2.498.53-.303 1.06 0-.227-.303 4.543.606-.606 1.817-.681 2.574.53M175.571 72.697c-.833.15-3.18 4.693-3.558 4.769-.227-.076 1.135-2.876 1.968-4.693.38-.681.606-1.287.757-1.514.378-.757 2.877-5.602 2.12-6.965-.682-1.363-1.817-.53-2.423.53-.53 1.06-3.558 7.343-3.634 7.343-.15-.075.985-4.77 2.5-8.403 0 0 .832-2.346-.53-2.573-1.364-.227-2.348 1.438-2.65 2.876-.303 1.287-2.272 6.586-2.499 6.662-1.514.68 2.574-8.554.984-9.917-2.195-1.892-2.952 2.877-3.709 6.207-.303 1.439-.53 2.347-.68 2.953 1.286 2.422.604 5.98.15 8.705-.454 2.423-.379 2.953-2.12 6.359-.984 1.969-1.286 1.742.076 8.252.682.605.682 1.513.151 2.195v.076h-.075c-.152.075-.227.227-.379.303 1.363.302 2.725.605 3.861.15 0 0 .303-.15.378-.378.076-.227.152-.454-.15-.833 0 0 .983-5.752 1.74-6.812.757-1.06 3.558-2.801 4.996-5.148 1.212-1.968 2.726-4.164 3.407-6.132.152-.378.227-.681.303-1.06.378-2.347-.076-3.103-.984-2.952" mask="url(#prefix__b)"/>
            <path fill="#FFF" d="M161.718 93.666s-1.211-5.678-.984-6.964c.303-1.287 2.27-3.937 2.65-6.662.378-2.271.983-4.845.832-6.965-.076-1.513-.681-4.163-2.044-3.406-.757.454-1.135 5.526-1.514 5.753-.833.15 1.438-12.415-.454-14.005-1.135-.984-1.893.228-2.044 1.438-.151 1.212-.53 8.1-.606 8.176-.151 0-.908-4.77-.832-8.705 0 0-.076-2.498-1.44-2.196-1.361.303-1.664 2.27-1.437 3.634.227 1.287.379 6.965.227 7.116-1.211 1.21-.833-8.933-2.801-9.614-2.725-.91-1.665 3.558-1.06 7.116.455 2.498.682 3.709.606 3.86 0 .076-1.59-5.374-2.195-6.358-.454-.758-2.423-.91-2.12 1.438.303 2.423 1.74 8.403 2.952 11.809 1.212 3.558 3.256 6.813 3.483 8.782.227 1.892.68 6.434.68 6.586-.075.075-.453.378-.075 1.06.909 1.665 8.554.378 8.706-1.212-.076-.227-.152-.454-.53-.681" mask="url(#prefix__b)"/>
        </g>
    </g>
</svg>
