<svg xmlns="http://www.w3.org/2000/svg" width="24" height="25" viewBox="0 0 24 25">
    <path fill="#43D" d="M15.99 17.41l-7.042-4.167c.05-.231.089-.462.089-.703 0-.24-.04-.472-.089-.703l6.963-4.126c.533.502 1.235.813 2.015.813 1.64 0 2.963-1.345 2.963-3.012S19.565 2.5 17.926 2.5c-1.64 0-2.963 1.345-2.963 3.012 0 .241.04.472.089.703L8.089 10.34c-.533-.502-1.235-.813-2.015-.813-1.64 0-2.963 1.345-2.963 3.012s1.324 3.012 2.963 3.012c.78 0 1.482-.311 2.015-.813l7.032 4.177c-.05.21-.079.431-.079.652 0 1.617 1.294 2.932 2.884 2.932 1.59 0 2.884-1.315 2.884-2.932 0-1.616-1.294-2.931-2.884-2.931-.75 0-1.422.3-1.936.773z"/>
</svg>
