<svg xmlns="http://www.w3.org/2000/svg" width="25" height="24" viewBox="0 0 25 24">
    <path fill="#FFF" d="M5.794 1c.69 0 1.252.562 1.252 1.251 0 .646-.495 1.18-1.124 1.245l-.066.003v3.864c0 2.631 2.03 4.807 4.59 5.031l.22.015.217.004c2.694 0 4.907-2.135 5.021-4.808l.005-.218V3.523l-.065-.003c-.546-.056-.99-.465-1.098-.994l-.02-.124-.006-.127c0-.646.494-1.18 1.124-1.245l.127-.006h1.665c.142 0 .26.098.292.231l.008.069v6.04c0 3.382-2.4 6.243-5.625 6.897l-.237.044-.199.029.002.102c.097 2.158 1.576 4 3.605 4.608l.22.06.197.045.04-.091c.392-.823 1.185-1.405 2.107-1.53l.186-.02.188-.006c1.521 0 2.75 1.228 2.75 2.749 0 1.52-1.229 2.749-2.75 2.749-1.076 0-2.023-.61-2.478-1.531l-.076-.166-.053-.14-.044-.005c-3.222-.504-5.682-3.2-5.906-6.46l-.013-.245-.003-.144-.212-.033c-3.155-.556-5.563-3.222-5.788-6.443l-.013-.249-.004-.244V1.3c0-.142.099-.261.231-.292L4.13 1h1.664z"/>
</svg>
